{
  "notes_by_tick": {
    "0": [
      {
        "start_tick": 0,
        "start_time": 0.0,
        "end_tick": 192,
        "end_time": 1.9199999999999997,
        "length_ticks": 192,
        "length_time": 1.9199999999999997,
        "note": 33,
        "velocity": 127,
        "slice": 0,
        "channel": 0
      },
      {
        "start_tick": 0,
        "start_time": 0.0,
        "end_tick": 192,
        "end_time": 1.9199999999999997,
        "length_ticks": 192,
        "length_time": 1.9199999999999997,
        "note": 61,
        "velocity": 100,
        "slice": 0,
        "channel": 1
      },
      {
        "start_tick": 0,
        "start_time": 0.0,
        "end_tick": 192,
        "end_time": 1.9199999999999997,
        "length_ticks": 192,
        "length_time": 1.9199999999999997,
        "note": 52,
        "velocity": 100,
        "slice": 0,
        "channel": 1
      }
    ],
    "48": [
      {
        "start_tick": 48,
        "start_time": 0.8,
        "end_tick": 96,
        "end_time": 0.9599999999999999,
        "length_ticks": 48,
        "length_time": 0.1599999999999998,
        "note": 64,
        "velocity": 100,
        "slice": 5,
        "channel": 4
      }
    ],
    "192": [
      {
        "start_tick": 192,
        "start_time": 1.9199999999999997,
        "end_tick": 384,
        "end_time": 3.8399999999999994,
        "length_ticks": 192,
        "length_time": 1.9199999999999997,
        "note": 31,
        "velocity": 127,
        "slice": 12,
        "channel": 0
      },
      {
        "start_tick": 192,
        "start_time": 1.9199999999999997,
        "end_tick": 384,
        "end_time": 3.8399999999999994,
        "length_ticks": 192,
        "length_time": 1.9199999999999997,
        "note": 53,
        "velocity": 100,
        "slice": 12,
        "channel": 1
      },
      {
        "start_tick": 192,
        "start_time": 1.9199999999999997,
        "end_tick": 384,
        "end_time": 3.8399999999999994,
        "length_ticks": 192,
        "length_time": 1.9199999999999997,
        "note": 62,
        "velocity": 100,
        "slice": 12,
        "channel": 1
      }
    ],
    "240": [
      {
        "start_tick": 240,
        "start_time": 2.7199999999999998,
        "end_tick": 288,
        "end_time": 2.88,
        "length_ticks": 48,
        "length_time": 0.16000000000000014,
        "note": 57,
        "velocity": 100,
        "slice": 17,
        "channel": 2
      },
      {
        "start_tick": 240,
        "start_time": 2.7199999999999998,
        "end_tick": 288,
        "end_time": 2.88,
        "length_ticks": 48,
        "length_time": 0.16000000000000014,
        "note": 60,
        "velocity": 100,
        "slice": 17,
        "channel": 4
      }
    ],
    "288": [
      {
        "start_tick": 288,
        "start_time": 2.88,
        "end_tick": 336,
        "end_time": 3.36,
        "length_ticks": 48,
        "length_time": 0.48,
        "note": 64,
        "velocity": 100,
        "slice": 18,
        "channel": 2
      },
      {
        "start_tick": 288,
        "start_time": 2.88,
        "end_tick": 336,
        "end_time": 3.36,
        "length_ticks": 48,
        "length_time": 0.48,
        "note": 64,
        "velocity": 100,
        "slice": 18,
        "channel": 4
      }
    ],
    "336": [
      {
        "start_tick": 336,
        "start_time": 3.36,
        "end_tick": 384,
        "end_time": 3.8399999999999994,
        "length_ticks": 48,
        "length_time": 0.47999999999999954,
        "note": 62,
        "velocity": 100,
        "slice": 21,
        "channel": 2
      },
      {
        "start_tick": 336,
        "start_time": 3.36,
        "end_tick": 384,
        "end_time": 3.8399999999999994,
        "length_ticks": 48,
        "length_time": 0.47999999999999954,
        "note": 59,
        "velocity": 100,
        "slice": 21,
        "channel": 2
      },
      {
        "start_tick": 336,
        "start_time": 3.36,
        "end_tick": 384,
        "end_time": 3.8399999999999994,
        "length_ticks": 48,
        "length_time": 0.47999999999999954,
        "note": 62,
        "velocity": 100,
        "slice": 21,
        "channel": 4
      }
    ],
    "384": [
      {
        "start_tick": 384,
        "start_time": 3.8399999999999994,
        "end_tick": 528,
        "end_time": 5.4,
        "length_ticks": 144,
        "length_time": 1.560000000000001,
        "note": 52,
        "velocity": 100,
        "slice": 24,
        "channel": 1
      },
      {
        "start_tick": 384,
        "start_time": 3.8399999999999994,
        "end_tick": 528,
        "end_time": 5.4,
        "length_ticks": 144,
        "length_time": 1.560000000000001,
        "note": 61,
        "velocity": 100,
        "slice": 24,
        "channel": 1
      },
      {
        "start_tick": 384,
        "start_time": 3.8399999999999994,
        "end_tick": 720,
        "end_time": 7.2,
        "length_ticks": 336,
        "length_time": 3.3600000000000008,
        "note": 69,
        "velocity": 100,
        "slice": 24,
        "channel": 4
      },
      {
        "start_tick": 384,
        "start_time": 3.8399999999999994,
        "end_tick": 720,
        "end_time": 7.2,
        "length_ticks": 336,
        "length_time": 3.3600000000000008,
        "note": 69,
        "velocity": 100,
        "slice": 24,
        "channel": 3
      },
      {
        "start_tick": 384,
        "start_time": 3.8399999999999994,
        "end_tick": 720,
        "end_time": 7.2,
        "length_ticks": 336,
        "length_time": 3.3600000000000008,
        "note": 61,
        "velocity": 100,
        "slice": 24,
        "channel": 3
      }
    ],
    "528": [
      {
        "start_tick": 528,
        "start_time": 5.4399999999999995,
        "end_tick": 576,
        "end_time": 5.76,
        "length_ticks": 48,
        "length_time": 0.3200000000000003,
        "note": 54,
        "velocity": 100,
        "slice": 34,
        "channel": 1
      },
      {
        "start_tick": 528,
        "start_time": 5.4399999999999995,
        "end_tick": 576,
        "end_time": 5.76,
        "length_ticks": 48,
        "length_time": 0.3200000000000003,
        "note": 62,
        "velocity": 100,
        "slice": 34,
        "channel": 1
      }
    ],
    "576": [
      {
        "start_tick": 576,
        "start_time": 5.76,
        "end_tick": 720,
        "end_time": 7.2,
        "length_ticks": 144,
        "length_time": 1.4400000000000004,
        "note": 55,
        "velocity": 100,
        "slice": 36,
        "channel": 1
      },
      {
        "start_tick": 576,
        "start_time": 5.76,
        "end_tick": 720,
        "end_time": 7.2,
        "length_ticks": 144,
        "length_time": 1.4400000000000004,
        "note": 64,
        "velocity": 100,
        "slice": 36,
        "channel": 1
      }
    ],
    "672": [
      {
        "start_tick": 672,
        "start_time": 6.72,
        "end_tick": 720,
        "end_time": 7.2,
        "length_ticks": 48,
        "length_time": 0.4800000000000004,
        "note": 81,
        "velocity": 100,
        "slice": 42,
        "channel": 2
      }
    ],
    "768": [
      {
        "start_tick": 768,
        "start_time": 7.679999999999999,
        "end_tick": 816,
        "end_time": 8.4,
        "length_ticks": 48,
        "length_time": 0.7200000000000015,
        "note": 73,
        "velocity": 100,
        "slice": 48,
        "channel": 1
      },
      {
        "start_tick": 768,
        "start_time": 7.679999999999999,
        "end_tick": 816,
        "end_time": 8.4,
        "length_ticks": 48,
        "length_time": 0.7200000000000015,
        "note": 61,
        "velocity": 100,
        "slice": 48,
        "channel": 2
      },
      {
        "start_tick": 768,
        "start_time": 7.679999999999999,
        "end_tick": 960,
        "end_time": 9.6,
        "length_ticks": 192,
        "length_time": 1.9200000000000008,
        "note": 69,
        "velocity": 100,
        "slice": 48,
        "channel": 3
      }
    ],
    "816": [
      {
        "start_tick": 816,
        "start_time": 8.4,
        "end_tick": 864,
        "end_time": 8.639999999999999,
        "length_ticks": 48,
        "length_time": 0.23999999999999844,
        "note": 74,
        "velocity": 100,
        "slice": 52,
        "channel": 1
      },
      {
        "start_tick": 816,
        "start_time": 8.4,
        "end_tick": 864,
        "end_time": 8.639999999999999,
        "length_ticks": 48,
        "length_time": 0.23999999999999844,
        "note": 62,
        "velocity": 100,
        "slice": 52,
        "channel": 2
      }
    ],
    "864": [
      {
        "start_tick": 864,
        "start_time": 8.639999999999999,
        "end_tick": 912,
        "end_time": 9.360000000000001,
        "length_ticks": 48,
        "length_time": 0.7200000000000024,
        "note": 45,
        "velocity": 127,
        "slice": 54,
        "channel": 0
      },
      {
        "start_tick": 864,
        "start_time": 8.639999999999999,
        "end_tick": 960,
        "end_time": 9.6,
        "length_ticks": 96,
        "length_time": 0.9600000000000009,
        "note": 76,
        "velocity": 100,
        "slice": 54,
        "channel": 1
      },
      {
        "start_tick": 864,
        "start_time": 8.639999999999999,
        "end_tick": 960,
        "end_time": 9.6,
        "length_ticks": 96,
        "length_time": 0.9600000000000009,
        "note": 64,
        "velocity": 100,
        "slice": 54,
        "channel": 2
      }
    ],
    "960": [
      {
        "start_tick": 960,
        "start_time": 9.6,
        "end_tick": 1008,
        "end_time": 10.319999999999999,
        "length_ticks": 48,
        "length_time": 0.7199999999999989,
        "note": 79,
        "velocity": 100,
        "slice": 60,
        "channel": 1
      },
      {
        "start_tick": 960,
        "start_time": 9.6,
        "end_tick": 1008,
        "end_time": 10.319999999999999,
        "length_ticks": 48,
        "length_time": 0.7199999999999989,
        "note": 67,
        "velocity": 100,
        "slice": 60,
        "channel": 2
      },
      {
        "start_tick": 960,
        "start_time": 9.6,
        "end_tick": 1152,
        "end_time": 11.52,
        "length_ticks": 192,
        "length_time": 1.92,
        "note": 65,
        "velocity": 100,
        "slice": 60,
        "channel": 3
      }
    ],
    "1008": [
      {
        "start_tick": 1008,
        "start_time": 10.44,
        "end_tick": 1056,
        "end_time": 10.56,
        "length_ticks": 48,
        "length_time": 0.120000000000001,
        "note": 72,
        "velocity": 100,
        "slice": 65,
        "channel": 1
      },
      {
        "start_tick": 1008,
        "start_time": 10.44,
        "end_tick": 1056,
        "end_time": 10.56,
        "length_ticks": 48,
        "length_time": 0.120000000000001,
        "note": 60,
        "velocity": 100,
        "slice": 65,
        "channel": 2
      }
    ],
    "1056": [
      {
        "start_tick": 1056,
        "start_time": 10.56,
        "end_tick": 1104,
        "end_time": 11.28,
        "length_ticks": 48,
        "length_time": 0.7199999999999989,
        "note": 41,
        "velocity": 127,
        "slice": 66,
        "channel": 0
      },
      {
        "start_tick": 1056,
        "start_time": 10.56,
        "end_tick": 1152,
        "end_time": 11.52,
        "length_ticks": 96,
        "length_time": 0.9599999999999991,
        "note": 69,
        "velocity": 100,
        "slice": 66,
        "channel": 1
      },
      {
        "start_tick": 1056,
        "start_time": 10.56,
        "end_tick": 1152,
        "end_time": 11.52,
        "length_ticks": 96,
        "length_time": 0.9599999999999991,
        "note": 57,
        "velocity": 100,
        "slice": 66,
        "channel": 2
      }
    ],
    "1152": [
      {
        "start_tick": 1152,
        "start_time": 11.52,
        "end_tick": 1200,
        "end_time": 12.24,
        "length_ticks": 48,
        "length_time": 0.7200000000000006,
        "note": 76,
        "velocity": 100,
        "slice": 72,
        "channel": 1
      },
      {
        "start_tick": 1152,
        "start_time": 11.52,
        "end_tick": 1200,
        "end_time": 12.24,
        "length_ticks": 48,
        "length_time": 0.7200000000000006,
        "note": 64,
        "velocity": 100,
        "slice": 72,
        "channel": 2
      },
      {
        "start_tick": 1152,
        "start_time": 11.52,
        "end_tick": 1344,
        "end_time": 13.44,
        "length_ticks": 192,
        "length_time": 1.92,
        "note": 67,
        "velocity": 100,
        "slice": 72,
        "channel": 3
      }
    ],
    "1200": [
      {
        "start_tick": 1200,
        "start_time": 12.360000000000001,
        "end_tick": 1248,
        "end_time": 12.479999999999999,
        "length_ticks": 48,
        "length_time": 0.11999999999999744,
        "note": 72,
        "velocity": 100,
        "slice": 77,
        "channel": 1
      },
      {
        "start_tick": 1200,
        "start_time": 12.360000000000001,
        "end_tick": 1248,
        "end_time": 12.479999999999999,
        "length_ticks": 48,
        "length_time": 0.11999999999999744,
        "note": 60,
        "velocity": 100,
        "slice": 77,
        "channel": 2
      }
    ],
    "1248": [
      {
        "start_tick": 1248,
        "start_time": 12.479999999999999,
        "end_tick": 1296,
        "end_time": 13.2,
        "length_ticks": 48,
        "length_time": 0.7200000000000006,
        "note": 43,
        "velocity": 127,
        "slice": 78,
        "channel": 0
      },
      {
        "start_tick": 1248,
        "start_time": 12.479999999999999,
        "end_tick": 1344,
        "end_time": 13.44,
        "length_ticks": 96,
        "length_time": 0.9600000000000009,
        "note": 71,
        "velocity": 100,
        "slice": 78,
        "channel": 1
      },
      {
        "start_tick": 1248,
        "start_time": 12.479999999999999,
        "end_tick": 1344,
        "end_time": 13.44,
        "length_ticks": 96,
        "length_time": 0.9600000000000009,
        "note": 59,
        "velocity": 100,
        "slice": 78,
        "channel": 2
      }
    ],
    "1344": [
      {
        "start_tick": 1344,
        "start_time": 13.44,
        "end_tick": 1392,
        "end_time": 14.16,
        "length_ticks": 48,
        "length_time": 0.7200000000000006,
        "note": 73,
        "velocity": 100,
        "slice": 84,
        "channel": 1
      },
      {
        "start_tick": 1344,
        "start_time": 13.44,
        "end_tick": 1392,
        "end_time": 14.16,
        "length_ticks": 48,
        "length_time": 0.7200000000000006,
        "note": 61,
        "velocity": 100,
        "slice": 84,
        "channel": 2
      }
    ],
    "1392": [
      {
        "start_tick": 1392,
        "start_time": 14.16,
        "end_tick": 1440,
        "end_time": 14.4,
        "length_ticks": 48,
        "length_time": 0.2400000000000002,
        "note": 74,
        "velocity": 100,
        "slice": 88,
        "channel": 1
      },
      {
        "start_tick": 1392,
        "start_time": 14.16,
        "end_tick": 1440,
        "end_time": 14.4,
        "length_ticks": 48,
        "length_time": 0.2400000000000002,
        "note": 62,
        "velocity": 100,
        "slice": 88,
        "channel": 2
      }
    ],
    "1440": [
      {
        "start_tick": 1440,
        "start_time": 14.639999999999999,
        "end_tick": 1488,
        "end_time": 14.879999999999999,
        "length_ticks": 48,
        "length_time": 0.2400000000000002,
        "note": 40,
        "velocity": 127,
        "slice": 91,
        "channel": 0
      },
      {
        "start_tick": 1440,
        "start_time": 14.4,
        "end_tick": 1536,
        "end_time": 15.359999999999998,
        "length_ticks": 96,
        "length_time": 0.9599999999999973,
        "note": 76,
        "velocity": 100,
        "slice": 90,
        "channel": 1
      },
      {
        "start_tick": 1440,
        "start_time": 14.4,
        "end_tick": 1536,
        "end_time": 15.359999999999998,
        "length_ticks": 96,
        "length_time": 0.9599999999999973,
        "note": 64,
        "velocity": 100,
        "slice": 90,
        "channel": 2
      }
    ],
    "1536": [
      {
        "start_tick": 1536,
        "start_time": 15.359999999999998,
        "end_tick": 1584,
        "end_time": 16.08,
        "length_ticks": 48,
        "length_time": 0.7200000000000006,
        "note": 73,
        "velocity": 100,
        "slice": 96,
        "channel": 1
      },
      {
        "start_tick": 1536,
        "start_time": 15.359999999999998,
        "end_tick": 1584,
        "end_time": 16.08,
        "length_ticks": 48,
        "length_time": 0.7200000000000006,
        "note": 61,
        "velocity": 100,
        "slice": 96,
        "channel": 2
      },
      {
        "start_tick": 1536,
        "start_time": 15.359999999999998,
        "end_tick": 1728,
        "end_time": 17.279999999999998,
        "length_ticks": 192,
        "length_time": 1.92,
        "note": 64,
        "velocity": 100,
        "slice": 96,
        "channel": 3
      }
    ],
    "1584": [
      {
        "start_tick": 1584,
        "start_time": 16.08,
        "end_tick": 1632,
        "end_time": 16.32,
        "length_ticks": 48,
        "length_time": 0.240000000000002,
        "note": 74,
        "velocity": 100,
        "slice": 100,
        "channel": 1
      },
      {
        "start_tick": 1584,
        "start_time": 16.08,
        "end_tick": 1632,
        "end_time": 16.32,
        "length_ticks": 48,
        "length_time": 0.240000000000002,
        "note": 62,
        "velocity": 100,
        "slice": 100,
        "channel": 2
      }
    ],
    "1632": [
      {
        "start_tick": 1632,
        "start_time": 16.32,
        "end_tick": 1680,
        "end_time": 17.04,
        "length_ticks": 48,
        "length_time": 0.7199999999999989,
        "note": 45,
        "velocity": 127,
        "slice": 102,
        "channel": 0
      },
      {
        "start_tick": 1632,
        "start_time": 16.32,
        "end_tick": 1728,
        "end_time": 17.279999999999998,
        "length_ticks": 96,
        "length_time": 0.9599999999999973,
        "note": 76,
        "velocity": 100,
        "slice": 102,
        "channel": 1
      },
      {
        "start_tick": 1632,
        "start_time": 16.32,
        "end_tick": 1728,
        "end_time": 17.279999999999998,
        "length_ticks": 96,
        "length_time": 0.9599999999999973,
        "note": 64,
        "velocity": 100,
        "slice": 102,
        "channel": 2
      }
    ],
    "1728": [
      {
        "start_tick": 1728,
        "start_time": 17.279999999999998,
        "end_tick": 1776,
        "end_time": 18.0,
        "length_ticks": 48,
        "length_time": 0.7200000000000024,
        "note": 79,
        "velocity": 100,
        "slice": 108,
        "channel": 1
      },
      {
        "start_tick": 1728,
        "start_time": 17.279999999999998,
        "end_tick": 1776,
        "end_time": 18.0,
        "length_ticks": 48,
        "length_time": 0.7200000000000024,
        "note": 67,
        "velocity": 100,
        "slice": 108,
        "channel": 2
      },
      {
        "start_tick": 1728,
        "start_time": 17.279999999999998,
        "end_tick": 1920,
        "end_time": 19.2,
        "length_ticks": 192,
        "length_time": 1.9200000000000017,
        "note": 65,
        "velocity": 100,
        "slice": 108,
        "channel": 3
      }
    ],
    "1776": [
      {
        "start_tick": 1776,
        "start_time": 18.12,
        "end_tick": 1824,
        "end_time": 18.24,
        "length_ticks": 48,
        "length_time": 0.11999999999999744,
        "note": 72,
        "velocity": 100,
        "slice": 113,
        "channel": 1
      },
      {
        "start_tick": 1776,
        "start_time": 18.12,
        "end_tick": 1824,
        "end_time": 18.24,
        "length_ticks": 48,
        "length_time": 0.11999999999999744,
        "note": 60,
        "velocity": 100,
        "slice": 113,
        "channel": 2
      }
    ],
    "1824": [
      {
        "start_tick": 1824,
        "start_time": 18.24,
        "end_tick": 1872,
        "end_time": 18.959999999999997,
        "length_ticks": 48,
        "length_time": 0.7199999999999989,
        "note": 41,
        "velocity": 127,
        "slice": 114,
        "channel": 0
      },
      {
        "start_tick": 1824,
        "start_time": 18.24,
        "end_tick": 1920,
        "end_time": 19.2,
        "length_ticks": 96,
        "length_time": 0.9600000000000009,
        "note": 69,
        "velocity": 100,
        "slice": 114,
        "channel": 1
      },
      {
        "start_tick": 1824,
        "start_time": 18.24,
        "end_tick": 1920,
        "end_time": 19.2,
        "length_ticks": 96,
        "length_time": 0.9600000000000009,
        "note": 57,
        "velocity": 100,
        "slice": 114,
        "channel": 2
      }
    ],
    "1920": [
      {
        "start_tick": 1920,
        "start_time": 19.2,
        "end_tick": 1968,
        "end_time": 19.92,
        "length_ticks": 48,
        "length_time": 0.7200000000000024,
        "note": 76,
        "velocity": 100,
        "slice": 120,
        "channel": 1
      },
      {
        "start_tick": 1920,
        "start_time": 19.2,
        "end_tick": 1968,
        "end_time": 19.92,
        "length_ticks": 48,
        "length_time": 0.7200000000000024,
        "note": 64,
        "velocity": 100,
        "slice": 120,
        "channel": 2
      },
      {
        "start_tick": 1920,
        "start_time": 19.2,
        "end_tick": 2112,
        "end_time": 21.12,
        "length_ticks": 192,
        "length_time": 1.9200000000000017,
        "note": 71,
        "velocity": 100,
        "slice": 120,
        "channel": 3
      },
      {
        "start_tick": 1920,
        "start_time": 19.2,
        "end_tick": 2112,
        "end_time": 21.12,
        "length_ticks": 192,
        "length_time": 1.9200000000000017,
        "note": 67,
        "velocity": 100,
        "slice": 120,
        "channel": 3
      }
    ],
    "1968": [
      {
        "start_tick": 1968,
        "start_time": 19.92,
        "end_tick": 2016,
        "end_time": 20.16,
        "length_ticks": 48,
        "length_time": 0.23999999999999844,
        "note": 74,
        "velocity": 100,
        "slice": 124,
        "channel": 1
      },
      {
        "start_tick": 1968,
        "start_time": 19.92,
        "end_tick": 2016,
        "end_time": 20.16,
        "length_ticks": 48,
        "length_time": 0.23999999999999844,
        "note": 62,
        "velocity": 100,
        "slice": 124,
        "channel": 2
      }
    ],
    "2016": [
      {
        "start_tick": 2016,
        "start_time": 20.16,
        "end_tick": 2112,
        "end_time": 21.12,
        "length_ticks": 96,
        "length_time": 0.9600000000000009,
        "note": 71,
        "velocity": 100,
        "slice": 126,
        "channel": 1
      },
      {
        "start_tick": 2016,
        "start_time": 20.16,
        "end_tick": 2112,
        "end_time": 21.12,
        "length_ticks": 96,
        "length_time": 0.9600000000000009,
        "note": 59,
        "velocity": 100,
        "slice": 126,
        "channel": 2
      }
    ],
    "2112": [
      {
        "start_tick": 2112,
        "start_time": 21.12,
        "end_tick": 2208,
        "end_time": 22.08,
        "length_ticks": 96,
        "length_time": 0.9599999999999973,
        "note": 74,
        "velocity": 100,
        "slice": 132,
        "channel": 1
      },
      {
        "start_tick": 2112,
        "start_time": 21.12,
        "end_tick": 2208,
        "end_time": 22.08,
        "length_ticks": 96,
        "length_time": 0.9599999999999973,
        "note": 62,
        "velocity": 100,
        "slice": 132,
        "channel": 2
      },
      {
        "start_tick": 2112,
        "start_time": 21.12,
        "end_tick": 2304,
        "end_time": 23.04,
        "length_ticks": 192,
        "length_time": 1.9199999999999982,
        "note": 69,
        "velocity": 100,
        "slice": 132,
        "channel": 3
      },
      {
        "start_tick": 2112,
        "start_time": 21.12,
        "end_tick": 2304,
        "end_time": 23.04,
        "length_ticks": 192,
        "length_time": 1.9199999999999982,
        "note": 64,
        "velocity": 100,
        "slice": 132,
        "channel": 3
      }
    ],
    "2208": [
      {
        "start_tick": 2208,
        "start_time": 22.32,
        "end_tick": 2256,
        "end_time": 22.56,
        "length_ticks": 48,
        "length_time": 0.23999999999999844,
        "note": 40,
        "velocity": 127,
        "slice": 140,
        "channel": 0
      },
      {
        "start_tick": 2208,
        "start_time": 22.08,
        "end_tick": 2304,
        "end_time": 23.04,
        "length_ticks": 96,
        "length_time": 0.9600000000000009,
        "note": 73,
        "velocity": 100,
        "slice": 138,
        "channel": 1
      },
      {
        "start_tick": 2208,
        "start_time": 22.08,
        "end_tick": 2304,
        "end_time": 23.04,
        "length_ticks": 96,
        "length_time": 0.9600000000000009,
        "note": 61,
        "velocity": 100,
        "slice": 138,
        "channel": 2
      }
    ],
    "2304": [
      {
        "start_tick": 2304,
        "start_time": 23.04,
        "end_tick": 2400,
        "end_time": 24.0,
        "length_ticks": 96,
        "length_time": 0.9600000000000009,
        "note": 72,
        "velocity": 100,
        "slice": 144,
        "channel": 1
      },
      {
        "start_tick": 2304,
        "start_time": 23.04,
        "end_tick": 2400,
        "end_time": 24.0,
        "length_ticks": 96,
        "length_time": 0.9600000000000009,
        "note": 60,
        "velocity": 100,
        "slice": 144,
        "channel": 2
      },
      {
        "start_tick": 2304,
        "start_time": 23.04,
        "end_tick": 2400,
        "end_time": 24.0,
        "length_ticks": 96,
        "length_time": 0.9600000000000009,
        "note": 57,
        "velocity": 100,
        "slice": 144,
        "channel": 2
      },
      {
        "start_tick": 2304,
        "start_time": 23.04,
        "end_tick": 3072,
        "end_time": 30.719999999999995,
        "length_ticks": 768,
        "length_time": 7.679999999999996,
        "note": 65,
        "velocity": 100,
        "slice": 144,
        "channel": 3
      }
    ],
    "2400": [
      {
        "start_tick": 2400,
        "start_time": 24.0,
        "end_tick": 2448,
        "end_time": 24.48,
        "length_ticks": 48,
        "length_time": 0.4800000000000004,
        "note": 71,
        "velocity": 100,
        "slice": 150,
        "channel": 1
      },
      {
        "start_tick": 2400,
        "start_time": 24.0,
        "end_tick": 2448,
        "end_time": 24.48,
        "length_ticks": 48,
        "length_time": 0.4800000000000004,
        "note": 59,
        "velocity": 100,
        "slice": 150,
        "channel": 2
      },
      {
        "start_tick": 2400,
        "start_time": 24.0,
        "end_tick": 2448,
        "end_time": 24.48,
        "length_ticks": 48,
        "length_time": 0.4800000000000004,
        "note": 55,
        "velocity": 100,
        "slice": 150,
        "channel": 2
      }
    ],
    "2448": [
      {
        "start_tick": 2448,
        "start_time": 24.48,
        "end_tick": 2496,
        "end_time": 24.959999999999997,
        "length_ticks": 48,
        "length_time": 0.4799999999999969,
        "note": 69,
        "velocity": 100,
        "slice": 153,
        "channel": 1
      },
      {
        "start_tick": 2448,
        "start_time": 24.48,
        "end_tick": 2496,
        "end_time": 24.959999999999997,
        "length_ticks": 48,
        "length_time": 0.4799999999999969,
        "note": 57,
        "velocity": 100,
        "slice": 153,
        "channel": 2
      },
      {
        "start_tick": 2448,
        "start_time": 24.48,
        "end_tick": 2496,
        "end_time": 24.959999999999997,
        "length_ticks": 48,
        "length_time": 0.4799999999999969,
        "note": 53,
        "velocity": 100,
        "slice": 153,
        "channel": 2
      }
    ],
    "2496": [
      {
        "start_tick": 2496,
        "start_time": 25.279999999999998,
        "end_tick": 2544,
        "end_time": 25.439999999999998,
        "length_ticks": 48,
        "length_time": 0.16000000000000014,
        "note": 67,
        "velocity": 100,
        "slice": 158,
        "channel": 1
      },
      {
        "start_tick": 2496,
        "start_time": 25.32,
        "end_tick": 2544,
        "end_time": 25.5,
        "length_ticks": 48,
        "length_time": 0.17999999999999972,
        "note": 50,
        "velocity": 100,
        "slice": 158,
        "channel": 2
      }
    ],
    "2784": [
      {
        "start_tick": 2784,
        "start_time": 27.839999999999996,
        "end_tick": 2832,
        "end_time": 28.32,
        "length_ticks": 48,
        "length_time": 0.480000000000004,
        "note": 72,
        "velocity": 100,
        "slice": 174,
        "channel": 1
      },
      {
        "start_tick": 2784,
        "start_time": 27.839999999999996,
        "end_tick": 2832,
        "end_time": 28.32,
        "length_ticks": 48,
        "length_time": 0.480000000000004,
        "note": 60,
        "velocity": 100,
        "slice": 174,
        "channel": 2
      },
      {
        "start_tick": 2784,
        "start_time": 27.839999999999996,
        "end_tick": 2832,
        "end_time": 28.32,
        "length_ticks": 48,
        "length_time": 0.480000000000004,
        "note": 57,
        "velocity": 100,
        "slice": 174,
        "channel": 2
      }
    ],
    "2832": [
      {
        "start_tick": 2832,
        "start_time": 28.32,
        "end_tick": 2880,
        "end_time": 28.8,
        "length_ticks": 48,
        "length_time": 0.4800000000000004,
        "note": 71,
        "velocity": 100,
        "slice": 177,
        "channel": 1
      },
      {
        "start_tick": 2832,
        "start_time": 28.32,
        "end_tick": 2880,
        "end_time": 28.8,
        "length_ticks": 48,
        "length_time": 0.4800000000000004,
        "note": 59,
        "velocity": 100,
        "slice": 177,
        "channel": 2
      },
      {
        "start_tick": 2832,
        "start_time": 28.32,
        "end_tick": 2880,
        "end_time": 28.8,
        "length_ticks": 48,
        "length_time": 0.4800000000000004,
        "note": 55,
        "velocity": 100,
        "slice": 177,
        "channel": 2
      }
    ],
    "2880": [
      {
        "start_tick": 2880,
        "start_time": 29.16,
        "end_tick": 2928,
        "end_time": 29.32,
        "length_ticks": 48,
        "length_time": 0.16000000000000014,
        "note": 69,
        "velocity": 100,
        "slice": 182,
        "channel": 1
      },
      {
        "start_tick": 2880,
        "start_time": 29.16,
        "end_tick": 2928,
        "end_time": 29.339999999999996,
        "length_ticks": 48,
        "length_time": 0.17999999999999616,
        "note": 53,
        "velocity": 100,
        "slice": 182,
        "channel": 2
      }
    ],
    "3072": [
      {
        "start_tick": 3072,
        "start_time": 30.719999999999995,
        "end_tick": 3456,
        "end_time": 34.559999999999995,
        "length_ticks": 384,
        "length_time": 3.84,
        "note": 67,
        "velocity": 100,
        "slice": 192,
        "channel": 3
      }
    ],
    "3168": [
      {
        "start_tick": 3168,
        "start_time": 31.68,
        "end_tick": 3216,
        "end_time": 32.16,
        "length_ticks": 48,
        "length_time": 0.4799999999999969,
        "note": 74,
        "velocity": 100,
        "slice": 198,
        "channel": 1
      },
      {
        "start_tick": 3168,
        "start_time": 31.68,
        "end_tick": 3216,
        "end_time": 32.16,
        "length_ticks": 48,
        "length_time": 0.4799999999999969,
        "note": 62,
        "velocity": 100,
        "slice": 198,
        "channel": 2
      },
      {
        "start_tick": 3168,
        "start_time": 31.68,
        "end_tick": 3216,
        "end_time": 32.16,
        "length_ticks": 48,
        "length_time": 0.4799999999999969,
        "note": 59,
        "velocity": 100,
        "slice": 198,
        "channel": 2
      }
    ],
    "3216": [
      {
        "start_tick": 3216,
        "start_time": 32.16,
        "end_tick": 3264,
        "end_time": 32.64,
        "length_ticks": 48,
        "length_time": 0.480000000000004,
        "note": 72,
        "velocity": 100,
        "slice": 201,
        "channel": 1
      },
      {
        "start_tick": 3216,
        "start_time": 32.16,
        "end_tick": 3264,
        "end_time": 32.64,
        "length_ticks": 48,
        "length_time": 0.480000000000004,
        "note": 60,
        "velocity": 100,
        "slice": 201,
        "channel": 2
      },
      {
        "start_tick": 3216,
        "start_time": 32.16,
        "end_tick": 3264,
        "end_time": 32.64,
        "length_ticks": 48,
        "length_time": 0.480000000000004,
        "note": 57,
        "velocity": 100,
        "slice": 201,
        "channel": 2
      }
    ],
    "3264": [
      {
        "start_tick": 3264,
        "start_time": 32.64,
        "end_tick": 3456,
        "end_time": 34.559999999999995,
        "length_ticks": 192,
        "length_time": 1.9199999999999946,
        "note": 59,
        "velocity": 100,
        "slice": 204,
        "channel": 2
      }
    ],
    "3456": [
      {
        "start_tick": 3456,
        "start_time": 34.559999999999995,
        "end_tick": 3792,
        "end_time": 37.919999999999995,
        "length_ticks": 336,
        "length_time": 3.3599999999999994,
        "note": 57,
        "velocity": 100,
        "slice": 216,
        "channel": 2
      },
      {
        "start_tick": 3456,
        "start_time": 34.559999999999995,
        "end_tick": 3792,
        "end_time": 37.919999999999995,
        "length_ticks": 336,
        "length_time": 3.3599999999999994,
        "note": 69,
        "velocity": 100,
        "slice": 216,
        "channel": 3
      }
    ],
    "3552": [
      {
        "start_tick": 3552,
        "start_time": 35.519999999999996,
        "end_tick": 3600,
        "end_time": 36.0,
        "length_ticks": 48,
        "length_time": 0.480000000000004,
        "note": 71,
        "velocity": 100,
        "slice": 222,
        "channel": 1
      },
      {
        "start_tick": 3552,
        "start_time": 35.519999999999996,
        "end_tick": 3600,
        "end_time": 36.0,
        "length_ticks": 48,
        "length_time": 0.480000000000004,
        "note": 59,
        "velocity": 100,
        "slice": 222,
        "channel": 2
      }
    ],
    "3600": [
      {
        "start_tick": 3600,
        "start_time": 36.0,
        "end_tick": 3648,
        "end_time": 36.48,
        "length_ticks": 48,
        "length_time": 0.4799999999999969,
        "note": 74,
        "velocity": 100,
        "slice": 225,
        "channel": 1
      },
      {
        "start_tick": 3600,
        "start_time": 36.0,
        "end_tick": 3648,
        "end_time": 36.48,
        "length_ticks": 48,
        "length_time": 0.4799999999999969,
        "note": 62,
        "velocity": 100,
        "slice": 225,
        "channel": 2
      }
    ],
    "3648": [
      {
        "start_tick": 3648,
        "start_time": 36.72,
        "end_tick": 3696,
        "end_time": 36.96,
        "length_ticks": 48,
        "length_time": 0.240000000000002,
        "note": 40,
        "velocity": 127,
        "slice": 230,
        "channel": 0
      },
      {
        "start_tick": 3648,
        "start_time": 36.48,
        "end_tick": 3792,
        "end_time": 37.919999999999995,
        "length_ticks": 144,
        "length_time": 1.4399999999999977,
        "note": 73,
        "velocity": 100,
        "slice": 228,
        "channel": 1
      },
      {
        "start_tick": 3648,
        "start_time": 36.48,
        "end_tick": 3792,
        "end_time": 37.919999999999995,
        "length_ticks": 144,
        "length_time": 1.4399999999999977,
        "note": 61,
        "velocity": 100,
        "slice": 228,
        "channel": 2
      }
    ],
    "3696": [
      {
        "start_tick": 3696,
        "start_time": 37.2,
        "end_tick": 3744,
        "end_time": 37.440000000000005,
        "length_ticks": 48,
        "length_time": 0.240000000000002,
        "note": 33,
        "velocity": 127,
        "slice": 232,
        "channel": 0
      }
    ],
    "3840": [
      {
        "start_tick": 3840,
        "start_time": 38.4,
        "end_tick": 3888,
        "end_time": 39.12,
        "length_ticks": 48,
        "length_time": 0.7199999999999989,
        "note": 73,
        "velocity": 100,
        "slice": 240,
        "channel": 1
      },
      {
        "start_tick": 3840,
        "start_time": 38.4,
        "end_tick": 3888,
        "end_time": 39.12,
        "length_ticks": 48,
        "length_time": 0.7199999999999989,
        "note": 61,
        "velocity": 100,
        "slice": 240,
        "channel": 2
      },
      {
        "start_tick": 3840,
        "start_time": 38.4,
        "end_tick": 4032,
        "end_time": 40.32,
        "length_ticks": 192,
        "length_time": 1.9200000000000017,
        "note": 69,
        "velocity": 100,
        "slice": 240,
        "channel": 3
      }
    ],
    "3888": [
      {
        "start_tick": 3888,
        "start_time": 39.12,
        "end_tick": 3936,
        "end_time": 39.36,
        "length_ticks": 48,
        "length_time": 0.240000000000002,
        "note": 74,
        "velocity": 100,
        "slice": 244,
        "channel": 1
      },
      {
        "start_tick": 3888,
        "start_time": 39.12,
        "end_tick": 3936,
        "end_time": 39.36,
        "length_ticks": 48,
        "length_time": 0.240000000000002,
        "note": 62,
        "velocity": 100,
        "slice": 244,
        "channel": 2
      }
    ],
    "3936": [
      {
        "start_tick": 3936,
        "start_time": 39.36,
        "end_tick": 3984,
        "end_time": 40.08,
        "length_ticks": 48,
        "length_time": 0.7199999999999989,
        "note": 45,
        "velocity": 127,
        "slice": 246,
        "channel": 0
      },
      {
        "start_tick": 3936,
        "start_time": 39.36,
        "end_tick": 4032,
        "end_time": 40.32,
        "length_ticks": 96,
        "length_time": 0.9600000000000009,
        "note": 76,
        "velocity": 100,
        "slice": 246,
        "channel": 1
      },
      {
        "start_tick": 3936,
        "start_time": 39.36,
        "end_tick": 4032,
        "end_time": 40.32,
        "length_ticks": 96,
        "length_time": 0.9600000000000009,
        "note": 64,
        "velocity": 100,
        "slice": 246,
        "channel": 2
      }
    ],
    "4032": [
      {
        "start_tick": 4032,
        "start_time": 40.32,
        "end_tick": 4080,
        "end_time": 41.04,
        "length_ticks": 48,
        "length_time": 0.7199999999999989,
        "note": 79,
        "velocity": 100,
        "slice": 252,
        "channel": 1
      },
      {
        "start_tick": 4032,
        "start_time": 40.32,
        "end_tick": 4080,
        "end_time": 41.04,
        "length_ticks": 48,
        "length_time": 0.7199999999999989,
        "note": 67,
        "velocity": 100,
        "slice": 252,
        "channel": 2
      },
      {
        "start_tick": 4032,
        "start_time": 40.32,
        "end_tick": 4224,
        "end_time": 42.24,
        "length_ticks": 192,
        "length_time": 1.9200000000000017,
        "note": 65,
        "velocity": 100,
        "slice": 252,
        "channel": 3
      }
    ],
    "4080": [
      {
        "start_tick": 4080,
        "start_time": 41.16,
        "end_tick": 4128,
        "end_time": 41.279999999999994,
        "length_ticks": 48,
        "length_time": 0.11999999999999744,
        "note": 72,
        "velocity": 100,
        "slice": 257,
        "channel": 1
      },
      {
        "start_tick": 4080,
        "start_time": 41.16,
        "end_tick": 4128,
        "end_time": 41.279999999999994,
        "length_ticks": 48,
        "length_time": 0.11999999999999744,
        "note": 60,
        "velocity": 100,
        "slice": 257,
        "channel": 2
      }
    ],
    "4128": [
      {
        "start_tick": 4128,
        "start_time": 41.279999999999994,
        "end_tick": 4176,
        "end_time": 42.0,
        "length_ticks": 48,
        "length_time": 0.720000000000006,
        "note": 41,
        "velocity": 127,
        "slice": 258,
        "channel": 0
      },
      {
        "start_tick": 4128,
        "start_time": 41.279999999999994,
        "end_tick": 4224,
        "end_time": 42.24,
        "length_ticks": 96,
        "length_time": 0.960000000000008,
        "note": 69,
        "velocity": 100,
        "slice": 258,
        "channel": 1
      },
      {
        "start_tick": 4128,
        "start_time": 41.279999999999994,
        "end_tick": 4224,
        "end_time": 42.24,
        "length_ticks": 96,
        "length_time": 0.960000000000008,
        "note": 57,
        "velocity": 100,
        "slice": 258,
        "channel": 2
      }
    ],
    "4224": [
      {
        "start_tick": 4224,
        "start_time": 42.24,
        "end_tick": 4272,
        "end_time": 42.96,
        "length_ticks": 48,
        "length_time": 0.7199999999999989,
        "note": 76,
        "velocity": 100,
        "slice": 264,
        "channel": 1
      },
      {
        "start_tick": 4224,
        "start_time": 42.24,
        "end_tick": 4272,
        "end_time": 42.96,
        "length_ticks": 48,
        "length_time": 0.7199999999999989,
        "note": 64,
        "velocity": 100,
        "slice": 264,
        "channel": 2
      },
      {
        "start_tick": 4224,
        "start_time": 42.24,
        "end_tick": 4416,
        "end_time": 44.16,
        "length_ticks": 192,
        "length_time": 1.9199999999999946,
        "note": 67,
        "velocity": 100,
        "slice": 264,
        "channel": 3
      }
    ],
    "4272": [
      {
        "start_tick": 4272,
        "start_time": 43.08,
        "end_tick": 4320,
        "end_time": 43.2,
        "length_ticks": 48,
        "length_time": 0.12000000000000455,
        "note": 72,
        "velocity": 100,
        "slice": 269,
        "channel": 1
      },
      {
        "start_tick": 4272,
        "start_time": 43.08,
        "end_tick": 4320,
        "end_time": 43.2,
        "length_ticks": 48,
        "length_time": 0.12000000000000455,
        "note": 60,
        "velocity": 100,
        "slice": 269,
        "channel": 2
      }
    ],
    "4320": [
      {
        "start_tick": 4320,
        "start_time": 43.2,
        "end_tick": 4368,
        "end_time": 43.919999999999995,
        "length_ticks": 48,
        "length_time": 0.7199999999999918,
        "note": 43,
        "velocity": 127,
        "slice": 270,
        "channel": 0
      },
      {
        "start_tick": 4320,
        "start_time": 43.2,
        "end_tick": 4416,
        "end_time": 44.16,
        "length_ticks": 96,
        "length_time": 0.9599999999999937,
        "note": 71,
        "velocity": 100,
        "slice": 270,
        "channel": 1
      },
      {
        "start_tick": 4320,
        "start_time": 43.2,
        "end_tick": 4416,
        "end_time": 44.16,
        "length_ticks": 96,
        "length_time": 0.9599999999999937,
        "note": 59,
        "velocity": 100,
        "slice": 270,
        "channel": 2
      }
    ],
    "4416": [
      {
        "start_tick": 4416,
        "start_time": 44.16,
        "end_tick": 4464,
        "end_time": 44.879999999999995,
        "length_ticks": 48,
        "length_time": 0.7199999999999989,
        "note": 73,
        "velocity": 100,
        "slice": 276,
        "channel": 1
      },
      {
        "start_tick": 4416,
        "start_time": 44.16,
        "end_tick": 4464,
        "end_time": 44.879999999999995,
        "length_ticks": 48,
        "length_time": 0.7199999999999989,
        "note": 61,
        "velocity": 100,
        "slice": 276,
        "channel": 2
      }
    ],
    "4464": [
      {
        "start_tick": 4464,
        "start_time": 44.879999999999995,
        "end_tick": 4512,
        "end_time": 45.12,
        "length_ticks": 48,
        "length_time": 0.240000000000002,
        "note": 74,
        "velocity": 100,
        "slice": 280,
        "channel": 1
      },
      {
        "start_tick": 4464,
        "start_time": 44.879999999999995,
        "end_tick": 4512,
        "end_time": 45.12,
        "length_ticks": 48,
        "length_time": 0.240000000000002,
        "note": 62,
        "velocity": 100,
        "slice": 280,
        "channel": 2
      }
    ],
    "4512": [
      {
        "start_tick": 4512,
        "start_time": 45.36,
        "end_tick": 4560,
        "end_time": 45.6,
        "length_ticks": 48,
        "length_time": 0.240000000000002,
        "note": 40,
        "velocity": 127,
        "slice": 284,
        "channel": 0
      },
      {
        "start_tick": 4512,
        "start_time": 45.12,
        "end_tick": 4608,
        "end_time": 46.08,
        "length_ticks": 96,
        "length_time": 0.9600000000000009,
        "note": 76,
        "velocity": 100,
        "slice": 282,
        "channel": 1
      },
      {
        "start_tick": 4512,
        "start_time": 45.12,
        "end_tick": 4608,
        "end_time": 46.08,
        "length_ticks": 96,
        "length_time": 0.9600000000000009,
        "note": 64,
        "velocity": 100,
        "slice": 282,
        "channel": 2
      }
    ],
    "4608": [
      {
        "start_tick": 4608,
        "start_time": 46.08,
        "end_tick": 4656,
        "end_time": 46.8,
        "length_ticks": 48,
        "length_time": 0.7199999999999989,
        "note": 73,
        "velocity": 100,
        "slice": 288,
        "channel": 1
      },
      {
        "start_tick": 4608,
        "start_time": 46.08,
        "end_tick": 4656,
        "end_time": 46.8,
        "length_ticks": 48,
        "length_time": 0.7199999999999989,
        "note": 61,
        "velocity": 100,
        "slice": 288,
        "channel": 2
      },
      {
        "start_tick": 4608,
        "start_time": 46.08,
        "end_tick": 4800,
        "end_time": 48.0,
        "length_ticks": 192,
        "length_time": 1.9200000000000017,
        "note": 64,
        "velocity": 100,
        "slice": 288,
        "channel": 3
      }
    ],
    "4656": [
      {
        "start_tick": 4656,
        "start_time": 46.8,
        "end_tick": 4704,
        "end_time": 47.04,
        "length_ticks": 48,
        "length_time": 0.240000000000002,
        "note": 74,
        "velocity": 100,
        "slice": 292,
        "channel": 1
      },
      {
        "start_tick": 4656,
        "start_time": 46.8,
        "end_tick": 4704,
        "end_time": 47.04,
        "length_ticks": 48,
        "length_time": 0.240000000000002,
        "note": 62,
        "velocity": 100,
        "slice": 292,
        "channel": 2
      }
    ],
    "4704": [
      {
        "start_tick": 4704,
        "start_time": 47.04,
        "end_tick": 4752,
        "end_time": 47.76,
        "length_ticks": 48,
        "length_time": 0.7199999999999989,
        "note": 45,
        "velocity": 127,
        "slice": 294,
        "channel": 0
      },
      {
        "start_tick": 4704,
        "start_time": 47.04,
        "end_tick": 4800,
        "end_time": 48.0,
        "length_ticks": 96,
        "length_time": 0.9600000000000009,
        "note": 76,
        "velocity": 100,
        "slice": 294,
        "channel": 1
      },
      {
        "start_tick": 4704,
        "start_time": 47.04,
        "end_tick": 4800,
        "end_time": 48.0,
        "length_ticks": 96,
        "length_time": 0.9600000000000009,
        "note": 64,
        "velocity": 100,
        "slice": 294,
        "channel": 2
      }
    ],
    "4800": [
      {
        "start_tick": 4800,
        "start_time": 48.0,
        "end_tick": 4848,
        "end_time": 48.72,
        "length_ticks": 48,
        "length_time": 0.7199999999999989,
        "note": 79,
        "velocity": 100,
        "slice": 300,
        "channel": 1
      },
      {
        "start_tick": 4800,
        "start_time": 48.0,
        "end_tick": 4848,
        "end_time": 48.72,
        "length_ticks": 48,
        "length_time": 0.7199999999999989,
        "note": 67,
        "velocity": 100,
        "slice": 300,
        "channel": 2
      },
      {
        "start_tick": 4800,
        "start_time": 48.0,
        "end_tick": 4992,
        "end_time": 49.919999999999995,
        "length_ticks": 192,
        "length_time": 1.9199999999999946,
        "note": 65,
        "velocity": 100,
        "slice": 300,
        "channel": 3
      }
    ],
    "4848": [
      {
        "start_tick": 4848,
        "start_time": 48.84,
        "end_tick": 4896,
        "end_time": 48.96,
        "length_ticks": 48,
        "length_time": 0.11999999999999744,
        "note": 72,
        "velocity": 100,
        "slice": 305,
        "channel": 1
      },
      {
        "start_tick": 4848,
        "start_time": 48.84,
        "end_tick": 4896,
        "end_time": 48.96,
        "length_ticks": 48,
        "length_time": 0.11999999999999744,
        "note": 60,
        "velocity": 100,
        "slice": 305,
        "channel": 2
      }
    ],
    "4896": [
      {
        "start_tick": 4896,
        "start_time": 48.96,
        "end_tick": 4944,
        "end_time": 49.67999999999999,
        "length_ticks": 48,
        "length_time": 0.7199999999999918,
        "note": 41,
        "velocity": 127,
        "slice": 306,
        "channel": 0
      },
      {
        "start_tick": 4896,
        "start_time": 48.96,
        "end_tick": 4992,
        "end_time": 49.919999999999995,
        "length_ticks": 96,
        "length_time": 0.9599999999999937,
        "note": 69,
        "velocity": 100,
        "slice": 306,
        "channel": 1
      },
      {
        "start_tick": 4896,
        "start_time": 48.96,
        "end_tick": 4992,
        "end_time": 49.919999999999995,
        "length_ticks": 96,
        "length_time": 0.9599999999999937,
        "note": 57,
        "velocity": 100,
        "slice": 306,
        "channel": 2
      }
    ],
    "4992": [
      {
        "start_tick": 4992,
        "start_time": 49.919999999999995,
        "end_tick": 5040,
        "end_time": 50.64,
        "length_ticks": 48,
        "length_time": 0.720000000000006,
        "note": 76,
        "velocity": 100,
        "slice": 312,
        "channel": 1
      },
      {
        "start_tick": 4992,
        "start_time": 49.919999999999995,
        "end_tick": 5040,
        "end_time": 50.64,
        "length_ticks": 48,
        "length_time": 0.720000000000006,
        "note": 64,
        "velocity": 100,
        "slice": 312,
        "channel": 2
      },
      {
        "start_tick": 4992,
        "start_time": 49.919999999999995,
        "end_tick": 5184,
        "end_time": 51.84,
        "length_ticks": 192,
        "length_time": 1.9200000000000088,
        "note": 71,
        "velocity": 100,
        "slice": 312,
        "channel": 3
      },
      {
        "start_tick": 4992,
        "start_time": 49.919999999999995,
        "end_tick": 5184,
        "end_time": 51.84,
        "length_ticks": 192,
        "length_time": 1.9200000000000088,
        "note": 67,
        "velocity": 100,
        "slice": 312,
        "channel": 3
      }
    ],
    "5040": [
      {
        "start_tick": 5040,
        "start_time": 50.64,
        "end_tick": 5088,
        "end_time": 50.879999999999995,
        "length_ticks": 48,
        "length_time": 0.23999999999999488,
        "note": 74,
        "velocity": 100,
        "slice": 316,
        "channel": 1
      },
      {
        "start_tick": 5040,
        "start_time": 50.64,
        "end_tick": 5088,
        "end_time": 50.879999999999995,
        "length_ticks": 48,
        "length_time": 0.23999999999999488,
        "note": 62,
        "velocity": 100,
        "slice": 316,
        "channel": 2
      }
    ],
    "5088": [
      {
        "start_tick": 5088,
        "start_time": 50.879999999999995,
        "end_tick": 5184,
        "end_time": 51.84,
        "length_ticks": 96,
        "length_time": 0.960000000000008,
        "note": 71,
        "velocity": 100,
        "slice": 318,
        "channel": 1
      },
      {
        "start_tick": 5088,
        "start_time": 50.879999999999995,
        "end_tick": 5184,
        "end_time": 51.84,
        "length_ticks": 96,
        "length_time": 0.960000000000008,
        "note": 59,
        "velocity": 100,
        "slice": 318,
        "channel": 2
      }
    ],
    "5184": [
      {
        "start_tick": 5184,
        "start_time": 51.84,
        "end_tick": 5280,
        "end_time": 52.8,
        "length_ticks": 96,
        "length_time": 0.9599999999999937,
        "note": 74,
        "velocity": 100,
        "slice": 324,
        "channel": 1
      },
      {
        "start_tick": 5184,
        "start_time": 51.84,
        "end_tick": 5280,
        "end_time": 52.8,
        "length_ticks": 96,
        "length_time": 0.9599999999999937,
        "note": 62,
        "velocity": 100,
        "slice": 324,
        "channel": 2
      },
      {
        "start_tick": 5184,
        "start_time": 51.84,
        "end_tick": 5376,
        "end_time": 53.76,
        "length_ticks": 192,
        "length_time": 1.9199999999999946,
        "note": 69,
        "velocity": 100,
        "slice": 324,
        "channel": 3
      },
      {
        "start_tick": 5184,
        "start_time": 51.84,
        "end_tick": 5376,
        "end_time": 53.76,
        "length_ticks": 192,
        "length_time": 1.9199999999999946,
        "note": 64,
        "velocity": 100,
        "slice": 324,
        "channel": 3
      }
    ],
    "5280": [
      {
        "start_tick": 5280,
        "start_time": 53.04,
        "end_tick": 5328,
        "end_time": 53.279999999999994,
        "length_ticks": 48,
        "length_time": 0.23999999999999488,
        "note": 40,
        "velocity": 127,
        "slice": 332,
        "channel": 0
      },
      {
        "start_tick": 5280,
        "start_time": 52.8,
        "end_tick": 5376,
        "end_time": 53.76,
        "length_ticks": 96,
        "length_time": 0.9600000000000009,
        "note": 73,
        "velocity": 100,
        "slice": 330,
        "channel": 1
      },
      {
        "start_tick": 5280,
        "start_time": 52.8,
        "end_tick": 5376,
        "end_time": 53.76,
        "length_ticks": 96,
        "length_time": 0.9600000000000009,
        "note": 61,
        "velocity": 100,
        "slice": 330,
        "channel": 2
      }
    ],
    "5376": [
      {
        "start_tick": 5376,
        "start_time": 53.76,
        "end_tick": 5472,
        "end_time": 54.72,
        "length_ticks": 96,
        "length_time": 0.9600000000000009,
        "note": 72,
        "velocity": 100,
        "slice": 336,
        "channel": 1
      },
      {
        "start_tick": 5376,
        "start_time": 53.76,
        "end_tick": 5472,
        "end_time": 54.72,
        "length_ticks": 96,
        "length_time": 0.9600000000000009,
        "note": 60,
        "velocity": 100,
        "slice": 336,
        "channel": 2
      },
      {
        "start_tick": 5376,
        "start_time": 53.76,
        "end_tick": 5472,
        "end_time": 54.72,
        "length_ticks": 96,
        "length_time": 0.9600000000000009,
        "note": 57,
        "velocity": 100,
        "slice": 336,
        "channel": 2
      },
      {
        "start_tick": 5376,
        "start_time": 53.76,
        "end_tick": 6144,
        "end_time": 61.43999999999999,
        "length_ticks": 768,
        "length_time": 7.679999999999993,
        "note": 65,
        "velocity": 100,
        "slice": 336,
        "channel": 3
      }
    ],
    "5472": [
      {
        "start_tick": 5472,
        "start_time": 54.72,
        "end_tick": 5520,
        "end_time": 55.2,
        "length_ticks": 48,
        "length_time": 0.480000000000004,
        "note": 71,
        "velocity": 100,
        "slice": 342,
        "channel": 1
      },
      {
        "start_tick": 5472,
        "start_time": 54.72,
        "end_tick": 5520,
        "end_time": 55.2,
        "length_ticks": 48,
        "length_time": 0.480000000000004,
        "note": 59,
        "velocity": 100,
        "slice": 342,
        "channel": 2
      },
      {
        "start_tick": 5472,
        "start_time": 54.72,
        "end_tick": 5520,
        "end_time": 55.2,
        "length_ticks": 48,
        "length_time": 0.480000000000004,
        "note": 55,
        "velocity": 100,
        "slice": 342,
        "channel": 2
      }
    ],
    "5520": [
      {
        "start_tick": 5520,
        "start_time": 55.2,
        "end_tick": 5568,
        "end_time": 55.67999999999999,
        "length_ticks": 48,
        "length_time": 0.47999999999998977,
        "note": 69,
        "velocity": 100,
        "slice": 345,
        "channel": 1
      },
      {
        "start_tick": 5520,
        "start_time": 55.2,
        "end_tick": 5568,
        "end_time": 55.67999999999999,
        "length_ticks": 48,
        "length_time": 0.47999999999998977,
        "note": 57,
        "velocity": 100,
        "slice": 345,
        "channel": 2
      },
      {
        "start_tick": 5520,
        "start_time": 55.2,
        "end_tick": 5568,
        "end_time": 55.67999999999999,
        "length_ticks": 48,
        "length_time": 0.47999999999998977,
        "note": 53,
        "velocity": 100,
        "slice": 345,
        "channel": 2
      }
    ],
    "5568": [
      {
        "start_tick": 5568,
        "start_time": 56.0,
        "end_tick": 5616,
        "end_time": 56.16,
        "length_ticks": 48,
        "length_time": 0.1599999999999966,
        "note": 67,
        "velocity": 100,
        "slice": 350,
        "channel": 1
      },
      {
        "start_tick": 5568,
        "start_time": 56.04,
        "end_tick": 5616,
        "end_time": 56.22,
        "length_ticks": 48,
        "length_time": 0.17999999999999972,
        "note": 50,
        "velocity": 100,
        "slice": 350,
        "channel": 2
      }
    ],
    "5856": [
      {
        "start_tick": 5856,
        "start_time": 58.559999999999995,
        "end_tick": 5904,
        "end_time": 59.04,
        "length_ticks": 48,
        "length_time": 0.480000000000004,
        "note": 72,
        "velocity": 100,
        "slice": 366,
        "channel": 1
      },
      {
        "start_tick": 5856,
        "start_time": 58.559999999999995,
        "end_tick": 5904,
        "end_time": 59.04,
        "length_ticks": 48,
        "length_time": 0.480000000000004,
        "note": 60,
        "velocity": 100,
        "slice": 366,
        "channel": 2
      },
      {
        "start_tick": 5856,
        "start_time": 58.559999999999995,
        "end_tick": 5904,
        "end_time": 59.04,
        "length_ticks": 48,
        "length_time": 0.480000000000004,
        "note": 57,
        "velocity": 100,
        "slice": 366,
        "channel": 2
      }
    ],
    "5904": [
      {
        "start_tick": 5904,
        "start_time": 59.04,
        "end_tick": 5952,
        "end_time": 59.519999999999996,
        "length_ticks": 48,
        "length_time": 0.4799999999999969,
        "note": 71,
        "velocity": 100,
        "slice": 369,
        "channel": 1
      },
      {
        "start_tick": 5904,
        "start_time": 59.04,
        "end_tick": 5952,
        "end_time": 59.519999999999996,
        "length_ticks": 48,
        "length_time": 0.4799999999999969,
        "note": 59,
        "velocity": 100,
        "slice": 369,
        "channel": 2
      },
      {
        "start_tick": 5904,
        "start_time": 59.04,
        "end_tick": 5952,
        "end_time": 59.519999999999996,
        "length_ticks": 48,
        "length_time": 0.4799999999999969,
        "note": 55,
        "velocity": 100,
        "slice": 369,
        "channel": 2
      }
    ],
    "5952": [
      {
        "start_tick": 5952,
        "start_time": 59.879999999999995,
        "end_tick": 6000,
        "end_time": 60.04,
        "length_ticks": 48,
        "length_time": 0.1600000000000037,
        "note": 69,
        "velocity": 100,
        "slice": 374,
        "channel": 1
      },
      {
        "start_tick": 5952,
        "start_time": 59.879999999999995,
        "end_tick": 6000,
        "end_time": 60.04,
        "length_ticks": 48,
        "length_time": 0.1600000000000037,
        "note": 53,
        "velocity": 100,
        "slice": 374,
        "channel": 2
      }
    ],
    "6144": [
      {
        "start_tick": 6144,
        "start_time": 61.43999999999999,
        "end_tick": 6528,
        "end_time": 65.28,
        "length_ticks": 384,
        "length_time": 3.8400000000000105,
        "note": 67,
        "velocity": 100,
        "slice": 384,
        "channel": 3
      }
    ],
    "6240": [
      {
        "start_tick": 6240,
        "start_time": 62.4,
        "end_tick": 6288,
        "end_time": 62.879999999999995,
        "length_ticks": 48,
        "length_time": 0.4799999999999969,
        "note": 74,
        "velocity": 100,
        "slice": 390,
        "channel": 1
      },
      {
        "start_tick": 6240,
        "start_time": 62.4,
        "end_tick": 6288,
        "end_time": 62.879999999999995,
        "length_ticks": 48,
        "length_time": 0.4799999999999969,
        "note": 62,
        "velocity": 100,
        "slice": 390,
        "channel": 2
      },
      {
        "start_tick": 6240,
        "start_time": 62.4,
        "end_tick": 6288,
        "end_time": 62.879999999999995,
        "length_ticks": 48,
        "length_time": 0.4799999999999969,
        "note": 59,
        "velocity": 100,
        "slice": 390,
        "channel": 2
      }
    ],
    "6288": [
      {
        "start_tick": 6288,
        "start_time": 62.879999999999995,
        "end_tick": 6336,
        "end_time": 63.36,
        "length_ticks": 48,
        "length_time": 0.480000000000004,
        "note": 72,
        "velocity": 100,
        "slice": 393,
        "channel": 1
      },
      {
        "start_tick": 6288,
        "start_time": 62.879999999999995,
        "end_tick": 6336,
        "end_time": 63.36,
        "length_ticks": 48,
        "length_time": 0.480000000000004,
        "note": 60,
        "velocity": 100,
        "slice": 393,
        "channel": 2
      },
      {
        "start_tick": 6288,
        "start_time": 62.879999999999995,
        "end_tick": 6336,
        "end_time": 63.36,
        "length_ticks": 48,
        "length_time": 0.480000000000004,
        "note": 57,
        "velocity": 100,
        "slice": 393,
        "channel": 2
      }
    ],
    "6336": [
      {
        "start_tick": 6336,
        "start_time": 63.36,
        "end_tick": 6528,
        "end_time": 65.28,
        "length_ticks": 192,
        "length_time": 1.9200000000000017,
        "note": 59,
        "velocity": 100,
        "slice": 396,
        "channel": 2
      }
    ],
    "6528": [
      {
        "start_tick": 6528,
        "start_time": 65.28,
        "end_tick": 6864,
        "end_time": 68.64,
        "length_ticks": 336,
        "length_time": 3.3599999999999994,
        "note": 57,
        "velocity": 100,
        "slice": 408,
        "channel": 2
      },
      {
        "start_tick": 6528,
        "start_time": 65.28,
        "end_tick": 6864,
        "end_time": 68.64,
        "length_ticks": 336,
        "length_time": 3.3599999999999994,
        "note": 69,
        "velocity": 100,
        "slice": 408,
        "channel": 3
      }
    ],
    "6624": [
      {
        "start_tick": 6624,
        "start_time": 66.24,
        "end_tick": 6672,
        "end_time": 66.72,
        "length_ticks": 48,
        "length_time": 0.480000000000004,
        "note": 71,
        "velocity": 100,
        "slice": 414,
        "channel": 1
      },
      {
        "start_tick": 6624,
        "start_time": 66.24,
        "end_tick": 6672,
        "end_time": 66.72,
        "length_ticks": 48,
        "length_time": 0.480000000000004,
        "note": 59,
        "velocity": 100,
        "slice": 414,
        "channel": 2
      }
    ],
    "6672": [
      {
        "start_tick": 6672,
        "start_time": 66.72,
        "end_tick": 6720,
        "end_time": 67.2,
        "length_ticks": 48,
        "length_time": 0.480000000000004,
        "note": 74,
        "velocity": 100,
        "slice": 417,
        "channel": 1
      },
      {
        "start_tick": 6672,
        "start_time": 66.72,
        "end_tick": 6720,
        "end_time": 67.2,
        "length_ticks": 48,
        "length_time": 0.480000000000004,
        "note": 62,
        "velocity": 100,
        "slice": 417,
        "channel": 2
      }
    ],
    "6720": [
      {
        "start_tick": 6720,
        "start_time": 67.44,
        "end_tick": 6768,
        "end_time": 67.67999999999999,
        "length_ticks": 48,
        "length_time": 0.23999999999999488,
        "note": 40,
        "velocity": 127,
        "slice": 422,
        "channel": 0
      },
      {
        "start_tick": 6720,
        "start_time": 67.2,
        "end_tick": 6864,
        "end_time": 68.64,
        "length_ticks": 144,
        "length_time": 1.4399999999999977,
        "note": 73,
        "velocity": 100,
        "slice": 420,
        "channel": 1
      },
      {
        "start_tick": 6720,
        "start_time": 67.2,
        "end_tick": 6864,
        "end_time": 68.64,
        "length_ticks": 144,
        "length_time": 1.4399999999999977,
        "note": 61,
        "velocity": 100,
        "slice": 420,
        "channel": 2
      }
    ],
    "6768": [
      {
        "start_tick": 6768,
        "start_time": 67.92,
        "end_tick": 6816,
        "end_time": 68.16,
        "length_ticks": 48,
        "length_time": 0.23999999999999488,
        "note": 33,
        "velocity": 127,
        "slice": 424,
        "channel": 0
      }
    ]
  },
  "channel_metadata": {
    "0": {
      "program": 32,
      "mute_track": 0,
      "play_track": 1
    },
    "1": {
      "program": 48,
      "mute_track": 0,
      "play_track": 1
    },
    "2": {
      "program": 60,
      "mute_track": 0,
      "play_track": 1
    },
    "3": {
      "program": 91,
      "mute_track": 0,
      "play_track": 1
    },
    "4": {
      "program": 79,
      "mute_track": 0,
      "play_track": 1
    },
    "9": {
      "program": 0,
      "mute_track": 0,
      "play_track": 1
    },
    "6": {
      "program": 0,
      "mute_track": 0,
      "play_track": 1
    },
    "5": {
      "program": 0,
      "mute_track": 0,
      "play_track": 1
    },
    "7": {
      "program": 0,
      "mute_track": 0,
      "play_track": 1
    },
    "8": {
      "program": 0,
      "mute_track": 0,
      "play_track": 1
    },
    "10": {
      "program": 0,
      "mute_track": 0,
      "play_track": 1
    },
    "11": {
      "program": 0,
      "mute_track": 0,
      "play_track": 1
    },
    "12": {
      "program": 0,
      "mute_track": 0,
      "play_track": 1
    },
    "13": {
      "program": 0,
      "mute_track": 0,
      "play_track": 1
    },
    "14": {
      "program": 0,
      "mute_track": 0,
      "play_track": 1
    },
    "15": {
      "program": 0,
      "mute_track": 0,
      "play_track": 1
    }
  },
  "tempo_changes": [
    {
      "tick": 0,
      "tempo": 480000,
      "time": 0.0
    }
  ],
  "metadata": {
    "ticks_per_beat": 960,
    "type": 1,
    "length_seconds": 69.11999999999996,
    "track_count": 8,
    "bpm": 125.0
  }
}