{
  "notes_by_tick": {
    "300": [
      {
        "start_tick": 300,
        "start_time": 2.4834375,
        "end_tick": 327,
        "end_time": 2.706946875,
        "length_ticks": 27,
        "length_time": 0.2235093749999999,
        "note": 67,
        "velocity": 127,
        "slice": 16,
        "channel": 1
      },
      {
        "start_tick": 300,
        "start_time": 2.4834375,
        "end_tick": 320,
        "end_time": 2.6489999999999996,
        "length_ticks": 20,
        "length_time": 0.1655624999999996,
        "note": 59,
        "velocity": 127,
        "slice": 16,
        "channel": 2
      },
      {
        "start_tick": 300,
        "start_time": 2.4834375,
        "end_tick": 311,
        "end_time": 2.574496875,
        "length_ticks": 11,
        "length_time": 0.09105937499999994,
        "note": 55,
        "velocity": 127,
        "slice": 16,
        "channel": 3
      }
    ],
    "317": [
      {
        "start_tick": 317,
        "start_time": 2.624165625,
        "end_tick": 328,
        "end_time": 2.7152249999999998,
        "length_ticks": 11,
        "length_time": 0.09105937499999994,
        "note": 55,
        "velocity": 127,
        "slice": 16,
        "channel": 4
      }
    ],
    "348": [
      {
        "start_tick": 348,
        "start_time": 2.8807875,
        "end_tick": 361,
        "end_time": 2.9884031249999996,
        "length_ticks": 13,
        "length_time": 0.10761562499999977,
        "note": 67,
        "velocity": 127,
        "slice": 18,
        "channel": 1
      },
      {
        "start_tick": 348,
        "start_time": 2.8807875,
        "end_tick": 358,
        "end_time": 2.96356875,
        "length_ticks": 10,
        "length_time": 0.08278125000000003,
        "note": 59,
        "velocity": 127,
        "slice": 18,
        "channel": 2
      },
      {
        "start_tick": 348,
        "start_time": 2.8807875,
        "end_tick": 359,
        "end_time": 2.971846875,
        "length_ticks": 11,
        "length_time": 0.09105937500000039,
        "note": 55,
        "velocity": 127,
        "slice": 18,
        "channel": 3
      }
    ],
    "364": [
      {
        "start_tick": 364,
        "start_time": 3.0132375000000002,
        "end_tick": 377,
        "end_time": 3.120853125,
        "length_ticks": 13,
        "length_time": 0.10761562499999977,
        "note": 62,
        "velocity": 127,
        "slice": 19,
        "channel": 1
      },
      {
        "start_tick": 364,
        "start_time": 3.0132375000000002,
        "end_tick": 374,
        "end_time": 3.0960187500000003,
        "length_ticks": 10,
        "length_time": 0.08278125000000003,
        "note": 59,
        "velocity": 127,
        "slice": 19,
        "channel": 2
      },
      {
        "start_tick": 364,
        "start_time": 3.0132375000000002,
        "end_tick": 375,
        "end_time": 3.1042968749999997,
        "length_ticks": 11,
        "length_time": 0.0910593749999995,
        "note": 55,
        "velocity": 127,
        "slice": 19,
        "channel": 3
      }
    ],
    "365": [
      {
        "start_tick": 365,
        "start_time": 3.0215156249999997,
        "end_tick": 376,
        "end_time": 3.1125749999999996,
        "length_ticks": 11,
        "length_time": 0.09105937499999994,
        "note": 55,
        "velocity": 127,
        "slice": 19,
        "channel": 4
      }
    ],
    "380": [
      {
        "start_tick": 380,
        "start_time": 3.1456874999999997,
        "end_tick": 393,
        "end_time": 3.253303125,
        "length_ticks": 13,
        "length_time": 0.10761562500000021,
        "note": 67,
        "velocity": 127,
        "slice": 20,
        "channel": 1
      },
      {
        "start_tick": 380,
        "start_time": 3.1456874999999997,
        "end_tick": 390,
        "end_time": 3.2284687499999998,
        "length_ticks": 10,
        "length_time": 0.08278125000000003,
        "note": 59,
        "velocity": 127,
        "slice": 20,
        "channel": 2
      },
      {
        "start_tick": 380,
        "start_time": 3.1456874999999997,
        "end_tick": 391,
        "end_time": 3.2367468749999997,
        "length_ticks": 11,
        "length_time": 0.09105937499999994,
        "note": 55,
        "velocity": 127,
        "slice": 20,
        "channel": 3
      }
    ],
    "381": [
      {
        "start_tick": 381,
        "start_time": 3.1539656249999997,
        "end_tick": 392,
        "end_time": 3.245025,
        "length_ticks": 11,
        "length_time": 0.09105937500000039,
        "note": 55,
        "velocity": 127,
        "slice": 20,
        "channel": 4
      }
    ],
    "396": [
      {
        "start_tick": 396,
        "start_time": 3.2781374999999997,
        "end_tick": 423,
        "end_time": 3.501646875,
        "length_ticks": 27,
        "length_time": 0.22350937500000034,
        "note": 65,
        "velocity": 127,
        "slice": 20,
        "channel": 1
      },
      {
        "start_tick": 396,
        "start_time": 3.2781374999999997,
        "end_tick": 416,
        "end_time": 3.4436999999999998,
        "length_ticks": 20,
        "length_time": 0.16556250000000006,
        "note": 57,
        "velocity": 127,
        "slice": 20,
        "channel": 2
      },
      {
        "start_tick": 396,
        "start_time": 3.2781374999999997,
        "end_tick": 407,
        "end_time": 3.369196875,
        "length_ticks": 11,
        "length_time": 0.09105937500000039,
        "note": 53,
        "velocity": 127,
        "slice": 20,
        "channel": 3
      }
    ],
    "397": [
      {
        "start_tick": 397,
        "start_time": 3.286415625,
        "end_tick": 408,
        "end_time": 3.377475,
        "length_ticks": 11,
        "length_time": 0.09105937499999994,
        "note": 55,
        "velocity": 127,
        "slice": 21,
        "channel": 4
      }
    ],
    "413": [
      {
        "start_tick": 413,
        "start_time": 3.418865625,
        "end_tick": 424,
        "end_time": 3.5099249999999995,
        "length_ticks": 11,
        "length_time": 0.0910593749999995,
        "note": 53,
        "velocity": 127,
        "slice": 21,
        "channel": 4
      }
    ],
    "444": [
      {
        "start_tick": 444,
        "start_time": 3.6754874999999996,
        "end_tick": 457,
        "end_time": 3.783103125,
        "length_ticks": 13,
        "length_time": 0.10761562500000021,
        "note": 65,
        "velocity": 127,
        "slice": 23,
        "channel": 1
      },
      {
        "start_tick": 444,
        "start_time": 3.6754874999999996,
        "end_tick": 454,
        "end_time": 3.7582687499999996,
        "length_ticks": 10,
        "length_time": 0.08278125000000003,
        "note": 57,
        "velocity": 127,
        "slice": 23,
        "channel": 2
      },
      {
        "start_tick": 444,
        "start_time": 3.6754874999999996,
        "end_tick": 455,
        "end_time": 3.766546875,
        "length_ticks": 11,
        "length_time": 0.09105937500000039,
        "note": 53,
        "velocity": 127,
        "slice": 23,
        "channel": 3
      }
    ],
    "460": [
      {
        "start_tick": 460,
        "start_time": 3.8079374999999995,
        "end_tick": 473,
        "end_time": 3.915553125,
        "length_ticks": 13,
        "length_time": 0.10761562500000066,
        "note": 67,
        "velocity": 127,
        "slice": 24,
        "channel": 1
      },
      {
        "start_tick": 460,
        "start_time": 3.8079374999999995,
        "end_tick": 470,
        "end_time": 3.8907187499999996,
        "length_ticks": 10,
        "length_time": 0.08278125000000003,
        "note": 59,
        "velocity": 127,
        "slice": 24,
        "channel": 2
      },
      {
        "start_tick": 460,
        "start_time": 3.8079374999999995,
        "end_tick": 471,
        "end_time": 3.898996875,
        "length_ticks": 11,
        "length_time": 0.09105937500000039,
        "note": 53,
        "velocity": 127,
        "slice": 24,
        "channel": 3
      }
    ],
    "461": [
      {
        "start_tick": 461,
        "start_time": 3.816215625,
        "end_tick": 472,
        "end_time": 3.907275,
        "length_ticks": 11,
        "length_time": 0.09105937499999994,
        "note": 53,
        "velocity": 127,
        "slice": 24,
        "channel": 4
      }
    ],
    "476": [
      {
        "start_tick": 476,
        "start_time": 3.9403875,
        "end_tick": 489,
        "end_time": 4.048003125,
        "length_ticks": 13,
        "length_time": 0.10761562500000021,
        "note": 69,
        "velocity": 127,
        "slice": 25,
        "channel": 1
      },
      {
        "start_tick": 476,
        "start_time": 3.9403875,
        "end_tick": 486,
        "end_time": 4.02316875,
        "length_ticks": 10,
        "length_time": 0.08278125000000003,
        "note": 60,
        "velocity": 127,
        "slice": 25,
        "channel": 2
      },
      {
        "start_tick": 476,
        "start_time": 3.9403875,
        "end_tick": 487,
        "end_time": 4.031446874999999,
        "length_ticks": 11,
        "length_time": 0.0910593749999995,
        "note": 53,
        "velocity": 127,
        "slice": 25,
        "channel": 3
      }
    ],
    "477": [
      {
        "start_tick": 477,
        "start_time": 3.948665625,
        "end_tick": 488,
        "end_time": 4.039725,
        "length_ticks": 11,
        "length_time": 0.09105937499999994,
        "note": 53,
        "velocity": 127,
        "slice": 25,
        "channel": 4
      }
    ],
    "492": [
      {
        "start_tick": 492,
        "start_time": 4.0728374999999994,
        "end_tick": 518,
        "end_time": 4.28806875,
        "length_ticks": 26,
        "length_time": 0.21523125000000043,
        "note": 70,
        "velocity": 127,
        "slice": 25,
        "channel": 1
      },
      {
        "start_tick": 492,
        "start_time": 4.0728374999999994,
        "end_tick": 512,
        "end_time": 4.2383999999999995,
        "length_ticks": 20,
        "length_time": 0.16556250000000006,
        "note": 63,
        "velocity": 127,
        "slice": 25,
        "channel": 2
      },
      {
        "start_tick": 492,
        "start_time": 4.0728374999999994,
        "end_tick": 503,
        "end_time": 4.163896875,
        "length_ticks": 11,
        "length_time": 0.09105937500000039,
        "note": 51,
        "velocity": 127,
        "slice": 25,
        "channel": 3
      }
    ],
    "493": [
      {
        "start_tick": 493,
        "start_time": 4.081115625,
        "end_tick": 504,
        "end_time": 4.172175,
        "length_ticks": 11,
        "length_time": 0.09105937500000039,
        "note": 53,
        "velocity": 127,
        "slice": 26,
        "channel": 4
      }
    ],
    "509": [
      {
        "start_tick": 509,
        "start_time": 4.213565625,
        "end_tick": 520,
        "end_time": 4.304625,
        "length_ticks": 11,
        "length_time": 0.0910593749999995,
        "note": 51,
        "velocity": 127,
        "slice": 26,
        "channel": 4
      }
    ],
    "540": [
      {
        "start_tick": 540,
        "start_time": 4.4701875,
        "end_tick": 553,
        "end_time": 4.577803125,
        "length_ticks": 13,
        "length_time": 0.10761562500000021,
        "note": 70,
        "velocity": 127,
        "slice": 28,
        "channel": 1
      },
      {
        "start_tick": 540,
        "start_time": 4.4701875,
        "end_tick": 550,
        "end_time": 4.55296875,
        "length_ticks": 10,
        "length_time": 0.08278125000000003,
        "note": 63,
        "velocity": 127,
        "slice": 28,
        "channel": 2
      },
      {
        "start_tick": 540,
        "start_time": 4.4701875,
        "end_tick": 551,
        "end_time": 4.561246874999999,
        "length_ticks": 11,
        "length_time": 0.0910593749999995,
        "note": 51,
        "velocity": 127,
        "slice": 28,
        "channel": 3
      }
    ],
    "556": [
      {
        "start_tick": 556,
        "start_time": 4.602637499999999,
        "end_tick": 569,
        "end_time": 4.7102531249999995,
        "length_ticks": 13,
        "length_time": 0.10761562500000021,
        "note": 67,
        "velocity": 127,
        "slice": 29,
        "channel": 1
      },
      {
        "start_tick": 556,
        "start_time": 4.602637499999999,
        "end_tick": 566,
        "end_time": 4.685418749999999,
        "length_ticks": 10,
        "length_time": 0.08278125000000003,
        "note": 63,
        "velocity": 127,
        "slice": 29,
        "channel": 2
      },
      {
        "start_tick": 556,
        "start_time": 4.602637499999999,
        "end_tick": 567,
        "end_time": 4.693696875,
        "length_ticks": 11,
        "length_time": 0.09105937500000039,
        "note": 51,
        "velocity": 127,
        "slice": 29,
        "channel": 3
      }
    ],
    "557": [
      {
        "start_tick": 557,
        "start_time": 4.610915625,
        "end_tick": 568,
        "end_time": 4.701975,
        "length_ticks": 11,
        "length_time": 0.09105937500000039,
        "note": 51,
        "velocity": 127,
        "slice": 29,
        "channel": 4
      }
    ],
    "572": [
      {
        "start_tick": 572,
        "start_time": 4.7350875,
        "end_tick": 585,
        "end_time": 4.842703125,
        "length_ticks": 13,
        "length_time": 0.10761562500000021,
        "note": 70,
        "velocity": 127,
        "slice": 30,
        "channel": 1
      },
      {
        "start_tick": 572,
        "start_time": 4.7350875,
        "end_tick": 582,
        "end_time": 4.81786875,
        "length_ticks": 10,
        "length_time": 0.08278125000000003,
        "note": 63,
        "velocity": 127,
        "slice": 30,
        "channel": 2
      },
      {
        "start_tick": 572,
        "start_time": 4.7350875,
        "end_tick": 583,
        "end_time": 4.826146875,
        "length_ticks": 11,
        "length_time": 0.09105937500000039,
        "note": 51,
        "velocity": 127,
        "slice": 30,
        "channel": 3
      }
    ],
    "573": [
      {
        "start_tick": 573,
        "start_time": 4.743365625,
        "end_tick": 584,
        "end_time": 4.8344249999999995,
        "length_ticks": 11,
        "length_time": 0.0910593749999995,
        "note": 51,
        "velocity": 127,
        "slice": 30,
        "channel": 4
      }
    ],
    "588": [
      {
        "start_tick": 588,
        "start_time": 4.8675375,
        "end_tick": 614,
        "end_time": 5.08276875,
        "length_ticks": 26,
        "length_time": 0.21523124999999954,
        "note": 69,
        "velocity": 127,
        "slice": 30,
        "channel": 1
      },
      {
        "start_tick": 588,
        "start_time": 4.8675375,
        "end_tick": 608,
        "end_time": 5.0331,
        "length_ticks": 20,
        "length_time": 0.16556250000000006,
        "note": 65,
        "velocity": 127,
        "slice": 30,
        "channel": 2
      },
      {
        "start_tick": 588,
        "start_time": 4.8675375,
        "end_tick": 599,
        "end_time": 4.958596875,
        "length_ticks": 11,
        "length_time": 0.0910593749999995,
        "note": 53,
        "velocity": 127,
        "slice": 30,
        "channel": 3
      }
    ],
    "589": [
      {
        "start_tick": 589,
        "start_time": 4.8758156249999995,
        "end_tick": 600,
        "end_time": 4.966875,
        "length_ticks": 11,
        "length_time": 0.09105937500000039,
        "note": 51,
        "velocity": 127,
        "slice": 30,
        "channel": 4
      }
    ],
    "604": [
      {
        "start_tick": 604,
        "start_time": 4.9999875,
        "end_tick": 615,
        "end_time": 5.091046875,
        "length_ticks": 11,
        "length_time": 0.09105937500000039,
        "note": 53,
        "velocity": 127,
        "slice": 31,
        "channel": 3
      }
    ],
    "605": [
      {
        "start_tick": 605,
        "start_time": 5.008265625,
        "end_tick": 616,
        "end_time": 5.099324999999999,
        "length_ticks": 11,
        "length_time": 0.0910593749999995,
        "note": 53,
        "velocity": 127,
        "slice": 31,
        "channel": 4
      }
    ],
    "620": [
      {
        "start_tick": 620,
        "start_time": 5.1324375,
        "end_tick": 631,
        "end_time": 5.2234968749999995,
        "length_ticks": 11,
        "length_time": 0.0910593749999995,
        "note": 53,
        "velocity": 127,
        "slice": 32,
        "channel": 3
      }
    ],
    "621": [
      {
        "start_tick": 621,
        "start_time": 5.1407156249999995,
        "end_tick": 632,
        "end_time": 5.231775,
        "length_ticks": 11,
        "length_time": 0.09105937500000039,
        "note": 53,
        "velocity": 127,
        "slice": 32,
        "channel": 4
      }
    ],
    "636": [
      {
        "start_tick": 636,
        "start_time": 5.2648874999999995,
        "end_tick": 649,
        "end_time": 5.372503125000001,
        "length_ticks": 13,
        "length_time": 0.1076156250000011,
        "note": 69,
        "velocity": 127,
        "slice": 33,
        "channel": 1
      },
      {
        "start_tick": 636,
        "start_time": 5.2648874999999995,
        "end_tick": 646,
        "end_time": 5.3476687499999995,
        "length_ticks": 10,
        "length_time": 0.08278125000000003,
        "note": 65,
        "velocity": 127,
        "slice": 33,
        "channel": 2
      },
      {
        "start_tick": 636,
        "start_time": 5.2648874999999995,
        "end_tick": 647,
        "end_time": 5.355946875,
        "length_ticks": 11,
        "length_time": 0.09105937500000039,
        "note": 53,
        "velocity": 127,
        "slice": 33,
        "channel": 3
      }
    ],
    "637": [
      {
        "start_tick": 637,
        "start_time": 5.273165625,
        "end_tick": 648,
        "end_time": 5.364225,
        "length_ticks": 11,
        "length_time": 0.09105937500000039,
        "note": 53,
        "velocity": 127,
        "slice": 33,
        "channel": 4
      }
    ],
    "652": [
      {
        "start_tick": 652,
        "start_time": 5.3973375,
        "end_tick": 665,
        "end_time": 5.504953125,
        "length_ticks": 13,
        "length_time": 0.10761562500000021,
        "note": 70,
        "velocity": 127,
        "slice": 34,
        "channel": 1
      },
      {
        "start_tick": 652,
        "start_time": 5.3973375,
        "end_tick": 662,
        "end_time": 5.48011875,
        "length_ticks": 10,
        "length_time": 0.08278125000000003,
        "note": 65,
        "velocity": 127,
        "slice": 34,
        "channel": 2
      },
      {
        "start_tick": 652,
        "start_time": 5.3973375,
        "end_tick": 663,
        "end_time": 5.488396874999999,
        "length_ticks": 11,
        "length_time": 0.0910593749999995,
        "note": 51,
        "velocity": 127,
        "slice": 34,
        "channel": 3
      }
    ],
    "653": [
      {
        "start_tick": 653,
        "start_time": 5.405615624999999,
        "end_tick": 664,
        "end_time": 5.496675,
        "length_ticks": 11,
        "length_time": 0.09105937500000039,
        "note": 53,
        "velocity": 127,
        "slice": 34,
        "channel": 4
      }
    ],
    "668": [
      {
        "start_tick": 668,
        "start_time": 5.5297875,
        "end_tick": 681,
        "end_time": 5.637403125,
        "length_ticks": 13,
        "length_time": 0.10761562499999933,
        "note": 72,
        "velocity": 127,
        "slice": 35,
        "channel": 1
      },
      {
        "start_tick": 668,
        "start_time": 5.5297875,
        "end_tick": 678,
        "end_time": 5.61256875,
        "length_ticks": 10,
        "length_time": 0.08278125000000003,
        "note": 65,
        "velocity": 127,
        "slice": 35,
        "channel": 2
      },
      {
        "start_tick": 668,
        "start_time": 5.5297875,
        "end_tick": 679,
        "end_time": 5.620846874999999,
        "length_ticks": 11,
        "length_time": 0.09105937499999861,
        "note": 53,
        "velocity": 127,
        "slice": 35,
        "channel": 3
      }
    ],
    "669": [
      {
        "start_tick": 669,
        "start_time": 5.538065624999999,
        "end_tick": 680,
        "end_time": 5.629124999999999,
        "length_ticks": 11,
        "length_time": 0.09105937500000039,
        "note": 51,
        "velocity": 127,
        "slice": 35,
        "channel": 4
      }
    ],
    "684": [
      {
        "start_tick": 684,
        "start_time": 5.6622375,
        "end_tick": 801,
        "end_time": 6.630778125,
        "length_ticks": 117,
        "length_time": 0.9685406250000002,
        "note": 74,
        "velocity": 127,
        "slice": 35,
        "channel": 1
      },
      {
        "start_tick": 684,
        "start_time": 5.6622375,
        "end_tick": 787,
        "end_time": 6.514884375,
        "length_ticks": 103,
        "length_time": 0.8526468750000005,
        "note": 67,
        "velocity": 127,
        "slice": 35,
        "channel": 2
      },
      {
        "start_tick": 684,
        "start_time": 5.6622375,
        "end_tick": 697,
        "end_time": 5.769853125,
        "length_ticks": 13,
        "length_time": 0.10761562500000021,
        "note": 55,
        "velocity": 127,
        "slice": 35,
        "channel": 3
      }
    ],
    "685": [
      {
        "start_tick": 685,
        "start_time": 5.670515625,
        "end_tick": 696,
        "end_time": 5.761575,
        "length_ticks": 11,
        "length_time": 0.0910593749999995,
        "note": 53,
        "velocity": 127,
        "slice": 35,
        "channel": 4
      }
    ],
    "701": [
      {
        "start_tick": 701,
        "start_time": 5.802965625,
        "end_tick": 714,
        "end_time": 5.91058125,
        "length_ticks": 13,
        "length_time": 0.10761562500000021,
        "note": 55,
        "velocity": 127,
        "slice": 36,
        "channel": 4
      }
    ],
    "732": [
      {
        "start_tick": 732,
        "start_time": 6.059587499999999,
        "end_tick": 743,
        "end_time": 6.150646875,
        "length_ticks": 11,
        "length_time": 0.09105937500000039,
        "note": 55,
        "velocity": 127,
        "slice": 38,
        "channel": 3
      }
    ],
    "748": [
      {
        "start_tick": 748,
        "start_time": 6.1920375000000005,
        "end_tick": 759,
        "end_time": 6.283096874999999,
        "length_ticks": 11,
        "length_time": 0.09105937499999861,
        "note": 55,
        "velocity": 127,
        "slice": 39,
        "channel": 3
      }
    ],
    "749": [
      {
        "start_tick": 749,
        "start_time": 6.200315624999999,
        "end_tick": 760,
        "end_time": 6.2913749999999995,
        "length_ticks": 11,
        "length_time": 0.09105937500000039,
        "note": 55,
        "velocity": 127,
        "slice": 39,
        "channel": 4
      }
    ],
    "764": [
      {
        "start_tick": 764,
        "start_time": 6.3244875,
        "end_tick": 775,
        "end_time": 6.4155468749999995,
        "length_ticks": 11,
        "length_time": 0.0910593749999995,
        "note": 55,
        "velocity": 127,
        "slice": 40,
        "channel": 3
      }
    ],
    "765": [
      {
        "start_tick": 765,
        "start_time": 6.3327656249999995,
        "end_tick": 776,
        "end_time": 6.423825,
        "length_ticks": 11,
        "length_time": 0.09105937500000039,
        "note": 55,
        "velocity": 127,
        "slice": 40,
        "channel": 4
      }
    ],
    "780": [
      {
        "start_tick": 780,
        "start_time": 6.4569374999999996,
        "end_tick": 793,
        "end_time": 6.564553125,
        "length_ticks": 13,
        "length_time": 0.10761562500000021,
        "note": 55,
        "velocity": 127,
        "slice": 40,
        "channel": 3
      }
    ],
    "781": [
      {
        "start_tick": 781,
        "start_time": 6.465215625,
        "end_tick": 792,
        "end_time": 6.556274999999999,
        "length_ticks": 11,
        "length_time": 0.0910593749999995,
        "note": 55,
        "velocity": 127,
        "slice": 40,
        "channel": 4
      }
    ],
    "797": [
      {
        "start_tick": 797,
        "start_time": 6.597665625,
        "end_tick": 810,
        "end_time": 6.70528125,
        "length_ticks": 13,
        "length_time": 0.10761562499999933,
        "note": 55,
        "velocity": 127,
        "slice": 41,
        "channel": 4
      }
    ],
    "828": [
      {
        "start_tick": 828,
        "start_time": 6.854287499999999,
        "end_tick": 841,
        "end_time": 6.961903124999999,
        "length_ticks": 13,
        "length_time": 0.10761562500000021,
        "note": 72,
        "velocity": 127,
        "slice": 43,
        "channel": 1
      },
      {
        "start_tick": 828,
        "start_time": 6.854287499999999,
        "end_tick": 838,
        "end_time": 6.937068749999999,
        "length_ticks": 10,
        "length_time": 0.08278125000000003,
        "note": 65,
        "velocity": 127,
        "slice": 43,
        "channel": 2
      },
      {
        "start_tick": 828,
        "start_time": 6.854287499999999,
        "end_tick": 839,
        "end_time": 6.945346874999999,
        "length_ticks": 11,
        "length_time": 0.09105937500000039,
        "note": 50,
        "velocity": 127,
        "slice": 43,
        "channel": 3
      }
    ],
    "844": [
      {
        "start_tick": 844,
        "start_time": 6.986737499999999,
        "end_tick": 857,
        "end_time": 7.0943531250000005,
        "length_ticks": 13,
        "length_time": 0.1076156250000011,
        "note": 72,
        "velocity": 127,
        "slice": 44,
        "channel": 1
      },
      {
        "start_tick": 844,
        "start_time": 6.986737499999999,
        "end_tick": 854,
        "end_time": 7.069518749999999,
        "length_ticks": 10,
        "length_time": 0.08278125000000003,
        "note": 65,
        "velocity": 127,
        "slice": 44,
        "channel": 2
      },
      {
        "start_tick": 844,
        "start_time": 6.986737499999999,
        "end_tick": 855,
        "end_time": 7.077796875,
        "length_ticks": 11,
        "length_time": 0.09105937500000039,
        "note": 50,
        "velocity": 127,
        "slice": 44,
        "channel": 3
      }
    ],
    "845": [
      {
        "start_tick": 845,
        "start_time": 6.995015625,
        "end_tick": 856,
        "end_time": 7.086075,
        "length_ticks": 11,
        "length_time": 0.09105937500000039,
        "note": 50,
        "velocity": 127,
        "slice": 44,
        "channel": 4
      }
    ],
    "860": [
      {
        "start_tick": 860,
        "start_time": 7.1191875,
        "end_tick": 873,
        "end_time": 7.226803125,
        "length_ticks": 13,
        "length_time": 0.10761562500000021,
        "note": 72,
        "velocity": 127,
        "slice": 44,
        "channel": 1
      },
      {
        "start_tick": 860,
        "start_time": 7.1191875,
        "end_tick": 870,
        "end_time": 7.20196875,
        "length_ticks": 10,
        "length_time": 0.08278125000000003,
        "note": 65,
        "velocity": 127,
        "slice": 44,
        "channel": 2
      },
      {
        "start_tick": 860,
        "start_time": 7.1191875,
        "end_tick": 871,
        "end_time": 7.210246874999999,
        "length_ticks": 11,
        "length_time": 0.0910593749999995,
        "note": 50,
        "velocity": 127,
        "slice": 44,
        "channel": 3
      }
    ],
    "861": [
      {
        "start_tick": 861,
        "start_time": 7.127465624999999,
        "end_tick": 872,
        "end_time": 7.218525,
        "length_ticks": 11,
        "length_time": 0.09105937500000039,
        "note": 50,
        "velocity": 127,
        "slice": 45,
        "channel": 4
      }
    ],
    "876": [
      {
        "start_tick": 876,
        "start_time": 7.2516375,
        "end_tick": 993,
        "end_time": 8.220178124999999,
        "length_ticks": 117,
        "length_time": 0.9685406249999984,
        "note": 74,
        "velocity": 127,
        "slice": 45,
        "channel": 1
      },
      {
        "start_tick": 876,
        "start_time": 7.2516375,
        "end_tick": 979,
        "end_time": 8.104284375,
        "length_ticks": 103,
        "length_time": 0.8526468750000005,
        "note": 67,
        "velocity": 127,
        "slice": 45,
        "channel": 2
      },
      {
        "start_tick": 876,
        "start_time": 7.2516375,
        "end_tick": 889,
        "end_time": 7.3592531249999995,
        "length_ticks": 13,
        "length_time": 0.10761562499999933,
        "note": 55,
        "velocity": 127,
        "slice": 45,
        "channel": 3
      }
    ],
    "877": [
      {
        "start_tick": 877,
        "start_time": 7.2599156250000005,
        "end_tick": 888,
        "end_time": 7.350974999999999,
        "length_ticks": 11,
        "length_time": 0.09105937499999861,
        "note": 50,
        "velocity": 127,
        "slice": 45,
        "channel": 4
      }
    ],
    "893": [
      {
        "start_tick": 893,
        "start_time": 7.392365625,
        "end_tick": 906,
        "end_time": 7.49998125,
        "length_ticks": 13,
        "length_time": 0.10761562500000021,
        "note": 55,
        "velocity": 127,
        "slice": 46,
        "channel": 4
      }
    ],
    "924": [
      {
        "start_tick": 924,
        "start_time": 7.6489875,
        "end_tick": 935,
        "end_time": 7.740046875,
        "length_ticks": 11,
        "length_time": 0.09105937500000039,
        "note": 55,
        "velocity": 127,
        "slice": 48,
        "channel": 3
      }
    ],
    "940": [
      {
        "start_tick": 940,
        "start_time": 7.781437499999999,
        "end_tick": 951,
        "end_time": 7.8724968749999995,
        "length_ticks": 11,
        "length_time": 0.09105937500000039,
        "note": 55,
        "velocity": 127,
        "slice": 49,
        "channel": 3
      }
    ],
    "941": [
      {
        "start_tick": 941,
        "start_time": 7.7897156249999995,
        "end_tick": 952,
        "end_time": 7.880775,
        "length_ticks": 11,
        "length_time": 0.09105937500000039,
        "note": 55,
        "velocity": 127,
        "slice": 49,
        "channel": 4
      }
    ],
    "956": [
      {
        "start_tick": 956,
        "start_time": 7.9138875,
        "end_tick": 967,
        "end_time": 8.004946875,
        "length_ticks": 11,
        "length_time": 0.0910593749999995,
        "note": 55,
        "velocity": 127,
        "slice": 49,
        "channel": 3
      }
    ],
    "957": [
      {
        "start_tick": 957,
        "start_time": 7.922165624999999,
        "end_tick": 968,
        "end_time": 8.013225,
        "length_ticks": 11,
        "length_time": 0.09105937500000127,
        "note": 55,
        "velocity": 127,
        "slice": 50,
        "channel": 4
      }
    ],
    "972": [
      {
        "start_tick": 972,
        "start_time": 8.0463375,
        "end_tick": 985,
        "end_time": 8.153953125,
        "length_ticks": 13,
        "length_time": 0.10761562499999933,
        "note": 55,
        "velocity": 127,
        "slice": 50,
        "channel": 3
      }
    ],
    "973": [
      {
        "start_tick": 973,
        "start_time": 8.054615624999999,
        "end_tick": 984,
        "end_time": 8.145674999999999,
        "length_ticks": 11,
        "length_time": 0.09105937500000039,
        "note": 55,
        "velocity": 127,
        "slice": 50,
        "channel": 4
      }
    ],
    "989": [
      {
        "start_tick": 989,
        "start_time": 8.187065625,
        "end_tick": 1002,
        "end_time": 8.29468125,
        "length_ticks": 13,
        "length_time": 0.10761562499999933,
        "note": 55,
        "velocity": 127,
        "slice": 51,
        "channel": 4
      }
    ],
    "1020": [
      {
        "start_tick": 1020,
        "start_time": 8.4436875,
        "end_tick": 1033,
        "end_time": 8.551303124999999,
        "length_ticks": 13,
        "length_time": 0.10761562499999933,
        "note": 72,
        "velocity": 127,
        "slice": 53,
        "channel": 1
      },
      {
        "start_tick": 1020,
        "start_time": 8.4436875,
        "end_tick": 1031,
        "end_time": 8.534746875,
        "length_ticks": 11,
        "length_time": 0.09105937500000039,
        "note": 50,
        "velocity": 127,
        "slice": 53,
        "channel": 3
      }
    ],
    "1036": [
      {
        "start_tick": 1036,
        "start_time": 8.5761375,
        "end_tick": 1049,
        "end_time": 8.683753124999999,
        "length_ticks": 13,
        "length_time": 0.10761562499999933,
        "note": 71,
        "velocity": 127,
        "slice": 54,
        "channel": 1
      },
      {
        "start_tick": 1036,
        "start_time": 8.5761375,
        "end_tick": 1047,
        "end_time": 8.667196875,
        "length_ticks": 11,
        "length_time": 0.09105937500000039,
        "note": 50,
        "velocity": 127,
        "slice": 54,
        "channel": 3
      }
    ],
    "1037": [
      {
        "start_tick": 1037,
        "start_time": 8.584415625,
        "end_tick": 1048,
        "end_time": 8.675475,
        "length_ticks": 11,
        "length_time": 0.09105937500000039,
        "note": 50,
        "velocity": 127,
        "slice": 54,
        "channel": 4
      }
    ],
    "1052": [
      {
        "start_tick": 1052,
        "start_time": 8.7085875,
        "end_tick": 1065,
        "end_time": 8.816203125,
        "length_ticks": 13,
        "length_time": 0.10761562499999933,
        "note": 69,
        "velocity": 127,
        "slice": 54,
        "channel": 1
      },
      {
        "start_tick": 1052,
        "start_time": 8.7085875,
        "end_tick": 1063,
        "end_time": 8.799646874999999,
        "length_ticks": 11,
        "length_time": 0.09105937499999861,
        "note": 50,
        "velocity": 127,
        "slice": 54,
        "channel": 3
      }
    ],
    "1053": [
      {
        "start_tick": 1053,
        "start_time": 8.716865624999999,
        "end_tick": 1064,
        "end_time": 8.807925,
        "length_ticks": 11,
        "length_time": 0.09105937500000039,
        "note": 50,
        "velocity": 127,
        "slice": 54,
        "channel": 4
      }
    ],
    "1068": [
      {
        "start_tick": 1068,
        "start_time": 8.8410375,
        "end_tick": 1094,
        "end_time": 9.05626875,
        "length_ticks": 26,
        "length_time": 0.21523124999999865,
        "note": 67,
        "velocity": 127,
        "slice": 55,
        "channel": 1
      },
      {
        "start_tick": 1068,
        "start_time": 8.8410375,
        "end_tick": 1088,
        "end_time": 9.0066,
        "length_ticks": 20,
        "length_time": 0.16556250000000006,
        "note": 59,
        "velocity": 127,
        "slice": 55,
        "channel": 2
      },
      {
        "start_tick": 1068,
        "start_time": 8.8410375,
        "end_tick": 1081,
        "end_time": 8.948653125,
        "length_ticks": 13,
        "length_time": 0.10761562499999933,
        "note": 43,
        "velocity": 127,
        "slice": 55,
        "channel": 3
      }
    ],
    "1069": [
      {
        "start_tick": 1069,
        "start_time": 8.849315625,
        "end_tick": 1080,
        "end_time": 8.940375,
        "length_ticks": 11,
        "length_time": 0.09105937500000039,
        "note": 50,
        "velocity": 127,
        "slice": 55,
        "channel": 4
      }
    ],
    "1085": [
      {
        "start_tick": 1085,
        "start_time": 8.981765625,
        "end_tick": 1098,
        "end_time": 9.08938125,
        "length_ticks": 13,
        "length_time": 0.1076156250000011,
        "note": 43,
        "velocity": 127,
        "slice": 56,
        "channel": 4
      }
    ],
    "1116": [
      {
        "start_tick": 1116,
        "start_time": 9.2383875,
        "end_tick": 1168,
        "end_time": 9.668849999999999,
        "length_ticks": 52,
        "length_time": 0.4304624999999991,
        "note": 62,
        "velocity": 127,
        "slice": 58,
        "channel": 1
      },
      {
        "start_tick": 1116,
        "start_time": 9.2383875,
        "end_tick": 1126,
        "end_time": 9.32116875,
        "length_ticks": 10,
        "length_time": 0.08278125000000003,
        "note": 60,
        "velocity": 127,
        "slice": 58,
        "channel": 2
      },
      {
        "start_tick": 1116,
        "start_time": 9.2383875,
        "end_tick": 1127,
        "end_time": 9.329446875,
        "length_ticks": 11,
        "length_time": 0.09105937500000039,
        "note": 43,
        "velocity": 127,
        "slice": 58,
        "channel": 3
      }
    ],
    "1132": [
      {
        "start_tick": 1132,
        "start_time": 9.370837499999999,
        "end_tick": 1142,
        "end_time": 9.453618749999999,
        "length_ticks": 10,
        "length_time": 0.08278125000000003,
        "note": 59,
        "velocity": 127,
        "slice": 59,
        "channel": 2
      },
      {
        "start_tick": 1132,
        "start_time": 9.370837499999999,
        "end_tick": 1143,
        "end_time": 9.461896874999999,
        "length_ticks": 11,
        "length_time": 0.09105937500000039,
        "note": 43,
        "velocity": 127,
        "slice": 59,
        "channel": 3
      }
    ],
    "1133": [
      {
        "start_tick": 1133,
        "start_time": 9.379115624999999,
        "end_tick": 1144,
        "end_time": 9.470175,
        "length_ticks": 11,
        "length_time": 0.09105937500000039,
        "note": 43,
        "velocity": 127,
        "slice": 59,
        "channel": 4
      }
    ],
    "1148": [
      {
        "start_tick": 1148,
        "start_time": 9.503287499999999,
        "end_tick": 1158,
        "end_time": 9.586068749999999,
        "length_ticks": 10,
        "length_time": 0.08278125000000003,
        "note": 57,
        "velocity": 127,
        "slice": 59,
        "channel": 2
      },
      {
        "start_tick": 1148,
        "start_time": 9.503287499999999,
        "end_tick": 1159,
        "end_time": 9.594346875,
        "length_ticks": 11,
        "length_time": 0.09105937500000039,
        "note": 41,
        "velocity": 127,
        "slice": 59,
        "channel": 3
      }
    ],
    "1149": [
      {
        "start_tick": 1149,
        "start_time": 9.511565625,
        "end_tick": 1160,
        "end_time": 9.602625,
        "length_ticks": 11,
        "length_time": 0.09105937500000039,
        "note": 43,
        "velocity": 127,
        "slice": 59,
        "channel": 4
      }
    ],
    "1164": [
      {
        "start_tick": 1164,
        "start_time": 9.6357375,
        "end_tick": 1184,
        "end_time": 9.8013,
        "length_ticks": 20,
        "length_time": 0.16556250000000006,
        "note": 59,
        "velocity": 127,
        "slice": 60,
        "channel": 2
      },
      {
        "start_tick": 1164,
        "start_time": 9.6357375,
        "end_tick": 1177,
        "end_time": 9.743353125,
        "length_ticks": 13,
        "length_time": 0.1076156250000011,
        "note": 43,
        "velocity": 127,
        "slice": 60,
        "channel": 3
      }
    ],
    "1165": [
      {
        "start_tick": 1165,
        "start_time": 9.644015625,
        "end_tick": 1176,
        "end_time": 9.735075,
        "length_ticks": 11,
        "length_time": 0.09105937500000039,
        "note": 41,
        "velocity": 127,
        "slice": 60,
        "channel": 4
      }
    ],
    "1181": [
      {
        "start_tick": 1181,
        "start_time": 9.776465624999998,
        "end_tick": 1194,
        "end_time": 9.88408125,
        "length_ticks": 13,
        "length_time": 0.1076156250000011,
        "note": 43,
        "velocity": 127,
        "slice": 61,
        "channel": 4
      }
    ],
    "1200": [
      {
        "start_tick": 1200,
        "start_time": 9.93375,
        "end_tick": 1210,
        "end_time": 10.01653125,
        "length_ticks": 10,
        "length_time": 0.08278125000000003,
        "note": 67,
        "velocity": 127,
        "slice": 62,
        "channel": 1
      },
      {
        "start_tick": 1200,
        "start_time": 9.93375,
        "end_tick": 1208,
        "end_time": 9.999975,
        "length_ticks": 8,
        "length_time": 0.06622499999999931,
        "note": 59,
        "velocity": 127,
        "slice": 62,
        "channel": 2
      }
    ],
    "1212": [
      {
        "start_tick": 1212,
        "start_time": 10.033087499999999,
        "end_tick": 1222,
        "end_time": 10.115868749999999,
        "length_ticks": 10,
        "length_time": 0.08278125000000003,
        "note": 67,
        "velocity": 127,
        "slice": 63,
        "channel": 1
      },
      {
        "start_tick": 1212,
        "start_time": 10.033087499999999,
        "end_tick": 1220,
        "end_time": 10.0993125,
        "length_ticks": 8,
        "length_time": 0.06622500000000109,
        "note": 59,
        "velocity": 127,
        "slice": 63,
        "channel": 2
      },
      {
        "start_tick": 1212,
        "start_time": 10.033087499999999,
        "end_tick": 1225,
        "end_time": 10.140703125,
        "length_ticks": 13,
        "length_time": 0.1076156250000011,
        "note": 43,
        "velocity": 127,
        "slice": 63,
        "channel": 3
      }
    ],
    "1224": [
      {
        "start_tick": 1224,
        "start_time": 10.132425,
        "end_tick": 1234,
        "end_time": 10.21520625,
        "length_ticks": 10,
        "length_time": 0.08278125000000003,
        "note": 69,
        "velocity": 127,
        "slice": 63,
        "channel": 1
      },
      {
        "start_tick": 1224,
        "start_time": 10.132425,
        "end_tick": 1232,
        "end_time": 10.198649999999999,
        "length_ticks": 8,
        "length_time": 0.06622499999999931,
        "note": 60,
        "velocity": 127,
        "slice": 63,
        "channel": 2
      }
    ],
    "1229": [
      {
        "start_tick": 1229,
        "start_time": 10.173815625,
        "end_tick": 1242,
        "end_time": 10.281431249999999,
        "length_ticks": 13,
        "length_time": 0.10761562499999933,
        "note": 43,
        "velocity": 127,
        "slice": 64,
        "channel": 4
      }
    ],
    "1236": [
      {
        "start_tick": 1236,
        "start_time": 10.2317625,
        "end_tick": 1246,
        "end_time": 10.31454375,
        "length_ticks": 10,
        "length_time": 0.08278125000000003,
        "note": 71,
        "velocity": 127,
        "slice": 64,
        "channel": 1
      },
      {
        "start_tick": 1236,
        "start_time": 10.2317625,
        "end_tick": 1244,
        "end_time": 10.2979875,
        "length_ticks": 8,
        "length_time": 0.06622499999999931,
        "note": 62,
        "velocity": 127,
        "slice": 64,
        "channel": 2
      }
    ],
    "1248": [
      {
        "start_tick": 1248,
        "start_time": 10.3311,
        "end_tick": 1258,
        "end_time": 10.41388125,
        "length_ticks": 10,
        "length_time": 0.08278125000000003,
        "note": 72,
        "velocity": 127,
        "slice": 65,
        "channel": 1
      },
      {
        "start_tick": 1248,
        "start_time": 10.3311,
        "end_tick": 1256,
        "end_time": 10.397325,
        "length_ticks": 8,
        "length_time": 0.06622500000000109,
        "note": 64,
        "velocity": 127,
        "slice": 65,
        "channel": 2
      }
    ],
    "1260": [
      {
        "start_tick": 1260,
        "start_time": 10.4304375,
        "end_tick": 1340,
        "end_time": 11.092687499999998,
        "length_ticks": 80,
        "length_time": 0.6622499999999985,
        "note": 74,
        "velocity": 127,
        "slice": 65,
        "channel": 1
      },
      {
        "start_tick": 1260,
        "start_time": 10.4304375,
        "end_tick": 1283,
        "end_time": 10.620834375,
        "length_ticks": 23,
        "length_time": 0.19039687499999935,
        "note": 65,
        "velocity": 127,
        "slice": 65,
        "channel": 2
      },
      {
        "start_tick": 1260,
        "start_time": 10.4304375,
        "end_tick": 1273,
        "end_time": 10.538053125,
        "length_ticks": 13,
        "length_time": 0.10761562499999933,
        "note": 41,
        "velocity": 127,
        "slice": 65,
        "channel": 3
      }
    ],
    "1277": [
      {
        "start_tick": 1277,
        "start_time": 10.571165624999999,
        "end_tick": 1290,
        "end_time": 10.67878125,
        "length_ticks": 13,
        "length_time": 0.1076156250000011,
        "note": 41,
        "velocity": 127,
        "slice": 66,
        "channel": 4
      }
    ],
    "1296": [
      {
        "start_tick": 1296,
        "start_time": 10.72845,
        "end_tick": 1304,
        "end_time": 10.794675,
        "length_ticks": 8,
        "length_time": 0.06622499999999931,
        "note": 67,
        "velocity": 127,
        "slice": 67,
        "channel": 2
      }
    ],
    "1308": [
      {
        "start_tick": 1308,
        "start_time": 10.8277875,
        "end_tick": 1316,
        "end_time": 10.8940125,
        "length_ticks": 8,
        "length_time": 0.06622500000000109,
        "note": 67,
        "velocity": 127,
        "slice": 68,
        "channel": 2
      },
      {
        "start_tick": 1308,
        "start_time": 10.8277875,
        "end_tick": 1319,
        "end_time": 10.918846875,
        "length_ticks": 11,
        "length_time": 0.09105937500000039,
        "note": 41,
        "velocity": 127,
        "slice": 68,
        "channel": 3
      }
    ],
    "1320": [
      {
        "start_tick": 1320,
        "start_time": 10.927124999999998,
        "end_tick": 1328,
        "end_time": 10.99335,
        "length_ticks": 8,
        "length_time": 0.06622500000000109,
        "note": 69,
        "velocity": 127,
        "slice": 68,
        "channel": 2
      }
    ],
    "1324": [
      {
        "start_tick": 1324,
        "start_time": 10.9602375,
        "end_tick": 1335,
        "end_time": 11.051296874999998,
        "length_ticks": 11,
        "length_time": 0.09105937499999861,
        "note": 41,
        "velocity": 127,
        "slice": 69,
        "channel": 3
      }
    ],
    "1325": [
      {
        "start_tick": 1325,
        "start_time": 10.968515625,
        "end_tick": 1336,
        "end_time": 11.059575,
        "length_ticks": 11,
        "length_time": 0.09105937500000039,
        "note": 41,
        "velocity": 127,
        "slice": 69,
        "channel": 4
      }
    ],
    "1332": [
      {
        "start_tick": 1332,
        "start_time": 11.0264625,
        "end_tick": 1340,
        "end_time": 11.092687499999998,
        "length_ticks": 8,
        "length_time": 0.06622499999999931,
        "note": 71,
        "velocity": 127,
        "slice": 69,
        "channel": 2
      }
    ],
    "1340": [
      {
        "start_tick": 1340,
        "start_time": 11.092687499999998,
        "end_tick": 1351,
        "end_time": 11.183746874999999,
        "length_ticks": 11,
        "length_time": 0.09105937500000039,
        "note": 39,
        "velocity": 127,
        "slice": 69,
        "channel": 3
      }
    ],
    "1341": [
      {
        "start_tick": 1341,
        "start_time": 11.100965625,
        "end_tick": 1352,
        "end_time": 11.192025,
        "length_ticks": 11,
        "length_time": 0.09105937499999861,
        "note": 41,
        "velocity": 127,
        "slice": 69,
        "channel": 4
      }
    ],
    "1344": [
      {
        "start_tick": 1344,
        "start_time": 11.1258,
        "end_tick": 1352,
        "end_time": 11.192025,
        "length_ticks": 8,
        "length_time": 0.06622499999999931,
        "note": 72,
        "velocity": 127,
        "slice": 70,
        "channel": 2
      }
    ],
    "1356": [
      {
        "start_tick": 1356,
        "start_time": 11.2251375,
        "end_tick": 1372,
        "end_time": 11.3575875,
        "length_ticks": 16,
        "length_time": 0.13244999999999862,
        "note": 74,
        "velocity": 127,
        "slice": 70,
        "channel": 2
      },
      {
        "start_tick": 1356,
        "start_time": 11.2251375,
        "end_tick": 1369,
        "end_time": 11.332753124999998,
        "length_ticks": 13,
        "length_time": 0.10761562499999755,
        "note": 41,
        "velocity": 127,
        "slice": 70,
        "channel": 3
      }
    ],
    "1357": [
      {
        "start_tick": 1357,
        "start_time": 11.233415625,
        "end_tick": 1368,
        "end_time": 11.324475,
        "length_ticks": 11,
        "length_time": 0.09105937500000039,
        "note": 39,
        "velocity": 127,
        "slice": 70,
        "channel": 4
      }
    ],
    "1373": [
      {
        "start_tick": 1373,
        "start_time": 11.365865625,
        "end_tick": 1386,
        "end_time": 11.473481249999999,
        "length_ticks": 13,
        "length_time": 0.10761562499999933,
        "note": 41,
        "velocity": 127,
        "slice": 71,
        "channel": 4
      }
    ],
    "1388": [
      {
        "start_tick": 1388,
        "start_time": 11.4900375,
        "end_tick": 1401,
        "end_time": 11.597653124999999,
        "length_ticks": 13,
        "length_time": 0.10761562499999933,
        "note": 74,
        "velocity": 127,
        "slice": 72,
        "channel": 1
      },
      {
        "start_tick": 1388,
        "start_time": 11.4900375,
        "end_tick": 1398,
        "end_time": 11.572818749999998,
        "length_ticks": 10,
        "length_time": 0.08278124999999825,
        "note": 65,
        "velocity": 127,
        "slice": 72,
        "channel": 2
      }
    ],
    "1404": [
      {
        "start_tick": 1404,
        "start_time": 11.622487499999998,
        "end_tick": 1417,
        "end_time": 11.730103125,
        "length_ticks": 13,
        "length_time": 0.1076156250000011,
        "note": 74,
        "velocity": 127,
        "slice": 73,
        "channel": 1
      },
      {
        "start_tick": 1404,
        "start_time": 11.622487499999998,
        "end_tick": 1414,
        "end_time": 11.70526875,
        "length_ticks": 10,
        "length_time": 0.0827812500000018,
        "note": 65,
        "velocity": 127,
        "slice": 73,
        "channel": 2
      },
      {
        "start_tick": 1404,
        "start_time": 11.622487499999998,
        "end_tick": 1417,
        "end_time": 11.730103125,
        "length_ticks": 13,
        "length_time": 0.1076156250000011,
        "note": 41,
        "velocity": 127,
        "slice": 73,
        "channel": 3
      }
    ],
    "1420": [
      {
        "start_tick": 1420,
        "start_time": 11.754937499999999,
        "end_tick": 1433,
        "end_time": 11.862553125,
        "length_ticks": 13,
        "length_time": 0.1076156250000011,
        "note": 75,
        "velocity": 127,
        "slice": 73,
        "channel": 1
      },
      {
        "start_tick": 1420,
        "start_time": 11.754937499999999,
        "end_tick": 1430,
        "end_time": 11.83771875,
        "length_ticks": 10,
        "length_time": 0.0827812500000018,
        "note": 67,
        "velocity": 127,
        "slice": 73,
        "channel": 2
      }
    ],
    "1421": [
      {
        "start_tick": 1421,
        "start_time": 11.763215624999999,
        "end_tick": 1434,
        "end_time": 11.87083125,
        "length_ticks": 13,
        "length_time": 0.1076156250000011,
        "note": 41,
        "velocity": 127,
        "slice": 74,
        "channel": 4
      }
    ],
    "1436": [
      {
        "start_tick": 1436,
        "start_time": 11.8873875,
        "end_tick": 1449,
        "end_time": 11.995003124999998,
        "length_ticks": 13,
        "length_time": 0.10761562499999755,
        "note": 77,
        "velocity": 127,
        "slice": 74,
        "channel": 1
      },
      {
        "start_tick": 1436,
        "start_time": 11.8873875,
        "end_tick": 1446,
        "end_time": 11.97016875,
        "length_ticks": 10,
        "length_time": 0.08278124999999825,
        "note": 69,
        "velocity": 127,
        "slice": 74,
        "channel": 2
      }
    ],
    "1452": [
      {
        "start_tick": 1452,
        "start_time": 12.0198375,
        "end_tick": 1532,
        "end_time": 12.6820875,
        "length_ticks": 80,
        "length_time": 0.6622500000000002,
        "note": 79,
        "velocity": 127,
        "slice": 75,
        "channel": 1
      },
      {
        "start_tick": 1452,
        "start_time": 12.0198375,
        "end_tick": 1473,
        "end_time": 12.193678125,
        "length_ticks": 21,
        "length_time": 0.17384062500000041,
        "note": 70,
        "velocity": 127,
        "slice": 75,
        "channel": 2
      },
      {
        "start_tick": 1452,
        "start_time": 12.0198375,
        "end_tick": 1465,
        "end_time": 12.127453125,
        "length_ticks": 13,
        "length_time": 0.1076156250000011,
        "note": 39,
        "velocity": 127,
        "slice": 75,
        "channel": 3
      }
    ],
    "1469": [
      {
        "start_tick": 1469,
        "start_time": 12.160565624999998,
        "end_tick": 1482,
        "end_time": 12.26818125,
        "length_ticks": 13,
        "length_time": 0.1076156250000011,
        "note": 39,
        "velocity": 127,
        "slice": 76,
        "channel": 4
      }
    ],
    "1488": [
      {
        "start_tick": 1488,
        "start_time": 12.31785,
        "end_tick": 1496,
        "end_time": 12.384075000000001,
        "length_ticks": 8,
        "length_time": 0.06622500000000109,
        "note": 63,
        "velocity": 127,
        "slice": 77,
        "channel": 2
      }
    ],
    "1500": [
      {
        "start_tick": 1500,
        "start_time": 12.417187499999999,
        "end_tick": 1508,
        "end_time": 12.4834125,
        "length_ticks": 8,
        "length_time": 0.06622500000000109,
        "note": 63,
        "velocity": 127,
        "slice": 78,
        "channel": 2
      },
      {
        "start_tick": 1500,
        "start_time": 12.417187499999999,
        "end_tick": 1511,
        "end_time": 12.508246875,
        "length_ticks": 11,
        "length_time": 0.09105937500000039,
        "note": 39,
        "velocity": 127,
        "slice": 78,
        "channel": 3
      }
    ],
    "1512": [
      {
        "start_tick": 1512,
        "start_time": 12.516525,
        "end_tick": 1520,
        "end_time": 12.582749999999999,
        "length_ticks": 8,
        "length_time": 0.06622499999999931,
        "note": 65,
        "velocity": 127,
        "slice": 78,
        "channel": 2
      }
    ],
    "1516": [
      {
        "start_tick": 1516,
        "start_time": 12.549637500000001,
        "end_tick": 1527,
        "end_time": 12.640696874999998,
        "length_ticks": 11,
        "length_time": 0.09105937499999683,
        "note": 39,
        "velocity": 127,
        "slice": 78,
        "channel": 3
      }
    ],
    "1517": [
      {
        "start_tick": 1517,
        "start_time": 12.557915625,
        "end_tick": 1528,
        "end_time": 12.648975,
        "length_ticks": 11,
        "length_time": 0.09105937500000039,
        "note": 39,
        "velocity": 127,
        "slice": 78,
        "channel": 4
      }
    ],
    "1524": [
      {
        "start_tick": 1524,
        "start_time": 12.615862499999999,
        "end_tick": 1532,
        "end_time": 12.6820875,
        "length_ticks": 8,
        "length_time": 0.06622500000000109,
        "note": 67,
        "velocity": 127,
        "slice": 79,
        "channel": 2
      }
    ],
    "1532": [
      {
        "start_tick": 1532,
        "start_time": 12.6820875,
        "end_tick": 1543,
        "end_time": 12.773146875,
        "length_ticks": 11,
        "length_time": 0.09105937500000039,
        "note": 38,
        "velocity": 127,
        "slice": 79,
        "channel": 3
      }
    ],
    "1533": [
      {
        "start_tick": 1533,
        "start_time": 12.690365624999998,
        "end_tick": 1544,
        "end_time": 12.781424999999999,
        "length_ticks": 11,
        "length_time": 0.09105937500000039,
        "note": 39,
        "velocity": 127,
        "slice": 79,
        "channel": 4
      }
    ],
    "1536": [
      {
        "start_tick": 1536,
        "start_time": 12.715200000000001,
        "end_tick": 1544,
        "end_time": 12.781424999999999,
        "length_ticks": 8,
        "length_time": 0.06622499999999754,
        "note": 69,
        "velocity": 127,
        "slice": 79,
        "channel": 2
      }
    ],
    "1548": [
      {
        "start_tick": 1548,
        "start_time": 12.8145375,
        "end_tick": 1558,
        "end_time": 12.897318749999998,
        "length_ticks": 10,
        "length_time": 0.08278124999999825,
        "note": 70,
        "velocity": 127,
        "slice": 80,
        "channel": 2
      },
      {
        "start_tick": 1548,
        "start_time": 12.8145375,
        "end_tick": 1561,
        "end_time": 12.922153125,
        "length_ticks": 13,
        "length_time": 0.10761562499999933,
        "note": 39,
        "velocity": 127,
        "slice": 80,
        "channel": 3
      }
    ],
    "1549": [
      {
        "start_tick": 1549,
        "start_time": 12.822815624999999,
        "end_tick": 1560,
        "end_time": 12.913874999999999,
        "length_ticks": 11,
        "length_time": 0.09105937500000039,
        "note": 38,
        "velocity": 127,
        "slice": 80,
        "channel": 4
      }
    ],
    "1565": [
      {
        "start_tick": 1565,
        "start_time": 12.955265625000001,
        "end_tick": 1578,
        "end_time": 13.062881249999998,
        "length_ticks": 13,
        "length_time": 0.10761562499999755,
        "note": 39,
        "velocity": 127,
        "slice": 81,
        "channel": 4
      }
    ],
    "1580": [
      {
        "start_tick": 1580,
        "start_time": 13.0794375,
        "end_tick": 1593,
        "end_time": 13.187053124999998,
        "length_ticks": 13,
        "length_time": 0.10761562499999933,
        "note": 79,
        "velocity": 127,
        "slice": 82,
        "channel": 1
      },
      {
        "start_tick": 1580,
        "start_time": 13.0794375,
        "end_tick": 1590,
        "end_time": 13.16221875,
        "length_ticks": 10,
        "length_time": 0.08278125000000003,
        "note": 70,
        "velocity": 127,
        "slice": 82,
        "channel": 2
      }
    ],
    "1596": [
      {
        "start_tick": 1596,
        "start_time": 13.211887499999998,
        "end_tick": 1609,
        "end_time": 13.319503124999999,
        "length_ticks": 13,
        "length_time": 0.1076156250000011,
        "note": 79,
        "velocity": 127,
        "slice": 83,
        "channel": 1
      },
      {
        "start_tick": 1596,
        "start_time": 13.211887499999998,
        "end_tick": 1606,
        "end_time": 13.29466875,
        "length_ticks": 10,
        "length_time": 0.0827812500000018,
        "note": 70,
        "velocity": 127,
        "slice": 83,
        "channel": 2
      },
      {
        "start_tick": 1596,
        "start_time": 13.211887499999998,
        "end_tick": 1609,
        "end_time": 13.319503124999999,
        "length_ticks": 13,
        "length_time": 0.1076156250000011,
        "note": 39,
        "velocity": 127,
        "slice": 83,
        "channel": 3
      }
    ],
    "1612": [
      {
        "start_tick": 1612,
        "start_time": 13.3443375,
        "end_tick": 1625,
        "end_time": 13.451953125000001,
        "length_ticks": 13,
        "length_time": 0.1076156250000011,
        "note": 77,
        "velocity": 127,
        "slice": 83,
        "channel": 1
      },
      {
        "start_tick": 1612,
        "start_time": 13.3443375,
        "end_tick": 1622,
        "end_time": 13.427118749999998,
        "length_ticks": 10,
        "length_time": 0.08278124999999825,
        "note": 69,
        "velocity": 127,
        "slice": 83,
        "channel": 2
      }
    ],
    "1613": [
      {
        "start_tick": 1613,
        "start_time": 13.352615624999999,
        "end_tick": 1626,
        "end_time": 13.46023125,
        "length_ticks": 13,
        "length_time": 0.1076156250000011,
        "note": 39,
        "velocity": 127,
        "slice": 83,
        "channel": 4
      }
    ],
    "1628": [
      {
        "start_tick": 1628,
        "start_time": 13.4767875,
        "end_tick": 1641,
        "end_time": 13.584403125,
        "length_ticks": 13,
        "length_time": 0.10761562499999933,
        "note": 75,
        "velocity": 127,
        "slice": 84,
        "channel": 1
      },
      {
        "start_tick": 1628,
        "start_time": 13.4767875,
        "end_tick": 1638,
        "end_time": 13.559568749999999,
        "length_ticks": 10,
        "length_time": 0.08278124999999825,
        "note": 67,
        "velocity": 127,
        "slice": 84,
        "channel": 2
      }
    ],
    "1644": [
      {
        "start_tick": 1644,
        "start_time": 13.609237499999999,
        "end_tick": 1657,
        "end_time": 13.716853125,
        "length_ticks": 13,
        "length_time": 0.1076156250000011,
        "note": 77,
        "velocity": 127,
        "slice": 85,
        "channel": 1
      },
      {
        "start_tick": 1644,
        "start_time": 13.609237499999999,
        "end_tick": 1654,
        "end_time": 13.69201875,
        "length_ticks": 10,
        "length_time": 0.0827812500000018,
        "note": 70,
        "velocity": 127,
        "slice": 85,
        "channel": 2
      },
      {
        "start_tick": 1644,
        "start_time": 13.609237499999999,
        "end_tick": 1657,
        "end_time": 13.716853125,
        "length_ticks": 13,
        "length_time": 0.1076156250000011,
        "note": 46,
        "velocity": 127,
        "slice": 85,
        "channel": 3
      }
    ],
    "1661": [
      {
        "start_tick": 1661,
        "start_time": 13.749965625,
        "end_tick": 1674,
        "end_time": 13.85758125,
        "length_ticks": 13,
        "length_time": 0.1076156250000011,
        "note": 46,
        "velocity": 127,
        "slice": 86,
        "channel": 4
      }
    ],
    "1676": [
      {
        "start_tick": 1676,
        "start_time": 13.874137499999998,
        "end_tick": 1689,
        "end_time": 13.981753125,
        "length_ticks": 13,
        "length_time": 0.1076156250000011,
        "note": 75,
        "velocity": 127,
        "slice": 87,
        "channel": 1
      },
      {
        "start_tick": 1676,
        "start_time": 13.874137499999998,
        "end_tick": 1686,
        "end_time": 13.95691875,
        "length_ticks": 10,
        "length_time": 0.0827812500000018,
        "note": 65,
        "velocity": 127,
        "slice": 87,
        "channel": 2
      }
    ],
    "1692": [
      {
        "start_tick": 1692,
        "start_time": 14.0065875,
        "end_tick": 1744,
        "end_time": 14.43705,
        "length_ticks": 52,
        "length_time": 0.4304624999999991,
        "note": 74,
        "velocity": 127,
        "slice": 88,
        "channel": 1
      },
      {
        "start_tick": 1692,
        "start_time": 14.0065875,
        "end_tick": 1702,
        "end_time": 14.089368749999998,
        "length_ticks": 10,
        "length_time": 0.08278124999999825,
        "note": 65,
        "velocity": 127,
        "slice": 88,
        "channel": 2
      },
      {
        "start_tick": 1692,
        "start_time": 14.0065875,
        "end_tick": 1703,
        "end_time": 14.097646875,
        "length_ticks": 11,
        "length_time": 0.09105937500000039,
        "note": 46,
        "velocity": 127,
        "slice": 88,
        "channel": 3
      }
    ],
    "1708": [
      {
        "start_tick": 1708,
        "start_time": 14.139037499999999,
        "end_tick": 1718,
        "end_time": 14.221818749999999,
        "length_ticks": 10,
        "length_time": 0.08278125000000003,
        "note": 65,
        "velocity": 127,
        "slice": 88,
        "channel": 2
      },
      {
        "start_tick": 1708,
        "start_time": 14.139037499999999,
        "end_tick": 1719,
        "end_time": 14.230096875,
        "length_ticks": 11,
        "length_time": 0.09105937500000039,
        "note": 46,
        "velocity": 127,
        "slice": 88,
        "channel": 3
      }
    ],
    "1709": [
      {
        "start_tick": 1709,
        "start_time": 14.147315625,
        "end_tick": 1720,
        "end_time": 14.238375,
        "length_ticks": 11,
        "length_time": 0.09105937500000039,
        "note": 46,
        "velocity": 127,
        "slice": 88,
        "channel": 4
      }
    ],
    "1724": [
      {
        "start_tick": 1724,
        "start_time": 14.2714875,
        "end_tick": 1734,
        "end_time": 14.354268750000001,
        "length_ticks": 10,
        "length_time": 0.0827812500000018,
        "note": 63,
        "velocity": 127,
        "slice": 89,
        "channel": 2
      },
      {
        "start_tick": 1724,
        "start_time": 14.2714875,
        "end_tick": 1735,
        "end_time": 14.362546875,
        "length_ticks": 11,
        "length_time": 0.09105937500000039,
        "note": 44,
        "velocity": 127,
        "slice": 89,
        "channel": 3
      }
    ],
    "1725": [
      {
        "start_tick": 1725,
        "start_time": 14.279765624999998,
        "end_tick": 1736,
        "end_time": 14.370824999999998,
        "length_ticks": 11,
        "length_time": 0.09105937500000039,
        "note": 46,
        "velocity": 127,
        "slice": 89,
        "channel": 4
      }
    ],
    "1740": [
      {
        "start_tick": 1740,
        "start_time": 14.4039375,
        "end_tick": 1750,
        "end_time": 14.48671875,
        "length_ticks": 10,
        "length_time": 0.08278125000000003,
        "note": 65,
        "velocity": 127,
        "slice": 90,
        "channel": 2
      },
      {
        "start_tick": 1740,
        "start_time": 14.4039375,
        "end_tick": 1753,
        "end_time": 14.511553124999999,
        "length_ticks": 13,
        "length_time": 0.10761562499999933,
        "note": 46,
        "velocity": 127,
        "slice": 90,
        "channel": 3
      }
    ],
    "1741": [
      {
        "start_tick": 1741,
        "start_time": 14.412215625,
        "end_tick": 1752,
        "end_time": 14.503275,
        "length_ticks": 11,
        "length_time": 0.09105937500000039,
        "note": 44,
        "velocity": 127,
        "slice": 90,
        "channel": 4
      }
    ],
    "1757": [
      {
        "start_tick": 1757,
        "start_time": 14.544665625,
        "end_tick": 1770,
        "end_time": 14.65228125,
        "length_ticks": 13,
        "length_time": 0.10761562499999933,
        "note": 46,
        "velocity": 127,
        "slice": 91,
        "channel": 4
      }
    ],
    "1772": [
      {
        "start_tick": 1772,
        "start_time": 14.6688375,
        "end_tick": 1782,
        "end_time": 14.751618749999999,
        "length_ticks": 10,
        "length_time": 0.08278124999999825,
        "note": 65,
        "velocity": 127,
        "slice": 92,
        "channel": 2
      }
    ],
    "1788": [
      {
        "start_tick": 1788,
        "start_time": 14.801287499999999,
        "end_tick": 1801,
        "end_time": 14.908903125,
        "length_ticks": 13,
        "length_time": 0.1076156250000011,
        "note": 74,
        "velocity": 127,
        "slice": 93,
        "channel": 1
      },
      {
        "start_tick": 1788,
        "start_time": 14.801287499999999,
        "end_tick": 1798,
        "end_time": 14.884068749999999,
        "length_ticks": 10,
        "length_time": 0.08278125000000003,
        "note": 65,
        "velocity": 127,
        "slice": 93,
        "channel": 2
      },
      {
        "start_tick": 1788,
        "start_time": 14.801287499999999,
        "end_tick": 1801,
        "end_time": 14.908903125,
        "length_ticks": 13,
        "length_time": 0.1076156250000011,
        "note": 46,
        "velocity": 127,
        "slice": 93,
        "channel": 3
      }
    ],
    "1804": [
      {
        "start_tick": 1804,
        "start_time": 14.9337375,
        "end_tick": 1817,
        "end_time": 15.041353124999999,
        "length_ticks": 13,
        "length_time": 0.10761562499999933,
        "note": 75,
        "velocity": 127,
        "slice": 93,
        "channel": 1
      },
      {
        "start_tick": 1804,
        "start_time": 14.9337375,
        "end_tick": 1814,
        "end_time": 15.016518749999998,
        "length_ticks": 10,
        "length_time": 0.08278124999999825,
        "note": 63,
        "velocity": 127,
        "slice": 93,
        "channel": 2
      }
    ],
    "1805": [
      {
        "start_tick": 1805,
        "start_time": 14.942015624999998,
        "end_tick": 1818,
        "end_time": 15.04963125,
        "length_ticks": 13,
        "length_time": 0.1076156250000011,
        "note": 46,
        "velocity": 127,
        "slice": 93,
        "channel": 4
      }
    ],
    "1820": [
      {
        "start_tick": 1820,
        "start_time": 15.0661875,
        "end_tick": 1833,
        "end_time": 15.173803125,
        "length_ticks": 13,
        "length_time": 0.10761562499999933,
        "note": 74,
        "velocity": 127,
        "slice": 94,
        "channel": 1
      },
      {
        "start_tick": 1820,
        "start_time": 15.0661875,
        "end_tick": 1830,
        "end_time": 15.14896875,
        "length_ticks": 10,
        "length_time": 0.08278125000000003,
        "note": 65,
        "velocity": 127,
        "slice": 94,
        "channel": 2
      }
    ],
    "1836": [
      {
        "start_tick": 1836,
        "start_time": 15.198637499999998,
        "end_tick": 1855,
        "end_time": 15.355921875,
        "length_ticks": 19,
        "length_time": 0.15728437500000148,
        "note": 72,
        "velocity": 127,
        "slice": 95,
        "channel": 1
      },
      {
        "start_tick": 1836,
        "start_time": 15.198637499999998,
        "end_tick": 1851,
        "end_time": 15.322809374999999,
        "length_ticks": 15,
        "length_time": 0.12417187500000004,
        "note": 63,
        "velocity": 127,
        "slice": 95,
        "channel": 2
      },
      {
        "start_tick": 1836,
        "start_time": 15.198637499999998,
        "end_tick": 1849,
        "end_time": 15.306253125,
        "length_ticks": 13,
        "length_time": 0.1076156250000011,
        "note": 44,
        "velocity": 127,
        "slice": 95,
        "channel": 3
      }
    ],
    "1853": [
      {
        "start_tick": 1853,
        "start_time": 15.339365625,
        "end_tick": 1866,
        "end_time": 15.44698125,
        "length_ticks": 13,
        "length_time": 0.1076156250000011,
        "note": 44,
        "velocity": 127,
        "slice": 96,
        "channel": 4
      }
    ],
    "1860": [
      {
        "start_tick": 1860,
        "start_time": 15.397312499999998,
        "end_tick": 1870,
        "end_time": 15.48009375,
        "length_ticks": 10,
        "length_time": 0.0827812500000018,
        "note": 72,
        "velocity": 127,
        "slice": 96,
        "channel": 1
      },
      {
        "start_tick": 1860,
        "start_time": 15.397312499999998,
        "end_tick": 1867,
        "end_time": 15.455259374999999,
        "length_ticks": 7,
        "length_time": 0.05794687500000073,
        "note": 63,
        "velocity": 127,
        "slice": 96,
        "channel": 2
      }
    ],
    "1872": [
      {
        "start_tick": 1872,
        "start_time": 15.49665,
        "end_tick": 1882,
        "end_time": 15.579431249999999,
        "length_ticks": 10,
        "length_time": 0.08278124999999825,
        "note": 74,
        "velocity": 127,
        "slice": 97,
        "channel": 1
      },
      {
        "start_tick": 1872,
        "start_time": 15.49665,
        "end_tick": 1879,
        "end_time": 15.554596875,
        "length_ticks": 7,
        "length_time": 0.057946874999998954,
        "note": 62,
        "velocity": 127,
        "slice": 97,
        "channel": 2
      }
    ],
    "1884": [
      {
        "start_tick": 1884,
        "start_time": 15.5959875,
        "end_tick": 1962,
        "end_time": 16.24168125,
        "length_ticks": 78,
        "length_time": 0.6456937499999995,
        "note": 75,
        "velocity": 127,
        "slice": 97,
        "channel": 1
      },
      {
        "start_tick": 1884,
        "start_time": 15.5959875,
        "end_tick": 1894,
        "end_time": 15.678768749999998,
        "length_ticks": 10,
        "length_time": 0.08278124999999825,
        "note": 63,
        "velocity": 127,
        "slice": 97,
        "channel": 2
      },
      {
        "start_tick": 1884,
        "start_time": 15.5959875,
        "end_tick": 1895,
        "end_time": 15.687046875,
        "length_ticks": 11,
        "length_time": 0.09105937500000039,
        "note": 44,
        "velocity": 127,
        "slice": 97,
        "channel": 3
      }
    ],
    "1900": [
      {
        "start_tick": 1900,
        "start_time": 15.728437499999998,
        "end_tick": 1910,
        "end_time": 15.81121875,
        "length_ticks": 10,
        "length_time": 0.0827812500000018,
        "note": 63,
        "velocity": 127,
        "slice": 98,
        "channel": 2
      },
      {
        "start_tick": 1900,
        "start_time": 15.728437499999998,
        "end_tick": 1911,
        "end_time": 15.819496874999999,
        "length_ticks": 11,
        "length_time": 0.09105937500000039,
        "note": 44,
        "velocity": 127,
        "slice": 98,
        "channel": 3
      }
    ],
    "1901": [
      {
        "start_tick": 1901,
        "start_time": 15.736715625,
        "end_tick": 1912,
        "end_time": 15.827775,
        "length_ticks": 11,
        "length_time": 0.09105937500000039,
        "note": 44,
        "velocity": 127,
        "slice": 98,
        "channel": 4
      }
    ],
    "1916": [
      {
        "start_tick": 1916,
        "start_time": 15.860887499999999,
        "end_tick": 1926,
        "end_time": 15.943668749999999,
        "length_ticks": 10,
        "length_time": 0.08278125000000003,
        "note": 65,
        "velocity": 127,
        "slice": 99,
        "channel": 2
      },
      {
        "start_tick": 1916,
        "start_time": 15.860887499999999,
        "end_tick": 1927,
        "end_time": 15.951946874999999,
        "length_ticks": 11,
        "length_time": 0.09105937500000039,
        "note": 43,
        "velocity": 127,
        "slice": 99,
        "channel": 3
      }
    ],
    "1917": [
      {
        "start_tick": 1917,
        "start_time": 15.869165624999999,
        "end_tick": 1928,
        "end_time": 15.960225,
        "length_ticks": 11,
        "length_time": 0.09105937500000039,
        "note": 44,
        "velocity": 127,
        "slice": 99,
        "channel": 4
      }
    ],
    "1932": [
      {
        "start_tick": 1932,
        "start_time": 15.9933375,
        "end_tick": 1952,
        "end_time": 16.1589,
        "length_ticks": 20,
        "length_time": 0.16556249999999828,
        "note": 67,
        "velocity": 127,
        "slice": 100,
        "channel": 2
      },
      {
        "start_tick": 1932,
        "start_time": 15.9933375,
        "end_tick": 1943,
        "end_time": 16.084396875,
        "length_ticks": 11,
        "length_time": 0.09105937499999861,
        "note": 44,
        "velocity": 127,
        "slice": 100,
        "channel": 3
      }
    ],
    "1933": [
      {
        "start_tick": 1933,
        "start_time": 16.001615625,
        "end_tick": 1944,
        "end_time": 16.092675,
        "length_ticks": 11,
        "length_time": 0.09105937500000039,
        "note": 43,
        "velocity": 127,
        "slice": 100,
        "channel": 4
      }
    ],
    "1949": [
      {
        "start_tick": 1949,
        "start_time": 16.134065624999998,
        "end_tick": 1960,
        "end_time": 16.225125,
        "length_ticks": 11,
        "length_time": 0.09105937500000039,
        "note": 44,
        "velocity": 127,
        "slice": 101,
        "channel": 4
      }
    ],
    "1980": [
      {
        "start_tick": 1980,
        "start_time": 16.3906875,
        "end_tick": 1999,
        "end_time": 16.547971874999998,
        "length_ticks": 19,
        "length_time": 0.1572843749999997,
        "note": 74,
        "velocity": 127,
        "slice": 102,
        "channel": 1
      },
      {
        "start_tick": 1980,
        "start_time": 16.3906875,
        "end_tick": 1995,
        "end_time": 16.514859375,
        "length_ticks": 15,
        "length_time": 0.12417187500000182,
        "note": 65,
        "velocity": 127,
        "slice": 102,
        "channel": 2
      },
      {
        "start_tick": 1980,
        "start_time": 16.3906875,
        "end_tick": 1991,
        "end_time": 16.481746875,
        "length_ticks": 11,
        "length_time": 0.09105937500000039,
        "note": 44,
        "velocity": 127,
        "slice": 102,
        "channel": 3
      }
    ],
    "1996": [
      {
        "start_tick": 1996,
        "start_time": 16.5231375,
        "end_tick": 2007,
        "end_time": 16.614196875,
        "length_ticks": 11,
        "length_time": 0.09105937500000039,
        "note": 44,
        "velocity": 127,
        "slice": 103,
        "channel": 3
      }
    ],
    "1997": [
      {
        "start_tick": 1997,
        "start_time": 16.531415624999998,
        "end_tick": 2008,
        "end_time": 16.622474999999998,
        "length_ticks": 11,
        "length_time": 0.09105937500000039,
        "note": 44,
        "velocity": 127,
        "slice": 103,
        "channel": 4
      }
    ],
    "2004": [
      {
        "start_tick": 2004,
        "start_time": 16.5893625,
        "end_tick": 2023,
        "end_time": 16.746646875,
        "length_ticks": 19,
        "length_time": 0.1572843749999997,
        "note": 72,
        "velocity": 127,
        "slice": 104,
        "channel": 1
      },
      {
        "start_tick": 2004,
        "start_time": 16.5893625,
        "end_tick": 2019,
        "end_time": 16.713534375,
        "length_ticks": 15,
        "length_time": 0.12417187499999827,
        "note": 63,
        "velocity": 127,
        "slice": 104,
        "channel": 2
      }
    ],
    "2012": [
      {
        "start_tick": 2012,
        "start_time": 16.6555875,
        "end_tick": 2023,
        "end_time": 16.746646875,
        "length_ticks": 11,
        "length_time": 0.09105937500000039,
        "note": 44,
        "velocity": 127,
        "slice": 104,
        "channel": 3
      }
    ],
    "2013": [
      {
        "start_tick": 2013,
        "start_time": 16.663865625,
        "end_tick": 2024,
        "end_time": 16.754925,
        "length_ticks": 11,
        "length_time": 0.09105937500000039,
        "note": 44,
        "velocity": 127,
        "slice": 104,
        "channel": 4
      }
    ],
    "2028": [
      {
        "start_tick": 2028,
        "start_time": 16.788037499999998,
        "end_tick": 2047,
        "end_time": 16.945321875,
        "length_ticks": 19,
        "length_time": 0.15728437500000325,
        "note": 70,
        "velocity": 127,
        "slice": 105,
        "channel": 1
      },
      {
        "start_tick": 2028,
        "start_time": 16.788037499999998,
        "end_tick": 2043,
        "end_time": 16.912209375,
        "length_ticks": 15,
        "length_time": 0.12417187500000182,
        "note": 62,
        "velocity": 127,
        "slice": 105,
        "channel": 2
      },
      {
        "start_tick": 2028,
        "start_time": 16.788037499999998,
        "end_tick": 2039,
        "end_time": 16.879096875,
        "length_ticks": 11,
        "length_time": 0.09105937500000039,
        "note": 43,
        "velocity": 127,
        "slice": 105,
        "channel": 3
      }
    ],
    "2029": [
      {
        "start_tick": 2029,
        "start_time": 16.796315625,
        "end_tick": 2040,
        "end_time": 16.887375,
        "length_ticks": 11,
        "length_time": 0.09105937500000039,
        "note": 44,
        "velocity": 127,
        "slice": 105,
        "channel": 4
      }
    ],
    "2045": [
      {
        "start_tick": 2045,
        "start_time": 16.928765625,
        "end_tick": 2056,
        "end_time": 17.019825,
        "length_ticks": 11,
        "length_time": 0.09105937500000039,
        "note": 43,
        "velocity": 127,
        "slice": 106,
        "channel": 4
      }
    ],
    "2052": [
      {
        "start_tick": 2052,
        "start_time": 16.9867125,
        "end_tick": 2062,
        "end_time": 17.06949375,
        "length_ticks": 10,
        "length_time": 0.08278125000000003,
        "note": 70,
        "velocity": 127,
        "slice": 106,
        "channel": 1
      },
      {
        "start_tick": 2052,
        "start_time": 16.9867125,
        "end_tick": 2059,
        "end_time": 17.044659375,
        "length_ticks": 7,
        "length_time": 0.057946874999998954,
        "note": 62,
        "velocity": 127,
        "slice": 106,
        "channel": 2
      }
    ],
    "2064": [
      {
        "start_tick": 2064,
        "start_time": 17.08605,
        "end_tick": 2074,
        "end_time": 17.16883125,
        "length_ticks": 10,
        "length_time": 0.08278125000000003,
        "note": 72,
        "velocity": 127,
        "slice": 107,
        "channel": 1
      },
      {
        "start_tick": 2064,
        "start_time": 17.08605,
        "end_tick": 2071,
        "end_time": 17.143996875,
        "length_ticks": 7,
        "length_time": 0.057946874999998954,
        "note": 60,
        "velocity": 127,
        "slice": 107,
        "channel": 2
      }
    ],
    "2076": [
      {
        "start_tick": 2076,
        "start_time": 17.1853875,
        "end_tick": 2154,
        "end_time": 17.83108125,
        "length_ticks": 78,
        "length_time": 0.6456937499999995,
        "note": 74,
        "velocity": 127,
        "slice": 107,
        "channel": 1
      },
      {
        "start_tick": 2076,
        "start_time": 17.1853875,
        "end_tick": 2085,
        "end_time": 17.259890625,
        "length_ticks": 9,
        "length_time": 0.07450312499999967,
        "note": 62,
        "velocity": 127,
        "slice": 107,
        "channel": 2
      },
      {
        "start_tick": 2076,
        "start_time": 17.1853875,
        "end_tick": 2087,
        "end_time": 17.276446875,
        "length_ticks": 11,
        "length_time": 0.09105937500000039,
        "note": 43,
        "velocity": 127,
        "slice": 107,
        "channel": 3
      }
    ],
    "2092": [
      {
        "start_tick": 2092,
        "start_time": 17.3178375,
        "end_tick": 2101,
        "end_time": 17.392340625,
        "length_ticks": 9,
        "length_time": 0.07450312499999967,
        "note": 62,
        "velocity": 127,
        "slice": 108,
        "channel": 2
      },
      {
        "start_tick": 2092,
        "start_time": 17.3178375,
        "end_tick": 2103,
        "end_time": 17.408896875,
        "length_ticks": 11,
        "length_time": 0.09105937500000039,
        "note": 43,
        "velocity": 127,
        "slice": 108,
        "channel": 3
      }
    ],
    "2093": [
      {
        "start_tick": 2093,
        "start_time": 17.326115625,
        "end_tick": 2104,
        "end_time": 17.417175,
        "length_ticks": 11,
        "length_time": 0.09105937500000039,
        "note": 43,
        "velocity": 127,
        "slice": 108,
        "channel": 4
      }
    ],
    "2108": [
      {
        "start_tick": 2108,
        "start_time": 17.450287499999998,
        "end_tick": 2117,
        "end_time": 17.524790624999998,
        "length_ticks": 9,
        "length_time": 0.07450312499999967,
        "note": 63,
        "velocity": 127,
        "slice": 109,
        "channel": 2
      },
      {
        "start_tick": 2108,
        "start_time": 17.450287499999998,
        "end_tick": 2119,
        "end_time": 17.541346875,
        "length_ticks": 11,
        "length_time": 0.09105937500000039,
        "note": 41,
        "velocity": 127,
        "slice": 109,
        "channel": 3
      }
    ],
    "2109": [
      {
        "start_tick": 2109,
        "start_time": 17.458565625,
        "end_tick": 2120,
        "end_time": 17.549625,
        "length_ticks": 11,
        "length_time": 0.09105937500000039,
        "note": 43,
        "velocity": 127,
        "slice": 109,
        "channel": 4
      }
    ],
    "2124": [
      {
        "start_tick": 2124,
        "start_time": 17.582737499999997,
        "end_tick": 2143,
        "end_time": 17.740021875,
        "length_ticks": 19,
        "length_time": 0.15728437500000325,
        "note": 65,
        "velocity": 127,
        "slice": 110,
        "channel": 2
      },
      {
        "start_tick": 2124,
        "start_time": 17.582737499999997,
        "end_tick": 2135,
        "end_time": 17.673796874999997,
        "length_ticks": 11,
        "length_time": 0.09105937500000039,
        "note": 43,
        "velocity": 127,
        "slice": 110,
        "channel": 3
      }
    ],
    "2125": [
      {
        "start_tick": 2125,
        "start_time": 17.591015625,
        "end_tick": 2136,
        "end_time": 17.682075,
        "length_ticks": 11,
        "length_time": 0.09105937500000039,
        "note": 41,
        "velocity": 127,
        "slice": 110,
        "channel": 4
      }
    ],
    "2141": [
      {
        "start_tick": 2141,
        "start_time": 17.723465625,
        "end_tick": 2152,
        "end_time": 17.814525,
        "length_ticks": 11,
        "length_time": 0.09105937500000039,
        "note": 43,
        "velocity": 127,
        "slice": 111,
        "channel": 4
      }
    ],
    "2172": [
      {
        "start_tick": 2172,
        "start_time": 17.9800875,
        "end_tick": 2191,
        "end_time": 18.137371875,
        "length_ticks": 19,
        "length_time": 0.1572843749999997,
        "note": 72,
        "velocity": 127,
        "slice": 112,
        "channel": 1
      },
      {
        "start_tick": 2172,
        "start_time": 17.9800875,
        "end_tick": 2186,
        "end_time": 18.095981249999998,
        "length_ticks": 14,
        "length_time": 0.11589374999999791,
        "note": 63,
        "velocity": 127,
        "slice": 112,
        "channel": 2
      },
      {
        "start_tick": 2172,
        "start_time": 17.9800875,
        "end_tick": 2183,
        "end_time": 18.071146875,
        "length_ticks": 11,
        "length_time": 0.09105937500000039,
        "note": 43,
        "velocity": 127,
        "slice": 112,
        "channel": 3
      }
    ],
    "2188": [
      {
        "start_tick": 2188,
        "start_time": 18.1125375,
        "end_tick": 2199,
        "end_time": 18.203596875,
        "length_ticks": 11,
        "length_time": 0.09105937500000039,
        "note": 43,
        "velocity": 127,
        "slice": 113,
        "channel": 3
      }
    ],
    "2189": [
      {
        "start_tick": 2189,
        "start_time": 18.120815625,
        "end_tick": 2200,
        "end_time": 18.211875,
        "length_ticks": 11,
        "length_time": 0.09105937500000039,
        "note": 43,
        "velocity": 127,
        "slice": 113,
        "channel": 4
      }
    ],
    "2196": [
      {
        "start_tick": 2196,
        "start_time": 18.1787625,
        "end_tick": 2215,
        "end_time": 18.336046874999997,
        "length_ticks": 19,
        "length_time": 0.15728437499999615,
        "note": 70,
        "velocity": 127,
        "slice": 114,
        "channel": 1
      },
      {
        "start_tick": 2196,
        "start_time": 18.1787625,
        "end_tick": 2210,
        "end_time": 18.29465625,
        "length_ticks": 14,
        "length_time": 0.11589374999999791,
        "note": 62,
        "velocity": 127,
        "slice": 114,
        "channel": 2
      }
    ],
    "2204": [
      {
        "start_tick": 2204,
        "start_time": 18.244987499999997,
        "end_tick": 2215,
        "end_time": 18.336046874999997,
        "length_ticks": 11,
        "length_time": 0.09105937500000039,
        "note": 43,
        "velocity": 127,
        "slice": 114,
        "channel": 3
      }
    ],
    "2205": [
      {
        "start_tick": 2205,
        "start_time": 18.253265625,
        "end_tick": 2216,
        "end_time": 18.344325,
        "length_ticks": 11,
        "length_time": 0.09105937500000039,
        "note": 43,
        "velocity": 127,
        "slice": 114,
        "channel": 4
      }
    ],
    "2220": [
      {
        "start_tick": 2220,
        "start_time": 18.3774375,
        "end_tick": 2239,
        "end_time": 18.534721875,
        "length_ticks": 19,
        "length_time": 0.1572843749999997,
        "note": 69,
        "velocity": 127,
        "slice": 115,
        "channel": 1
      },
      {
        "start_tick": 2220,
        "start_time": 18.3774375,
        "end_tick": 2239,
        "end_time": 18.534721875,
        "length_ticks": 19,
        "length_time": 0.1572843749999997,
        "note": 61,
        "velocity": 127,
        "slice": 115,
        "channel": 2
      },
      {
        "start_tick": 2220,
        "start_time": 18.3774375,
        "end_tick": 2231,
        "end_time": 18.468496875,
        "length_ticks": 11,
        "length_time": 0.09105937500000039,
        "note": 45,
        "velocity": 127,
        "slice": 115,
        "channel": 3
      }
    ],
    "2221": [
      {
        "start_tick": 2221,
        "start_time": 18.385715625,
        "end_tick": 2232,
        "end_time": 18.476775,
        "length_ticks": 11,
        "length_time": 0.09105937500000039,
        "note": 43,
        "velocity": 127,
        "slice": 115,
        "channel": 4
      }
    ],
    "2237": [
      {
        "start_tick": 2237,
        "start_time": 18.518165624999998,
        "end_tick": 2248,
        "end_time": 18.609225,
        "length_ticks": 11,
        "length_time": 0.09105937500000039,
        "note": 45,
        "velocity": 127,
        "slice": 116,
        "channel": 4
      }
    ],
    "2244": [
      {
        "start_tick": 2244,
        "start_time": 18.576112499999997,
        "end_tick": 2253,
        "end_time": 18.650615624999997,
        "length_ticks": 9,
        "length_time": 0.07450312499999967,
        "note": 69,
        "velocity": 127,
        "slice": 116,
        "channel": 1
      }
    ],
    "2256": [
      {
        "start_tick": 2256,
        "start_time": 18.67545,
        "end_tick": 2265,
        "end_time": 18.749953125,
        "length_ticks": 9,
        "length_time": 0.07450312499999967,
        "note": 71,
        "velocity": 127,
        "slice": 117,
        "channel": 1
      }
    ],
    "2268": [
      {
        "start_tick": 2268,
        "start_time": 18.7747875,
        "end_tick": 2340,
        "end_time": 19.3708125,
        "length_ticks": 72,
        "length_time": 0.5960250000000009,
        "note": 73,
        "velocity": 127,
        "slice": 117,
        "channel": 1
      },
      {
        "start_tick": 2268,
        "start_time": 18.7747875,
        "end_tick": 2277,
        "end_time": 18.849290625,
        "length_ticks": 9,
        "length_time": 0.07450312499999967,
        "note": 61,
        "velocity": 127,
        "slice": 117,
        "channel": 2
      },
      {
        "start_tick": 2268,
        "start_time": 18.7747875,
        "end_tick": 2279,
        "end_time": 18.865846875,
        "length_ticks": 11,
        "length_time": 0.09105937500000039,
        "note": 45,
        "velocity": 127,
        "slice": 117,
        "channel": 3
      }
    ],
    "2284": [
      {
        "start_tick": 2284,
        "start_time": 18.907237499999997,
        "end_tick": 2293,
        "end_time": 18.981740624999997,
        "length_ticks": 9,
        "length_time": 0.07450312499999967,
        "note": 61,
        "velocity": 127,
        "slice": 118,
        "channel": 2
      },
      {
        "start_tick": 2284,
        "start_time": 18.907237499999997,
        "end_tick": 2295,
        "end_time": 18.998296874999998,
        "length_ticks": 11,
        "length_time": 0.09105937500000039,
        "note": 45,
        "velocity": 127,
        "slice": 118,
        "channel": 3
      }
    ],
    "2285": [
      {
        "start_tick": 2285,
        "start_time": 18.915515625,
        "end_tick": 2296,
        "end_time": 19.006574999999998,
        "length_ticks": 11,
        "length_time": 0.09105937499999683,
        "note": 45,
        "velocity": 127,
        "slice": 118,
        "channel": 4
      }
    ],
    "2300": [
      {
        "start_tick": 2300,
        "start_time": 19.0396875,
        "end_tick": 2309,
        "end_time": 19.114190625,
        "length_ticks": 9,
        "length_time": 0.07450312499999967,
        "note": 62,
        "velocity": 127,
        "slice": 119,
        "channel": 2
      },
      {
        "start_tick": 2300,
        "start_time": 19.0396875,
        "end_tick": 2311,
        "end_time": 19.130746875,
        "length_ticks": 11,
        "length_time": 0.09105937500000039,
        "note": 45,
        "velocity": 127,
        "slice": 119,
        "channel": 3
      }
    ],
    "2301": [
      {
        "start_tick": 2301,
        "start_time": 19.047965625,
        "end_tick": 2312,
        "end_time": 19.139025,
        "length_ticks": 11,
        "length_time": 0.09105937500000039,
        "note": 45,
        "velocity": 127,
        "slice": 119,
        "channel": 4
      }
    ],
    "2316": [
      {
        "start_tick": 2316,
        "start_time": 19.172137499999998,
        "end_tick": 2335,
        "end_time": 19.329421874999998,
        "length_ticks": 19,
        "length_time": 0.1572843749999997,
        "note": 64,
        "velocity": 127,
        "slice": 120,
        "channel": 2
      },
      {
        "start_tick": 2316,
        "start_time": 19.172137499999998,
        "end_tick": 2327,
        "end_time": 19.263196875,
        "length_ticks": 11,
        "length_time": 0.09105937500000039,
        "note": 45,
        "velocity": 127,
        "slice": 120,
        "channel": 3
      }
    ],
    "2317": [
      {
        "start_tick": 2317,
        "start_time": 19.180415625,
        "end_tick": 2328,
        "end_time": 19.271475,
        "length_ticks": 11,
        "length_time": 0.09105937500000039,
        "note": 45,
        "velocity": 127,
        "slice": 120,
        "channel": 4
      }
    ],
    "2333": [
      {
        "start_tick": 2333,
        "start_time": 19.312865624999997,
        "end_tick": 2344,
        "end_time": 19.403924999999997,
        "length_ticks": 11,
        "length_time": 0.09105937500000039,
        "note": 45,
        "velocity": 127,
        "slice": 121,
        "channel": 4
      }
    ],
    "2340": [
      {
        "start_tick": 2340,
        "start_time": 19.3708125,
        "end_tick": 2347,
        "end_time": 19.428759375,
        "length_ticks": 7,
        "length_time": 0.057946874999998954,
        "note": 64,
        "velocity": 127,
        "slice": 121,
        "channel": 2
      }
    ],
    "2352": [
      {
        "start_tick": 2352,
        "start_time": 19.47015,
        "end_tick": 2359,
        "end_time": 19.528096875,
        "length_ticks": 7,
        "length_time": 0.057946874999998954,
        "note": 66,
        "velocity": 127,
        "slice": 122,
        "channel": 2
      }
    ],
    "2364": [
      {
        "start_tick": 2364,
        "start_time": 19.569487499999997,
        "end_tick": 2400,
        "end_time": 19.8675,
        "length_ticks": 36,
        "length_time": 0.29801250000000223,
        "note": 76,
        "velocity": 127,
        "slice": 122,
        "channel": 1
      },
      {
        "start_tick": 2364,
        "start_time": 19.569487499999997,
        "end_tick": 2371,
        "end_time": 19.627434375,
        "length_ticks": 7,
        "length_time": 0.05794687500000251,
        "note": 67,
        "velocity": 127,
        "slice": 122,
        "channel": 2
      },
      {
        "start_tick": 2364,
        "start_time": 19.569487499999997,
        "end_tick": 2375,
        "end_time": 19.660546874999998,
        "length_ticks": 11,
        "length_time": 0.09105937500000039,
        "note": 45,
        "velocity": 127,
        "slice": 122,
        "channel": 3
      }
    ],
    "2376": [
      {
        "start_tick": 2376,
        "start_time": 19.668825,
        "end_tick": 2383,
        "end_time": 19.726771875,
        "length_ticks": 7,
        "length_time": 0.05794687500000251,
        "note": 69,
        "velocity": 127,
        "slice": 123,
        "channel": 2
      }
    ],
    "2380": [
      {
        "start_tick": 2380,
        "start_time": 19.7019375,
        "end_tick": 2391,
        "end_time": 19.792996875,
        "length_ticks": 11,
        "length_time": 0.09105937500000039,
        "note": 45,
        "velocity": 127,
        "slice": 123,
        "channel": 3
      }
    ],
    "2381": [
      {
        "start_tick": 2381,
        "start_time": 19.710215625,
        "end_tick": 2392,
        "end_time": 19.801275,
        "length_ticks": 11,
        "length_time": 0.09105937500000039,
        "note": 45,
        "velocity": 127,
        "slice": 123,
        "channel": 4
      }
    ],
    "2388": [
      {
        "start_tick": 2388,
        "start_time": 19.7681625,
        "end_tick": 2395,
        "end_time": 19.826109374999998,
        "length_ticks": 7,
        "length_time": 0.057946874999998954,
        "note": 70,
        "velocity": 127,
        "slice": 124,
        "channel": 2
      }
    ],
    "2396": [
      {
        "start_tick": 2396,
        "start_time": 19.8343875,
        "end_tick": 2407,
        "end_time": 19.925446875,
        "length_ticks": 11,
        "length_time": 0.09105937500000039,
        "note": 45,
        "velocity": 127,
        "slice": 124,
        "channel": 3
      }
    ],
    "2397": [
      {
        "start_tick": 2397,
        "start_time": 19.842665625,
        "end_tick": 2408,
        "end_time": 19.933725,
        "length_ticks": 11,
        "length_time": 0.09105937500000039,
        "note": 45,
        "velocity": 127,
        "slice": 124,
        "channel": 4
      }
    ],
    "2400": [
      {
        "start_tick": 2400,
        "start_time": 19.8675,
        "end_tick": 2407,
        "end_time": 19.925446875,
        "length_ticks": 7,
        "length_time": 0.057946874999998954,
        "note": 72,
        "velocity": 127,
        "slice": 124,
        "channel": 2
      }
    ],
    "2412": [
      {
        "start_tick": 2412,
        "start_time": 19.9668375,
        "end_tick": 2448,
        "end_time": 20.26485,
        "length_ticks": 36,
        "length_time": 0.2980124999999987,
        "note": 74,
        "velocity": 127,
        "slice": 125,
        "channel": 1
      },
      {
        "start_tick": 2412,
        "start_time": 19.9668375,
        "end_tick": 2460,
        "end_time": 20.3641875,
        "length_ticks": 48,
        "length_time": 0.3973499999999994,
        "note": 69,
        "velocity": 127,
        "slice": 125,
        "channel": 2
      },
      {
        "start_tick": 2412,
        "start_time": 19.9668375,
        "end_tick": 2423,
        "end_time": 20.057896875,
        "length_ticks": 11,
        "length_time": 0.09105937500000039,
        "note": 50,
        "velocity": 127,
        "slice": 125,
        "channel": 3
      }
    ],
    "2413": [
      {
        "start_tick": 2413,
        "start_time": 19.975115624999997,
        "end_tick": 2424,
        "end_time": 20.066174999999998,
        "length_ticks": 11,
        "length_time": 0.09105937500000039,
        "note": 45,
        "velocity": 127,
        "slice": 125,
        "channel": 4
      }
    ],
    "2429": [
      {
        "start_tick": 2429,
        "start_time": 20.107565625,
        "end_tick": 2440,
        "end_time": 20.198625,
        "length_ticks": 11,
        "length_time": 0.09105937500000039,
        "note": 50,
        "velocity": 127,
        "slice": 126,
        "channel": 4
      }
    ],
    "2436": [
      {
        "start_tick": 2436,
        "start_time": 20.1655125,
        "end_tick": 2440,
        "end_time": 20.198625,
        "length_ticks": 4,
        "length_time": 0.03311250000000143,
        "note": 62,
        "velocity": 117,
        "slice": 126,
        "channel": 5
      }
    ],
    "2444": [
      {
        "start_tick": 2444,
        "start_time": 20.231737499999998,
        "end_tick": 2448,
        "end_time": 20.26485,
        "length_ticks": 4,
        "length_time": 0.03311250000000143,
        "note": 62,
        "velocity": 117,
        "slice": 126,
        "channel": 5
      }
    ],
    "2452": [
      {
        "start_tick": 2452,
        "start_time": 20.2979625,
        "end_tick": 2456,
        "end_time": 20.331075,
        "length_ticks": 4,
        "length_time": 0.03311249999999788,
        "note": 62,
        "velocity": 117,
        "slice": 127,
        "channel": 5
      }
    ],
    "2460": [
      {
        "start_tick": 2460,
        "start_time": 20.3641875,
        "end_tick": 2471,
        "end_time": 20.455246874999997,
        "length_ticks": 11,
        "length_time": 0.09105937499999683,
        "note": 55,
        "velocity": 127,
        "slice": 127,
        "channel": 3
      },
      {
        "start_tick": 2460,
        "start_time": 20.3641875,
        "end_tick": 2473,
        "end_time": 20.471803124999997,
        "length_ticks": 13,
        "length_time": 0.10761562499999755,
        "note": 60,
        "velocity": 117,
        "slice": 127,
        "channel": 5
      },
      {
        "start_tick": 2460,
        "start_time": 20.3641875,
        "end_tick": 2472,
        "end_time": 20.463525,
        "length_ticks": 12,
        "length_time": 0.09933750000000074,
        "note": 64,
        "velocity": 117,
        "slice": 127,
        "channel": 6
      }
    ],
    "2476": [
      {
        "start_tick": 2476,
        "start_time": 20.4966375,
        "end_tick": 2487,
        "end_time": 20.587696875,
        "length_ticks": 11,
        "length_time": 0.09105937500000039,
        "note": 55,
        "velocity": 127,
        "slice": 128,
        "channel": 3
      },
      {
        "start_tick": 2476,
        "start_time": 20.4966375,
        "end_tick": 2489,
        "end_time": 20.604253125,
        "length_ticks": 13,
        "length_time": 0.1076156250000011,
        "note": 60,
        "velocity": 117,
        "slice": 128,
        "channel": 5
      },
      {
        "start_tick": 2476,
        "start_time": 20.4966375,
        "end_tick": 2488,
        "end_time": 20.595975,
        "length_ticks": 12,
        "length_time": 0.09933750000000074,
        "note": 64,
        "velocity": 117,
        "slice": 128,
        "channel": 6
      }
    ],
    "2477": [
      {
        "start_tick": 2477,
        "start_time": 20.504915625,
        "end_tick": 2488,
        "end_time": 20.595975,
        "length_ticks": 11,
        "length_time": 0.09105937500000039,
        "note": 55,
        "velocity": 127,
        "slice": 128,
        "channel": 4
      }
    ],
    "2492": [
      {
        "start_tick": 2492,
        "start_time": 20.6290875,
        "end_tick": 2503,
        "end_time": 20.720146875,
        "length_ticks": 11,
        "length_time": 0.09105937500000039,
        "note": 55,
        "velocity": 127,
        "slice": 129,
        "channel": 3
      },
      {
        "start_tick": 2492,
        "start_time": 20.6290875,
        "end_tick": 2505,
        "end_time": 20.736703125,
        "length_ticks": 13,
        "length_time": 0.10761562499999755,
        "note": 60,
        "velocity": 117,
        "slice": 129,
        "channel": 5
      },
      {
        "start_tick": 2492,
        "start_time": 20.6290875,
        "end_tick": 2504,
        "end_time": 20.728424999999998,
        "length_ticks": 12,
        "length_time": 0.09933749999999719,
        "note": 64,
        "velocity": 117,
        "slice": 129,
        "channel": 6
      }
    ],
    "2493": [
      {
        "start_tick": 2493,
        "start_time": 20.637365624999997,
        "end_tick": 2504,
        "end_time": 20.728424999999998,
        "length_ticks": 11,
        "length_time": 0.09105937500000039,
        "note": 55,
        "velocity": 127,
        "slice": 129,
        "channel": 4
      }
    ],
    "2508": [
      {
        "start_tick": 2508,
        "start_time": 20.7615375,
        "end_tick": 2541,
        "end_time": 21.034715625,
        "length_ticks": 33,
        "length_time": 0.27317812500000116,
        "note": 57,
        "velocity": 127,
        "slice": 130,
        "channel": 3
      },
      {
        "start_tick": 2508,
        "start_time": 20.7615375,
        "end_tick": 2548,
        "end_time": 21.0926625,
        "length_ticks": 40,
        "length_time": 0.3311250000000001,
        "note": 62,
        "velocity": 117,
        "slice": 130,
        "channel": 5
      },
      {
        "start_tick": 2508,
        "start_time": 20.7615375,
        "end_tick": 2548,
        "end_time": 21.0926625,
        "length_ticks": 40,
        "length_time": 0.3311250000000001,
        "note": 66,
        "velocity": 117,
        "slice": 130,
        "channel": 6
      }
    ],
    "2509": [
      {
        "start_tick": 2509,
        "start_time": 20.769815625,
        "end_tick": 2520,
        "end_time": 20.860875,
        "length_ticks": 11,
        "length_time": 0.09105937500000039,
        "note": 55,
        "velocity": 127,
        "slice": 130,
        "channel": 4
      }
    ],
    "2525": [
      {
        "start_tick": 2525,
        "start_time": 20.902265625,
        "end_tick": 2558,
        "end_time": 21.17544375,
        "length_ticks": 33,
        "length_time": 0.27317812500000116,
        "note": 57,
        "velocity": 127,
        "slice": 131,
        "channel": 4
      }
    ],
    "2556": [
      {
        "start_tick": 2556,
        "start_time": 21.1588875,
        "end_tick": 2572,
        "end_time": 21.2913375,
        "length_ticks": 16,
        "length_time": 0.13245000000000218,
        "note": 40,
        "velocity": 127,
        "slice": 132,
        "channel": 3
      }
    ],
    "2573": [
      {
        "start_tick": 2573,
        "start_time": 21.299615624999998,
        "end_tick": 2589,
        "end_time": 21.432065624999996,
        "length_ticks": 16,
        "length_time": 0.13244999999999862,
        "note": 40,
        "velocity": 127,
        "slice": 133,
        "channel": 4
      }
    ],
    "2580": [
      {
        "start_tick": 2580,
        "start_time": 21.3575625,
        "end_tick": 2596,
        "end_time": 21.490012500000002,
        "length_ticks": 16,
        "length_time": 0.13245000000000218,
        "note": 42,
        "velocity": 127,
        "slice": 133,
        "channel": 3
      }
    ],
    "2597": [
      {
        "start_tick": 2597,
        "start_time": 21.498290625,
        "end_tick": 2613,
        "end_time": 21.630740624999998,
        "length_ticks": 16,
        "length_time": 0.13244999999999862,
        "note": 42,
        "velocity": 127,
        "slice": 134,
        "channel": 4
      }
    ],
    "2604": [
      {
        "start_tick": 2604,
        "start_time": 21.556237499999998,
        "end_tick": 2630,
        "end_time": 21.771468749999997,
        "length_ticks": 26,
        "length_time": 0.21523124999999865,
        "note": 67,
        "velocity": 127,
        "slice": 135,
        "channel": 1
      },
      {
        "start_tick": 2604,
        "start_time": 21.556237499999998,
        "end_tick": 2624,
        "end_time": 21.721799999999998,
        "length_ticks": 20,
        "length_time": 0.16556250000000006,
        "note": 59,
        "velocity": 127,
        "slice": 135,
        "channel": 2
      },
      {
        "start_tick": 2604,
        "start_time": 21.556237499999998,
        "end_tick": 2615,
        "end_time": 21.647296875,
        "length_ticks": 11,
        "length_time": 0.09105937500000039,
        "note": 43,
        "velocity": 127,
        "slice": 135,
        "channel": 3
      }
    ],
    "2621": [
      {
        "start_tick": 2621,
        "start_time": 21.696965625,
        "end_tick": 2632,
        "end_time": 21.788025,
        "length_ticks": 11,
        "length_time": 0.09105937500000039,
        "note": 43,
        "velocity": 127,
        "slice": 136,
        "channel": 4
      }
    ],
    "2652": [
      {
        "start_tick": 2652,
        "start_time": 21.953587499999998,
        "end_tick": 2704,
        "end_time": 22.38405,
        "length_ticks": 52,
        "length_time": 0.43046250000000086,
        "note": 62,
        "velocity": 127,
        "slice": 137,
        "channel": 1
      },
      {
        "start_tick": 2652,
        "start_time": 21.953587499999998,
        "end_tick": 2662,
        "end_time": 22.036368749999998,
        "length_ticks": 10,
        "length_time": 0.08278125000000003,
        "note": 60,
        "velocity": 127,
        "slice": 137,
        "channel": 2
      },
      {
        "start_tick": 2652,
        "start_time": 21.953587499999998,
        "end_tick": 2663,
        "end_time": 22.044646874999998,
        "length_ticks": 11,
        "length_time": 0.09105937500000039,
        "note": 43,
        "velocity": 127,
        "slice": 137,
        "channel": 3
      }
    ],
    "2668": [
      {
        "start_tick": 2668,
        "start_time": 22.0860375,
        "end_tick": 2678,
        "end_time": 22.16881875,
        "length_ticks": 10,
        "length_time": 0.08278125000000003,
        "note": 59,
        "velocity": 127,
        "slice": 138,
        "channel": 2
      },
      {
        "start_tick": 2668,
        "start_time": 22.0860375,
        "end_tick": 2679,
        "end_time": 22.177096875,
        "length_ticks": 11,
        "length_time": 0.09105937500000039,
        "note": 43,
        "velocity": 127,
        "slice": 138,
        "channel": 3
      }
    ],
    "2669": [
      {
        "start_tick": 2669,
        "start_time": 22.094315624999997,
        "end_tick": 2680,
        "end_time": 22.185374999999997,
        "length_ticks": 11,
        "length_time": 0.09105937500000039,
        "note": 43,
        "velocity": 127,
        "slice": 138,
        "channel": 4
      }
    ],
    "2684": [
      {
        "start_tick": 2684,
        "start_time": 22.2184875,
        "end_tick": 2694,
        "end_time": 22.301268750000002,
        "length_ticks": 10,
        "length_time": 0.08278125000000358,
        "note": 57,
        "velocity": 127,
        "slice": 139,
        "channel": 2
      },
      {
        "start_tick": 2684,
        "start_time": 22.2184875,
        "end_tick": 2695,
        "end_time": 22.309546875,
        "length_ticks": 11,
        "length_time": 0.09105937500000039,
        "note": 41,
        "velocity": 127,
        "slice": 139,
        "channel": 3
      }
    ],
    "2685": [
      {
        "start_tick": 2685,
        "start_time": 22.226765625,
        "end_tick": 2696,
        "end_time": 22.317825,
        "length_ticks": 11,
        "length_time": 0.09105937500000039,
        "note": 43,
        "velocity": 127,
        "slice": 139,
        "channel": 4
      }
    ],
    "2700": [
      {
        "start_tick": 2700,
        "start_time": 22.3509375,
        "end_tick": 2720,
        "end_time": 22.516499999999997,
        "length_ticks": 20,
        "length_time": 0.1655624999999965,
        "note": 59,
        "velocity": 127,
        "slice": 140,
        "channel": 2
      },
      {
        "start_tick": 2700,
        "start_time": 22.3509375,
        "end_tick": 2711,
        "end_time": 22.441996875,
        "length_ticks": 11,
        "length_time": 0.09105937500000039,
        "note": 43,
        "velocity": 127,
        "slice": 140,
        "channel": 3
      }
    ],
    "2701": [
      {
        "start_tick": 2701,
        "start_time": 22.359215625,
        "end_tick": 2712,
        "end_time": 22.450275,
        "length_ticks": 11,
        "length_time": 0.09105937500000039,
        "note": 41,
        "velocity": 127,
        "slice": 140,
        "channel": 4
      }
    ],
    "2717": [
      {
        "start_tick": 2717,
        "start_time": 22.491665625,
        "end_tick": 2728,
        "end_time": 22.582725,
        "length_ticks": 11,
        "length_time": 0.09105937500000039,
        "note": 43,
        "velocity": 127,
        "slice": 141,
        "channel": 4
      }
    ],
    "2736": [
      {
        "start_tick": 2736,
        "start_time": 22.64895,
        "end_tick": 2746,
        "end_time": 22.73173125,
        "length_ticks": 10,
        "length_time": 0.08278125000000003,
        "note": 67,
        "velocity": 127,
        "slice": 142,
        "channel": 1
      },
      {
        "start_tick": 2736,
        "start_time": 22.64895,
        "end_tick": 2744,
        "end_time": 22.715175,
        "length_ticks": 8,
        "length_time": 0.06622499999999931,
        "note": 59,
        "velocity": 127,
        "slice": 142,
        "channel": 2
      }
    ],
    "2748": [
      {
        "start_tick": 2748,
        "start_time": 22.7482875,
        "end_tick": 2758,
        "end_time": 22.83106875,
        "length_ticks": 10,
        "length_time": 0.08278125000000003,
        "note": 67,
        "velocity": 127,
        "slice": 142,
        "channel": 1
      },
      {
        "start_tick": 2748,
        "start_time": 22.7482875,
        "end_tick": 2756,
        "end_time": 22.814512499999996,
        "length_ticks": 8,
        "length_time": 0.06622499999999576,
        "note": 59,
        "velocity": 127,
        "slice": 142,
        "channel": 2
      },
      {
        "start_tick": 2748,
        "start_time": 22.7482875,
        "end_tick": 2759,
        "end_time": 22.839346875,
        "length_ticks": 11,
        "length_time": 0.09105937500000039,
        "note": 43,
        "velocity": 127,
        "slice": 142,
        "channel": 3
      }
    ],
    "2760": [
      {
        "start_tick": 2760,
        "start_time": 22.847624999999997,
        "end_tick": 2770,
        "end_time": 22.93040625,
        "length_ticks": 10,
        "length_time": 0.08278125000000358,
        "note": 69,
        "velocity": 127,
        "slice": 143,
        "channel": 1
      },
      {
        "start_tick": 2760,
        "start_time": 22.847624999999997,
        "end_tick": 2768,
        "end_time": 22.91385,
        "length_ticks": 8,
        "length_time": 0.06622500000000286,
        "note": 60,
        "velocity": 127,
        "slice": 143,
        "channel": 2
      }
    ],
    "2765": [
      {
        "start_tick": 2765,
        "start_time": 22.889015625,
        "end_tick": 2776,
        "end_time": 22.980075,
        "length_ticks": 11,
        "length_time": 0.09105937500000039,
        "note": 43,
        "velocity": 127,
        "slice": 143,
        "channel": 4
      }
    ],
    "2772": [
      {
        "start_tick": 2772,
        "start_time": 22.946962499999998,
        "end_tick": 2782,
        "end_time": 23.029743749999998,
        "length_ticks": 10,
        "length_time": 0.08278125000000003,
        "note": 71,
        "velocity": 127,
        "slice": 143,
        "channel": 1
      },
      {
        "start_tick": 2772,
        "start_time": 22.946962499999998,
        "end_tick": 2780,
        "end_time": 23.0131875,
        "length_ticks": 8,
        "length_time": 0.06622500000000286,
        "note": 62,
        "velocity": 127,
        "slice": 143,
        "channel": 2
      }
    ],
    "2784": [
      {
        "start_tick": 2784,
        "start_time": 23.0463,
        "end_tick": 2794,
        "end_time": 23.12908125,
        "length_ticks": 10,
        "length_time": 0.08278125000000003,
        "note": 72,
        "velocity": 127,
        "slice": 144,
        "channel": 1
      },
      {
        "start_tick": 2784,
        "start_time": 23.0463,
        "end_tick": 2792,
        "end_time": 23.112525,
        "length_ticks": 8,
        "length_time": 0.06622500000000286,
        "note": 64,
        "velocity": 127,
        "slice": 144,
        "channel": 2
      }
    ],
    "2796": [
      {
        "start_tick": 2796,
        "start_time": 23.145637499999996,
        "end_tick": 2876,
        "end_time": 23.807887499999996,
        "length_ticks": 80,
        "length_time": 0.6622500000000002,
        "note": 74,
        "velocity": 127,
        "slice": 145,
        "channel": 1
      },
      {
        "start_tick": 2796,
        "start_time": 23.145637499999996,
        "end_tick": 2819,
        "end_time": 23.336034374999997,
        "length_ticks": 23,
        "length_time": 0.19039687500000113,
        "note": 65,
        "velocity": 127,
        "slice": 145,
        "channel": 2
      },
      {
        "start_tick": 2796,
        "start_time": 23.145637499999996,
        "end_tick": 2807,
        "end_time": 23.236696874999996,
        "length_ticks": 11,
        "length_time": 0.09105937500000039,
        "note": 41,
        "velocity": 127,
        "slice": 145,
        "channel": 3
      }
    ],
    "2813": [
      {
        "start_tick": 2813,
        "start_time": 23.286365625,
        "end_tick": 2824,
        "end_time": 23.377425,
        "length_ticks": 11,
        "length_time": 0.09105937500000039,
        "note": 41,
        "velocity": 127,
        "slice": 146,
        "channel": 4
      }
    ],
    "2832": [
      {
        "start_tick": 2832,
        "start_time": 23.44365,
        "end_tick": 2840,
        "end_time": 23.509874999999997,
        "length_ticks": 8,
        "length_time": 0.06622499999999576,
        "note": 67,
        "velocity": 127,
        "slice": 147,
        "channel": 2
      }
    ],
    "2844": [
      {
        "start_tick": 2844,
        "start_time": 23.5429875,
        "end_tick": 2852,
        "end_time": 23.609212499999998,
        "length_ticks": 8,
        "length_time": 0.06622499999999931,
        "note": 67,
        "velocity": 127,
        "slice": 147,
        "channel": 2
      },
      {
        "start_tick": 2844,
        "start_time": 23.5429875,
        "end_tick": 2855,
        "end_time": 23.634046875,
        "length_ticks": 11,
        "length_time": 0.09105937500000039,
        "note": 41,
        "velocity": 127,
        "slice": 147,
        "channel": 3
      }
    ],
    "2856": [
      {
        "start_tick": 2856,
        "start_time": 23.642325,
        "end_tick": 2864,
        "end_time": 23.70855,
        "length_ticks": 8,
        "length_time": 0.06622499999999931,
        "note": 69,
        "velocity": 127,
        "slice": 148,
        "channel": 2
      }
    ],
    "2860": [
      {
        "start_tick": 2860,
        "start_time": 23.6754375,
        "end_tick": 2871,
        "end_time": 23.766496874999998,
        "length_ticks": 11,
        "length_time": 0.09105937499999683,
        "note": 41,
        "velocity": 127,
        "slice": 148,
        "channel": 3
      }
    ],
    "2861": [
      {
        "start_tick": 2861,
        "start_time": 23.683715625,
        "end_tick": 2872,
        "end_time": 23.774775,
        "length_ticks": 11,
        "length_time": 0.09105937500000039,
        "note": 41,
        "velocity": 127,
        "slice": 148,
        "channel": 4
      }
    ],
    "2868": [
      {
        "start_tick": 2868,
        "start_time": 23.7416625,
        "end_tick": 2876,
        "end_time": 23.807887499999996,
        "length_ticks": 8,
        "length_time": 0.06622499999999576,
        "note": 71,
        "velocity": 127,
        "slice": 148,
        "channel": 2
      }
    ],
    "2876": [
      {
        "start_tick": 2876,
        "start_time": 23.807887499999996,
        "end_tick": 2887,
        "end_time": 23.898946874999996,
        "length_ticks": 11,
        "length_time": 0.09105937500000039,
        "note": 39,
        "velocity": 127,
        "slice": 149,
        "channel": 3
      }
    ],
    "2877": [
      {
        "start_tick": 2877,
        "start_time": 23.816165625,
        "end_tick": 2888,
        "end_time": 23.907224999999997,
        "length_ticks": 11,
        "length_time": 0.09105937499999683,
        "note": 41,
        "velocity": 127,
        "slice": 149,
        "channel": 4
      }
    ],
    "2880": [
      {
        "start_tick": 2880,
        "start_time": 23.840999999999998,
        "end_tick": 2888,
        "end_time": 23.907224999999997,
        "length_ticks": 8,
        "length_time": 0.06622499999999931,
        "note": 72,
        "velocity": 127,
        "slice": 149,
        "channel": 2
      }
    ],
    "2892": [
      {
        "start_tick": 2892,
        "start_time": 23.9403375,
        "end_tick": 2908,
        "end_time": 24.0727875,
        "length_ticks": 16,
        "length_time": 0.13245000000000218,
        "note": 74,
        "velocity": 127,
        "slice": 150,
        "channel": 2
      },
      {
        "start_tick": 2892,
        "start_time": 23.9403375,
        "end_tick": 2903,
        "end_time": 24.031396875,
        "length_ticks": 11,
        "length_time": 0.09105937500000039,
        "note": 41,
        "velocity": 127,
        "slice": 150,
        "channel": 3
      }
    ],
    "2893": [
      {
        "start_tick": 2893,
        "start_time": 23.948615625,
        "end_tick": 2904,
        "end_time": 24.039675,
        "length_ticks": 11,
        "length_time": 0.09105937500000039,
        "note": 39,
        "velocity": 127,
        "slice": 150,
        "channel": 4
      }
    ],
    "2909": [
      {
        "start_tick": 2909,
        "start_time": 24.081065624999997,
        "end_tick": 2920,
        "end_time": 24.172124999999998,
        "length_ticks": 11,
        "length_time": 0.09105937500000039,
        "note": 41,
        "velocity": 127,
        "slice": 151,
        "channel": 4
      }
    ],
    "2924": [
      {
        "start_tick": 2924,
        "start_time": 24.2052375,
        "end_tick": 2937,
        "end_time": 24.312853125,
        "length_ticks": 13,
        "length_time": 0.1076156250000011,
        "note": 74,
        "velocity": 127,
        "slice": 151,
        "channel": 1
      },
      {
        "start_tick": 2924,
        "start_time": 24.2052375,
        "end_tick": 2934,
        "end_time": 24.288018749999996,
        "length_ticks": 10,
        "length_time": 0.08278124999999648,
        "note": 65,
        "velocity": 127,
        "slice": 151,
        "channel": 2
      }
    ],
    "2940": [
      {
        "start_tick": 2940,
        "start_time": 24.337687499999998,
        "end_tick": 2953,
        "end_time": 24.445303125,
        "length_ticks": 13,
        "length_time": 0.1076156250000011,
        "note": 74,
        "velocity": 127,
        "slice": 152,
        "channel": 1
      },
      {
        "start_tick": 2940,
        "start_time": 24.337687499999998,
        "end_tick": 2950,
        "end_time": 24.420468749999998,
        "length_ticks": 10,
        "length_time": 0.08278125000000003,
        "note": 65,
        "velocity": 127,
        "slice": 152,
        "channel": 2
      },
      {
        "start_tick": 2940,
        "start_time": 24.337687499999998,
        "end_tick": 2951,
        "end_time": 24.428746874999998,
        "length_ticks": 11,
        "length_time": 0.09105937500000039,
        "note": 41,
        "velocity": 127,
        "slice": 152,
        "channel": 3
      }
    ],
    "2956": [
      {
        "start_tick": 2956,
        "start_time": 24.470137499999996,
        "end_tick": 2969,
        "end_time": 24.577753125,
        "length_ticks": 13,
        "length_time": 0.10761562500000466,
        "note": 75,
        "velocity": 127,
        "slice": 153,
        "channel": 1
      },
      {
        "start_tick": 2956,
        "start_time": 24.470137499999996,
        "end_tick": 2966,
        "end_time": 24.55291875,
        "length_ticks": 10,
        "length_time": 0.08278125000000358,
        "note": 67,
        "velocity": 127,
        "slice": 153,
        "channel": 2
      }
    ],
    "2957": [
      {
        "start_tick": 2957,
        "start_time": 24.478415624999997,
        "end_tick": 2968,
        "end_time": 24.569474999999997,
        "length_ticks": 11,
        "length_time": 0.09105937500000039,
        "note": 41,
        "velocity": 127,
        "slice": 153,
        "channel": 4
      }
    ],
    "2972": [
      {
        "start_tick": 2972,
        "start_time": 24.6025875,
        "end_tick": 2985,
        "end_time": 24.710203124999996,
        "length_ticks": 13,
        "length_time": 0.10761562499999755,
        "note": 77,
        "velocity": 127,
        "slice": 154,
        "channel": 1
      },
      {
        "start_tick": 2972,
        "start_time": 24.6025875,
        "end_tick": 2982,
        "end_time": 24.68536875,
        "length_ticks": 10,
        "length_time": 0.08278125000000003,
        "note": 69,
        "velocity": 127,
        "slice": 154,
        "channel": 2
      }
    ],
    "2988": [
      {
        "start_tick": 2988,
        "start_time": 24.7350375,
        "end_tick": 3068,
        "end_time": 25.3972875,
        "length_ticks": 80,
        "length_time": 0.6622500000000002,
        "note": 79,
        "velocity": 127,
        "slice": 155,
        "channel": 1
      },
      {
        "start_tick": 2988,
        "start_time": 24.7350375,
        "end_tick": 3009,
        "end_time": 24.908878125,
        "length_ticks": 21,
        "length_time": 0.17384062500000041,
        "note": 70,
        "velocity": 127,
        "slice": 155,
        "channel": 2
      },
      {
        "start_tick": 2988,
        "start_time": 24.7350375,
        "end_tick": 2999,
        "end_time": 24.826096875,
        "length_ticks": 11,
        "length_time": 0.09105937500000039,
        "note": 39,
        "velocity": 127,
        "slice": 155,
        "channel": 3
      }
    ],
    "3005": [
      {
        "start_tick": 3005,
        "start_time": 24.875765625,
        "end_tick": 3016,
        "end_time": 24.966825,
        "length_ticks": 11,
        "length_time": 0.09105937500000039,
        "note": 39,
        "velocity": 127,
        "slice": 155,
        "channel": 4
      }
    ],
    "3024": [
      {
        "start_tick": 3024,
        "start_time": 25.03305,
        "end_tick": 3032,
        "end_time": 25.099275000000002,
        "length_ticks": 8,
        "length_time": 0.06622500000000286,
        "note": 63,
        "velocity": 127,
        "slice": 156,
        "channel": 2
      }
    ],
    "3036": [
      {
        "start_tick": 3036,
        "start_time": 25.132387499999997,
        "end_tick": 3044,
        "end_time": 25.1986125,
        "length_ticks": 8,
        "length_time": 0.06622500000000286,
        "note": 63,
        "velocity": 127,
        "slice": 157,
        "channel": 2
      },
      {
        "start_tick": 3036,
        "start_time": 25.132387499999997,
        "end_tick": 3047,
        "end_time": 25.223446874999997,
        "length_ticks": 11,
        "length_time": 0.09105937500000039,
        "note": 39,
        "velocity": 127,
        "slice": 157,
        "channel": 3
      }
    ],
    "3048": [
      {
        "start_tick": 3048,
        "start_time": 25.231724999999997,
        "end_tick": 3056,
        "end_time": 25.29795,
        "length_ticks": 8,
        "length_time": 0.06622500000000286,
        "note": 65,
        "velocity": 127,
        "slice": 158,
        "channel": 2
      }
    ],
    "3052": [
      {
        "start_tick": 3052,
        "start_time": 25.2648375,
        "end_tick": 3063,
        "end_time": 25.355896875,
        "length_ticks": 11,
        "length_time": 0.09105937500000039,
        "note": 39,
        "velocity": 127,
        "slice": 158,
        "channel": 3
      }
    ],
    "3053": [
      {
        "start_tick": 3053,
        "start_time": 25.273115625,
        "end_tick": 3064,
        "end_time": 25.364175,
        "length_ticks": 11,
        "length_time": 0.09105937500000039,
        "note": 39,
        "velocity": 127,
        "slice": 158,
        "channel": 4
      }
    ],
    "3060": [
      {
        "start_tick": 3060,
        "start_time": 25.331062499999998,
        "end_tick": 3068,
        "end_time": 25.3972875,
        "length_ticks": 8,
        "length_time": 0.06622500000000286,
        "note": 67,
        "velocity": 127,
        "slice": 158,
        "channel": 2
      }
    ],
    "3068": [
      {
        "start_tick": 3068,
        "start_time": 25.3972875,
        "end_tick": 3079,
        "end_time": 25.488346875,
        "length_ticks": 11,
        "length_time": 0.09105937500000039,
        "note": 38,
        "velocity": 127,
        "slice": 159,
        "channel": 3
      }
    ],
    "3069": [
      {
        "start_tick": 3069,
        "start_time": 25.405565624999998,
        "end_tick": 3080,
        "end_time": 25.496624999999998,
        "length_ticks": 11,
        "length_time": 0.09105937500000039,
        "note": 39,
        "velocity": 127,
        "slice": 159,
        "channel": 4
      }
    ],
    "3072": [
      {
        "start_tick": 3072,
        "start_time": 25.430400000000002,
        "end_tick": 3080,
        "end_time": 25.496624999999998,
        "length_ticks": 8,
        "length_time": 0.06622499999999576,
        "note": 69,
        "velocity": 127,
        "slice": 159,
        "channel": 2
      }
    ],
    "3084": [
      {
        "start_tick": 3084,
        "start_time": 25.5297375,
        "end_tick": 3094,
        "end_time": 25.612518749999996,
        "length_ticks": 10,
        "length_time": 0.08278124999999648,
        "note": 70,
        "velocity": 127,
        "slice": 160,
        "channel": 2
      },
      {
        "start_tick": 3084,
        "start_time": 25.5297375,
        "end_tick": 3095,
        "end_time": 25.620796875,
        "length_ticks": 11,
        "length_time": 0.09105937500000039,
        "note": 39,
        "velocity": 127,
        "slice": 160,
        "channel": 3
      }
    ],
    "3085": [
      {
        "start_tick": 3085,
        "start_time": 25.538015625,
        "end_tick": 3096,
        "end_time": 25.629075,
        "length_ticks": 11,
        "length_time": 0.09105937500000039,
        "note": 38,
        "velocity": 127,
        "slice": 160,
        "channel": 4
      }
    ],
    "3101": [
      {
        "start_tick": 3101,
        "start_time": 25.670465625000002,
        "end_tick": 3112,
        "end_time": 25.761524999999995,
        "length_ticks": 11,
        "length_time": 0.09105937499999328,
        "note": 39,
        "velocity": 127,
        "slice": 160,
        "channel": 4
      }
    ],
    "3116": [
      {
        "start_tick": 3116,
        "start_time": 25.794637499999997,
        "end_tick": 3129,
        "end_time": 25.902253124999998,
        "length_ticks": 13,
        "length_time": 0.1076156250000011,
        "note": 79,
        "velocity": 127,
        "slice": 161,
        "channel": 1
      },
      {
        "start_tick": 3116,
        "start_time": 25.794637499999997,
        "end_tick": 3126,
        "end_time": 25.87741875,
        "length_ticks": 10,
        "length_time": 0.08278125000000358,
        "note": 70,
        "velocity": 127,
        "slice": 161,
        "channel": 2
      }
    ],
    "3132": [
      {
        "start_tick": 3132,
        "start_time": 25.9270875,
        "end_tick": 3145,
        "end_time": 26.034703124999997,
        "length_ticks": 13,
        "length_time": 0.10761562499999755,
        "note": 79,
        "velocity": 127,
        "slice": 162,
        "channel": 1
      },
      {
        "start_tick": 3132,
        "start_time": 25.9270875,
        "end_tick": 3142,
        "end_time": 26.00986875,
        "length_ticks": 10,
        "length_time": 0.08278125000000003,
        "note": 70,
        "velocity": 127,
        "slice": 162,
        "channel": 2
      },
      {
        "start_tick": 3132,
        "start_time": 25.9270875,
        "end_tick": 3143,
        "end_time": 26.018146875,
        "length_ticks": 11,
        "length_time": 0.09105937500000039,
        "note": 39,
        "velocity": 127,
        "slice": 162,
        "channel": 3
      }
    ],
    "3148": [
      {
        "start_tick": 3148,
        "start_time": 26.0595375,
        "end_tick": 3161,
        "end_time": 26.167153125,
        "length_ticks": 13,
        "length_time": 0.10761562499999755,
        "note": 77,
        "velocity": 127,
        "slice": 163,
        "channel": 1
      },
      {
        "start_tick": 3148,
        "start_time": 26.0595375,
        "end_tick": 3158,
        "end_time": 26.142318749999998,
        "length_ticks": 10,
        "length_time": 0.08278124999999648,
        "note": 69,
        "velocity": 127,
        "slice": 163,
        "channel": 2
      }
    ],
    "3149": [
      {
        "start_tick": 3149,
        "start_time": 26.067815624999998,
        "end_tick": 3160,
        "end_time": 26.158875,
        "length_ticks": 11,
        "length_time": 0.09105937500000039,
        "note": 39,
        "velocity": 127,
        "slice": 163,
        "channel": 4
      }
    ],
    "3164": [
      {
        "start_tick": 3164,
        "start_time": 26.1919875,
        "end_tick": 3177,
        "end_time": 26.299603125,
        "length_ticks": 13,
        "length_time": 0.1076156250000011,
        "note": 75,
        "velocity": 127,
        "slice": 164,
        "channel": 1
      },
      {
        "start_tick": 3164,
        "start_time": 26.1919875,
        "end_tick": 3174,
        "end_time": 26.274768749999996,
        "length_ticks": 10,
        "length_time": 0.08278124999999648,
        "note": 67,
        "velocity": 127,
        "slice": 164,
        "channel": 2
      }
    ],
    "3180": [
      {
        "start_tick": 3180,
        "start_time": 26.3244375,
        "end_tick": 3193,
        "end_time": 26.432053125,
        "length_ticks": 13,
        "length_time": 0.1076156250000011,
        "note": 77,
        "velocity": 127,
        "slice": 165,
        "channel": 1
      },
      {
        "start_tick": 3180,
        "start_time": 26.3244375,
        "end_tick": 3190,
        "end_time": 26.40721875,
        "length_ticks": 10,
        "length_time": 0.08278125000000003,
        "note": 70,
        "velocity": 127,
        "slice": 165,
        "channel": 2
      },
      {
        "start_tick": 3180,
        "start_time": 26.3244375,
        "end_tick": 3191,
        "end_time": 26.415496875,
        "length_ticks": 11,
        "length_time": 0.09105937500000039,
        "note": 46,
        "velocity": 127,
        "slice": 165,
        "channel": 3
      }
    ],
    "3197": [
      {
        "start_tick": 3197,
        "start_time": 26.465165624999997,
        "end_tick": 3208,
        "end_time": 26.556224999999998,
        "length_ticks": 11,
        "length_time": 0.09105937500000039,
        "note": 46,
        "velocity": 127,
        "slice": 165,
        "channel": 4
      }
    ],
    "3212": [
      {
        "start_tick": 3212,
        "start_time": 26.5893375,
        "end_tick": 3225,
        "end_time": 26.696953124999997,
        "length_ticks": 13,
        "length_time": 0.10761562499999755,
        "note": 75,
        "velocity": 127,
        "slice": 166,
        "channel": 1
      },
      {
        "start_tick": 3212,
        "start_time": 26.5893375,
        "end_tick": 3222,
        "end_time": 26.67211875,
        "length_ticks": 10,
        "length_time": 0.08278125000000003,
        "note": 65,
        "velocity": 127,
        "slice": 166,
        "channel": 2
      }
    ],
    "3228": [
      {
        "start_tick": 3228,
        "start_time": 26.7217875,
        "end_tick": 3280,
        "end_time": 27.15225,
        "length_ticks": 52,
        "length_time": 0.4304624999999973,
        "note": 74,
        "velocity": 127,
        "slice": 167,
        "channel": 1
      },
      {
        "start_tick": 3228,
        "start_time": 26.7217875,
        "end_tick": 3238,
        "end_time": 26.804568749999998,
        "length_ticks": 10,
        "length_time": 0.08278124999999648,
        "note": 65,
        "velocity": 127,
        "slice": 167,
        "channel": 2
      },
      {
        "start_tick": 3228,
        "start_time": 26.7217875,
        "end_tick": 3239,
        "end_time": 26.812846875,
        "length_ticks": 11,
        "length_time": 0.09105937500000039,
        "note": 46,
        "velocity": 127,
        "slice": 167,
        "channel": 3
      }
    ],
    "3244": [
      {
        "start_tick": 3244,
        "start_time": 26.854237499999996,
        "end_tick": 3254,
        "end_time": 26.937018749999996,
        "length_ticks": 10,
        "length_time": 0.08278125000000003,
        "note": 65,
        "velocity": 127,
        "slice": 168,
        "channel": 2
      },
      {
        "start_tick": 3244,
        "start_time": 26.854237499999996,
        "end_tick": 3255,
        "end_time": 26.945296874999997,
        "length_ticks": 11,
        "length_time": 0.09105937500000039,
        "note": 46,
        "velocity": 127,
        "slice": 168,
        "channel": 3
      }
    ],
    "3245": [
      {
        "start_tick": 3245,
        "start_time": 26.862515625,
        "end_tick": 3256,
        "end_time": 26.953575,
        "length_ticks": 11,
        "length_time": 0.09105937500000039,
        "note": 46,
        "velocity": 127,
        "slice": 168,
        "channel": 4
      }
    ],
    "3260": [
      {
        "start_tick": 3260,
        "start_time": 26.9866875,
        "end_tick": 3270,
        "end_time": 27.06946875,
        "length_ticks": 10,
        "length_time": 0.08278125000000003,
        "note": 63,
        "velocity": 127,
        "slice": 169,
        "channel": 2
      },
      {
        "start_tick": 3260,
        "start_time": 26.9866875,
        "end_tick": 3271,
        "end_time": 27.077746875,
        "length_ticks": 11,
        "length_time": 0.09105937500000039,
        "note": 44,
        "velocity": 127,
        "slice": 169,
        "channel": 3
      }
    ],
    "3261": [
      {
        "start_tick": 3261,
        "start_time": 26.994965624999995,
        "end_tick": 3272,
        "end_time": 27.086024999999996,
        "length_ticks": 11,
        "length_time": 0.09105937500000039,
        "note": 46,
        "velocity": 127,
        "slice": 169,
        "channel": 4
      }
    ],
    "3276": [
      {
        "start_tick": 3276,
        "start_time": 27.119137499999997,
        "end_tick": 3286,
        "end_time": 27.20191875,
        "length_ticks": 10,
        "length_time": 0.08278125000000358,
        "note": 65,
        "velocity": 127,
        "slice": 169,
        "channel": 2
      },
      {
        "start_tick": 3276,
        "start_time": 27.119137499999997,
        "end_tick": 3287,
        "end_time": 27.210196874999998,
        "length_ticks": 11,
        "length_time": 0.09105937500000039,
        "note": 46,
        "velocity": 127,
        "slice": 169,
        "channel": 3
      }
    ],
    "3277": [
      {
        "start_tick": 3277,
        "start_time": 27.127415624999998,
        "end_tick": 3288,
        "end_time": 27.218474999999998,
        "length_ticks": 11,
        "length_time": 0.09105937500000039,
        "note": 44,
        "velocity": 127,
        "slice": 170,
        "channel": 4
      }
    ],
    "3293": [
      {
        "start_tick": 3293,
        "start_time": 27.259865625,
        "end_tick": 3304,
        "end_time": 27.350925,
        "length_ticks": 11,
        "length_time": 0.09105937500000039,
        "note": 46,
        "velocity": 127,
        "slice": 170,
        "channel": 4
      }
    ],
    "3308": [
      {
        "start_tick": 3308,
        "start_time": 27.3840375,
        "end_tick": 3318,
        "end_time": 27.466818749999998,
        "length_ticks": 10,
        "length_time": 0.08278124999999648,
        "note": 65,
        "velocity": 127,
        "slice": 171,
        "channel": 2
      }
    ],
    "3324": [
      {
        "start_tick": 3324,
        "start_time": 27.516487499999997,
        "end_tick": 3337,
        "end_time": 27.624103125,
        "length_ticks": 13,
        "length_time": 0.10761562500000466,
        "note": 74,
        "velocity": 127,
        "slice": 172,
        "channel": 1
      },
      {
        "start_tick": 3324,
        "start_time": 27.516487499999997,
        "end_tick": 3334,
        "end_time": 27.599268749999997,
        "length_ticks": 10,
        "length_time": 0.08278125000000003,
        "note": 65,
        "velocity": 127,
        "slice": 172,
        "channel": 2
      },
      {
        "start_tick": 3324,
        "start_time": 27.516487499999997,
        "end_tick": 3335,
        "end_time": 27.607546874999997,
        "length_ticks": 11,
        "length_time": 0.09105937500000039,
        "note": 46,
        "velocity": 127,
        "slice": 172,
        "channel": 3
      }
    ],
    "3340": [
      {
        "start_tick": 3340,
        "start_time": 27.6489375,
        "end_tick": 3353,
        "end_time": 27.756553124999996,
        "length_ticks": 13,
        "length_time": 0.10761562499999755,
        "note": 75,
        "velocity": 127,
        "slice": 173,
        "channel": 1
      },
      {
        "start_tick": 3340,
        "start_time": 27.6489375,
        "end_tick": 3350,
        "end_time": 27.73171875,
        "length_ticks": 10,
        "length_time": 0.08278125000000003,
        "note": 63,
        "velocity": 127,
        "slice": 173,
        "channel": 2
      }
    ],
    "3341": [
      {
        "start_tick": 3341,
        "start_time": 27.657215624999996,
        "end_tick": 3352,
        "end_time": 27.748274999999996,
        "length_ticks": 11,
        "length_time": 0.09105937500000039,
        "note": 46,
        "velocity": 127,
        "slice": 173,
        "channel": 4
      }
    ],
    "3356": [
      {
        "start_tick": 3356,
        "start_time": 27.781387499999997,
        "end_tick": 3369,
        "end_time": 27.889003125,
        "length_ticks": 13,
        "length_time": 0.1076156250000011,
        "note": 74,
        "velocity": 127,
        "slice": 174,
        "channel": 1
      },
      {
        "start_tick": 3356,
        "start_time": 27.781387499999997,
        "end_tick": 3366,
        "end_time": 27.86416875,
        "length_ticks": 10,
        "length_time": 0.08278125000000358,
        "note": 65,
        "velocity": 127,
        "slice": 174,
        "channel": 2
      }
    ],
    "3372": [
      {
        "start_tick": 3372,
        "start_time": 27.9138375,
        "end_tick": 3391,
        "end_time": 28.071121875,
        "length_ticks": 19,
        "length_time": 0.1572843749999997,
        "note": 72,
        "velocity": 127,
        "slice": 174,
        "channel": 1
      },
      {
        "start_tick": 3372,
        "start_time": 27.9138375,
        "end_tick": 3387,
        "end_time": 28.038009374999998,
        "length_ticks": 15,
        "length_time": 0.12417187499999827,
        "note": 63,
        "velocity": 127,
        "slice": 174,
        "channel": 2
      },
      {
        "start_tick": 3372,
        "start_time": 27.9138375,
        "end_tick": 3383,
        "end_time": 28.004896875,
        "length_ticks": 11,
        "length_time": 0.09105937500000039,
        "note": 44,
        "velocity": 127,
        "slice": 174,
        "channel": 3
      }
    ],
    "3389": [
      {
        "start_tick": 3389,
        "start_time": 28.054565625,
        "end_tick": 3400,
        "end_time": 28.145625,
        "length_ticks": 11,
        "length_time": 0.09105937500000039,
        "note": 44,
        "velocity": 127,
        "slice": 175,
        "channel": 4
      }
    ],
    "3396": [
      {
        "start_tick": 3396,
        "start_time": 28.112512499999998,
        "end_tick": 3406,
        "end_time": 28.19529375,
        "length_ticks": 10,
        "length_time": 0.08278125000000358,
        "note": 72,
        "velocity": 127,
        "slice": 176,
        "channel": 1
      },
      {
        "start_tick": 3396,
        "start_time": 28.112512499999998,
        "end_tick": 3403,
        "end_time": 28.170459374999997,
        "length_ticks": 7,
        "length_time": 0.057946874999998954,
        "note": 63,
        "velocity": 127,
        "slice": 176,
        "channel": 2
      }
    ],
    "3408": [
      {
        "start_tick": 3408,
        "start_time": 28.21185,
        "end_tick": 3418,
        "end_time": 28.29463125,
        "length_ticks": 10,
        "length_time": 0.08278125000000003,
        "note": 74,
        "velocity": 127,
        "slice": 176,
        "channel": 1
      },
      {
        "start_tick": 3408,
        "start_time": 28.21185,
        "end_tick": 3415,
        "end_time": 28.269796874999997,
        "length_ticks": 7,
        "length_time": 0.057946874999998954,
        "note": 62,
        "velocity": 127,
        "slice": 176,
        "channel": 2
      }
    ],
    "3420": [
      {
        "start_tick": 3420,
        "start_time": 28.3111875,
        "end_tick": 3498,
        "end_time": 28.95688125,
        "length_ticks": 78,
        "length_time": 0.6456937499999995,
        "note": 75,
        "velocity": 127,
        "slice": 177,
        "channel": 1
      },
      {
        "start_tick": 3420,
        "start_time": 28.3111875,
        "end_tick": 3430,
        "end_time": 28.39396875,
        "length_ticks": 10,
        "length_time": 0.08278125000000003,
        "note": 63,
        "velocity": 127,
        "slice": 177,
        "channel": 2
      },
      {
        "start_tick": 3420,
        "start_time": 28.3111875,
        "end_tick": 3431,
        "end_time": 28.402246875,
        "length_ticks": 11,
        "length_time": 0.09105937500000039,
        "note": 56,
        "velocity": 127,
        "slice": 177,
        "channel": 3
      }
    ],
    "3436": [
      {
        "start_tick": 3436,
        "start_time": 28.443637499999998,
        "end_tick": 3446,
        "end_time": 28.52641875,
        "length_ticks": 10,
        "length_time": 0.08278125000000358,
        "note": 63,
        "velocity": 127,
        "slice": 178,
        "channel": 2
      },
      {
        "start_tick": 3436,
        "start_time": 28.443637499999998,
        "end_tick": 3447,
        "end_time": 28.534696874999998,
        "length_ticks": 11,
        "length_time": 0.09105937500000039,
        "note": 56,
        "velocity": 127,
        "slice": 178,
        "channel": 3
      }
    ],
    "3437": [
      {
        "start_tick": 3437,
        "start_time": 28.451915624999998,
        "end_tick": 3448,
        "end_time": 28.542975,
        "length_ticks": 11,
        "length_time": 0.09105937500000039,
        "note": 56,
        "velocity": 127,
        "slice": 178,
        "channel": 4
      }
    ],
    "3452": [
      {
        "start_tick": 3452,
        "start_time": 28.5760875,
        "end_tick": 3462,
        "end_time": 28.658868749999996,
        "length_ticks": 10,
        "length_time": 0.08278124999999648,
        "note": 65,
        "velocity": 127,
        "slice": 179,
        "channel": 2
      },
      {
        "start_tick": 3452,
        "start_time": 28.5760875,
        "end_tick": 3463,
        "end_time": 28.667146875,
        "length_ticks": 11,
        "length_time": 0.09105937500000039,
        "note": 55,
        "velocity": 127,
        "slice": 179,
        "channel": 3
      }
    ],
    "3453": [
      {
        "start_tick": 3453,
        "start_time": 28.584365625,
        "end_tick": 3464,
        "end_time": 28.675425,
        "length_ticks": 11,
        "length_time": 0.09105937500000039,
        "note": 56,
        "velocity": 127,
        "slice": 179,
        "channel": 4
      }
    ],
    "3468": [
      {
        "start_tick": 3468,
        "start_time": 28.708537500000002,
        "end_tick": 3488,
        "end_time": 28.8741,
        "length_ticks": 20,
        "length_time": 0.1655624999999965,
        "note": 67,
        "velocity": 127,
        "slice": 179,
        "channel": 2
      },
      {
        "start_tick": 3468,
        "start_time": 28.708537500000002,
        "end_tick": 3479,
        "end_time": 28.799596874999995,
        "length_ticks": 11,
        "length_time": 0.09105937499999328,
        "note": 56,
        "velocity": 127,
        "slice": 179,
        "channel": 3
      }
    ],
    "3469": [
      {
        "start_tick": 3469,
        "start_time": 28.716815625,
        "end_tick": 3480,
        "end_time": 28.807875,
        "length_ticks": 11,
        "length_time": 0.09105937500000039,
        "note": 55,
        "velocity": 127,
        "slice": 179,
        "channel": 4
      }
    ],
    "3485": [
      {
        "start_tick": 3485,
        "start_time": 28.849265624999997,
        "end_tick": 3496,
        "end_time": 28.940324999999998,
        "length_ticks": 11,
        "length_time": 0.09105937500000039,
        "note": 56,
        "velocity": 127,
        "slice": 180,
        "channel": 4
      }
    ],
    "3516": [
      {
        "start_tick": 3516,
        "start_time": 29.105887499999998,
        "end_tick": 3535,
        "end_time": 29.263171874999998,
        "length_ticks": 19,
        "length_time": 0.1572843749999997,
        "note": 74,
        "velocity": 127,
        "slice": 182,
        "channel": 1
      },
      {
        "start_tick": 3516,
        "start_time": 29.105887499999998,
        "end_tick": 3531,
        "end_time": 29.230059375,
        "length_ticks": 15,
        "length_time": 0.12417187500000182,
        "note": 65,
        "velocity": 127,
        "slice": 182,
        "channel": 2
      },
      {
        "start_tick": 3516,
        "start_time": 29.105887499999998,
        "end_tick": 3527,
        "end_time": 29.196946875,
        "length_ticks": 11,
        "length_time": 0.09105937500000039,
        "note": 56,
        "velocity": 127,
        "slice": 182,
        "channel": 3
      }
    ],
    "3532": [
      {
        "start_tick": 3532,
        "start_time": 29.2383375,
        "end_tick": 3543,
        "end_time": 29.329396875,
        "length_ticks": 11,
        "length_time": 0.09105937500000039,
        "note": 56,
        "velocity": 127,
        "slice": 183,
        "channel": 3
      }
    ],
    "3533": [
      {
        "start_tick": 3533,
        "start_time": 29.246615625,
        "end_tick": 3544,
        "end_time": 29.337675,
        "length_ticks": 11,
        "length_time": 0.09105937500000039,
        "note": 56,
        "velocity": 127,
        "slice": 183,
        "channel": 4
      }
    ],
    "3540": [
      {
        "start_tick": 3540,
        "start_time": 29.3045625,
        "end_tick": 3559,
        "end_time": 29.461846874999996,
        "length_ticks": 19,
        "length_time": 0.15728437499999615,
        "note": 72,
        "velocity": 127,
        "slice": 183,
        "channel": 1
      },
      {
        "start_tick": 3540,
        "start_time": 29.3045625,
        "end_tick": 3555,
        "end_time": 29.428734375,
        "length_ticks": 15,
        "length_time": 0.12417187500000182,
        "note": 63,
        "velocity": 127,
        "slice": 183,
        "channel": 2
      }
    ],
    "3548": [
      {
        "start_tick": 3548,
        "start_time": 29.370787499999995,
        "end_tick": 3559,
        "end_time": 29.461846874999996,
        "length_ticks": 11,
        "length_time": 0.09105937500000039,
        "note": 56,
        "velocity": 127,
        "slice": 184,
        "channel": 3
      }
    ],
    "3549": [
      {
        "start_tick": 3549,
        "start_time": 29.379065625,
        "end_tick": 3560,
        "end_time": 29.470125,
        "length_ticks": 11,
        "length_time": 0.09105937500000039,
        "note": 56,
        "velocity": 127,
        "slice": 184,
        "channel": 4
      }
    ],
    "3564": [
      {
        "start_tick": 3564,
        "start_time": 29.503237499999997,
        "end_tick": 3580,
        "end_time": 29.6356875,
        "length_ticks": 16,
        "length_time": 0.13245000000000218,
        "note": 70,
        "velocity": 127,
        "slice": 184,
        "channel": 1
      },
      {
        "start_tick": 3564,
        "start_time": 29.503237499999997,
        "end_tick": 3574,
        "end_time": 29.586018749999997,
        "length_ticks": 10,
        "length_time": 0.08278125000000003,
        "note": 62,
        "velocity": 127,
        "slice": 184,
        "channel": 2
      },
      {
        "start_tick": 3564,
        "start_time": 29.503237499999997,
        "end_tick": 3612,
        "end_time": 29.9005875,
        "length_ticks": 48,
        "length_time": 0.397350000000003,
        "note": 55,
        "velocity": 127,
        "slice": 184,
        "channel": 3
      }
    ],
    "3565": [
      {
        "start_tick": 3565,
        "start_time": 29.511515624999998,
        "end_tick": 3576,
        "end_time": 29.602574999999998,
        "length_ticks": 11,
        "length_time": 0.09105937500000039,
        "note": 56,
        "velocity": 127,
        "slice": 184,
        "channel": 4
      }
    ],
    "3580": [
      {
        "start_tick": 3580,
        "start_time": 29.6356875,
        "end_tick": 3596,
        "end_time": 29.768137499999998,
        "length_ticks": 16,
        "length_time": 0.13244999999999862,
        "note": 69,
        "velocity": 127,
        "slice": 185,
        "channel": 1
      },
      {
        "start_tick": 3580,
        "start_time": 29.6356875,
        "end_tick": 3590,
        "end_time": 29.71846875,
        "length_ticks": 10,
        "length_time": 0.08278125000000003,
        "note": 61,
        "velocity": 127,
        "slice": 185,
        "channel": 2
      }
    ],
    "3581": [
      {
        "start_tick": 3581,
        "start_time": 29.643965624999996,
        "end_tick": 3629,
        "end_time": 30.041315625,
        "length_ticks": 48,
        "length_time": 0.397350000000003,
        "note": 55,
        "velocity": 127,
        "slice": 185,
        "channel": 4
      }
    ],
    "3596": [
      {
        "start_tick": 3596,
        "start_time": 29.768137499999998,
        "end_tick": 3612,
        "end_time": 29.9005875,
        "length_ticks": 16,
        "length_time": 0.13245000000000218,
        "note": 70,
        "velocity": 127,
        "slice": 186,
        "channel": 1
      },
      {
        "start_tick": 3596,
        "start_time": 29.768137499999998,
        "end_tick": 3606,
        "end_time": 29.85091875,
        "length_ticks": 10,
        "length_time": 0.08278125000000358,
        "note": 62,
        "velocity": 127,
        "slice": 186,
        "channel": 2
      }
    ],
    "3612": [
      {
        "start_tick": 3612,
        "start_time": 29.9005875,
        "end_tick": 3628,
        "end_time": 30.033037499999995,
        "length_ticks": 16,
        "length_time": 0.13244999999999507,
        "note": 72,
        "velocity": 127,
        "slice": 187,
        "channel": 1
      },
      {
        "start_tick": 3612,
        "start_time": 29.9005875,
        "end_tick": 3622,
        "end_time": 29.983368749999997,
        "length_ticks": 10,
        "length_time": 0.08278124999999648,
        "note": 66,
        "velocity": 127,
        "slice": 187,
        "channel": 2
      },
      {
        "start_tick": 3612,
        "start_time": 29.9005875,
        "end_tick": 3660,
        "end_time": 30.2979375,
        "length_ticks": 48,
        "length_time": 0.3973499999999994,
        "note": 54,
        "velocity": 127,
        "slice": 187,
        "channel": 3
      }
    ],
    "3628": [
      {
        "start_tick": 3628,
        "start_time": 30.033037499999995,
        "end_tick": 3644,
        "end_time": 30.165487499999998,
        "length_ticks": 16,
        "length_time": 0.13245000000000218,
        "note": 70,
        "velocity": 127,
        "slice": 188,
        "channel": 1
      },
      {
        "start_tick": 3628,
        "start_time": 30.033037499999995,
        "end_tick": 3638,
        "end_time": 30.11581875,
        "length_ticks": 10,
        "length_time": 0.08278125000000358,
        "note": 67,
        "velocity": 127,
        "slice": 188,
        "channel": 2
      }
    ],
    "3629": [
      {
        "start_tick": 3629,
        "start_time": 30.041315625,
        "end_tick": 3677,
        "end_time": 30.438665625,
        "length_ticks": 48,
        "length_time": 0.3973499999999994,
        "note": 54,
        "velocity": 127,
        "slice": 188,
        "channel": 4
      }
    ],
    "3644": [
      {
        "start_tick": 3644,
        "start_time": 30.165487499999998,
        "end_tick": 3660,
        "end_time": 30.2979375,
        "length_ticks": 16,
        "length_time": 0.13245000000000218,
        "note": 72,
        "velocity": 127,
        "slice": 189,
        "channel": 1
      },
      {
        "start_tick": 3644,
        "start_time": 30.165487499999998,
        "end_tick": 3654,
        "end_time": 30.248268749999998,
        "length_ticks": 10,
        "length_time": 0.08278125000000003,
        "note": 69,
        "velocity": 127,
        "slice": 189,
        "channel": 2
      }
    ],
    "3660": [
      {
        "start_tick": 3660,
        "start_time": 30.2979375,
        "end_tick": 3673,
        "end_time": 30.405553124999997,
        "length_ticks": 13,
        "length_time": 0.10761562499999755,
        "note": 74,
        "velocity": 127,
        "slice": 189,
        "channel": 1
      },
      {
        "start_tick": 3660,
        "start_time": 30.2979375,
        "end_tick": 3670,
        "end_time": 30.38071875,
        "length_ticks": 10,
        "length_time": 0.08278125000000003,
        "note": 70,
        "velocity": 127,
        "slice": 189,
        "channel": 2
      },
      {
        "start_tick": 3660,
        "start_time": 30.2979375,
        "end_tick": 3756,
        "end_time": 31.0926375,
        "length_ticks": 96,
        "length_time": 0.7946999999999989,
        "note": 53,
        "velocity": 127,
        "slice": 189,
        "channel": 3
      }
    ],
    "3677": [
      {
        "start_tick": 3677,
        "start_time": 30.438665625,
        "end_tick": 3773,
        "end_time": 31.233365625,
        "length_ticks": 96,
        "length_time": 0.7947000000000024,
        "note": 53,
        "velocity": 127,
        "slice": 190,
        "channel": 4
      }
    ],
    "3692": [
      {
        "start_tick": 3692,
        "start_time": 30.5628375,
        "end_tick": 3705,
        "end_time": 30.670453124999998,
        "length_ticks": 13,
        "length_time": 0.10761562499999755,
        "note": 74,
        "velocity": 127,
        "slice": 191,
        "channel": 1
      },
      {
        "start_tick": 3692,
        "start_time": 30.5628375,
        "end_tick": 3702,
        "end_time": 30.645618749999997,
        "length_ticks": 10,
        "length_time": 0.08278124999999648,
        "note": 70,
        "velocity": 127,
        "slice": 191,
        "channel": 2
      }
    ],
    "3708": [
      {
        "start_tick": 3708,
        "start_time": 30.695287499999996,
        "end_tick": 3721,
        "end_time": 30.802903125,
        "length_ticks": 13,
        "length_time": 0.10761562500000466,
        "note": 74,
        "velocity": 127,
        "slice": 192,
        "channel": 1
      },
      {
        "start_tick": 3708,
        "start_time": 30.695287499999996,
        "end_tick": 3718,
        "end_time": 30.77806875,
        "length_ticks": 10,
        "length_time": 0.08278125000000358,
        "note": 70,
        "velocity": 127,
        "slice": 192,
        "channel": 2
      }
    ],
    "3724": [
      {
        "start_tick": 3724,
        "start_time": 30.827737499999998,
        "end_tick": 3737,
        "end_time": 30.935353124999995,
        "length_ticks": 13,
        "length_time": 0.10761562499999755,
        "note": 72,
        "velocity": 127,
        "slice": 193,
        "channel": 1
      },
      {
        "start_tick": 3724,
        "start_time": 30.827737499999998,
        "end_tick": 3734,
        "end_time": 30.910518749999998,
        "length_ticks": 10,
        "length_time": 0.08278125000000003,
        "note": 69,
        "velocity": 127,
        "slice": 193,
        "channel": 2
      }
    ],
    "3740": [
      {
        "start_tick": 3740,
        "start_time": 30.9601875,
        "end_tick": 3753,
        "end_time": 31.067803124999998,
        "length_ticks": 13,
        "length_time": 0.10761562499999755,
        "note": 70,
        "velocity": 127,
        "slice": 194,
        "channel": 1
      },
      {
        "start_tick": 3740,
        "start_time": 30.9601875,
        "end_tick": 3750,
        "end_time": 31.04296875,
        "length_ticks": 10,
        "length_time": 0.08278125000000003,
        "note": 67,
        "velocity": 127,
        "slice": 194,
        "channel": 2
      }
    ],
    "3756": [
      {
        "start_tick": 3756,
        "start_time": 31.0926375,
        "end_tick": 3786,
        "end_time": 31.34098125,
        "length_ticks": 30,
        "length_time": 0.24834375000000009,
        "note": 74,
        "velocity": 127,
        "slice": 194,
        "channel": 1
      },
      {
        "start_tick": 3756,
        "start_time": 31.0926375,
        "end_tick": 3842,
        "end_time": 31.80455625,
        "length_ticks": 86,
        "length_time": 0.7119187500000024,
        "note": 74,
        "velocity": 127,
        "slice": 194,
        "channel": 2
      },
      {
        "start_tick": 3756,
        "start_time": 31.0926375,
        "end_tick": 3804,
        "end_time": 31.489987499999998,
        "length_ticks": 48,
        "length_time": 0.3973499999999994,
        "note": 52,
        "velocity": 127,
        "slice": 194,
        "channel": 3
      }
    ],
    "3773": [
      {
        "start_tick": 3773,
        "start_time": 31.233365625,
        "end_tick": 3821,
        "end_time": 31.630715624999997,
        "length_ticks": 48,
        "length_time": 0.3973499999999959,
        "note": 52,
        "velocity": 127,
        "slice": 195,
        "channel": 4
      }
    ],
    "3792": [
      {
        "start_tick": 3792,
        "start_time": 31.390649999999997,
        "end_tick": 3828,
        "end_time": 31.688662499999996,
        "length_ticks": 36,
        "length_time": 0.2980124999999987,
        "note": 70,
        "velocity": 127,
        "slice": 196,
        "channel": 1
      }
    ],
    "3804": [
      {
        "start_tick": 3804,
        "start_time": 31.489987499999998,
        "end_tick": 3852,
        "end_time": 31.887337499999997,
        "length_ticks": 48,
        "length_time": 0.3973499999999994,
        "note": 48,
        "velocity": 127,
        "slice": 197,
        "channel": 3
      }
    ],
    "3821": [
      {
        "start_tick": 3821,
        "start_time": 31.630715624999997,
        "end_tick": 3869,
        "end_time": 32.028065624999996,
        "length_ticks": 48,
        "length_time": 0.3973499999999994,
        "note": 48,
        "velocity": 127,
        "slice": 198,
        "channel": 4
      }
    ],
    "3828": [
      {
        "start_tick": 3828,
        "start_time": 31.688662499999996,
        "end_tick": 3852,
        "end_time": 31.887337499999997,
        "length_ticks": 24,
        "length_time": 0.1986750000000015,
        "note": 67,
        "velocity": 127,
        "slice": 198,
        "channel": 1
      }
    ],
    "3852": [
      {
        "start_tick": 3852,
        "start_time": 31.887337499999997,
        "end_tick": 3938,
        "end_time": 32.599256249999996,
        "length_ticks": 86,
        "length_time": 0.7119187499999988,
        "note": 86,
        "velocity": 127,
        "slice": 199,
        "channel": 2
      },
      {
        "start_tick": 3852,
        "start_time": 31.887337499999997,
        "end_tick": 3868,
        "end_time": 32.0197875,
        "length_ticks": 16,
        "length_time": 0.13245000000000218,
        "note": 50,
        "velocity": 127,
        "slice": 199,
        "channel": 3
      }
    ],
    "3869": [
      {
        "start_tick": 3869,
        "start_time": 32.028065624999996,
        "end_tick": 3885,
        "end_time": 32.160515624999995,
        "length_ticks": 16,
        "length_time": 0.13244999999999862,
        "note": 50,
        "velocity": 127,
        "slice": 200,
        "channel": 4
      }
    ],
    "3900": [
      {
        "start_tick": 3900,
        "start_time": 32.2846875,
        "end_tick": 3911,
        "end_time": 32.375746875,
        "length_ticks": 11,
        "length_time": 0.09105937500000039,
        "note": 50,
        "velocity": 127,
        "slice": 202,
        "channel": 3
      }
    ],
    "3916": [
      {
        "start_tick": 3916,
        "start_time": 32.4171375,
        "end_tick": 3932,
        "end_time": 32.549587499999994,
        "length_ticks": 16,
        "length_time": 0.13244999999999152,
        "note": 64,
        "velocity": 127,
        "slice": 203,
        "channel": 1
      },
      {
        "start_tick": 3916,
        "start_time": 32.4171375,
        "end_tick": 3927,
        "end_time": 32.508196875,
        "length_ticks": 11,
        "length_time": 0.09105937500000039,
        "note": 62,
        "velocity": 127,
        "slice": 203,
        "channel": 3
      }
    ],
    "3917": [
      {
        "start_tick": 3917,
        "start_time": 32.425415625,
        "end_tick": 3928,
        "end_time": 32.516475,
        "length_ticks": 11,
        "length_time": 0.09105937500000039,
        "note": 50,
        "velocity": 127,
        "slice": 203,
        "channel": 4
      }
    ],
    "3932": [
      {
        "start_tick": 3932,
        "start_time": 32.549587499999994,
        "end_tick": 3948,
        "end_time": 32.6820375,
        "length_ticks": 16,
        "length_time": 0.13245000000000573,
        "note": 66,
        "velocity": 127,
        "slice": 203,
        "channel": 1
      },
      {
        "start_tick": 3932,
        "start_time": 32.549587499999994,
        "end_tick": 3943,
        "end_time": 32.640646874999995,
        "length_ticks": 11,
        "length_time": 0.09105937500000039,
        "note": 60,
        "velocity": 127,
        "slice": 203,
        "channel": 3
      }
    ],
    "3933": [
      {
        "start_tick": 3933,
        "start_time": 32.557865625,
        "end_tick": 3944,
        "end_time": 32.648925,
        "length_ticks": 11,
        "length_time": 0.09105937500000039,
        "note": 62,
        "velocity": 127,
        "slice": 203,
        "channel": 4
      }
    ],
    "3948": [
      {
        "start_tick": 3948,
        "start_time": 32.6820375,
        "end_tick": 3961,
        "end_time": 32.789653124999994,
        "length_ticks": 13,
        "length_time": 0.107615624999994,
        "note": 67,
        "velocity": 127,
        "slice": 204,
        "channel": 1
      },
      {
        "start_tick": 3948,
        "start_time": 32.6820375,
        "end_tick": 4063,
        "end_time": 33.634021874999995,
        "length_ticks": 115,
        "length_time": 0.951984374999995,
        "note": 79,
        "velocity": 127,
        "slice": 204,
        "channel": 2
      },
      {
        "start_tick": 3948,
        "start_time": 32.6820375,
        "end_tick": 3959,
        "end_time": 32.773096875,
        "length_ticks": 11,
        "length_time": 0.09105937500000039,
        "note": 57,
        "velocity": 127,
        "slice": 204,
        "channel": 3
      }
    ],
    "3949": [
      {
        "start_tick": 3949,
        "start_time": 32.690315625,
        "end_tick": 3960,
        "end_time": 32.781375,
        "length_ticks": 11,
        "length_time": 0.09105937500000039,
        "note": 60,
        "velocity": 127,
        "slice": 204,
        "channel": 4
      }
    ],
    "3964": [
      {
        "start_tick": 3964,
        "start_time": 32.8144875,
        "end_tick": 3977,
        "end_time": 32.922103125,
        "length_ticks": 13,
        "length_time": 0.1076156250000011,
        "note": 69,
        "velocity": 127,
        "slice": 205,
        "channel": 1
      },
      {
        "start_tick": 3964,
        "start_time": 32.8144875,
        "end_tick": 3975,
        "end_time": 32.905546875,
        "length_ticks": 11,
        "length_time": 0.09105937500000039,
        "note": 55,
        "velocity": 127,
        "slice": 205,
        "channel": 3
      }
    ],
    "3965": [
      {
        "start_tick": 3965,
        "start_time": 32.822765624999995,
        "end_tick": 3976,
        "end_time": 32.913824999999996,
        "length_ticks": 11,
        "length_time": 0.09105937500000039,
        "note": 57,
        "velocity": 127,
        "slice": 205,
        "channel": 4
      }
    ],
    "3980": [
      {
        "start_tick": 3980,
        "start_time": 32.9469375,
        "end_tick": 3993,
        "end_time": 33.054553125,
        "length_ticks": 13,
        "length_time": 0.1076156250000011,
        "note": 70,
        "velocity": 127,
        "slice": 206,
        "channel": 1
      },
      {
        "start_tick": 3980,
        "start_time": 32.9469375,
        "end_tick": 3991,
        "end_time": 33.037996875,
        "length_ticks": 11,
        "length_time": 0.09105937500000039,
        "note": 57,
        "velocity": 127,
        "slice": 206,
        "channel": 3
      }
    ],
    "3981": [
      {
        "start_tick": 3981,
        "start_time": 32.955215625,
        "end_tick": 3992,
        "end_time": 33.046275,
        "length_ticks": 11,
        "length_time": 0.09105937500000039,
        "note": 55,
        "velocity": 127,
        "slice": 206,
        "channel": 4
      }
    ],
    "3996": [
      {
        "start_tick": 3996,
        "start_time": 33.0793875,
        "end_tick": 4009,
        "end_time": 33.187003125,
        "length_ticks": 13,
        "length_time": 0.107615624999994,
        "note": 72,
        "velocity": 127,
        "slice": 207,
        "channel": 1
      },
      {
        "start_tick": 3996,
        "start_time": 33.0793875,
        "end_tick": 4007,
        "end_time": 33.170446874999996,
        "length_ticks": 11,
        "length_time": 0.09105937499999328,
        "note": 58,
        "velocity": 127,
        "slice": 207,
        "channel": 3
      }
    ],
    "3997": [
      {
        "start_tick": 3997,
        "start_time": 33.087665625,
        "end_tick": 4008,
        "end_time": 33.178725,
        "length_ticks": 11,
        "length_time": 0.09105937500000039,
        "note": 57,
        "velocity": 127,
        "slice": 207,
        "channel": 4
      }
    ],
    "4012": [
      {
        "start_tick": 4012,
        "start_time": 33.211837499999994,
        "end_tick": 4025,
        "end_time": 33.319453125,
        "length_ticks": 13,
        "length_time": 0.10761562500000821,
        "note": 70,
        "velocity": 127,
        "slice": 208,
        "channel": 1
      }
    ],
    "4013": [
      {
        "start_tick": 4013,
        "start_time": 33.220115625,
        "end_tick": 4024,
        "end_time": 33.311175,
        "length_ticks": 11,
        "length_time": 0.09105937500000039,
        "note": 58,
        "velocity": 127,
        "slice": 208,
        "channel": 4
      }
    ],
    "4028": [
      {
        "start_tick": 4028,
        "start_time": 33.3442875,
        "end_tick": 4041,
        "end_time": 33.451903124999994,
        "length_ticks": 13,
        "length_time": 0.107615624999994,
        "note": 69,
        "velocity": 127,
        "slice": 208,
        "channel": 1
      }
    ],
    "4044": [
      {
        "start_tick": 4044,
        "start_time": 33.4767375,
        "end_tick": 4071,
        "end_time": 33.700246875,
        "length_ticks": 27,
        "length_time": 0.223509374999999,
        "note": 70,
        "velocity": 127,
        "slice": 209,
        "channel": 1
      },
      {
        "start_tick": 4044,
        "start_time": 33.4767375,
        "end_tick": 4055,
        "end_time": 33.567796875,
        "length_ticks": 11,
        "length_time": 0.09105937500000039,
        "note": 55,
        "velocity": 127,
        "slice": 209,
        "channel": 3
      }
    ],
    "4061": [
      {
        "start_tick": 4061,
        "start_time": 33.617465625,
        "end_tick": 4072,
        "end_time": 33.708525,
        "length_ticks": 11,
        "length_time": 0.09105937500000039,
        "note": 55,
        "velocity": 127,
        "slice": 210,
        "channel": 4
      }
    ],
    "4092": [
      {
        "start_tick": 4092,
        "start_time": 33.874087499999995,
        "end_tick": 4105,
        "end_time": 33.981703125,
        "length_ticks": 13,
        "length_time": 0.10761562500000821,
        "note": 74,
        "velocity": 127,
        "slice": 212,
        "channel": 5
      }
    ],
    "4108": [
      {
        "start_tick": 4108,
        "start_time": 34.0065375,
        "end_tick": 4121,
        "end_time": 34.114153124999994,
        "length_ticks": 13,
        "length_time": 0.107615624999994,
        "note": 75,
        "velocity": 127,
        "slice": 213,
        "channel": 5
      }
    ],
    "4124": [
      {
        "start_tick": 4124,
        "start_time": 34.1389875,
        "end_tick": 4137,
        "end_time": 34.246603125,
        "length_ticks": 13,
        "length_time": 0.1076156250000011,
        "note": 77,
        "velocity": 127,
        "slice": 213,
        "channel": 5
      }
    ],
    "4140": [
      {
        "start_tick": 4140,
        "start_time": 34.2714375,
        "end_tick": 4161,
        "end_time": 34.445278124999994,
        "length_ticks": 21,
        "length_time": 0.17384062499999686,
        "note": 70,
        "velocity": 127,
        "slice": 214,
        "channel": 2
      },
      {
        "start_tick": 4140,
        "start_time": 34.2714375,
        "end_tick": 4151,
        "end_time": 34.362496875,
        "length_ticks": 11,
        "length_time": 0.09105937500000039,
        "note": 39,
        "velocity": 127,
        "slice": 214,
        "channel": 3
      },
      {
        "start_tick": 4140,
        "start_time": 34.2714375,
        "end_tick": 4180,
        "end_time": 34.6025625,
        "length_ticks": 40,
        "length_time": 0.3311250000000001,
        "note": 79,
        "velocity": 127,
        "slice": 214,
        "channel": 5
      }
    ],
    "4157": [
      {
        "start_tick": 4157,
        "start_time": 34.412165625,
        "end_tick": 4168,
        "end_time": 34.503225,
        "length_ticks": 11,
        "length_time": 0.09105937500000039,
        "note": 39,
        "velocity": 127,
        "slice": 215,
        "channel": 4
      }
    ],
    "4188": [
      {
        "start_tick": 4188,
        "start_time": 34.6687875,
        "end_tick": 4239,
        "end_time": 35.090971875,
        "length_ticks": 51,
        "length_time": 0.4221843750000005,
        "note": 67,
        "velocity": 127,
        "slice": 217,
        "channel": 2
      },
      {
        "start_tick": 4188,
        "start_time": 34.6687875,
        "end_tick": 4199,
        "end_time": 34.759846875,
        "length_ticks": 11,
        "length_time": 0.09105937500000039,
        "note": 51,
        "velocity": 127,
        "slice": 217,
        "channel": 3
      },
      {
        "start_tick": 4188,
        "start_time": 34.6687875,
        "end_tick": 4252,
        "end_time": 35.198587499999995,
        "length_ticks": 64,
        "length_time": 0.5297999999999945,
        "note": 74,
        "velocity": 127,
        "slice": 217,
        "channel": 5
      }
    ],
    "4204": [
      {
        "start_tick": 4204,
        "start_time": 34.8012375,
        "end_tick": 4215,
        "end_time": 34.892296875,
        "length_ticks": 11,
        "length_time": 0.09105937500000039,
        "note": 55,
        "velocity": 127,
        "slice": 218,
        "channel": 3
      }
    ],
    "4205": [
      {
        "start_tick": 4205,
        "start_time": 34.809515624999996,
        "end_tick": 4216,
        "end_time": 34.900574999999996,
        "length_ticks": 11,
        "length_time": 0.09105937500000039,
        "note": 51,
        "velocity": 127,
        "slice": 218,
        "channel": 4
      }
    ],
    "4220": [
      {
        "start_tick": 4220,
        "start_time": 34.9336875,
        "end_tick": 4231,
        "end_time": 35.024746875,
        "length_ticks": 11,
        "length_time": 0.09105937500000039,
        "note": 58,
        "velocity": 127,
        "slice": 218,
        "channel": 3
      }
    ],
    "4221": [
      {
        "start_tick": 4221,
        "start_time": 34.941965625,
        "end_tick": 4232,
        "end_time": 35.033025,
        "length_ticks": 11,
        "length_time": 0.09105937500000039,
        "note": 55,
        "velocity": 127,
        "slice": 218,
        "channel": 4
      }
    ],
    "4236": [
      {
        "start_tick": 4236,
        "start_time": 35.066137499999996,
        "end_tick": 4247,
        "end_time": 35.157196875,
        "length_ticks": 11,
        "length_time": 0.09105937500000039,
        "note": 63,
        "velocity": 127,
        "slice": 219,
        "channel": 3
      }
    ],
    "4237": [
      {
        "start_tick": 4237,
        "start_time": 35.074415625,
        "end_tick": 4248,
        "end_time": 35.165474999999994,
        "length_ticks": 11,
        "length_time": 0.09105937499999328,
        "note": 58,
        "velocity": 127,
        "slice": 219,
        "channel": 4
      }
    ],
    "4253": [
      {
        "start_tick": 4253,
        "start_time": 35.206865625,
        "end_tick": 4264,
        "end_time": 35.297925,
        "length_ticks": 11,
        "length_time": 0.09105937500000039,
        "note": 63,
        "velocity": 127,
        "slice": 220,
        "channel": 4
      }
    ],
    "4272": [
      {
        "start_tick": 4272,
        "start_time": 35.36415,
        "end_tick": 4280,
        "end_time": 35.430375,
        "length_ticks": 8,
        "length_time": 0.06622499999999576,
        "note": 69,
        "velocity": 127,
        "slice": 221,
        "channel": 2
      },
      {
        "start_tick": 4272,
        "start_time": 35.36415,
        "end_tick": 4282,
        "end_time": 35.44693125,
        "length_ticks": 10,
        "length_time": 0.08278124999999648,
        "note": 79,
        "velocity": 127,
        "slice": 221,
        "channel": 5
      }
    ],
    "4284": [
      {
        "start_tick": 4284,
        "start_time": 35.4634875,
        "end_tick": 4292,
        "end_time": 35.529712499999995,
        "length_ticks": 8,
        "length_time": 0.06622499999999576,
        "note": 69,
        "velocity": 127,
        "slice": 222,
        "channel": 2
      },
      {
        "start_tick": 4284,
        "start_time": 35.4634875,
        "end_tick": 4295,
        "end_time": 35.554546875,
        "length_ticks": 11,
        "length_time": 0.09105937500000039,
        "note": 39,
        "velocity": 127,
        "slice": 222,
        "channel": 3
      },
      {
        "start_tick": 4284,
        "start_time": 35.4634875,
        "end_tick": 4294,
        "end_time": 35.54626875,
        "length_ticks": 10,
        "length_time": 0.08278125000000358,
        "note": 79,
        "velocity": 127,
        "slice": 222,
        "channel": 5
      }
    ],
    "4296": [
      {
        "start_tick": 4296,
        "start_time": 35.562825,
        "end_tick": 4304,
        "end_time": 35.62905,
        "length_ticks": 8,
        "length_time": 0.06622500000000286,
        "note": 70,
        "velocity": 127,
        "slice": 222,
        "channel": 2
      },
      {
        "start_tick": 4296,
        "start_time": 35.562825,
        "end_tick": 4306,
        "end_time": 35.64560625,
        "length_ticks": 10,
        "length_time": 0.08278125000000358,
        "note": 81,
        "velocity": 127,
        "slice": 222,
        "channel": 5
      }
    ],
    "4300": [
      {
        "start_tick": 4300,
        "start_time": 35.5959375,
        "end_tick": 4311,
        "end_time": 35.686996875,
        "length_ticks": 11,
        "length_time": 0.09105937500000039,
        "note": 39,
        "velocity": 127,
        "slice": 222,
        "channel": 3
      }
    ],
    "4301": [
      {
        "start_tick": 4301,
        "start_time": 35.604215625,
        "end_tick": 4312,
        "end_time": 35.695275,
        "length_ticks": 11,
        "length_time": 0.09105937500000039,
        "note": 39,
        "velocity": 127,
        "slice": 223,
        "channel": 4
      }
    ],
    "4308": [
      {
        "start_tick": 4308,
        "start_time": 35.6621625,
        "end_tick": 4316,
        "end_time": 35.7283875,
        "length_ticks": 8,
        "length_time": 0.06622499999999576,
        "note": 72,
        "velocity": 127,
        "slice": 223,
        "channel": 2
      },
      {
        "start_tick": 4308,
        "start_time": 35.6621625,
        "end_tick": 4318,
        "end_time": 35.74494375,
        "length_ticks": 10,
        "length_time": 0.08278124999999648,
        "note": 82,
        "velocity": 127,
        "slice": 223,
        "channel": 5
      }
    ],
    "4316": [
      {
        "start_tick": 4316,
        "start_time": 35.7283875,
        "end_tick": 4327,
        "end_time": 35.819446875,
        "length_ticks": 11,
        "length_time": 0.09105937500000039,
        "note": 39,
        "velocity": 127,
        "slice": 223,
        "channel": 3
      }
    ],
    "4317": [
      {
        "start_tick": 4317,
        "start_time": 35.736665625,
        "end_tick": 4328,
        "end_time": 35.827724999999994,
        "length_ticks": 11,
        "length_time": 0.09105937499999328,
        "note": 39,
        "velocity": 127,
        "slice": 223,
        "channel": 4
      }
    ],
    "4320": [
      {
        "start_tick": 4320,
        "start_time": 35.7615,
        "end_tick": 4328,
        "end_time": 35.827724999999994,
        "length_ticks": 8,
        "length_time": 0.06622499999999576,
        "note": 74,
        "velocity": 127,
        "slice": 224,
        "channel": 2
      },
      {
        "start_tick": 4320,
        "start_time": 35.7615,
        "end_tick": 4330,
        "end_time": 35.84428125,
        "length_ticks": 10,
        "length_time": 0.08278125000000358,
        "note": 84,
        "velocity": 127,
        "slice": 224,
        "channel": 5
      }
    ],
    "4332": [
      {
        "start_tick": 4332,
        "start_time": 35.860837499999995,
        "end_tick": 4344,
        "end_time": 35.960175,
        "length_ticks": 12,
        "length_time": 0.0993375000000043,
        "note": 72,
        "velocity": 127,
        "slice": 224,
        "channel": 2
      },
      {
        "start_tick": 4332,
        "start_time": 35.860837499999995,
        "end_tick": 4343,
        "end_time": 35.951896874999996,
        "length_ticks": 11,
        "length_time": 0.09105937500000039,
        "note": 38,
        "velocity": 127,
        "slice": 224,
        "channel": 3
      },
      {
        "start_tick": 4332,
        "start_time": 35.860837499999995,
        "end_tick": 4345,
        "end_time": 35.968453124999996,
        "length_ticks": 13,
        "length_time": 0.1076156250000011,
        "note": 81,
        "velocity": 127,
        "slice": 224,
        "channel": 5
      }
    ],
    "4333": [
      {
        "start_tick": 4333,
        "start_time": 35.869115625,
        "end_tick": 4344,
        "end_time": 35.960175,
        "length_ticks": 11,
        "length_time": 0.09105937500000039,
        "note": 39,
        "velocity": 127,
        "slice": 224,
        "channel": 4
      }
    ],
    "4349": [
      {
        "start_tick": 4349,
        "start_time": 36.001565625,
        "end_tick": 4360,
        "end_time": 36.092625,
        "length_ticks": 11,
        "length_time": 0.09105937500000039,
        "note": 38,
        "velocity": 127,
        "slice": 225,
        "channel": 4
      }
    ],
    "4364": [
      {
        "start_tick": 4364,
        "start_time": 36.1257375,
        "end_tick": 4376,
        "end_time": 36.225075,
        "length_ticks": 12,
        "length_time": 0.09933749999999719,
        "note": 70,
        "velocity": 127,
        "slice": 226,
        "channel": 2
      },
      {
        "start_tick": 4364,
        "start_time": 36.1257375,
        "end_tick": 4377,
        "end_time": 36.233353125,
        "length_ticks": 13,
        "length_time": 0.1076156250000011,
        "note": 77,
        "velocity": 127,
        "slice": 226,
        "channel": 5
      }
    ],
    "4380": [
      {
        "start_tick": 4380,
        "start_time": 36.2581875,
        "end_tick": 4447,
        "end_time": 36.812821875,
        "length_ticks": 67,
        "length_time": 0.5546343749999991,
        "note": 69,
        "velocity": 127,
        "slice": 227,
        "channel": 2
      },
      {
        "start_tick": 4380,
        "start_time": 36.2581875,
        "end_tick": 4391,
        "end_time": 36.349246875,
        "length_ticks": 11,
        "length_time": 0.09105937500000039,
        "note": 50,
        "velocity": 127,
        "slice": 227,
        "channel": 3
      },
      {
        "start_tick": 4380,
        "start_time": 36.2581875,
        "end_tick": 4439,
        "end_time": 36.746596875,
        "length_ticks": 59,
        "length_time": 0.48840937500000337,
        "note": 72,
        "velocity": 127,
        "slice": 227,
        "channel": 5
      }
    ],
    "4396": [
      {
        "start_tick": 4396,
        "start_time": 36.3906375,
        "end_tick": 4407,
        "end_time": 36.481696875,
        "length_ticks": 11,
        "length_time": 0.09105937500000039,
        "note": 53,
        "velocity": 127,
        "slice": 227,
        "channel": 3
      }
    ],
    "4397": [
      {
        "start_tick": 4397,
        "start_time": 36.398915624999994,
        "end_tick": 4408,
        "end_time": 36.489974999999994,
        "length_ticks": 11,
        "length_time": 0.09105937500000039,
        "note": 50,
        "velocity": 127,
        "slice": 227,
        "channel": 4
      }
    ],
    "4412": [
      {
        "start_tick": 4412,
        "start_time": 36.523087499999995,
        "end_tick": 4423,
        "end_time": 36.614146874999996,
        "length_ticks": 11,
        "length_time": 0.09105937500000039,
        "note": 57,
        "velocity": 127,
        "slice": 228,
        "channel": 3
      }
    ],
    "4413": [
      {
        "start_tick": 4413,
        "start_time": 36.531365625,
        "end_tick": 4424,
        "end_time": 36.622425,
        "length_ticks": 11,
        "length_time": 0.09105937500000039,
        "note": 53,
        "velocity": 127,
        "slice": 228,
        "channel": 4
      }
    ],
    "4428": [
      {
        "start_tick": 4428,
        "start_time": 36.6555375,
        "end_tick": 4439,
        "end_time": 36.746596875,
        "length_ticks": 11,
        "length_time": 0.09105937500000039,
        "note": 62,
        "velocity": 127,
        "slice": 229,
        "channel": 3
      }
    ],
    "4429": [
      {
        "start_tick": 4429,
        "start_time": 36.663815625,
        "end_tick": 4440,
        "end_time": 36.754875,
        "length_ticks": 11,
        "length_time": 0.09105937500000039,
        "note": 57,
        "velocity": 127,
        "slice": 229,
        "channel": 4
      }
    ],
    "4445": [
      {
        "start_tick": 4445,
        "start_time": 36.796265625,
        "end_tick": 4456,
        "end_time": 36.887325,
        "length_ticks": 11,
        "length_time": 0.09105937500000039,
        "note": 62,
        "velocity": 127,
        "slice": 230,
        "channel": 4
      }
    ],
    "4452": [
      {
        "start_tick": 4452,
        "start_time": 36.854212499999996,
        "end_tick": 4462,
        "end_time": 36.93699375,
        "length_ticks": 10,
        "length_time": 0.08278125000000358,
        "note": 72,
        "velocity": 127,
        "slice": 230,
        "channel": 5
      }
    ],
    "4464": [
      {
        "start_tick": 4464,
        "start_time": 36.95355,
        "end_tick": 4474,
        "end_time": 37.036331249999996,
        "length_ticks": 10,
        "length_time": 0.08278124999999648,
        "note": 74,
        "velocity": 127,
        "slice": 231,
        "channel": 5
      }
    ],
    "4476": [
      {
        "start_tick": 4476,
        "start_time": 37.0528875,
        "end_tick": 4514,
        "end_time": 37.36745625,
        "length_ticks": 38,
        "length_time": 0.3145687499999994,
        "note": 65,
        "velocity": 127,
        "slice": 232,
        "channel": 2
      },
      {
        "start_tick": 4476,
        "start_time": 37.0528875,
        "end_tick": 4487,
        "end_time": 37.143946875,
        "length_ticks": 11,
        "length_time": 0.09105937500000039,
        "note": 50,
        "velocity": 127,
        "slice": 232,
        "channel": 3
      },
      {
        "start_tick": 4476,
        "start_time": 37.0528875,
        "end_tick": 4486,
        "end_time": 37.13566875,
        "length_ticks": 10,
        "length_time": 0.08278125000000358,
        "note": 77,
        "velocity": 127,
        "slice": 232,
        "channel": 5
      }
    ],
    "4488": [
      {
        "start_tick": 4488,
        "start_time": 37.152224999999994,
        "end_tick": 4498,
        "end_time": 37.23500625,
        "length_ticks": 10,
        "length_time": 0.08278125000000358,
        "note": 75,
        "velocity": 127,
        "slice": 232,
        "channel": 5
      }
    ],
    "4492": [
      {
        "start_tick": 4492,
        "start_time": 37.185337499999996,
        "end_tick": 4503,
        "end_time": 37.276396874999996,
        "length_ticks": 11,
        "length_time": 0.09105937500000039,
        "note": 50,
        "velocity": 127,
        "slice": 232,
        "channel": 3
      }
    ],
    "4493": [
      {
        "start_tick": 4493,
        "start_time": 37.193615625,
        "end_tick": 4504,
        "end_time": 37.284675,
        "length_ticks": 11,
        "length_time": 0.09105937500000039,
        "note": 50,
        "velocity": 127,
        "slice": 232,
        "channel": 4
      }
    ],
    "4500": [
      {
        "start_tick": 4500,
        "start_time": 37.2515625,
        "end_tick": 4510,
        "end_time": 37.334343749999995,
        "length_ticks": 10,
        "length_time": 0.08278124999999648,
        "note": 74,
        "velocity": 127,
        "slice": 233,
        "channel": 5
      }
    ],
    "4508": [
      {
        "start_tick": 4508,
        "start_time": 37.3177875,
        "end_tick": 4519,
        "end_time": 37.408846875,
        "length_ticks": 11,
        "length_time": 0.09105937500000039,
        "note": 50,
        "velocity": 127,
        "slice": 233,
        "channel": 3
      }
    ],
    "4509": [
      {
        "start_tick": 4509,
        "start_time": 37.326065625,
        "end_tick": 4520,
        "end_time": 37.417125,
        "length_ticks": 11,
        "length_time": 0.09105937500000039,
        "note": 50,
        "velocity": 127,
        "slice": 233,
        "channel": 4
      }
    ],
    "4512": [
      {
        "start_tick": 4512,
        "start_time": 37.3509,
        "end_tick": 4522,
        "end_time": 37.43368125,
        "length_ticks": 10,
        "length_time": 0.08278124999999648,
        "note": 72,
        "velocity": 127,
        "slice": 233,
        "channel": 5
      }
    ],
    "4524": [
      {
        "start_tick": 4524,
        "start_time": 37.4502375,
        "end_tick": 4536,
        "end_time": 37.549575,
        "length_ticks": 12,
        "length_time": 0.09933749999999719,
        "note": 67,
        "velocity": 127,
        "slice": 234,
        "channel": 2
      },
      {
        "start_tick": 4524,
        "start_time": 37.4502375,
        "end_tick": 4535,
        "end_time": 37.541296875,
        "length_ticks": 11,
        "length_time": 0.09105937500000039,
        "note": 43,
        "velocity": 127,
        "slice": 234,
        "channel": 3
      },
      {
        "start_tick": 4524,
        "start_time": 37.4502375,
        "end_tick": 4537,
        "end_time": 37.557853125,
        "length_ticks": 13,
        "length_time": 0.1076156250000011,
        "note": 74,
        "velocity": 127,
        "slice": 234,
        "channel": 5
      }
    ],
    "4525": [
      {
        "start_tick": 4525,
        "start_time": 37.458515625,
        "end_tick": 4536,
        "end_time": 37.549575,
        "length_ticks": 11,
        "length_time": 0.09105937500000039,
        "note": 50,
        "velocity": 127,
        "slice": 234,
        "channel": 4
      }
    ],
    "4541": [
      {
        "start_tick": 4541,
        "start_time": 37.590965625,
        "end_tick": 4552,
        "end_time": 37.682024999999996,
        "length_ticks": 11,
        "length_time": 0.09105937499999328,
        "note": 43,
        "velocity": 127,
        "slice": 235,
        "channel": 4
      }
    ],
    "4556": [
      {
        "start_tick": 4556,
        "start_time": 37.7151375,
        "end_tick": 4568,
        "end_time": 37.814474999999995,
        "length_ticks": 12,
        "length_time": 0.09933749999999719,
        "note": 62,
        "velocity": 127,
        "slice": 236,
        "channel": 2
      },
      {
        "start_tick": 4556,
        "start_time": 37.7151375,
        "end_tick": 4569,
        "end_time": 37.822753125,
        "length_ticks": 13,
        "length_time": 0.1076156250000011,
        "note": 67,
        "velocity": 127,
        "slice": 236,
        "channel": 5
      }
    ],
    "4572": [
      {
        "start_tick": 4572,
        "start_time": 37.847587499999996,
        "end_tick": 4607,
        "end_time": 38.137321875,
        "length_ticks": 35,
        "length_time": 0.2897343750000019,
        "note": 62,
        "velocity": 127,
        "slice": 237,
        "channel": 2
      },
      {
        "start_tick": 4572,
        "start_time": 37.847587499999996,
        "end_tick": 4583,
        "end_time": 37.938646874999996,
        "length_ticks": 11,
        "length_time": 0.09105937500000039,
        "note": 43,
        "velocity": 127,
        "slice": 237,
        "channel": 3
      },
      {
        "start_tick": 4572,
        "start_time": 37.847587499999996,
        "end_tick": 4632,
        "end_time": 38.344274999999996,
        "length_ticks": 60,
        "length_time": 0.49668750000000017,
        "note": 67,
        "velocity": 127,
        "slice": 237,
        "channel": 5
      }
    ],
    "4588": [
      {
        "start_tick": 4588,
        "start_time": 37.9800375,
        "end_tick": 4599,
        "end_time": 38.071096875,
        "length_ticks": 11,
        "length_time": 0.09105937500000039,
        "note": 43,
        "velocity": 127,
        "slice": 237,
        "channel": 3
      }
    ],
    "4589": [
      {
        "start_tick": 4589,
        "start_time": 37.988315625,
        "end_tick": 4600,
        "end_time": 38.079375,
        "length_ticks": 11,
        "length_time": 0.09105937500000039,
        "note": 43,
        "velocity": 127,
        "slice": 237,
        "channel": 4
      }
    ],
    "4604": [
      {
        "start_tick": 4604,
        "start_time": 38.1124875,
        "end_tick": 4615,
        "end_time": 38.203546874999994,
        "length_ticks": 11,
        "length_time": 0.09105937499999328,
        "note": 43,
        "velocity": 127,
        "slice": 238,
        "channel": 3
      }
    ],
    "4605": [
      {
        "start_tick": 4605,
        "start_time": 38.120765625,
        "end_tick": 4616,
        "end_time": 38.211825,
        "length_ticks": 11,
        "length_time": 0.09105937500000039,
        "note": 43,
        "velocity": 127,
        "slice": 238,
        "channel": 4
      }
    ],
    "4620": [
      {
        "start_tick": 4620,
        "start_time": 38.2449375,
        "end_tick": 4655,
        "end_time": 38.534671874999994,
        "length_ticks": 35,
        "length_time": 0.28973437499999477,
        "note": 60,
        "velocity": 127,
        "slice": 239,
        "channel": 2
      },
      {
        "start_tick": 4620,
        "start_time": 38.2449375,
        "end_tick": 4631,
        "end_time": 38.335996875,
        "length_ticks": 11,
        "length_time": 0.09105937500000039,
        "note": 43,
        "velocity": 127,
        "slice": 239,
        "channel": 3
      }
    ],
    "4621": [
      {
        "start_tick": 4621,
        "start_time": 38.253215625,
        "end_tick": 4632,
        "end_time": 38.344274999999996,
        "length_ticks": 11,
        "length_time": 0.09105937499999328,
        "note": 43,
        "velocity": 127,
        "slice": 239,
        "channel": 4
      }
    ],
    "4637": [
      {
        "start_tick": 4637,
        "start_time": 38.385665624999994,
        "end_tick": 4648,
        "end_time": 38.476724999999995,
        "length_ticks": 11,
        "length_time": 0.09105937500000039,
        "note": 43,
        "velocity": 127,
        "slice": 240,
        "channel": 4
      }
    ],
    "4644": [
      {
        "start_tick": 4644,
        "start_time": 38.4436125,
        "end_tick": 4654,
        "end_time": 38.52639375,
        "length_ticks": 10,
        "length_time": 0.08278124999999648,
        "note": 67,
        "velocity": 127,
        "slice": 240,
        "channel": 5
      }
    ],
    "4656": [
      {
        "start_tick": 4656,
        "start_time": 38.54295,
        "end_tick": 4666,
        "end_time": 38.625731249999994,
        "length_ticks": 10,
        "length_time": 0.08278124999999648,
        "note": 66,
        "velocity": 127,
        "slice": 241,
        "channel": 5
      }
    ],
    "4668": [
      {
        "start_tick": 4668,
        "start_time": 38.6422875,
        "end_tick": 4703,
        "end_time": 38.932021875,
        "length_ticks": 35,
        "length_time": 0.28973437499999477,
        "note": 64,
        "velocity": 127,
        "slice": 242,
        "channel": 2
      },
      {
        "start_tick": 4668,
        "start_time": 38.6422875,
        "end_tick": 4679,
        "end_time": 38.733346875,
        "length_ticks": 11,
        "length_time": 0.09105937500000039,
        "note": 43,
        "velocity": 127,
        "slice": 242,
        "channel": 3
      },
      {
        "start_tick": 4668,
        "start_time": 38.6422875,
        "end_tick": 4678,
        "end_time": 38.72506875,
        "length_ticks": 10,
        "length_time": 0.08278124999999648,
        "note": 67,
        "velocity": 127,
        "slice": 242,
        "channel": 5
      }
    ],
    "4680": [
      {
        "start_tick": 4680,
        "start_time": 38.741625,
        "end_tick": 4690,
        "end_time": 38.82440625,
        "length_ticks": 10,
        "length_time": 0.08278125000000358,
        "note": 69,
        "velocity": 127,
        "slice": 242,
        "channel": 5
      }
    ],
    "4684": [
      {
        "start_tick": 4684,
        "start_time": 38.77473749999999,
        "end_tick": 4695,
        "end_time": 38.865796874999994,
        "length_ticks": 11,
        "length_time": 0.09105937500000039,
        "note": 43,
        "velocity": 127,
        "slice": 242,
        "channel": 3
      }
    ],
    "4685": [
      {
        "start_tick": 4685,
        "start_time": 38.783015625,
        "end_tick": 4696,
        "end_time": 38.874075,
        "length_ticks": 11,
        "length_time": 0.09105937500000039,
        "note": 43,
        "velocity": 127,
        "slice": 242,
        "channel": 4
      }
    ],
    "4692": [
      {
        "start_tick": 4692,
        "start_time": 38.840962499999996,
        "end_tick": 4702,
        "end_time": 38.92374375,
        "length_ticks": 10,
        "length_time": 0.08278125000000358,
        "note": 70,
        "velocity": 127,
        "slice": 243,
        "channel": 5
      }
    ],
    "4700": [
      {
        "start_tick": 4700,
        "start_time": 38.9071875,
        "end_tick": 4711,
        "end_time": 38.998246875,
        "length_ticks": 11,
        "length_time": 0.09105937500000039,
        "note": 43,
        "velocity": 127,
        "slice": 243,
        "channel": 3
      }
    ],
    "4701": [
      {
        "start_tick": 4701,
        "start_time": 38.915465624999996,
        "end_tick": 4712,
        "end_time": 39.006524999999996,
        "length_ticks": 11,
        "length_time": 0.09105937500000039,
        "note": 43,
        "velocity": 127,
        "slice": 243,
        "channel": 4
      }
    ],
    "4704": [
      {
        "start_tick": 4704,
        "start_time": 38.9403,
        "end_tick": 4714,
        "end_time": 39.02308125,
        "length_ticks": 10,
        "length_time": 0.08278124999999648,
        "note": 72,
        "velocity": 127,
        "slice": 243,
        "channel": 5
      }
    ],
    "4716": [
      {
        "start_tick": 4716,
        "start_time": 39.0396375,
        "end_tick": 4728,
        "end_time": 39.138974999999995,
        "length_ticks": 12,
        "length_time": 0.09933749999999719,
        "note": 67,
        "velocity": 127,
        "slice": 244,
        "channel": 2
      },
      {
        "start_tick": 4716,
        "start_time": 39.0396375,
        "end_tick": 4727,
        "end_time": 39.130696875,
        "length_ticks": 11,
        "length_time": 0.09105937500000039,
        "note": 43,
        "velocity": 127,
        "slice": 244,
        "channel": 3
      },
      {
        "start_tick": 4716,
        "start_time": 39.0396375,
        "end_tick": 4796,
        "end_time": 39.7018875,
        "length_ticks": 80,
        "length_time": 0.6622500000000002,
        "note": 74,
        "velocity": 127,
        "slice": 244,
        "channel": 5
      }
    ],
    "4717": [
      {
        "start_tick": 4717,
        "start_time": 39.047915624999995,
        "end_tick": 4728,
        "end_time": 39.138974999999995,
        "length_ticks": 11,
        "length_time": 0.09105937500000039,
        "note": 43,
        "velocity": 127,
        "slice": 244,
        "channel": 4
      }
    ],
    "4733": [
      {
        "start_tick": 4733,
        "start_time": 39.180365625,
        "end_tick": 4744,
        "end_time": 39.271425,
        "length_ticks": 11,
        "length_time": 0.09105937500000039,
        "note": 43,
        "velocity": 127,
        "slice": 245,
        "channel": 4
      }
    ],
    "4740": [
      {
        "start_tick": 4740,
        "start_time": 39.2383125,
        "end_tick": 4748,
        "end_time": 39.3045375,
        "length_ticks": 8,
        "length_time": 0.06622500000000286,
        "note": 67,
        "velocity": 127,
        "slice": 245,
        "channel": 2
      }
    ],
    "4752": [
      {
        "start_tick": 4752,
        "start_time": 39.33765,
        "end_tick": 4760,
        "end_time": 39.403875,
        "length_ticks": 8,
        "length_time": 0.06622500000000286,
        "note": 65,
        "velocity": 127,
        "slice": 246,
        "channel": 2
      }
    ],
    "4764": [
      {
        "start_tick": 4764,
        "start_time": 39.436987499999994,
        "end_tick": 4772,
        "end_time": 39.5032125,
        "length_ticks": 8,
        "length_time": 0.06622500000000286,
        "note": 67,
        "velocity": 127,
        "slice": 246,
        "channel": 2
      },
      {
        "start_tick": 4764,
        "start_time": 39.436987499999994,
        "end_tick": 4775,
        "end_time": 39.528046874999994,
        "length_ticks": 11,
        "length_time": 0.09105937500000039,
        "note": 43,
        "velocity": 127,
        "slice": 246,
        "channel": 3
      }
    ],
    "4776": [
      {
        "start_tick": 4776,
        "start_time": 39.536325,
        "end_tick": 4784,
        "end_time": 39.60255,
        "length_ticks": 8,
        "length_time": 0.06622500000000286,
        "note": 69,
        "velocity": 127,
        "slice": 247,
        "channel": 2
      }
    ],
    "4780": [
      {
        "start_tick": 4780,
        "start_time": 39.5694375,
        "end_tick": 4791,
        "end_time": 39.660496875,
        "length_ticks": 11,
        "length_time": 0.09105937500000039,
        "note": 43,
        "velocity": 127,
        "slice": 247,
        "channel": 3
      }
    ],
    "4781": [
      {
        "start_tick": 4781,
        "start_time": 39.577715624999996,
        "end_tick": 4792,
        "end_time": 39.668775,
        "length_ticks": 11,
        "length_time": 0.09105937500000039,
        "note": 43,
        "velocity": 127,
        "slice": 247,
        "channel": 4
      }
    ],
    "4788": [
      {
        "start_tick": 4788,
        "start_time": 39.6356625,
        "end_tick": 4796,
        "end_time": 39.7018875,
        "length_ticks": 8,
        "length_time": 0.06622499999999576,
        "note": 70,
        "velocity": 127,
        "slice": 248,
        "channel": 2
      }
    ],
    "4796": [
      {
        "start_tick": 4796,
        "start_time": 39.7018875,
        "end_tick": 4807,
        "end_time": 39.792946875,
        "length_ticks": 11,
        "length_time": 0.09105937500000039,
        "note": 43,
        "velocity": 127,
        "slice": 248,
        "channel": 3
      }
    ],
    "4797": [
      {
        "start_tick": 4797,
        "start_time": 39.710165624999995,
        "end_tick": 4808,
        "end_time": 39.801224999999995,
        "length_ticks": 11,
        "length_time": 0.09105937500000039,
        "note": 43,
        "velocity": 127,
        "slice": 248,
        "channel": 4
      }
    ],
    "4800": [
      {
        "start_tick": 4800,
        "start_time": 39.735,
        "end_tick": 4808,
        "end_time": 39.801224999999995,
        "length_ticks": 8,
        "length_time": 0.06622499999999576,
        "note": 72,
        "velocity": 127,
        "slice": 248,
        "channel": 2
      }
    ],
    "4812": [
      {
        "start_tick": 4812,
        "start_time": 39.8343375,
        "end_tick": 4876,
        "end_time": 40.3641375,
        "length_ticks": 64,
        "length_time": 0.5298000000000016,
        "note": 74,
        "velocity": 127,
        "slice": 249,
        "channel": 2
      },
      {
        "start_tick": 4812,
        "start_time": 39.8343375,
        "end_tick": 4830,
        "end_time": 39.983343749999996,
        "length_ticks": 18,
        "length_time": 0.14900624999999934,
        "note": 43,
        "velocity": 127,
        "slice": 249,
        "channel": 3
      }
    ],
    "4813": [
      {
        "start_tick": 4813,
        "start_time": 39.842615625,
        "end_tick": 4824,
        "end_time": 39.933675,
        "length_ticks": 11,
        "length_time": 0.09105937500000039,
        "note": 43,
        "velocity": 127,
        "slice": 249,
        "channel": 4
      }
    ],
    "4829": [
      {
        "start_tick": 4829,
        "start_time": 39.975065625,
        "end_tick": 4847,
        "end_time": 40.124071875,
        "length_ticks": 18,
        "length_time": 0.14900624999999934,
        "note": 43,
        "velocity": 127,
        "slice": 250,
        "channel": 4
      }
    ],
    "4848": [
      {
        "start_tick": 4848,
        "start_time": 40.132349999999995,
        "end_tick": 4868,
        "end_time": 40.2979125,
        "length_ticks": 20,
        "length_time": 0.16556250000000716,
        "note": 43,
        "velocity": 127,
        "slice": 251,
        "channel": 3
      }
    ],
    "4860": [
      {
        "start_tick": 4860,
        "start_time": 40.2316875,
        "end_tick": 4873,
        "end_time": 40.339303124999994,
        "length_ticks": 13,
        "length_time": 0.107615624999994,
        "note": 74,
        "velocity": 127,
        "slice": 251,
        "channel": 5
      }
    ],
    "4865": [
      {
        "start_tick": 4865,
        "start_time": 40.273078125,
        "end_tick": 4885,
        "end_time": 40.438640625,
        "length_ticks": 20,
        "length_time": 0.16556250000000006,
        "note": 43,
        "velocity": 127,
        "slice": 252,
        "channel": 4
      }
    ],
    "4876": [
      {
        "start_tick": 4876,
        "start_time": 40.3641375,
        "end_tick": 4889,
        "end_time": 40.471753125,
        "length_ticks": 13,
        "length_time": 0.1076156250000011,
        "note": 72,
        "velocity": 127,
        "slice": 252,
        "channel": 5
      }
    ],
    "4884": [
      {
        "start_tick": 4884,
        "start_time": 40.430362499999994,
        "end_tick": 4896,
        "end_time": 40.5297,
        "length_ticks": 12,
        "length_time": 0.0993375000000043,
        "note": 41,
        "velocity": 127,
        "slice": 253,
        "channel": 3
      }
    ],
    "4892": [
      {
        "start_tick": 4892,
        "start_time": 40.4965875,
        "end_tick": 4905,
        "end_time": 40.604203125,
        "length_ticks": 13,
        "length_time": 0.1076156250000011,
        "note": 74,
        "velocity": 127,
        "slice": 253,
        "channel": 5
      }
    ],
    "4901": [
      {
        "start_tick": 4901,
        "start_time": 40.571090625,
        "end_tick": 4913,
        "end_time": 40.670428124999994,
        "length_ticks": 12,
        "length_time": 0.09933749999999719,
        "note": 41,
        "velocity": 127,
        "slice": 254,
        "channel": 4
      }
    ],
    "4908": [
      {
        "start_tick": 4908,
        "start_time": 40.6290375,
        "end_tick": 4918,
        "end_time": 40.71181875,
        "length_ticks": 10,
        "length_time": 0.08278124999999648,
        "note": 74,
        "velocity": 127,
        "slice": 254,
        "channel": 2
      },
      {
        "start_tick": 4908,
        "start_time": 40.6290375,
        "end_tick": 4919,
        "end_time": 40.720096874999996,
        "length_ticks": 11,
        "length_time": 0.09105937499999328,
        "note": 39,
        "velocity": 127,
        "slice": 254,
        "channel": 3
      },
      {
        "start_tick": 4908,
        "start_time": 40.6290375,
        "end_tick": 4921,
        "end_time": 40.736653125,
        "length_ticks": 13,
        "length_time": 0.107615624999994,
        "note": 82,
        "velocity": 127,
        "slice": 254,
        "channel": 5
      }
    ],
    "4925": [
      {
        "start_tick": 4925,
        "start_time": 40.769765625,
        "end_tick": 4936,
        "end_time": 40.860825,
        "length_ticks": 11,
        "length_time": 0.09105937500000039,
        "note": 39,
        "velocity": 127,
        "slice": 255,
        "channel": 4
      }
    ],
    "4940": [
      {
        "start_tick": 4940,
        "start_time": 40.8939375,
        "end_tick": 4950,
        "end_time": 40.976718749999996,
        "length_ticks": 10,
        "length_time": 0.08278124999999648,
        "note": 72,
        "velocity": 127,
        "slice": 256,
        "channel": 2
      },
      {
        "start_tick": 4940,
        "start_time": 40.8939375,
        "end_tick": 4953,
        "end_time": 41.001553124999994,
        "length_ticks": 13,
        "length_time": 0.107615624999994,
        "note": 81,
        "velocity": 127,
        "slice": 256,
        "channel": 5
      }
    ],
    "4956": [
      {
        "start_tick": 4956,
        "start_time": 41.0263875,
        "end_tick": 5020,
        "end_time": 41.5561875,
        "length_ticks": 64,
        "length_time": 0.5298000000000016,
        "note": 70,
        "velocity": 127,
        "slice": 256,
        "channel": 2
      },
      {
        "start_tick": 4956,
        "start_time": 41.0263875,
        "end_tick": 4967,
        "end_time": 41.117446875,
        "length_ticks": 11,
        "length_time": 0.09105937500000039,
        "note": 39,
        "velocity": 127,
        "slice": 256,
        "channel": 3
      },
      {
        "start_tick": 4956,
        "start_time": 41.0263875,
        "end_tick": 5011,
        "end_time": 41.48168437499999,
        "length_ticks": 55,
        "length_time": 0.4552968749999948,
        "note": 79,
        "velocity": 127,
        "slice": 256,
        "channel": 5
      }
    ],
    "4972": [
      {
        "start_tick": 4972,
        "start_time": 41.1588375,
        "end_tick": 4983,
        "end_time": 41.249896875,
        "length_ticks": 11,
        "length_time": 0.09105937500000039,
        "note": 43,
        "velocity": 127,
        "slice": 257,
        "channel": 3
      }
    ],
    "4973": [
      {
        "start_tick": 4973,
        "start_time": 41.167115625,
        "end_tick": 4984,
        "end_time": 41.258175,
        "length_ticks": 11,
        "length_time": 0.09105937500000039,
        "note": 39,
        "velocity": 127,
        "slice": 257,
        "channel": 4
      }
    ],
    "4988": [
      {
        "start_tick": 4988,
        "start_time": 41.291287499999996,
        "end_tick": 4999,
        "end_time": 41.382346874999996,
        "length_ticks": 11,
        "length_time": 0.09105937500000039,
        "note": 46,
        "velocity": 127,
        "slice": 258,
        "channel": 3
      }
    ],
    "4989": [
      {
        "start_tick": 4989,
        "start_time": 41.299565625,
        "end_tick": 5000,
        "end_time": 41.390625,
        "length_ticks": 11,
        "length_time": 0.09105937500000039,
        "note": 43,
        "velocity": 127,
        "slice": 258,
        "channel": 4
      }
    ],
    "5004": [
      {
        "start_tick": 5004,
        "start_time": 41.423737499999994,
        "end_tick": 5015,
        "end_time": 41.514796874999995,
        "length_ticks": 11,
        "length_time": 0.09105937500000039,
        "note": 51,
        "velocity": 127,
        "slice": 259,
        "channel": 3
      }
    ],
    "5005": [
      {
        "start_tick": 5005,
        "start_time": 41.432015625,
        "end_tick": 5016,
        "end_time": 41.523075,
        "length_ticks": 11,
        "length_time": 0.09105937500000039,
        "note": 46,
        "velocity": 127,
        "slice": 259,
        "channel": 4
      }
    ],
    "5020": [
      {
        "start_tick": 5020,
        "start_time": 41.5561875,
        "end_tick": 5033,
        "end_time": 41.663803124999994,
        "length_ticks": 13,
        "length_time": 0.107615624999994,
        "note": 74,
        "velocity": 127,
        "slice": 260,
        "channel": 5
      }
    ],
    "5021": [
      {
        "start_tick": 5021,
        "start_time": 41.564465625,
        "end_tick": 5032,
        "end_time": 41.655525,
        "length_ticks": 11,
        "length_time": 0.09105937500000039,
        "note": 51,
        "velocity": 127,
        "slice": 260,
        "channel": 4
      }
    ],
    "5036": [
      {
        "start_tick": 5036,
        "start_time": 41.6886375,
        "end_tick": 5049,
        "end_time": 41.796253125,
        "length_ticks": 13,
        "length_time": 0.1076156250000011,
        "note": 74,
        "velocity": 127,
        "slice": 261,
        "channel": 5
      }
    ],
    "5052": [
      {
        "start_tick": 5052,
        "start_time": 41.8210875,
        "end_tick": 5063,
        "end_time": 41.912146875,
        "length_ticks": 11,
        "length_time": 0.09105937500000039,
        "note": 39,
        "velocity": 127,
        "slice": 261,
        "channel": 3
      },
      {
        "start_tick": 5052,
        "start_time": 41.8210875,
        "end_tick": 5065,
        "end_time": 41.928703125,
        "length_ticks": 13,
        "length_time": 0.1076156250000011,
        "note": 74,
        "velocity": 127,
        "slice": 261,
        "channel": 5
      }
    ],
    "5068": [
      {
        "start_tick": 5068,
        "start_time": 41.953537499999996,
        "end_tick": 5079,
        "end_time": 42.044596874999996,
        "length_ticks": 11,
        "length_time": 0.09105937500000039,
        "note": 39,
        "velocity": 127,
        "slice": 262,
        "channel": 3
      },
      {
        "start_tick": 5068,
        "start_time": 41.953537499999996,
        "end_tick": 5081,
        "end_time": 42.061153125,
        "length_ticks": 13,
        "length_time": 0.1076156250000011,
        "note": 70,
        "velocity": 127,
        "slice": 262,
        "channel": 5
      }
    ],
    "5069": [
      {
        "start_tick": 5069,
        "start_time": 41.961815625,
        "end_tick": 5080,
        "end_time": 42.052875,
        "length_ticks": 11,
        "length_time": 0.09105937500000039,
        "note": 39,
        "velocity": 127,
        "slice": 262,
        "channel": 4
      }
    ],
    "5084": [
      {
        "start_tick": 5084,
        "start_time": 42.085987499999995,
        "end_tick": 5095,
        "end_time": 42.177046874999995,
        "length_ticks": 11,
        "length_time": 0.09105937500000039,
        "note": 39,
        "velocity": 127,
        "slice": 263,
        "channel": 3
      },
      {
        "start_tick": 5084,
        "start_time": 42.085987499999995,
        "end_tick": 5097,
        "end_time": 42.193603124999996,
        "length_ticks": 13,
        "length_time": 0.1076156250000011,
        "note": 79,
        "velocity": 127,
        "slice": 263,
        "channel": 5
      }
    ],
    "5085": [
      {
        "start_tick": 5085,
        "start_time": 42.094265625,
        "end_tick": 5096,
        "end_time": 42.185325,
        "length_ticks": 11,
        "length_time": 0.09105937500000039,
        "note": 39,
        "velocity": 127,
        "slice": 263,
        "channel": 4
      }
    ],
    "5100": [
      {
        "start_tick": 5100,
        "start_time": 42.2184375,
        "end_tick": 5110,
        "end_time": 42.30121875,
        "length_ticks": 10,
        "length_time": 0.08278124999999648,
        "note": 72,
        "velocity": 127,
        "slice": 264,
        "channel": 2
      },
      {
        "start_tick": 5100,
        "start_time": 42.2184375,
        "end_tick": 5111,
        "end_time": 42.309496875,
        "length_ticks": 11,
        "length_time": 0.09105937500000039,
        "note": 44,
        "velocity": 127,
        "slice": 264,
        "channel": 3
      },
      {
        "start_tick": 5100,
        "start_time": 42.2184375,
        "end_tick": 5113,
        "end_time": 42.326053124999994,
        "length_ticks": 13,
        "length_time": 0.107615624999994,
        "note": 80,
        "velocity": 127,
        "slice": 264,
        "channel": 5
      }
    ],
    "5101": [
      {
        "start_tick": 5101,
        "start_time": 42.226715625,
        "end_tick": 5112,
        "end_time": 42.317775,
        "length_ticks": 11,
        "length_time": 0.09105937500000039,
        "note": 39,
        "velocity": 127,
        "slice": 264,
        "channel": 4
      }
    ],
    "5117": [
      {
        "start_tick": 5117,
        "start_time": 42.359165624999996,
        "end_tick": 5128,
        "end_time": 42.450224999999996,
        "length_ticks": 11,
        "length_time": 0.09105937500000039,
        "note": 44,
        "velocity": 127,
        "slice": 265,
        "channel": 4
      }
    ],
    "5132": [
      {
        "start_tick": 5132,
        "start_time": 42.4833375,
        "end_tick": 5142,
        "end_time": 42.566118749999994,
        "length_ticks": 10,
        "length_time": 0.08278124999999648,
        "note": 75,
        "velocity": 127,
        "slice": 266,
        "channel": 2
      },
      {
        "start_tick": 5132,
        "start_time": 42.4833375,
        "end_tick": 5145,
        "end_time": 42.590953125,
        "length_ticks": 13,
        "length_time": 0.1076156250000011,
        "note": 82,
        "velocity": 127,
        "slice": 266,
        "channel": 5
      }
    ],
    "5148": [
      {
        "start_tick": 5148,
        "start_time": 42.615787499999996,
        "end_tick": 5244,
        "end_time": 43.410487499999995,
        "length_ticks": 96,
        "length_time": 0.7946999999999989,
        "note": 80,
        "velocity": 127,
        "slice": 266,
        "channel": 2
      },
      {
        "start_tick": 5148,
        "start_time": 42.615787499999996,
        "end_tick": 5159,
        "end_time": 42.706846875,
        "length_ticks": 11,
        "length_time": 0.09105937500000039,
        "note": 44,
        "velocity": 127,
        "slice": 266,
        "channel": 3
      },
      {
        "start_tick": 5148,
        "start_time": 42.615787499999996,
        "end_tick": 5187,
        "end_time": 42.938634375,
        "length_ticks": 39,
        "length_time": 0.3228468750000033,
        "note": 84,
        "velocity": 127,
        "slice": 266,
        "channel": 5
      }
    ],
    "5164": [
      {
        "start_tick": 5164,
        "start_time": 42.748237499999995,
        "end_tick": 5175,
        "end_time": 42.839296875,
        "length_ticks": 11,
        "length_time": 0.09105937500000749,
        "note": 48,
        "velocity": 127,
        "slice": 267,
        "channel": 3
      }
    ],
    "5165": [
      {
        "start_tick": 5165,
        "start_time": 42.756515625,
        "end_tick": 5176,
        "end_time": 42.847575,
        "length_ticks": 11,
        "length_time": 0.09105937500000039,
        "note": 44,
        "velocity": 127,
        "slice": 267,
        "channel": 4
      }
    ],
    "5180": [
      {
        "start_tick": 5180,
        "start_time": 42.88068749999999,
        "end_tick": 5191,
        "end_time": 42.971746875,
        "length_ticks": 11,
        "length_time": 0.09105937500000749,
        "note": 51,
        "velocity": 127,
        "slice": 268,
        "channel": 3
      }
    ],
    "5181": [
      {
        "start_tick": 5181,
        "start_time": 42.888965625,
        "end_tick": 5192,
        "end_time": 42.980025000000005,
        "length_ticks": 11,
        "length_time": 0.09105937500000749,
        "note": 48,
        "velocity": 127,
        "slice": 268,
        "channel": 4
      }
    ],
    "5196": [
      {
        "start_tick": 5196,
        "start_time": 43.0131375,
        "end_tick": 5207,
        "end_time": 43.10419687499999,
        "length_ticks": 11,
        "length_time": 0.09105937499999328,
        "note": 56,
        "velocity": 127,
        "slice": 269,
        "channel": 3
      }
    ],
    "5197": [
      {
        "start_tick": 5197,
        "start_time": 43.021415624999996,
        "end_tick": 5208,
        "end_time": 43.112474999999996,
        "length_ticks": 11,
        "length_time": 0.09105937500000039,
        "note": 51,
        "velocity": 127,
        "slice": 269,
        "channel": 4
      }
    ],
    "5212": [
      {
        "start_tick": 5212,
        "start_time": 43.1455875,
        "end_tick": 5225,
        "end_time": 43.253203125,
        "length_ticks": 13,
        "length_time": 0.1076156250000011,
        "note": 84,
        "velocity": 127,
        "slice": 270,
        "channel": 5
      }
    ],
    "5213": [
      {
        "start_tick": 5213,
        "start_time": 43.153865625,
        "end_tick": 5224,
        "end_time": 43.244924999999995,
        "length_ticks": 11,
        "length_time": 0.09105937499999328,
        "note": 56,
        "velocity": 127,
        "slice": 270,
        "channel": 4
      }
    ],
    "5228": [
      {
        "start_tick": 5228,
        "start_time": 43.2780375,
        "end_tick": 5241,
        "end_time": 43.385653125,
        "length_ticks": 13,
        "length_time": 0.107615624999994,
        "note": 86,
        "velocity": 127,
        "slice": 270,
        "channel": 5
      }
    ],
    "5244": [
      {
        "start_tick": 5244,
        "start_time": 43.410487499999995,
        "end_tick": 5255,
        "end_time": 43.501546875,
        "length_ticks": 11,
        "length_time": 0.09105937500000749,
        "note": 44,
        "velocity": 127,
        "slice": 271,
        "channel": 3
      },
      {
        "start_tick": 5244,
        "start_time": 43.410487499999995,
        "end_tick": 5257,
        "end_time": 43.518103125,
        "length_ticks": 13,
        "length_time": 0.10761562500000821,
        "note": 87,
        "velocity": 127,
        "slice": 271,
        "channel": 5
      }
    ],
    "5260": [
      {
        "start_tick": 5260,
        "start_time": 43.542937499999994,
        "end_tick": 5271,
        "end_time": 43.633996875,
        "length_ticks": 11,
        "length_time": 0.09105937500000749,
        "note": 44,
        "velocity": 127,
        "slice": 272,
        "channel": 3
      },
      {
        "start_tick": 5260,
        "start_time": 43.542937499999994,
        "end_tick": 5273,
        "end_time": 43.650553124999995,
        "length_ticks": 13,
        "length_time": 0.1076156250000011,
        "note": 89,
        "velocity": 127,
        "slice": 272,
        "channel": 5
      }
    ],
    "5261": [
      {
        "start_tick": 5261,
        "start_time": 43.551215625,
        "end_tick": 5272,
        "end_time": 43.64227499999999,
        "length_ticks": 11,
        "length_time": 0.09105937499999328,
        "note": 44,
        "velocity": 127,
        "slice": 272,
        "channel": 4
      }
    ],
    "5276": [
      {
        "start_tick": 5276,
        "start_time": 43.6753875,
        "end_tick": 5287,
        "end_time": 43.76644687499999,
        "length_ticks": 11,
        "length_time": 0.09105937499999328,
        "note": 44,
        "velocity": 127,
        "slice": 273,
        "channel": 3
      },
      {
        "start_tick": 5276,
        "start_time": 43.6753875,
        "end_tick": 5289,
        "end_time": 43.78300312499999,
        "length_ticks": 13,
        "length_time": 0.107615624999994,
        "note": 87,
        "velocity": 127,
        "slice": 273,
        "channel": 5
      }
    ],
    "5277": [
      {
        "start_tick": 5277,
        "start_time": 43.683665624999996,
        "end_tick": 5288,
        "end_time": 43.774725,
        "length_ticks": 11,
        "length_time": 0.09105937500000039,
        "note": 44,
        "velocity": 127,
        "slice": 273,
        "channel": 4
      }
    ],
    "5292": [
      {
        "start_tick": 5292,
        "start_time": 43.8078375,
        "end_tick": 5310,
        "end_time": 43.95684375,
        "length_ticks": 18,
        "length_time": 0.14900624999999934,
        "note": 38,
        "velocity": 127,
        "slice": 274,
        "channel": 3
      },
      {
        "start_tick": 5292,
        "start_time": 43.8078375,
        "end_tick": 5466,
        "end_time": 45.248231249999996,
        "length_ticks": 174,
        "length_time": 1.4403937499999984,
        "note": 86,
        "velocity": 127,
        "slice": 274,
        "channel": 5
      }
    ],
    "5293": [
      {
        "start_tick": 5293,
        "start_time": 43.816115625,
        "end_tick": 5304,
        "end_time": 43.907174999999995,
        "length_ticks": 11,
        "length_time": 0.09105937499999328,
        "note": 44,
        "velocity": 127,
        "slice": 274,
        "channel": 4
      }
    ],
    "5309": [
      {
        "start_tick": 5309,
        "start_time": 43.94856562499999,
        "end_tick": 5327,
        "end_time": 44.097571875,
        "length_ticks": 18,
        "length_time": 0.14900625000000645,
        "note": 38,
        "velocity": 127,
        "slice": 275,
        "channel": 4
      }
    ],
    "5340": [
      {
        "start_tick": 5340,
        "start_time": 44.205187499999994,
        "end_tick": 5350,
        "end_time": 44.28796875,
        "length_ticks": 10,
        "length_time": 0.08278125000000358,
        "note": 67,
        "velocity": 127,
        "slice": 276,
        "channel": 2
      },
      {
        "start_tick": 5340,
        "start_time": 44.205187499999994,
        "end_tick": 5351,
        "end_time": 44.296246875,
        "length_ticks": 11,
        "length_time": 0.09105937500000749,
        "note": 48,
        "velocity": 127,
        "slice": 276,
        "channel": 3
      }
    ],
    "5356": [
      {
        "start_tick": 5356,
        "start_time": 44.3376375,
        "end_tick": 5366,
        "end_time": 44.42041875,
        "length_ticks": 10,
        "length_time": 0.08278125000000358,
        "note": 67,
        "velocity": 127,
        "slice": 277,
        "channel": 2
      },
      {
        "start_tick": 5356,
        "start_time": 44.3376375,
        "end_tick": 5367,
        "end_time": 44.42869687499999,
        "length_ticks": 11,
        "length_time": 0.09105937499999328,
        "note": 48,
        "velocity": 127,
        "slice": 277,
        "channel": 3
      }
    ],
    "5357": [
      {
        "start_tick": 5357,
        "start_time": 44.345915624999996,
        "end_tick": 5368,
        "end_time": 44.436975,
        "length_ticks": 11,
        "length_time": 0.09105937500000039,
        "note": 48,
        "velocity": 127,
        "slice": 277,
        "channel": 4
      }
    ],
    "5372": [
      {
        "start_tick": 5372,
        "start_time": 44.4700875,
        "end_tick": 5382,
        "end_time": 44.552868749999995,
        "length_ticks": 10,
        "length_time": 0.08278124999999648,
        "note": 67,
        "velocity": 127,
        "slice": 278,
        "channel": 2
      },
      {
        "start_tick": 5372,
        "start_time": 44.4700875,
        "end_tick": 5383,
        "end_time": 44.561146875,
        "length_ticks": 11,
        "length_time": 0.09105937500000039,
        "note": 48,
        "velocity": 127,
        "slice": 278,
        "channel": 3
      }
    ],
    "5373": [
      {
        "start_tick": 5373,
        "start_time": 44.478365625,
        "end_tick": 5384,
        "end_time": 44.569424999999995,
        "length_ticks": 11,
        "length_time": 0.09105937499999328,
        "note": 48,
        "velocity": 127,
        "slice": 278,
        "channel": 4
      }
    ],
    "5388": [
      {
        "start_tick": 5388,
        "start_time": 44.602537500000004,
        "end_tick": 5430,
        "end_time": 44.95021875,
        "length_ticks": 42,
        "length_time": 0.3476812499999937,
        "note": 67,
        "velocity": 127,
        "slice": 279,
        "channel": 2
      },
      {
        "start_tick": 5388,
        "start_time": 44.602537500000004,
        "end_tick": 5399,
        "end_time": 44.693596875,
        "length_ticks": 11,
        "length_time": 0.09105937499999328,
        "note": 48,
        "velocity": 127,
        "slice": 279,
        "channel": 3
      }
    ],
    "5389": [
      {
        "start_tick": 5389,
        "start_time": 44.610815624999994,
        "end_tick": 5400,
        "end_time": 44.701875,
        "length_ticks": 11,
        "length_time": 0.09105937500000749,
        "note": 48,
        "velocity": 127,
        "slice": 279,
        "channel": 4
      }
    ],
    "5405": [
      {
        "start_tick": 5405,
        "start_time": 44.743265625,
        "end_tick": 5416,
        "end_time": 44.834325,
        "length_ticks": 11,
        "length_time": 0.09105937500000039,
        "note": 48,
        "velocity": 127,
        "slice": 280,
        "channel": 4
      }
    ],
    "5436": [
      {
        "start_tick": 5436,
        "start_time": 44.9998875,
        "end_tick": 5447,
        "end_time": 45.09094687499999,
        "length_ticks": 11,
        "length_time": 0.09105937499999328,
        "note": 38,
        "velocity": 127,
        "slice": 281,
        "channel": 3
      }
    ],
    "5452": [
      {
        "start_tick": 5452,
        "start_time": 45.1323375,
        "end_tick": 5463,
        "end_time": 45.223396875,
        "length_ticks": 11,
        "length_time": 0.09105937500000039,
        "note": 38,
        "velocity": 127,
        "slice": 282,
        "channel": 3
      }
    ],
    "5453": [
      {
        "start_tick": 5453,
        "start_time": 45.140615625,
        "end_tick": 5464,
        "end_time": 45.231674999999996,
        "length_ticks": 11,
        "length_time": 0.09105937499999328,
        "note": 38,
        "velocity": 127,
        "slice": 282,
        "channel": 4
      }
    ],
    "5468": [
      {
        "start_tick": 5468,
        "start_time": 45.264787500000004,
        "end_tick": 5479,
        "end_time": 45.355846875,
        "length_ticks": 11,
        "length_time": 0.09105937499999328,
        "note": 38,
        "velocity": 127,
        "slice": 283,
        "channel": 3
      }
    ],
    "5469": [
      {
        "start_tick": 5469,
        "start_time": 45.273065624999994,
        "end_tick": 5480,
        "end_time": 45.364125,
        "length_ticks": 11,
        "length_time": 0.09105937500000749,
        "note": 38,
        "velocity": 127,
        "slice": 283,
        "channel": 4
      }
    ],
    "5484": [
      {
        "start_tick": 5484,
        "start_time": 45.397237499999996,
        "end_tick": 5495,
        "end_time": 45.488296874999996,
        "length_ticks": 11,
        "length_time": 0.09105937500000039,
        "note": 38,
        "velocity": 127,
        "slice": 284,
        "channel": 3
      }
    ],
    "5485": [
      {
        "start_tick": 5485,
        "start_time": 45.405515625,
        "end_tick": 5496,
        "end_time": 45.496575,
        "length_ticks": 11,
        "length_time": 0.09105937500000039,
        "note": 38,
        "velocity": 127,
        "slice": 284,
        "channel": 4
      }
    ],
    "5501": [
      {
        "start_tick": 5501,
        "start_time": 45.537965625,
        "end_tick": 5512,
        "end_time": 45.62902499999999,
        "length_ticks": 11,
        "length_time": 0.09105937499999328,
        "note": 38,
        "velocity": 127,
        "slice": 285,
        "channel": 4
      }
    ],
    "5508": [
      {
        "start_tick": 5508,
        "start_time": 45.5959125,
        "end_tick": 5513,
        "end_time": 45.637303124999995,
        "length_ticks": 5,
        "length_time": 0.04139062499999824,
        "note": 74,
        "velocity": 127,
        "slice": 285,
        "channel": 5
      }
    ],
    "5516": [
      {
        "start_tick": 5516,
        "start_time": 45.6621375,
        "end_tick": 5521,
        "end_time": 45.703528125,
        "length_ticks": 5,
        "length_time": 0.04139062499999824,
        "note": 74,
        "velocity": 127,
        "slice": 285,
        "channel": 5
      }
    ],
    "5524": [
      {
        "start_tick": 5524,
        "start_time": 45.728362499999996,
        "end_tick": 5529,
        "end_time": 45.769753124999994,
        "length_ticks": 5,
        "length_time": 0.04139062499999824,
        "note": 74,
        "velocity": 127,
        "slice": 286,
        "channel": 5
      }
    ],
    "5532": [
      {
        "start_tick": 5532,
        "start_time": 45.7945875,
        "end_tick": 5542,
        "end_time": 45.877368749999995,
        "length_ticks": 10,
        "length_time": 0.08278124999999648,
        "note": 67,
        "velocity": 127,
        "slice": 286,
        "channel": 2
      },
      {
        "start_tick": 5532,
        "start_time": 45.7945875,
        "end_tick": 5545,
        "end_time": 45.902203125,
        "length_ticks": 13,
        "length_time": 0.1076156250000011,
        "note": 76,
        "velocity": 127,
        "slice": 286,
        "channel": 5
      }
    ],
    "5548": [
      {
        "start_tick": 5548,
        "start_time": 45.927037500000004,
        "end_tick": 5558,
        "end_time": 46.009818749999994,
        "length_ticks": 10,
        "length_time": 0.08278124999998937,
        "note": 67,
        "velocity": 127,
        "slice": 287,
        "channel": 2
      },
      {
        "start_tick": 5548,
        "start_time": 45.927037500000004,
        "end_tick": 5561,
        "end_time": 46.034653125,
        "length_ticks": 13,
        "length_time": 0.107615624999994,
        "note": 76,
        "velocity": 127,
        "slice": 287,
        "channel": 5
      }
    ],
    "5564": [
      {
        "start_tick": 5564,
        "start_time": 46.059487499999996,
        "end_tick": 5574,
        "end_time": 46.14226875,
        "length_ticks": 10,
        "length_time": 0.08278125000000358,
        "note": 67,
        "velocity": 127,
        "slice": 288,
        "channel": 2
      },
      {
        "start_tick": 5564,
        "start_time": 46.059487499999996,
        "end_tick": 5577,
        "end_time": 46.167103125000004,
        "length_ticks": 13,
        "length_time": 0.10761562500000821,
        "note": 76,
        "velocity": 127,
        "slice": 288,
        "channel": 5
      }
    ],
    "5580": [
      {
        "start_tick": 5580,
        "start_time": 46.191937499999995,
        "end_tick": 5610,
        "end_time": 46.44028125,
        "length_ticks": 30,
        "length_time": 0.24834375000000364,
        "note": 69,
        "velocity": 127,
        "slice": 289,
        "channel": 2
      },
      {
        "start_tick": 5580,
        "start_time": 46.191937499999995,
        "end_tick": 5619,
        "end_time": 46.514784375,
        "length_ticks": 39,
        "length_time": 0.3228468750000033,
        "note": 78,
        "velocity": 127,
        "slice": 289,
        "channel": 5
      }
    ],
    "5596": [
      {
        "start_tick": 5596,
        "start_time": 46.3243875,
        "end_tick": 5607,
        "end_time": 46.415446874999994,
        "length_ticks": 11,
        "length_time": 0.09105937499999328,
        "note": 51,
        "velocity": 127,
        "slice": 290,
        "channel": 3
      }
    ],
    "5612": [
      {
        "start_tick": 5612,
        "start_time": 46.4568375,
        "end_tick": 5623,
        "end_time": 46.547896875,
        "length_ticks": 11,
        "length_time": 0.09105937500000039,
        "note": 50,
        "velocity": 127,
        "slice": 290,
        "channel": 3
      }
    ],
    "5613": [
      {
        "start_tick": 5613,
        "start_time": 46.465115625,
        "end_tick": 5624,
        "end_time": 46.556174999999996,
        "length_ticks": 11,
        "length_time": 0.09105937499999328,
        "note": 51,
        "velocity": 127,
        "slice": 290,
        "channel": 4
      }
    ],
    "5628": [
      {
        "start_tick": 5628,
        "start_time": 46.589287500000005,
        "end_tick": 5639,
        "end_time": 46.680346875,
        "length_ticks": 11,
        "length_time": 0.09105937499999328,
        "note": 48,
        "velocity": 127,
        "slice": 291,
        "channel": 3
      }
    ],
    "5629": [
      {
        "start_tick": 5629,
        "start_time": 46.597565624999994,
        "end_tick": 5640,
        "end_time": 46.688625,
        "length_ticks": 11,
        "length_time": 0.09105937500000749,
        "note": 50,
        "velocity": 127,
        "slice": 291,
        "channel": 4
      }
    ],
    "5644": [
      {
        "start_tick": 5644,
        "start_time": 46.721737499999996,
        "end_tick": 5655,
        "end_time": 46.812796875,
        "length_ticks": 11,
        "length_time": 0.09105937500000039,
        "note": 46,
        "velocity": 127,
        "slice": 292,
        "channel": 3
      }
    ],
    "5645": [
      {
        "start_tick": 5645,
        "start_time": 46.730015625,
        "end_tick": 5656,
        "end_time": 46.821075,
        "length_ticks": 11,
        "length_time": 0.09105937500000039,
        "note": 48,
        "velocity": 127,
        "slice": 292,
        "channel": 4
      }
    ],
    "5660": [
      {
        "start_tick": 5660,
        "start_time": 46.854187499999995,
        "end_tick": 5671,
        "end_time": 46.945246875,
        "length_ticks": 11,
        "length_time": 0.09105937500000749,
        "note": 45,
        "velocity": 127,
        "slice": 293,
        "channel": 3
      }
    ],
    "5661": [
      {
        "start_tick": 5661,
        "start_time": 46.862465625,
        "end_tick": 5672,
        "end_time": 46.95352499999999,
        "length_ticks": 11,
        "length_time": 0.09105937499999328,
        "note": 46,
        "velocity": 127,
        "slice": 293,
        "channel": 4
      }
    ],
    "5676": [
      {
        "start_tick": 5676,
        "start_time": 46.9866375,
        "end_tick": 5702,
        "end_time": 47.201868749999996,
        "length_ticks": 26,
        "length_time": 0.2152312499999951,
        "note": 67,
        "velocity": 127,
        "slice": 294,
        "channel": 1
      },
      {
        "start_tick": 5676,
        "start_time": 46.9866375,
        "end_tick": 5696,
        "end_time": 47.15219999999999,
        "length_ticks": 20,
        "length_time": 0.16556249999999295,
        "note": 59,
        "velocity": 127,
        "slice": 294,
        "channel": 2
      },
      {
        "start_tick": 5676,
        "start_time": 46.9866375,
        "end_tick": 5689,
        "end_time": 47.094253124999994,
        "length_ticks": 13,
        "length_time": 0.107615624999994,
        "note": 43,
        "velocity": 127,
        "slice": 294,
        "channel": 3
      }
    ],
    "5677": [
      {
        "start_tick": 5677,
        "start_time": 46.994915625,
        "end_tick": 5688,
        "end_time": 47.085975,
        "length_ticks": 11,
        "length_time": 0.09105937500000039,
        "note": 45,
        "velocity": 127,
        "slice": 294,
        "channel": 4
      }
    ],
    "5693": [
      {
        "start_tick": 5693,
        "start_time": 47.127365625,
        "end_tick": 5706,
        "end_time": 47.23498125,
        "length_ticks": 13,
        "length_time": 0.107615624999994,
        "note": 43,
        "velocity": 127,
        "slice": 295,
        "channel": 4
      }
    ],
    "5724": [
      {
        "start_tick": 5724,
        "start_time": 47.383987499999996,
        "end_tick": 5776,
        "end_time": 47.814449999999994,
        "length_ticks": 52,
        "length_time": 0.4304624999999973,
        "note": 62,
        "velocity": 127,
        "slice": 296,
        "channel": 1
      },
      {
        "start_tick": 5724,
        "start_time": 47.383987499999996,
        "end_tick": 5734,
        "end_time": 47.46676875,
        "length_ticks": 10,
        "length_time": 0.08278125000000358,
        "note": 60,
        "velocity": 127,
        "slice": 296,
        "channel": 2
      },
      {
        "start_tick": 5724,
        "start_time": 47.383987499999996,
        "end_tick": 5735,
        "end_time": 47.475046875,
        "length_ticks": 11,
        "length_time": 0.09105937500000039,
        "note": 43,
        "velocity": 127,
        "slice": 296,
        "channel": 3
      }
    ],
    "5740": [
      {
        "start_tick": 5740,
        "start_time": 47.516437499999995,
        "end_tick": 5750,
        "end_time": 47.59921875,
        "length_ticks": 10,
        "length_time": 0.08278125000000358,
        "note": 59,
        "velocity": 127,
        "slice": 297,
        "channel": 2
      },
      {
        "start_tick": 5740,
        "start_time": 47.516437499999995,
        "end_tick": 5751,
        "end_time": 47.607496875,
        "length_ticks": 11,
        "length_time": 0.09105937500000749,
        "note": 43,
        "velocity": 127,
        "slice": 297,
        "channel": 3
      }
    ],
    "5741": [
      {
        "start_tick": 5741,
        "start_time": 47.524715625,
        "end_tick": 5752,
        "end_time": 47.61577499999999,
        "length_ticks": 11,
        "length_time": 0.09105937499999328,
        "note": 43,
        "velocity": 127,
        "slice": 297,
        "channel": 4
      }
    ],
    "5756": [
      {
        "start_tick": 5756,
        "start_time": 47.6488875,
        "end_tick": 5766,
        "end_time": 47.731668750000004,
        "length_ticks": 10,
        "length_time": 0.08278125000000358,
        "note": 57,
        "velocity": 127,
        "slice": 298,
        "channel": 2
      },
      {
        "start_tick": 5756,
        "start_time": 47.6488875,
        "end_tick": 5767,
        "end_time": 47.739946874999994,
        "length_ticks": 11,
        "length_time": 0.09105937499999328,
        "note": 41,
        "velocity": 127,
        "slice": 298,
        "channel": 3
      }
    ],
    "5757": [
      {
        "start_tick": 5757,
        "start_time": 47.657165625,
        "end_tick": 5768,
        "end_time": 47.748225,
        "length_ticks": 11,
        "length_time": 0.09105937500000039,
        "note": 43,
        "velocity": 127,
        "slice": 298,
        "channel": 4
      }
    ],
    "5772": [
      {
        "start_tick": 5772,
        "start_time": 47.7813375,
        "end_tick": 5792,
        "end_time": 47.9469,
        "length_ticks": 20,
        "length_time": 0.16556250000000006,
        "note": 59,
        "velocity": 127,
        "slice": 299,
        "channel": 2
      },
      {
        "start_tick": 5772,
        "start_time": 47.7813375,
        "end_tick": 5785,
        "end_time": 47.888953125,
        "length_ticks": 13,
        "length_time": 0.1076156250000011,
        "note": 43,
        "velocity": 127,
        "slice": 299,
        "channel": 3
      }
    ],
    "5773": [
      {
        "start_tick": 5773,
        "start_time": 47.789615625,
        "end_tick": 5784,
        "end_time": 47.880675,
        "length_ticks": 11,
        "length_time": 0.09105937499999328,
        "note": 41,
        "velocity": 127,
        "slice": 299,
        "channel": 4
      }
    ],
    "5789": [
      {
        "start_tick": 5789,
        "start_time": 47.922065624999995,
        "end_tick": 5802,
        "end_time": 48.02968125,
        "length_ticks": 13,
        "length_time": 0.10761562500000821,
        "note": 43,
        "velocity": 127,
        "slice": 300,
        "channel": 4
      }
    ],
    "5808": [
      {
        "start_tick": 5808,
        "start_time": 48.07935,
        "end_tick": 5818,
        "end_time": 48.162131249999995,
        "length_ticks": 10,
        "length_time": 0.08278124999999648,
        "note": 67,
        "velocity": 127,
        "slice": 300,
        "channel": 1
      },
      {
        "start_tick": 5808,
        "start_time": 48.07935,
        "end_tick": 5816,
        "end_time": 48.145575,
        "length_ticks": 8,
        "length_time": 0.06622500000000286,
        "note": 59,
        "velocity": 127,
        "slice": 300,
        "channel": 2
      }
    ],
    "5820": [
      {
        "start_tick": 5820,
        "start_time": 48.178687499999995,
        "end_tick": 5830,
        "end_time": 48.26146875,
        "length_ticks": 10,
        "length_time": 0.08278125000000358,
        "note": 67,
        "velocity": 127,
        "slice": 301,
        "channel": 1
      },
      {
        "start_tick": 5820,
        "start_time": 48.178687499999995,
        "end_tick": 5828,
        "end_time": 48.2449125,
        "length_ticks": 8,
        "length_time": 0.06622500000000286,
        "note": 59,
        "velocity": 127,
        "slice": 301,
        "channel": 2
      },
      {
        "start_tick": 5820,
        "start_time": 48.178687499999995,
        "end_tick": 5833,
        "end_time": 48.286303124999996,
        "length_ticks": 13,
        "length_time": 0.1076156250000011,
        "note": 43,
        "velocity": 127,
        "slice": 301,
        "channel": 3
      }
    ],
    "5832": [
      {
        "start_tick": 5832,
        "start_time": 48.27802499999999,
        "end_tick": 5842,
        "end_time": 48.360806249999996,
        "length_ticks": 10,
        "length_time": 0.08278125000000358,
        "note": 69,
        "velocity": 127,
        "slice": 302,
        "channel": 1
      },
      {
        "start_tick": 5832,
        "start_time": 48.27802499999999,
        "end_tick": 5840,
        "end_time": 48.344249999999995,
        "length_ticks": 8,
        "length_time": 0.06622500000000286,
        "note": 60,
        "velocity": 127,
        "slice": 302,
        "channel": 2
      }
    ],
    "5837": [
      {
        "start_tick": 5837,
        "start_time": 48.319415625,
        "end_tick": 5850,
        "end_time": 48.42703125,
        "length_ticks": 13,
        "length_time": 0.1076156250000011,
        "note": 43,
        "velocity": 127,
        "slice": 302,
        "channel": 4
      }
    ],
    "5844": [
      {
        "start_tick": 5844,
        "start_time": 48.3773625,
        "end_tick": 5854,
        "end_time": 48.46014374999999,
        "length_ticks": 10,
        "length_time": 0.08278124999999648,
        "note": 71,
        "velocity": 127,
        "slice": 302,
        "channel": 1
      },
      {
        "start_tick": 5844,
        "start_time": 48.3773625,
        "end_tick": 5852,
        "end_time": 48.4435875,
        "length_ticks": 8,
        "length_time": 0.06622500000000286,
        "note": 62,
        "velocity": 127,
        "slice": 302,
        "channel": 2
      }
    ],
    "5856": [
      {
        "start_tick": 5856,
        "start_time": 48.476699999999994,
        "end_tick": 5866,
        "end_time": 48.55948125,
        "length_ticks": 10,
        "length_time": 0.08278125000000358,
        "note": 72,
        "velocity": 127,
        "slice": 303,
        "channel": 1
      },
      {
        "start_tick": 5856,
        "start_time": 48.476699999999994,
        "end_tick": 5864,
        "end_time": 48.542925,
        "length_ticks": 8,
        "length_time": 0.06622500000000286,
        "note": 64,
        "velocity": 127,
        "slice": 303,
        "channel": 2
      }
    ],
    "5868": [
      {
        "start_tick": 5868,
        "start_time": 48.57603749999999,
        "end_tick": 5948,
        "end_time": 49.23828749999999,
        "length_ticks": 80,
        "length_time": 0.6622500000000002,
        "note": 74,
        "velocity": 127,
        "slice": 304,
        "channel": 1
      },
      {
        "start_tick": 5868,
        "start_time": 48.57603749999999,
        "end_tick": 5891,
        "end_time": 48.766434374999996,
        "length_ticks": 23,
        "length_time": 0.19039687500000468,
        "note": 65,
        "velocity": 127,
        "slice": 304,
        "channel": 2
      },
      {
        "start_tick": 5868,
        "start_time": 48.57603749999999,
        "end_tick": 5881,
        "end_time": 48.683653125,
        "length_ticks": 13,
        "length_time": 0.10761562500000821,
        "note": 41,
        "velocity": 127,
        "slice": 304,
        "channel": 3
      }
    ],
    "5885": [
      {
        "start_tick": 5885,
        "start_time": 48.716765624999994,
        "end_tick": 5898,
        "end_time": 48.824381249999995,
        "length_ticks": 13,
        "length_time": 0.1076156250000011,
        "note": 41,
        "velocity": 127,
        "slice": 304,
        "channel": 4
      }
    ],
    "5904": [
      {
        "start_tick": 5904,
        "start_time": 48.874050000000004,
        "end_tick": 5912,
        "end_time": 48.94027499999999,
        "length_ticks": 8,
        "length_time": 0.06622499999998865,
        "note": 67,
        "velocity": 127,
        "slice": 305,
        "channel": 2
      }
    ],
    "5916": [
      {
        "start_tick": 5916,
        "start_time": 48.9733875,
        "end_tick": 5924,
        "end_time": 49.0396125,
        "length_ticks": 8,
        "length_time": 0.06622499999999576,
        "note": 67,
        "velocity": 127,
        "slice": 306,
        "channel": 2
      },
      {
        "start_tick": 5916,
        "start_time": 48.9733875,
        "end_tick": 5927,
        "end_time": 49.064446874999994,
        "length_ticks": 11,
        "length_time": 0.09105937499999328,
        "note": 41,
        "velocity": 127,
        "slice": 306,
        "channel": 3
      }
    ],
    "5928": [
      {
        "start_tick": 5928,
        "start_time": 49.072725,
        "end_tick": 5936,
        "end_time": 49.138949999999994,
        "length_ticks": 8,
        "length_time": 0.06622499999999576,
        "note": 69,
        "velocity": 127,
        "slice": 307,
        "channel": 2
      }
    ],
    "5932": [
      {
        "start_tick": 5932,
        "start_time": 49.1058375,
        "end_tick": 5943,
        "end_time": 49.19689687499999,
        "length_ticks": 11,
        "length_time": 0.09105937499999328,
        "note": 41,
        "velocity": 127,
        "slice": 307,
        "channel": 3
      }
    ],
    "5933": [
      {
        "start_tick": 5933,
        "start_time": 49.114115625000004,
        "end_tick": 5944,
        "end_time": 49.205175,
        "length_ticks": 11,
        "length_time": 0.09105937499999328,
        "note": 41,
        "velocity": 127,
        "slice": 307,
        "channel": 4
      }
    ],
    "5940": [
      {
        "start_tick": 5940,
        "start_time": 49.1720625,
        "end_tick": 5948,
        "end_time": 49.23828749999999,
        "length_ticks": 8,
        "length_time": 0.06622499999998865,
        "note": 71,
        "velocity": 127,
        "slice": 307,
        "channel": 2
      }
    ],
    "5948": [
      {
        "start_tick": 5948,
        "start_time": 49.23828749999999,
        "end_tick": 5959,
        "end_time": 49.329346875,
        "length_ticks": 11,
        "length_time": 0.09105937500000749,
        "note": 39,
        "velocity": 127,
        "slice": 308,
        "channel": 3
      }
    ],
    "5949": [
      {
        "start_tick": 5949,
        "start_time": 49.246565624999995,
        "end_tick": 5960,
        "end_time": 49.337624999999996,
        "length_ticks": 11,
        "length_time": 0.09105937500000039,
        "note": 41,
        "velocity": 127,
        "slice": 308,
        "channel": 4
      }
    ],
    "5952": [
      {
        "start_tick": 5952,
        "start_time": 49.2714,
        "end_tick": 5960,
        "end_time": 49.337624999999996,
        "length_ticks": 8,
        "length_time": 0.06622499999999576,
        "note": 72,
        "velocity": 127,
        "slice": 308,
        "channel": 2
      }
    ],
    "5964": [
      {
        "start_tick": 5964,
        "start_time": 49.3707375,
        "end_tick": 5980,
        "end_time": 49.503187499999996,
        "length_ticks": 16,
        "length_time": 0.13244999999999862,
        "note": 74,
        "velocity": 127,
        "slice": 309,
        "channel": 2
      },
      {
        "start_tick": 5964,
        "start_time": 49.3707375,
        "end_tick": 5977,
        "end_time": 49.47835312499999,
        "length_ticks": 13,
        "length_time": 0.107615624999994,
        "note": 41,
        "velocity": 127,
        "slice": 309,
        "channel": 3
      }
    ],
    "5965": [
      {
        "start_tick": 5965,
        "start_time": 49.379015624999994,
        "end_tick": 5976,
        "end_time": 49.470075,
        "length_ticks": 11,
        "length_time": 0.09105937500000749,
        "note": 39,
        "velocity": 127,
        "slice": 309,
        "channel": 4
      }
    ],
    "5981": [
      {
        "start_tick": 5981,
        "start_time": 49.511465625,
        "end_tick": 5994,
        "end_time": 49.619081249999994,
        "length_ticks": 13,
        "length_time": 0.107615624999994,
        "note": 41,
        "velocity": 127,
        "slice": 309,
        "channel": 4
      }
    ],
    "5996": [
      {
        "start_tick": 5996,
        "start_time": 49.6356375,
        "end_tick": 6009,
        "end_time": 49.743253124999995,
        "length_ticks": 13,
        "length_time": 0.107615624999994,
        "note": 74,
        "velocity": 127,
        "slice": 310,
        "channel": 1
      },
      {
        "start_tick": 5996,
        "start_time": 49.6356375,
        "end_tick": 6006,
        "end_time": 49.71841874999999,
        "length_ticks": 10,
        "length_time": 0.08278124999998937,
        "note": 65,
        "velocity": 127,
        "slice": 310,
        "channel": 2
      }
    ],
    "6012": [
      {
        "start_tick": 6012,
        "start_time": 49.7680875,
        "end_tick": 6025,
        "end_time": 49.875703125,
        "length_ticks": 13,
        "length_time": 0.1076156250000011,
        "note": 74,
        "velocity": 127,
        "slice": 311,
        "channel": 1
      },
      {
        "start_tick": 6012,
        "start_time": 49.7680875,
        "end_tick": 6022,
        "end_time": 49.85086875,
        "length_ticks": 10,
        "length_time": 0.08278124999999648,
        "note": 65,
        "velocity": 127,
        "slice": 311,
        "channel": 2
      },
      {
        "start_tick": 6012,
        "start_time": 49.7680875,
        "end_tick": 6025,
        "end_time": 49.875703125,
        "length_ticks": 13,
        "length_time": 0.1076156250000011,
        "note": 41,
        "velocity": 127,
        "slice": 311,
        "channel": 3
      }
    ],
    "6028": [
      {
        "start_tick": 6028,
        "start_time": 49.90053749999999,
        "end_tick": 6041,
        "end_time": 50.008153125,
        "length_ticks": 13,
        "length_time": 0.10761562500000821,
        "note": 75,
        "velocity": 127,
        "slice": 312,
        "channel": 1
      },
      {
        "start_tick": 6028,
        "start_time": 49.90053749999999,
        "end_tick": 6038,
        "end_time": 49.983318749999995,
        "length_ticks": 10,
        "length_time": 0.08278125000000358,
        "note": 67,
        "velocity": 127,
        "slice": 312,
        "channel": 2
      }
    ],
    "6029": [
      {
        "start_tick": 6029,
        "start_time": 49.908815624999995,
        "end_tick": 6042,
        "end_time": 50.016431250000004,
        "length_ticks": 13,
        "length_time": 0.10761562500000821,
        "note": 41,
        "velocity": 127,
        "slice": 312,
        "channel": 4
      }
    ],
    "6044": [
      {
        "start_tick": 6044,
        "start_time": 50.0329875,
        "end_tick": 6057,
        "end_time": 50.14060312499999,
        "length_ticks": 13,
        "length_time": 0.107615624999994,
        "note": 77,
        "velocity": 127,
        "slice": 313,
        "channel": 1
      },
      {
        "start_tick": 6044,
        "start_time": 50.0329875,
        "end_tick": 6054,
        "end_time": 50.11576875,
        "length_ticks": 10,
        "length_time": 0.08278125000000358,
        "note": 69,
        "velocity": 127,
        "slice": 313,
        "channel": 2
      }
    ],
    "6060": [
      {
        "start_tick": 6060,
        "start_time": 50.165437499999996,
        "end_tick": 6140,
        "end_time": 50.827687499999996,
        "length_ticks": 80,
        "length_time": 0.6622500000000002,
        "note": 79,
        "velocity": 127,
        "slice": 314,
        "channel": 1
      },
      {
        "start_tick": 6060,
        "start_time": 50.165437499999996,
        "end_tick": 6081,
        "end_time": 50.339278125,
        "length_ticks": 21,
        "length_time": 0.17384062500000397,
        "note": 70,
        "velocity": 127,
        "slice": 314,
        "channel": 2
      },
      {
        "start_tick": 6060,
        "start_time": 50.165437499999996,
        "end_tick": 6073,
        "end_time": 50.273053125,
        "length_ticks": 13,
        "length_time": 0.1076156250000011,
        "note": 39,
        "velocity": 127,
        "slice": 314,
        "channel": 3
      }
    ],
    "6077": [
      {
        "start_tick": 6077,
        "start_time": 50.306165625,
        "end_tick": 6090,
        "end_time": 50.41378125,
        "length_ticks": 13,
        "length_time": 0.1076156250000011,
        "note": 39,
        "velocity": 127,
        "slice": 314,
        "channel": 4
      }
    ],
    "6096": [
      {
        "start_tick": 6096,
        "start_time": 50.463449999999995,
        "end_tick": 6104,
        "end_time": 50.529675,
        "length_ticks": 8,
        "length_time": 0.06622500000000286,
        "note": 63,
        "velocity": 127,
        "slice": 315,
        "channel": 2
      }
    ],
    "6108": [
      {
        "start_tick": 6108,
        "start_time": 50.56278749999999,
        "end_tick": 6116,
        "end_time": 50.629012499999995,
        "length_ticks": 8,
        "length_time": 0.06622500000000286,
        "note": 63,
        "velocity": 127,
        "slice": 316,
        "channel": 2
      },
      {
        "start_tick": 6108,
        "start_time": 50.56278749999999,
        "end_tick": 6119,
        "end_time": 50.653846875,
        "length_ticks": 11,
        "length_time": 0.09105937500000749,
        "note": 39,
        "velocity": 127,
        "slice": 316,
        "channel": 3
      }
    ],
    "6120": [
      {
        "start_tick": 6120,
        "start_time": 50.662124999999996,
        "end_tick": 6128,
        "end_time": 50.72835,
        "length_ticks": 8,
        "length_time": 0.06622500000000286,
        "note": 65,
        "velocity": 127,
        "slice": 317,
        "channel": 2
      }
    ],
    "6124": [
      {
        "start_tick": 6124,
        "start_time": 50.6952375,
        "end_tick": 6135,
        "end_time": 50.786296875,
        "length_ticks": 11,
        "length_time": 0.09105937500000039,
        "note": 39,
        "velocity": 127,
        "slice": 317,
        "channel": 3
      }
    ],
    "6125": [
      {
        "start_tick": 6125,
        "start_time": 50.703515624999994,
        "end_tick": 6136,
        "end_time": 50.794575,
        "length_ticks": 11,
        "length_time": 0.09105937500000749,
        "note": 39,
        "velocity": 127,
        "slice": 317,
        "channel": 4
      }
    ],
    "6132": [
      {
        "start_tick": 6132,
        "start_time": 50.76146249999999,
        "end_tick": 6140,
        "end_time": 50.827687499999996,
        "length_ticks": 8,
        "length_time": 0.06622500000000286,
        "note": 67,
        "velocity": 127,
        "slice": 317,
        "channel": 2
      }
    ],
    "6140": [
      {
        "start_tick": 6140,
        "start_time": 50.827687499999996,
        "end_tick": 6151,
        "end_time": 50.918746875000004,
        "length_ticks": 11,
        "length_time": 0.09105937500000749,
        "note": 38,
        "velocity": 127,
        "slice": 318,
        "channel": 3
      }
    ],
    "6141": [
      {
        "start_tick": 6141,
        "start_time": 50.835965625,
        "end_tick": 6152,
        "end_time": 50.92702499999999,
        "length_ticks": 11,
        "length_time": 0.09105937499999328,
        "note": 39,
        "velocity": 127,
        "slice": 318,
        "channel": 4
      }
    ],
    "6144": [
      {
        "start_tick": 6144,
        "start_time": 50.860800000000005,
        "end_tick": 6152,
        "end_time": 50.92702499999999,
        "length_ticks": 8,
        "length_time": 0.06622499999998865,
        "note": 69,
        "velocity": 127,
        "slice": 318,
        "channel": 2
      }
    ],
    "6156": [
      {
        "start_tick": 6156,
        "start_time": 50.9601375,
        "end_tick": 6166,
        "end_time": 51.04291874999999,
        "length_ticks": 10,
        "length_time": 0.08278124999998937,
        "note": 70,
        "velocity": 127,
        "slice": 319,
        "channel": 2
      },
      {
        "start_tick": 6156,
        "start_time": 50.9601375,
        "end_tick": 6169,
        "end_time": 51.067753124999996,
        "length_ticks": 13,
        "length_time": 0.107615624999994,
        "note": 39,
        "velocity": 127,
        "slice": 319,
        "channel": 3
      }
    ],
    "6157": [
      {
        "start_tick": 6157,
        "start_time": 50.968415625,
        "end_tick": 6168,
        "end_time": 51.059475,
        "length_ticks": 11,
        "length_time": 0.09105937500000039,
        "note": 38,
        "velocity": 127,
        "slice": 319,
        "channel": 4
      }
    ],
    "6173": [
      {
        "start_tick": 6173,
        "start_time": 51.100865625000004,
        "end_tick": 6186,
        "end_time": 51.20848125,
        "length_ticks": 13,
        "length_time": 0.107615624999994,
        "note": 39,
        "velocity": 127,
        "slice": 319,
        "channel": 4
      }
    ],
    "6188": [
      {
        "start_tick": 6188,
        "start_time": 51.22503749999999,
        "end_tick": 6201,
        "end_time": 51.332653125,
        "length_ticks": 13,
        "length_time": 0.10761562500000821,
        "note": 79,
        "velocity": 127,
        "slice": 320,
        "channel": 1
      },
      {
        "start_tick": 6188,
        "start_time": 51.22503749999999,
        "end_tick": 6198,
        "end_time": 51.307818749999996,
        "length_ticks": 10,
        "length_time": 0.08278125000000358,
        "note": 70,
        "velocity": 127,
        "slice": 320,
        "channel": 2
      }
    ],
    "6204": [
      {
        "start_tick": 6204,
        "start_time": 51.3574875,
        "end_tick": 6217,
        "end_time": 51.46510312499999,
        "length_ticks": 13,
        "length_time": 0.107615624999994,
        "note": 79,
        "velocity": 127,
        "slice": 321,
        "channel": 1
      },
      {
        "start_tick": 6204,
        "start_time": 51.3574875,
        "end_tick": 6214,
        "end_time": 51.44026875,
        "length_ticks": 10,
        "length_time": 0.08278125000000358,
        "note": 70,
        "velocity": 127,
        "slice": 321,
        "channel": 2
      },
      {
        "start_tick": 6204,
        "start_time": 51.3574875,
        "end_tick": 6217,
        "end_time": 51.46510312499999,
        "length_ticks": 13,
        "length_time": 0.107615624999994,
        "note": 39,
        "velocity": 127,
        "slice": 321,
        "channel": 3
      }
    ],
    "6220": [
      {
        "start_tick": 6220,
        "start_time": 51.489937499999996,
        "end_tick": 6233,
        "end_time": 51.597553125,
        "length_ticks": 13,
        "length_time": 0.1076156250000011,
        "note": 77,
        "velocity": 127,
        "slice": 322,
        "channel": 1
      },
      {
        "start_tick": 6220,
        "start_time": 51.489937499999996,
        "end_tick": 6230,
        "end_time": 51.57271875,
        "length_ticks": 10,
        "length_time": 0.08278125000000358,
        "note": 69,
        "velocity": 127,
        "slice": 322,
        "channel": 2
      }
    ],
    "6221": [
      {
        "start_tick": 6221,
        "start_time": 51.498215625,
        "end_tick": 6234,
        "end_time": 51.605831249999994,
        "length_ticks": 13,
        "length_time": 0.107615624999994,
        "note": 39,
        "velocity": 127,
        "slice": 322,
        "channel": 4
      }
    ],
    "6236": [
      {
        "start_tick": 6236,
        "start_time": 51.6223875,
        "end_tick": 6249,
        "end_time": 51.730003124999996,
        "length_ticks": 13,
        "length_time": 0.107615624999994,
        "note": 75,
        "velocity": 127,
        "slice": 323,
        "channel": 1
      },
      {
        "start_tick": 6236,
        "start_time": 51.6223875,
        "end_tick": 6246,
        "end_time": 51.70516874999999,
        "length_ticks": 10,
        "length_time": 0.08278124999998937,
        "note": 67,
        "velocity": 127,
        "slice": 323,
        "channel": 2
      }
    ],
    "6252": [
      {
        "start_tick": 6252,
        "start_time": 51.7548375,
        "end_tick": 6265,
        "end_time": 51.862453125,
        "length_ticks": 13,
        "length_time": 0.1076156250000011,
        "note": 77,
        "velocity": 127,
        "slice": 323,
        "channel": 1
      },
      {
        "start_tick": 6252,
        "start_time": 51.7548375,
        "end_tick": 6262,
        "end_time": 51.83761875,
        "length_ticks": 10,
        "length_time": 0.08278124999999648,
        "note": 70,
        "velocity": 127,
        "slice": 323,
        "channel": 2
      },
      {
        "start_tick": 6252,
        "start_time": 51.7548375,
        "end_tick": 6265,
        "end_time": 51.862453125,
        "length_ticks": 13,
        "length_time": 0.1076156250000011,
        "note": 46,
        "velocity": 127,
        "slice": 323,
        "channel": 3
      }
    ],
    "6269": [
      {
        "start_tick": 6269,
        "start_time": 51.895565624999996,
        "end_tick": 6282,
        "end_time": 52.003181250000004,
        "length_ticks": 13,
        "length_time": 0.10761562500000821,
        "note": 46,
        "velocity": 127,
        "slice": 324,
        "channel": 4
      }
    ],
    "6284": [
      {
        "start_tick": 6284,
        "start_time": 52.0197375,
        "end_tick": 6297,
        "end_time": 52.12735312499999,
        "length_ticks": 13,
        "length_time": 0.107615624999994,
        "note": 75,
        "velocity": 127,
        "slice": 325,
        "channel": 1
      },
      {
        "start_tick": 6284,
        "start_time": 52.0197375,
        "end_tick": 6294,
        "end_time": 52.10251875,
        "length_ticks": 10,
        "length_time": 0.08278125000000358,
        "note": 65,
        "velocity": 127,
        "slice": 325,
        "channel": 2
      }
    ],
    "6300": [
      {
        "start_tick": 6300,
        "start_time": 52.1521875,
        "end_tick": 6352,
        "end_time": 52.58265,
        "length_ticks": 52,
        "length_time": 0.4304625000000044,
        "note": 74,
        "velocity": 127,
        "slice": 326,
        "channel": 1
      },
      {
        "start_tick": 6300,
        "start_time": 52.1521875,
        "end_tick": 6310,
        "end_time": 52.23496875,
        "length_ticks": 10,
        "length_time": 0.08278125000000358,
        "note": 65,
        "velocity": 127,
        "slice": 326,
        "channel": 2
      },
      {
        "start_tick": 6300,
        "start_time": 52.1521875,
        "end_tick": 6311,
        "end_time": 52.243246875000004,
        "length_ticks": 11,
        "length_time": 0.09105937500000749,
        "note": 46,
        "velocity": 127,
        "slice": 326,
        "channel": 3
      }
    ],
    "6316": [
      {
        "start_tick": 6316,
        "start_time": 52.284637499999995,
        "end_tick": 6326,
        "end_time": 52.36741874999999,
        "length_ticks": 10,
        "length_time": 0.08278124999999648,
        "note": 65,
        "velocity": 127,
        "slice": 327,
        "channel": 2
      },
      {
        "start_tick": 6316,
        "start_time": 52.284637499999995,
        "end_tick": 6327,
        "end_time": 52.375696874999996,
        "length_ticks": 11,
        "length_time": 0.09105937500000039,
        "note": 46,
        "velocity": 127,
        "slice": 327,
        "channel": 3
      }
    ],
    "6317": [
      {
        "start_tick": 6317,
        "start_time": 52.292915625,
        "end_tick": 6328,
        "end_time": 52.383975,
        "length_ticks": 11,
        "length_time": 0.09105937500000039,
        "note": 46,
        "velocity": 127,
        "slice": 327,
        "channel": 4
      }
    ],
    "6332": [
      {
        "start_tick": 6332,
        "start_time": 52.4170875,
        "end_tick": 6342,
        "end_time": 52.49986875,
        "length_ticks": 10,
        "length_time": 0.08278124999999648,
        "note": 63,
        "velocity": 127,
        "slice": 328,
        "channel": 2
      },
      {
        "start_tick": 6332,
        "start_time": 52.4170875,
        "end_tick": 6343,
        "end_time": 52.508146874999994,
        "length_ticks": 11,
        "length_time": 0.09105937499999328,
        "note": 44,
        "velocity": 127,
        "slice": 328,
        "channel": 3
      }
    ],
    "6333": [
      {
        "start_tick": 6333,
        "start_time": 52.42536562499999,
        "end_tick": 6344,
        "end_time": 52.516425,
        "length_ticks": 11,
        "length_time": 0.09105937500000749,
        "note": 46,
        "velocity": 127,
        "slice": 328,
        "channel": 4
      }
    ],
    "6348": [
      {
        "start_tick": 6348,
        "start_time": 52.54953749999999,
        "end_tick": 6358,
        "end_time": 52.632318749999996,
        "length_ticks": 10,
        "length_time": 0.08278125000000358,
        "note": 65,
        "velocity": 127,
        "slice": 328,
        "channel": 2
      },
      {
        "start_tick": 6348,
        "start_time": 52.54953749999999,
        "end_tick": 6361,
        "end_time": 52.657153125,
        "length_ticks": 13,
        "length_time": 0.10761562500000821,
        "note": 46,
        "velocity": 127,
        "slice": 328,
        "channel": 3
      }
    ],
    "6349": [
      {
        "start_tick": 6349,
        "start_time": 52.557815624999996,
        "end_tick": 6360,
        "end_time": 52.648875,
        "length_ticks": 11,
        "length_time": 0.09105937500000039,
        "note": 44,
        "velocity": 127,
        "slice": 328,
        "channel": 4
      }
    ],
    "6365": [
      {
        "start_tick": 6365,
        "start_time": 52.690265624999995,
        "end_tick": 6378,
        "end_time": 52.797881249999996,
        "length_ticks": 13,
        "length_time": 0.1076156250000011,
        "note": 46,
        "velocity": 127,
        "slice": 329,
        "channel": 4
      }
    ],
    "6380": [
      {
        "start_tick": 6380,
        "start_time": 52.8144375,
        "end_tick": 6390,
        "end_time": 52.89721875,
        "length_ticks": 10,
        "length_time": 0.08278125000000358,
        "note": 65,
        "velocity": 127,
        "slice": 330,
        "channel": 2
      }
    ],
    "6396": [
      {
        "start_tick": 6396,
        "start_time": 52.946887499999995,
        "end_tick": 6409,
        "end_time": 53.054503125,
        "length_ticks": 13,
        "length_time": 0.1076156250000011,
        "note": 74,
        "velocity": 127,
        "slice": 331,
        "channel": 1
      },
      {
        "start_tick": 6396,
        "start_time": 52.946887499999995,
        "end_tick": 6406,
        "end_time": 53.02966874999999,
        "length_ticks": 10,
        "length_time": 0.08278124999999648,
        "note": 65,
        "velocity": 127,
        "slice": 331,
        "channel": 2
      },
      {
        "start_tick": 6396,
        "start_time": 52.946887499999995,
        "end_tick": 6409,
        "end_time": 53.054503125,
        "length_ticks": 13,
        "length_time": 0.1076156250000011,
        "note": 46,
        "velocity": 127,
        "slice": 331,
        "channel": 3
      }
    ],
    "6412": [
      {
        "start_tick": 6412,
        "start_time": 53.0793375,
        "end_tick": 6425,
        "end_time": 53.186953124999995,
        "length_ticks": 13,
        "length_time": 0.107615624999994,
        "note": 75,
        "velocity": 127,
        "slice": 332,
        "channel": 1
      },
      {
        "start_tick": 6412,
        "start_time": 53.0793375,
        "end_tick": 6422,
        "end_time": 53.16211875,
        "length_ticks": 10,
        "length_time": 0.08278124999999648,
        "note": 63,
        "velocity": 127,
        "slice": 332,
        "channel": 2
      }
    ],
    "6413": [
      {
        "start_tick": 6413,
        "start_time": 53.08761562499999,
        "end_tick": 6426,
        "end_time": 53.19523125,
        "length_ticks": 13,
        "length_time": 0.10761562500000821,
        "note": 46,
        "velocity": 127,
        "slice": 332,
        "channel": 4
      }
    ],
    "6428": [
      {
        "start_tick": 6428,
        "start_time": 53.21178749999999,
        "end_tick": 6441,
        "end_time": 53.319403125,
        "length_ticks": 13,
        "length_time": 0.10761562500000821,
        "note": 74,
        "velocity": 127,
        "slice": 333,
        "channel": 1
      },
      {
        "start_tick": 6428,
        "start_time": 53.21178749999999,
        "end_tick": 6438,
        "end_time": 53.294568749999996,
        "length_ticks": 10,
        "length_time": 0.08278125000000358,
        "note": 65,
        "velocity": 127,
        "slice": 333,
        "channel": 2
      }
    ],
    "6444": [
      {
        "start_tick": 6444,
        "start_time": 53.3442375,
        "end_tick": 6463,
        "end_time": 53.501521875,
        "length_ticks": 19,
        "length_time": 0.15728437500000325,
        "note": 72,
        "velocity": 127,
        "slice": 333,
        "channel": 1
      },
      {
        "start_tick": 6444,
        "start_time": 53.3442375,
        "end_tick": 6459,
        "end_time": 53.46840937499999,
        "length_ticks": 15,
        "length_time": 0.12417187499999471,
        "note": 63,
        "velocity": 127,
        "slice": 333,
        "channel": 2
      },
      {
        "start_tick": 6444,
        "start_time": 53.3442375,
        "end_tick": 6457,
        "end_time": 53.45185312499999,
        "length_ticks": 13,
        "length_time": 0.107615624999994,
        "note": 44,
        "velocity": 127,
        "slice": 333,
        "channel": 3
      }
    ],
    "6461": [
      {
        "start_tick": 6461,
        "start_time": 53.484965625,
        "end_tick": 6474,
        "end_time": 53.592581249999995,
        "length_ticks": 13,
        "length_time": 0.107615624999994,
        "note": 44,
        "velocity": 127,
        "slice": 334,
        "channel": 4
      }
    ],
    "6468": [
      {
        "start_tick": 6468,
        "start_time": 53.5429125,
        "end_tick": 6478,
        "end_time": 53.62569375,
        "length_ticks": 10,
        "length_time": 0.08278125000000358,
        "note": 72,
        "velocity": 127,
        "slice": 335,
        "channel": 1
      },
      {
        "start_tick": 6468,
        "start_time": 53.5429125,
        "end_tick": 6475,
        "end_time": 53.600859375,
        "length_ticks": 7,
        "length_time": 0.057946874999998954,
        "note": 63,
        "velocity": 127,
        "slice": 335,
        "channel": 2
      }
    ],
    "6480": [
      {
        "start_tick": 6480,
        "start_time": 53.64225,
        "end_tick": 6490,
        "end_time": 53.72503125,
        "length_ticks": 10,
        "length_time": 0.08278125000000358,
        "note": 74,
        "velocity": 127,
        "slice": 335,
        "channel": 1
      },
      {
        "start_tick": 6480,
        "start_time": 53.64225,
        "end_tick": 6487,
        "end_time": 53.700196874999996,
        "length_ticks": 7,
        "length_time": 0.057946874999998954,
        "note": 62,
        "velocity": 127,
        "slice": 335,
        "channel": 2
      }
    ],
    "6492": [
      {
        "start_tick": 6492,
        "start_time": 53.7415875,
        "end_tick": 6570,
        "end_time": 54.38728125,
        "length_ticks": 78,
        "length_time": 0.6456937499999995,
        "note": 75,
        "velocity": 127,
        "slice": 336,
        "channel": 1
      },
      {
        "start_tick": 6492,
        "start_time": 53.7415875,
        "end_tick": 6502,
        "end_time": 53.82436875,
        "length_ticks": 10,
        "length_time": 0.08278124999999648,
        "note": 63,
        "velocity": 127,
        "slice": 336,
        "channel": 2
      },
      {
        "start_tick": 6492,
        "start_time": 53.7415875,
        "end_tick": 6503,
        "end_time": 53.832646874999995,
        "length_ticks": 11,
        "length_time": 0.09105937499999328,
        "note": 44,
        "velocity": 127,
        "slice": 336,
        "channel": 3
      }
    ],
    "6508": [
      {
        "start_tick": 6508,
        "start_time": 53.87403749999999,
        "end_tick": 6518,
        "end_time": 53.95681875,
        "length_ticks": 10,
        "length_time": 0.08278125000000358,
        "note": 63,
        "velocity": 127,
        "slice": 337,
        "channel": 2
      },
      {
        "start_tick": 6508,
        "start_time": 53.87403749999999,
        "end_tick": 6519,
        "end_time": 53.965096875,
        "length_ticks": 11,
        "length_time": 0.09105937500000749,
        "note": 44,
        "velocity": 127,
        "slice": 337,
        "channel": 3
      }
    ],
    "6509": [
      {
        "start_tick": 6509,
        "start_time": 53.882315625,
        "end_tick": 6520,
        "end_time": 53.973375,
        "length_ticks": 11,
        "length_time": 0.09105937500000039,
        "note": 44,
        "velocity": 127,
        "slice": 337,
        "channel": 4
      }
    ],
    "6524": [
      {
        "start_tick": 6524,
        "start_time": 54.0064875,
        "end_tick": 6534,
        "end_time": 54.089268749999995,
        "length_ticks": 10,
        "length_time": 0.08278124999999648,
        "note": 65,
        "velocity": 127,
        "slice": 338,
        "channel": 2
      },
      {
        "start_tick": 6524,
        "start_time": 54.0064875,
        "end_tick": 6535,
        "end_time": 54.097546875,
        "length_ticks": 11,
        "length_time": 0.09105937500000039,
        "note": 43,
        "velocity": 127,
        "slice": 338,
        "channel": 3
      }
    ],
    "6525": [
      {
        "start_tick": 6525,
        "start_time": 54.014765624999995,
        "end_tick": 6536,
        "end_time": 54.105825,
        "length_ticks": 11,
        "length_time": 0.09105937500000749,
        "note": 44,
        "velocity": 127,
        "slice": 338,
        "channel": 4
      }
    ],
    "6540": [
      {
        "start_tick": 6540,
        "start_time": 54.1389375,
        "end_tick": 6560,
        "end_time": 54.3045,
        "length_ticks": 20,
        "length_time": 0.16556250000000006,
        "note": 67,
        "velocity": 127,
        "slice": 338,
        "channel": 2
      },
      {
        "start_tick": 6540,
        "start_time": 54.1389375,
        "end_tick": 6551,
        "end_time": 54.22999687499999,
        "length_ticks": 11,
        "length_time": 0.09105937499999328,
        "note": 44,
        "velocity": 127,
        "slice": 338,
        "channel": 3
      }
    ],
    "6541": [
      {
        "start_tick": 6541,
        "start_time": 54.147215625,
        "end_tick": 6552,
        "end_time": 54.238274999999994,
        "length_ticks": 11,
        "length_time": 0.09105937499999328,
        "note": 43,
        "velocity": 127,
        "slice": 338,
        "channel": 4
      }
    ],
    "6557": [
      {
        "start_tick": 6557,
        "start_time": 54.279665625,
        "end_tick": 6568,
        "end_time": 54.37072499999999,
        "length_ticks": 11,
        "length_time": 0.09105937499999328,
        "note": 44,
        "velocity": 127,
        "slice": 339,
        "channel": 4
      }
    ],
    "6588": [
      {
        "start_tick": 6588,
        "start_time": 54.53628749999999,
        "end_tick": 6607,
        "end_time": 54.693571874999996,
        "length_ticks": 19,
        "length_time": 0.15728437500000325,
        "note": 74,
        "velocity": 127,
        "slice": 341,
        "channel": 1
      },
      {
        "start_tick": 6588,
        "start_time": 54.53628749999999,
        "end_tick": 6603,
        "end_time": 54.660459374999995,
        "length_ticks": 15,
        "length_time": 0.12417187500000182,
        "note": 65,
        "velocity": 127,
        "slice": 341,
        "channel": 2
      },
      {
        "start_tick": 6588,
        "start_time": 54.53628749999999,
        "end_tick": 6599,
        "end_time": 54.627346875,
        "length_ticks": 11,
        "length_time": 0.09105937500000749,
        "note": 44,
        "velocity": 127,
        "slice": 341,
        "channel": 3
      }
    ],
    "6604": [
      {
        "start_tick": 6604,
        "start_time": 54.6687375,
        "end_tick": 6615,
        "end_time": 54.759796875,
        "length_ticks": 11,
        "length_time": 0.09105937500000039,
        "note": 44,
        "velocity": 127,
        "slice": 342,
        "channel": 3
      }
    ],
    "6605": [
      {
        "start_tick": 6605,
        "start_time": 54.677015624999996,
        "end_tick": 6616,
        "end_time": 54.768075,
        "length_ticks": 11,
        "length_time": 0.09105937500000749,
        "note": 44,
        "velocity": 127,
        "slice": 342,
        "channel": 4
      }
    ],
    "6612": [
      {
        "start_tick": 6612,
        "start_time": 54.734962499999995,
        "end_tick": 6631,
        "end_time": 54.89224687499999,
        "length_ticks": 19,
        "length_time": 0.15728437499999615,
        "note": 72,
        "velocity": 127,
        "slice": 342,
        "channel": 1
      },
      {
        "start_tick": 6612,
        "start_time": 54.734962499999995,
        "end_tick": 6627,
        "end_time": 54.859134375,
        "length_ticks": 15,
        "length_time": 0.12417187500000182,
        "note": 63,
        "velocity": 127,
        "slice": 342,
        "channel": 2
      }
    ],
    "6620": [
      {
        "start_tick": 6620,
        "start_time": 54.8011875,
        "end_tick": 6631,
        "end_time": 54.89224687499999,
        "length_ticks": 11,
        "length_time": 0.09105937499999328,
        "note": 44,
        "velocity": 127,
        "slice": 343,
        "channel": 3
      }
    ],
    "6621": [
      {
        "start_tick": 6621,
        "start_time": 54.809465625,
        "end_tick": 6632,
        "end_time": 54.900524999999995,
        "length_ticks": 11,
        "length_time": 0.09105937499999328,
        "note": 44,
        "velocity": 127,
        "slice": 343,
        "channel": 4
      }
    ],
    "6636": [
      {
        "start_tick": 6636,
        "start_time": 54.933637499999996,
        "end_tick": 6655,
        "end_time": 55.090921875,
        "length_ticks": 19,
        "length_time": 0.15728437500000325,
        "note": 70,
        "velocity": 127,
        "slice": 343,
        "channel": 1
      },
      {
        "start_tick": 6636,
        "start_time": 54.933637499999996,
        "end_tick": 6651,
        "end_time": 55.057809375,
        "length_ticks": 15,
        "length_time": 0.12417187500000182,
        "note": 62,
        "velocity": 127,
        "slice": 343,
        "channel": 2
      },
      {
        "start_tick": 6636,
        "start_time": 54.933637499999996,
        "end_tick": 6647,
        "end_time": 55.024696875,
        "length_ticks": 11,
        "length_time": 0.09105937500000039,
        "note": 43,
        "velocity": 127,
        "slice": 343,
        "channel": 3
      }
    ],
    "6637": [
      {
        "start_tick": 6637,
        "start_time": 54.941915625,
        "end_tick": 6648,
        "end_time": 55.03297499999999,
        "length_ticks": 11,
        "length_time": 0.09105937499999328,
        "note": 44,
        "velocity": 127,
        "slice": 343,
        "channel": 4
      }
    ],
    "6653": [
      {
        "start_tick": 6653,
        "start_time": 55.07436562499999,
        "end_tick": 6664,
        "end_time": 55.165425,
        "length_ticks": 11,
        "length_time": 0.09105937500000749,
        "note": 43,
        "velocity": 127,
        "slice": 344,
        "channel": 4
      }
    ],
    "6660": [
      {
        "start_tick": 6660,
        "start_time": 55.13231249999999,
        "end_tick": 6670,
        "end_time": 55.215093749999994,
        "length_ticks": 10,
        "length_time": 0.08278125000000358,
        "note": 70,
        "velocity": 127,
        "slice": 345,
        "channel": 1
      },
      {
        "start_tick": 6660,
        "start_time": 55.13231249999999,
        "end_tick": 6667,
        "end_time": 55.190259375000004,
        "length_ticks": 7,
        "length_time": 0.057946875000013165,
        "note": 62,
        "velocity": 127,
        "slice": 345,
        "channel": 2
      }
    ],
    "6672": [
      {
        "start_tick": 6672,
        "start_time": 55.23165,
        "end_tick": 6682,
        "end_time": 55.31443124999999,
        "length_ticks": 10,
        "length_time": 0.08278124999998937,
        "note": 72,
        "velocity": 127,
        "slice": 345,
        "channel": 1
      },
      {
        "start_tick": 6672,
        "start_time": 55.23165,
        "end_tick": 6679,
        "end_time": 55.289596875,
        "length_ticks": 7,
        "length_time": 0.057946874999998954,
        "note": 60,
        "velocity": 127,
        "slice": 345,
        "channel": 2
      }
    ],
    "6684": [
      {
        "start_tick": 6684,
        "start_time": 55.3309875,
        "end_tick": 6762,
        "end_time": 55.97668124999999,
        "length_ticks": 78,
        "length_time": 0.6456937499999924,
        "note": 74,
        "velocity": 127,
        "slice": 346,
        "channel": 1
      },
      {
        "start_tick": 6684,
        "start_time": 55.3309875,
        "end_tick": 6693,
        "end_time": 55.405490625,
        "length_ticks": 9,
        "length_time": 0.07450312499999967,
        "note": 62,
        "velocity": 127,
        "slice": 346,
        "channel": 2
      },
      {
        "start_tick": 6684,
        "start_time": 55.3309875,
        "end_tick": 6695,
        "end_time": 55.422046875,
        "length_ticks": 11,
        "length_time": 0.09105937500000039,
        "note": 43,
        "velocity": 127,
        "slice": 346,
        "channel": 3
      }
    ],
    "6700": [
      {
        "start_tick": 6700,
        "start_time": 55.4634375,
        "end_tick": 6709,
        "end_time": 55.537940625,
        "length_ticks": 9,
        "length_time": 0.07450312499999967,
        "note": 62,
        "velocity": 127,
        "slice": 347,
        "channel": 2
      },
      {
        "start_tick": 6700,
        "start_time": 55.4634375,
        "end_tick": 6711,
        "end_time": 55.55449687499999,
        "length_ticks": 11,
        "length_time": 0.09105937499999328,
        "note": 43,
        "velocity": 127,
        "slice": 347,
        "channel": 3
      }
    ],
    "6701": [
      {
        "start_tick": 6701,
        "start_time": 55.471715625,
        "end_tick": 6712,
        "end_time": 55.562774999999995,
        "length_ticks": 11,
        "length_time": 0.09105937499999328,
        "note": 43,
        "velocity": 127,
        "slice": 347,
        "channel": 4
      }
    ],
    "6716": [
      {
        "start_tick": 6716,
        "start_time": 55.595887499999996,
        "end_tick": 6725,
        "end_time": 55.670390625,
        "length_ticks": 9,
        "length_time": 0.07450312500000678,
        "note": 63,
        "velocity": 127,
        "slice": 347,
        "channel": 2
      },
      {
        "start_tick": 6716,
        "start_time": 55.595887499999996,
        "end_tick": 6727,
        "end_time": 55.686946875,
        "length_ticks": 11,
        "length_time": 0.09105937500000039,
        "note": 41,
        "velocity": 127,
        "slice": 347,
        "channel": 3
      }
    ],
    "6717": [
      {
        "start_tick": 6717,
        "start_time": 55.604165625,
        "end_tick": 6728,
        "end_time": 55.69522499999999,
        "length_ticks": 11,
        "length_time": 0.09105937499999328,
        "note": 43,
        "velocity": 127,
        "slice": 348,
        "channel": 4
      }
    ],
    "6732": [
      {
        "start_tick": 6732,
        "start_time": 55.7283375,
        "end_tick": 6751,
        "end_time": 55.885621875,
        "length_ticks": 19,
        "length_time": 0.15728437499999615,
        "note": 65,
        "velocity": 127,
        "slice": 348,
        "channel": 2
      },
      {
        "start_tick": 6732,
        "start_time": 55.7283375,
        "end_tick": 6743,
        "end_time": 55.819396874999995,
        "length_ticks": 11,
        "length_time": 0.09105937499999328,
        "note": 43,
        "velocity": 127,
        "slice": 348,
        "channel": 3
      }
    ],
    "6733": [
      {
        "start_tick": 6733,
        "start_time": 55.73661562499999,
        "end_tick": 6744,
        "end_time": 55.827675,
        "length_ticks": 11,
        "length_time": 0.09105937500000749,
        "note": 41,
        "velocity": 127,
        "slice": 348,
        "channel": 4
      }
    ],
    "6749": [
      {
        "start_tick": 6749,
        "start_time": 55.869065625,
        "end_tick": 6760,
        "end_time": 55.960125,
        "length_ticks": 11,
        "length_time": 0.09105937500000039,
        "note": 43,
        "velocity": 127,
        "slice": 349,
        "channel": 4
      }
    ],
    "6780": [
      {
        "start_tick": 6780,
        "start_time": 56.1256875,
        "end_tick": 6799,
        "end_time": 56.282971874999994,
        "length_ticks": 19,
        "length_time": 0.15728437499999615,
        "note": 72,
        "velocity": 127,
        "slice": 351,
        "channel": 1
      },
      {
        "start_tick": 6780,
        "start_time": 56.1256875,
        "end_tick": 6794,
        "end_time": 56.241581249999996,
        "length_ticks": 14,
        "length_time": 0.11589374999999791,
        "note": 63,
        "velocity": 127,
        "slice": 351,
        "channel": 2
      },
      {
        "start_tick": 6780,
        "start_time": 56.1256875,
        "end_tick": 6791,
        "end_time": 56.21674687499999,
        "length_ticks": 11,
        "length_time": 0.09105937499999328,
        "note": 43,
        "velocity": 127,
        "slice": 351,
        "channel": 3
      }
    ],
    "6796": [
      {
        "start_tick": 6796,
        "start_time": 56.2581375,
        "end_tick": 6807,
        "end_time": 56.349196875,
        "length_ticks": 11,
        "length_time": 0.09105937500000039,
        "note": 43,
        "velocity": 127,
        "slice": 352,
        "channel": 3
      }
    ],
    "6797": [
      {
        "start_tick": 6797,
        "start_time": 56.266415625,
        "end_tick": 6808,
        "end_time": 56.357474999999994,
        "length_ticks": 11,
        "length_time": 0.09105937499999328,
        "note": 43,
        "velocity": 127,
        "slice": 352,
        "channel": 4
      }
    ],
    "6804": [
      {
        "start_tick": 6804,
        "start_time": 56.3243625,
        "end_tick": 6823,
        "end_time": 56.481646874999996,
        "length_ticks": 19,
        "length_time": 0.15728437499999615,
        "note": 70,
        "velocity": 127,
        "slice": 352,
        "channel": 1
      },
      {
        "start_tick": 6804,
        "start_time": 56.3243625,
        "end_tick": 6818,
        "end_time": 56.44025625,
        "length_ticks": 14,
        "length_time": 0.11589374999999791,
        "note": 62,
        "velocity": 127,
        "slice": 352,
        "channel": 2
      }
    ],
    "6812": [
      {
        "start_tick": 6812,
        "start_time": 56.3905875,
        "end_tick": 6823,
        "end_time": 56.481646874999996,
        "length_ticks": 11,
        "length_time": 0.09105937499999328,
        "note": 43,
        "velocity": 127,
        "slice": 352,
        "channel": 3
      }
    ],
    "6813": [
      {
        "start_tick": 6813,
        "start_time": 56.39886562499999,
        "end_tick": 6824,
        "end_time": 56.489925,
        "length_ticks": 11,
        "length_time": 0.09105937500000749,
        "note": 43,
        "velocity": 127,
        "slice": 352,
        "channel": 4
      }
    ],
    "6828": [
      {
        "start_tick": 6828,
        "start_time": 56.523037499999994,
        "end_tick": 6847,
        "end_time": 56.680321875,
        "length_ticks": 19,
        "length_time": 0.15728437500000325,
        "note": 69,
        "velocity": 127,
        "slice": 353,
        "channel": 1
      },
      {
        "start_tick": 6828,
        "start_time": 56.523037499999994,
        "end_tick": 6847,
        "end_time": 56.680321875,
        "length_ticks": 19,
        "length_time": 0.15728437500000325,
        "note": 61,
        "velocity": 127,
        "slice": 353,
        "channel": 2
      },
      {
        "start_tick": 6828,
        "start_time": 56.523037499999994,
        "end_tick": 6839,
        "end_time": 56.614096875,
        "length_ticks": 11,
        "length_time": 0.09105937500000749,
        "note": 45,
        "velocity": 127,
        "slice": 353,
        "channel": 3
      }
    ],
    "6829": [
      {
        "start_tick": 6829,
        "start_time": 56.531315625,
        "end_tick": 6840,
        "end_time": 56.622375,
        "length_ticks": 11,
        "length_time": 0.09105937500000039,
        "note": 43,
        "velocity": 127,
        "slice": 353,
        "channel": 4
      }
    ],
    "6845": [
      {
        "start_tick": 6845,
        "start_time": 56.663765624999996,
        "end_tick": 6856,
        "end_time": 56.754825000000004,
        "length_ticks": 11,
        "length_time": 0.09105937500000749,
        "note": 45,
        "velocity": 127,
        "slice": 354,
        "channel": 4
      }
    ],
    "6852": [
      {
        "start_tick": 6852,
        "start_time": 56.721712499999995,
        "end_tick": 6861,
        "end_time": 56.796215624999995,
        "length_ticks": 9,
        "length_time": 0.07450312499999967,
        "note": 69,
        "velocity": 127,
        "slice": 355,
        "channel": 1
      }
    ],
    "6864": [
      {
        "start_tick": 6864,
        "start_time": 56.82104999999999,
        "end_tick": 6873,
        "end_time": 56.895553125,
        "length_ticks": 9,
        "length_time": 0.07450312500000678,
        "note": 71,
        "velocity": 127,
        "slice": 355,
        "channel": 1
      }
    ],
    "6876": [
      {
        "start_tick": 6876,
        "start_time": 56.9203875,
        "end_tick": 6948,
        "end_time": 57.5164125,
        "length_ticks": 72,
        "length_time": 0.5960250000000045,
        "note": 73,
        "velocity": 127,
        "slice": 356,
        "channel": 1
      },
      {
        "start_tick": 6876,
        "start_time": 56.9203875,
        "end_tick": 6885,
        "end_time": 56.994890625000004,
        "length_ticks": 9,
        "length_time": 0.07450312500000678,
        "note": 61,
        "velocity": 127,
        "slice": 356,
        "channel": 2
      },
      {
        "start_tick": 6876,
        "start_time": 56.9203875,
        "end_tick": 6887,
        "end_time": 57.011446875,
        "length_ticks": 11,
        "length_time": 0.09105937500000039,
        "note": 45,
        "velocity": 127,
        "slice": 356,
        "channel": 3
      }
    ],
    "6892": [
      {
        "start_tick": 6892,
        "start_time": 57.0528375,
        "end_tick": 6901,
        "end_time": 57.127340624999995,
        "length_ticks": 9,
        "length_time": 0.07450312499999256,
        "note": 61,
        "velocity": 127,
        "slice": 357,
        "channel": 2
      },
      {
        "start_tick": 6892,
        "start_time": 57.0528375,
        "end_tick": 6903,
        "end_time": 57.143896874999996,
        "length_ticks": 11,
        "length_time": 0.09105937499999328,
        "note": 45,
        "velocity": 127,
        "slice": 357,
        "channel": 3
      }
    ],
    "6893": [
      {
        "start_tick": 6893,
        "start_time": 57.06111562499999,
        "end_tick": 6904,
        "end_time": 57.152175,
        "length_ticks": 11,
        "length_time": 0.09105937500000749,
        "note": 45,
        "velocity": 127,
        "slice": 357,
        "channel": 4
      }
    ],
    "6908": [
      {
        "start_tick": 6908,
        "start_time": 57.185287499999994,
        "end_tick": 6917,
        "end_time": 57.259790624999994,
        "length_ticks": 9,
        "length_time": 0.07450312499999967,
        "note": 62,
        "velocity": 127,
        "slice": 357,
        "channel": 2
      },
      {
        "start_tick": 6908,
        "start_time": 57.185287499999994,
        "end_tick": 6919,
        "end_time": 57.276346875,
        "length_ticks": 11,
        "length_time": 0.09105937500000749,
        "note": 45,
        "velocity": 127,
        "slice": 357,
        "channel": 3
      }
    ],
    "6909": [
      {
        "start_tick": 6909,
        "start_time": 57.193565625,
        "end_tick": 6920,
        "end_time": 57.284625,
        "length_ticks": 11,
        "length_time": 0.09105937500000039,
        "note": 45,
        "velocity": 127,
        "slice": 357,
        "channel": 4
      }
    ],
    "6924": [
      {
        "start_tick": 6924,
        "start_time": 57.31773749999999,
        "end_tick": 6943,
        "end_time": 57.475021875,
        "length_ticks": 19,
        "length_time": 0.15728437500001036,
        "note": 64,
        "velocity": 127,
        "slice": 358,
        "channel": 2
      },
      {
        "start_tick": 6924,
        "start_time": 57.31773749999999,
        "end_tick": 6935,
        "end_time": 57.408796875,
        "length_ticks": 11,
        "length_time": 0.09105937500000749,
        "note": 45,
        "velocity": 127,
        "slice": 358,
        "channel": 3
      }
    ],
    "6925": [
      {
        "start_tick": 6925,
        "start_time": 57.326015625,
        "end_tick": 6936,
        "end_time": 57.417075000000004,
        "length_ticks": 11,
        "length_time": 0.09105937500000749,
        "note": 45,
        "velocity": 127,
        "slice": 358,
        "channel": 4
      }
    ],
    "6941": [
      {
        "start_tick": 6941,
        "start_time": 57.458465624999995,
        "end_tick": 6952,
        "end_time": 57.549524999999996,
        "length_ticks": 11,
        "length_time": 0.09105937500000039,
        "note": 45,
        "velocity": 127,
        "slice": 359,
        "channel": 4
      }
    ],
    "6948": [
      {
        "start_tick": 6948,
        "start_time": 57.5164125,
        "end_tick": 6955,
        "end_time": 57.574359375,
        "length_ticks": 7,
        "length_time": 0.057946874999998954,
        "note": 64,
        "velocity": 127,
        "slice": 359,
        "channel": 2
      }
    ],
    "6960": [
      {
        "start_tick": 6960,
        "start_time": 57.61575,
        "end_tick": 6967,
        "end_time": 57.673696875,
        "length_ticks": 7,
        "length_time": 0.057946874999998954,
        "note": 66,
        "velocity": 127,
        "slice": 360,
        "channel": 2
      }
    ],
    "6972": [
      {
        "start_tick": 6972,
        "start_time": 57.7150875,
        "end_tick": 7008,
        "end_time": 58.0131,
        "length_ticks": 36,
        "length_time": 0.2980124999999987,
        "note": 76,
        "velocity": 127,
        "slice": 361,
        "channel": 1
      },
      {
        "start_tick": 6972,
        "start_time": 57.7150875,
        "end_tick": 6979,
        "end_time": 57.773034375,
        "length_ticks": 7,
        "length_time": 0.057946874999998954,
        "note": 67,
        "velocity": 127,
        "slice": 361,
        "channel": 2
      },
      {
        "start_tick": 6972,
        "start_time": 57.7150875,
        "end_tick": 6983,
        "end_time": 57.806146874999996,
        "length_ticks": 11,
        "length_time": 0.09105937499999328,
        "note": 45,
        "velocity": 127,
        "slice": 361,
        "channel": 3
      }
    ],
    "6984": [
      {
        "start_tick": 6984,
        "start_time": 57.814425,
        "end_tick": 6991,
        "end_time": 57.872371875,
        "length_ticks": 7,
        "length_time": 0.057946874999998954,
        "note": 69,
        "velocity": 127,
        "slice": 361,
        "channel": 2
      }
    ],
    "6988": [
      {
        "start_tick": 6988,
        "start_time": 57.847537499999994,
        "end_tick": 6999,
        "end_time": 57.938596875,
        "length_ticks": 11,
        "length_time": 0.09105937500000749,
        "note": 45,
        "velocity": 127,
        "slice": 362,
        "channel": 3
      }
    ],
    "6989": [
      {
        "start_tick": 6989,
        "start_time": 57.855815625,
        "end_tick": 7000,
        "end_time": 57.946875,
        "length_ticks": 11,
        "length_time": 0.09105937500000039,
        "note": 45,
        "velocity": 127,
        "slice": 362,
        "channel": 4
      }
    ],
    "6996": [
      {
        "start_tick": 6996,
        "start_time": 57.9137625,
        "end_tick": 7003,
        "end_time": 57.971709374999996,
        "length_ticks": 7,
        "length_time": 0.057946874999998954,
        "note": 70,
        "velocity": 127,
        "slice": 362,
        "channel": 2
      }
    ],
    "7004": [
      {
        "start_tick": 7004,
        "start_time": 57.97998749999999,
        "end_tick": 7015,
        "end_time": 58.071046875,
        "length_ticks": 11,
        "length_time": 0.09105937500000749,
        "note": 45,
        "velocity": 127,
        "slice": 362,
        "channel": 3
      }
    ],
    "7005": [
      {
        "start_tick": 7005,
        "start_time": 57.988265625,
        "end_tick": 7016,
        "end_time": 58.079325000000004,
        "length_ticks": 11,
        "length_time": 0.09105937500000749,
        "note": 45,
        "velocity": 127,
        "slice": 362,
        "channel": 4
      }
    ],
    "7008": [
      {
        "start_tick": 7008,
        "start_time": 58.0131,
        "end_tick": 7015,
        "end_time": 58.071046875,
        "length_ticks": 7,
        "length_time": 0.057946874999998954,
        "note": 72,
        "velocity": 127,
        "slice": 363,
        "channel": 2
      }
    ],
    "7020": [
      {
        "start_tick": 7020,
        "start_time": 58.1124375,
        "end_tick": 7056,
        "end_time": 58.41045,
        "length_ticks": 36,
        "length_time": 0.2980124999999987,
        "note": 74,
        "velocity": 127,
        "slice": 363,
        "channel": 1
      },
      {
        "start_tick": 7020,
        "start_time": 58.1124375,
        "end_tick": 7068,
        "end_time": 58.509787499999995,
        "length_ticks": 48,
        "length_time": 0.3973499999999959,
        "note": 69,
        "velocity": 127,
        "slice": 363,
        "channel": 2
      },
      {
        "start_tick": 7020,
        "start_time": 58.1124375,
        "end_tick": 7031,
        "end_time": 58.20349687499999,
        "length_ticks": 11,
        "length_time": 0.09105937499999328,
        "note": 50,
        "velocity": 127,
        "slice": 363,
        "channel": 3
      }
    ],
    "7021": [
      {
        "start_tick": 7021,
        "start_time": 58.120715624999995,
        "end_tick": 7032,
        "end_time": 58.211774999999996,
        "length_ticks": 11,
        "length_time": 0.09105937500000039,
        "note": 45,
        "velocity": 127,
        "slice": 363,
        "channel": 4
      }
    ],
    "7037": [
      {
        "start_tick": 7037,
        "start_time": 58.253165625,
        "end_tick": 7048,
        "end_time": 58.344224999999994,
        "length_ticks": 11,
        "length_time": 0.09105937499999328,
        "note": 50,
        "velocity": 127,
        "slice": 364,
        "channel": 4
      }
    ],
    "7044": [
      {
        "start_tick": 7044,
        "start_time": 58.3111125,
        "end_tick": 7048,
        "end_time": 58.344224999999994,
        "length_ticks": 4,
        "length_time": 0.03311249999999433,
        "note": 62,
        "velocity": 117,
        "slice": 364,
        "channel": 5
      }
    ],
    "7052": [
      {
        "start_tick": 7052,
        "start_time": 58.3773375,
        "end_tick": 7056,
        "end_time": 58.41045,
        "length_ticks": 4,
        "length_time": 0.03311249999999433,
        "note": 62,
        "velocity": 117,
        "slice": 365,
        "channel": 5
      }
    ],
    "7060": [
      {
        "start_tick": 7060,
        "start_time": 58.44356249999999,
        "end_tick": 7064,
        "end_time": 58.476675,
        "length_ticks": 4,
        "length_time": 0.03311250000000854,
        "note": 62,
        "velocity": 117,
        "slice": 365,
        "channel": 5
      }
    ],
    "7068": [
      {
        "start_tick": 7068,
        "start_time": 58.509787499999995,
        "end_tick": 7079,
        "end_time": 58.600846874999995,
        "length_ticks": 11,
        "length_time": 0.09105937500000039,
        "note": 55,
        "velocity": 127,
        "slice": 366,
        "channel": 3
      },
      {
        "start_tick": 7068,
        "start_time": 58.509787499999995,
        "end_tick": 7081,
        "end_time": 58.617403125,
        "length_ticks": 13,
        "length_time": 0.10761562500000821,
        "note": 60,
        "velocity": 117,
        "slice": 366,
        "channel": 5
      },
      {
        "start_tick": 7068,
        "start_time": 58.509787499999995,
        "end_tick": 7080,
        "end_time": 58.609125,
        "length_ticks": 12,
        "length_time": 0.0993375000000043,
        "note": 64,
        "velocity": 117,
        "slice": 366,
        "channel": 6
      }
    ],
    "7084": [
      {
        "start_tick": 7084,
        "start_time": 58.64223749999999,
        "end_tick": 7095,
        "end_time": 58.733296875,
        "length_ticks": 11,
        "length_time": 0.09105937500000749,
        "note": 55,
        "velocity": 127,
        "slice": 367,
        "channel": 3
      },
      {
        "start_tick": 7084,
        "start_time": 58.64223749999999,
        "end_tick": 7097,
        "end_time": 58.749853124999994,
        "length_ticks": 13,
        "length_time": 0.1076156250000011,
        "note": 60,
        "velocity": 117,
        "slice": 367,
        "channel": 5
      },
      {
        "start_tick": 7084,
        "start_time": 58.64223749999999,
        "end_tick": 7096,
        "end_time": 58.74157499999999,
        "length_ticks": 12,
        "length_time": 0.09933749999999719,
        "note": 64,
        "velocity": 117,
        "slice": 367,
        "channel": 6
      }
    ],
    "7085": [
      {
        "start_tick": 7085,
        "start_time": 58.650515625,
        "end_tick": 7096,
        "end_time": 58.74157499999999,
        "length_ticks": 11,
        "length_time": 0.09105937499999328,
        "note": 55,
        "velocity": 127,
        "slice": 367,
        "channel": 4
      }
    ],
    "7100": [
      {
        "start_tick": 7100,
        "start_time": 58.7746875,
        "end_tick": 7111,
        "end_time": 58.86574687499999,
        "length_ticks": 11,
        "length_time": 0.09105937499999328,
        "note": 55,
        "velocity": 127,
        "slice": 367,
        "channel": 3
      },
      {
        "start_tick": 7100,
        "start_time": 58.7746875,
        "end_tick": 7113,
        "end_time": 58.88230312499999,
        "length_ticks": 13,
        "length_time": 0.107615624999994,
        "note": 60,
        "velocity": 117,
        "slice": 367,
        "channel": 5
      },
      {
        "start_tick": 7100,
        "start_time": 58.7746875,
        "end_tick": 7112,
        "end_time": 58.874024999999996,
        "length_ticks": 12,
        "length_time": 0.09933749999999719,
        "note": 64,
        "velocity": 117,
        "slice": 367,
        "channel": 6
      }
    ],
    "7101": [
      {
        "start_tick": 7101,
        "start_time": 58.782965624999996,
        "end_tick": 7112,
        "end_time": 58.874024999999996,
        "length_ticks": 11,
        "length_time": 0.09105937500000039,
        "note": 55,
        "velocity": 127,
        "slice": 367,
        "channel": 4
      }
    ],
    "7116": [
      {
        "start_tick": 7116,
        "start_time": 58.9071375,
        "end_tick": 7149,
        "end_time": 59.180315625,
        "length_ticks": 33,
        "length_time": 0.27317812500000116,
        "note": 57,
        "velocity": 127,
        "slice": 368,
        "channel": 3
      },
      {
        "start_tick": 7116,
        "start_time": 58.9071375,
        "end_tick": 7156,
        "end_time": 59.2382625,
        "length_ticks": 40,
        "length_time": 0.3311250000000001,
        "note": 62,
        "velocity": 117,
        "slice": 368,
        "channel": 5
      },
      {
        "start_tick": 7116,
        "start_time": 58.9071375,
        "end_tick": 7156,
        "end_time": 59.2382625,
        "length_ticks": 40,
        "length_time": 0.3311250000000001,
        "note": 66,
        "velocity": 117,
        "slice": 368,
        "channel": 6
      }
    ],
    "7117": [
      {
        "start_tick": 7117,
        "start_time": 58.915415625,
        "end_tick": 7128,
        "end_time": 59.006474999999995,
        "length_ticks": 11,
        "length_time": 0.09105937499999328,
        "note": 55,
        "velocity": 127,
        "slice": 368,
        "channel": 4
      }
    ],
    "7133": [
      {
        "start_tick": 7133,
        "start_time": 59.04786562499999,
        "end_tick": 7166,
        "end_time": 59.32104375,
        "length_ticks": 33,
        "length_time": 0.27317812500000827,
        "note": 57,
        "velocity": 127,
        "slice": 369,
        "channel": 4
      }
    ],
    "7164": [
      {
        "start_tick": 7164,
        "start_time": 59.30448749999999,
        "end_tick": 7180,
        "end_time": 59.4369375,
        "length_ticks": 16,
        "length_time": 0.13245000000000573,
        "note": 40,
        "velocity": 127,
        "slice": 371,
        "channel": 3
      }
    ],
    "7181": [
      {
        "start_tick": 7181,
        "start_time": 59.445215624999996,
        "end_tick": 7197,
        "end_time": 59.577665625,
        "length_ticks": 16,
        "length_time": 0.13245000000000573,
        "note": 40,
        "velocity": 127,
        "slice": 372,
        "channel": 4
      }
    ],
    "7188": [
      {
        "start_tick": 7188,
        "start_time": 59.503162499999995,
        "end_tick": 7204,
        "end_time": 59.6356125,
        "length_ticks": 16,
        "length_time": 0.13245000000000573,
        "note": 42,
        "velocity": 127,
        "slice": 372,
        "channel": 3
      }
    ],
    "7205": [
      {
        "start_tick": 7205,
        "start_time": 59.64389062499999,
        "end_tick": 7221,
        "end_time": 59.776340624999996,
        "length_ticks": 16,
        "length_time": 0.13245000000000573,
        "note": 42,
        "velocity": 127,
        "slice": 373,
        "channel": 4
      }
    ],
    "7212": [
      {
        "start_tick": 7212,
        "start_time": 59.7018375,
        "end_tick": 7238,
        "end_time": 59.91706875,
        "length_ticks": 26,
        "length_time": 0.2152312499999951,
        "note": 67,
        "velocity": 127,
        "slice": 373,
        "channel": 1
      },
      {
        "start_tick": 7212,
        "start_time": 59.7018375,
        "end_tick": 7232,
        "end_time": 59.867399999999996,
        "length_ticks": 20,
        "length_time": 0.16556249999999295,
        "note": 59,
        "velocity": 127,
        "slice": 373,
        "channel": 2
      },
      {
        "start_tick": 7212,
        "start_time": 59.7018375,
        "end_tick": 7223,
        "end_time": 59.792896875,
        "length_ticks": 11,
        "length_time": 0.09105937499999328,
        "note": 43,
        "velocity": 127,
        "slice": 373,
        "channel": 3
      }
    ],
    "7229": [
      {
        "start_tick": 7229,
        "start_time": 59.842565625,
        "end_tick": 7240,
        "end_time": 59.933625,
        "length_ticks": 11,
        "length_time": 0.09105937500000039,
        "note": 43,
        "velocity": 127,
        "slice": 374,
        "channel": 4
      }
    ],
    "7260": [
      {
        "start_tick": 7260,
        "start_time": 60.0991875,
        "end_tick": 7312,
        "end_time": 60.52965,
        "length_ticks": 52,
        "length_time": 0.4304624999999973,
        "note": 62,
        "velocity": 127,
        "slice": 376,
        "channel": 1
      },
      {
        "start_tick": 7260,
        "start_time": 60.0991875,
        "end_tick": 7270,
        "end_time": 60.18196875,
        "length_ticks": 10,
        "length_time": 0.08278125000000358,
        "note": 60,
        "velocity": 127,
        "slice": 376,
        "channel": 2
      },
      {
        "start_tick": 7260,
        "start_time": 60.0991875,
        "end_tick": 7271,
        "end_time": 60.19024687499999,
        "length_ticks": 11,
        "length_time": 0.09105937499999328,
        "note": 43,
        "velocity": 127,
        "slice": 376,
        "channel": 3
      }
    ],
    "7276": [
      {
        "start_tick": 7276,
        "start_time": 60.2316375,
        "end_tick": 7286,
        "end_time": 60.314418749999994,
        "length_ticks": 10,
        "length_time": 0.08278124999999648,
        "note": 59,
        "velocity": 127,
        "slice": 376,
        "channel": 2
      },
      {
        "start_tick": 7276,
        "start_time": 60.2316375,
        "end_tick": 7287,
        "end_time": 60.322696875,
        "length_ticks": 11,
        "length_time": 0.09105937500000039,
        "note": 43,
        "velocity": 127,
        "slice": 376,
        "channel": 3
      }
    ],
    "7277": [
      {
        "start_tick": 7277,
        "start_time": 60.239915625,
        "end_tick": 7288,
        "end_time": 60.330974999999995,
        "length_ticks": 11,
        "length_time": 0.09105937499999328,
        "note": 43,
        "velocity": 127,
        "slice": 376,
        "channel": 4
      }
    ],
    "7292": [
      {
        "start_tick": 7292,
        "start_time": 60.364087500000004,
        "end_tick": 7302,
        "end_time": 60.44686874999999,
        "length_ticks": 10,
        "length_time": 0.08278124999998937,
        "note": 57,
        "velocity": 127,
        "slice": 377,
        "channel": 2
      },
      {
        "start_tick": 7292,
        "start_time": 60.364087500000004,
        "end_tick": 7303,
        "end_time": 60.455146875,
        "length_ticks": 11,
        "length_time": 0.09105937499999328,
        "note": 41,
        "velocity": 127,
        "slice": 377,
        "channel": 3
      }
    ],
    "7293": [
      {
        "start_tick": 7293,
        "start_time": 60.37236562499999,
        "end_tick": 7304,
        "end_time": 60.463425,
        "length_ticks": 11,
        "length_time": 0.09105937500000749,
        "note": 43,
        "velocity": 127,
        "slice": 377,
        "channel": 4
      }
    ],
    "7308": [
      {
        "start_tick": 7308,
        "start_time": 60.496537499999995,
        "end_tick": 7328,
        "end_time": 60.6621,
        "length_ticks": 20,
        "length_time": 0.16556250000000716,
        "note": 59,
        "velocity": 127,
        "slice": 378,
        "channel": 2
      },
      {
        "start_tick": 7308,
        "start_time": 60.496537499999995,
        "end_tick": 7319,
        "end_time": 60.587596874999996,
        "length_ticks": 11,
        "length_time": 0.09105937500000039,
        "note": 43,
        "velocity": 127,
        "slice": 378,
        "channel": 3
      }
    ],
    "7309": [
      {
        "start_tick": 7309,
        "start_time": 60.504815625,
        "end_tick": 7320,
        "end_time": 60.595875,
        "length_ticks": 11,
        "length_time": 0.09105937500000039,
        "note": 41,
        "velocity": 127,
        "slice": 378,
        "channel": 4
      }
    ],
    "7325": [
      {
        "start_tick": 7325,
        "start_time": 60.637265625,
        "end_tick": 7336,
        "end_time": 60.72832499999999,
        "length_ticks": 11,
        "length_time": 0.09105937499999328,
        "note": 43,
        "velocity": 127,
        "slice": 379,
        "channel": 4
      }
    ],
    "7344": [
      {
        "start_tick": 7344,
        "start_time": 60.794549999999994,
        "end_tick": 7354,
        "end_time": 60.87733125,
        "length_ticks": 10,
        "length_time": 0.08278125000000358,
        "note": 67,
        "velocity": 127,
        "slice": 380,
        "channel": 1
      },
      {
        "start_tick": 7344,
        "start_time": 60.794549999999994,
        "end_tick": 7352,
        "end_time": 60.860775,
        "length_ticks": 8,
        "length_time": 0.06622500000000286,
        "note": 59,
        "velocity": 127,
        "slice": 380,
        "channel": 2
      }
    ],
    "7356": [
      {
        "start_tick": 7356,
        "start_time": 60.8938875,
        "end_tick": 7366,
        "end_time": 60.976668749999995,
        "length_ticks": 10,
        "length_time": 0.08278124999999648,
        "note": 67,
        "velocity": 127,
        "slice": 381,
        "channel": 1
      },
      {
        "start_tick": 7356,
        "start_time": 60.8938875,
        "end_tick": 7364,
        "end_time": 60.9601125,
        "length_ticks": 8,
        "length_time": 0.06622500000000286,
        "note": 59,
        "velocity": 127,
        "slice": 381,
        "channel": 2
      },
      {
        "start_tick": 7356,
        "start_time": 60.8938875,
        "end_tick": 7367,
        "end_time": 60.984946875,
        "length_ticks": 11,
        "length_time": 0.09105937500000039,
        "note": 43,
        "velocity": 127,
        "slice": 381,
        "channel": 3
      }
    ],
    "7368": [
      {
        "start_tick": 7368,
        "start_time": 60.993224999999995,
        "end_tick": 7378,
        "end_time": 61.07600625,
        "length_ticks": 10,
        "length_time": 0.08278125000000358,
        "note": 69,
        "velocity": 127,
        "slice": 381,
        "channel": 1
      },
      {
        "start_tick": 7368,
        "start_time": 60.993224999999995,
        "end_tick": 7376,
        "end_time": 61.05945,
        "length_ticks": 8,
        "length_time": 0.06622500000000286,
        "note": 60,
        "velocity": 127,
        "slice": 381,
        "channel": 2
      }
    ],
    "7373": [
      {
        "start_tick": 7373,
        "start_time": 61.034615624999994,
        "end_tick": 7384,
        "end_time": 61.125675,
        "length_ticks": 11,
        "length_time": 0.09105937500000749,
        "note": 43,
        "velocity": 127,
        "slice": 381,
        "channel": 4
      }
    ],
    "7380": [
      {
        "start_tick": 7380,
        "start_time": 61.09256249999999,
        "end_tick": 7390,
        "end_time": 61.175343749999996,
        "length_ticks": 10,
        "length_time": 0.08278125000000358,
        "note": 71,
        "velocity": 127,
        "slice": 382,
        "channel": 1
      },
      {
        "start_tick": 7380,
        "start_time": 61.09256249999999,
        "end_tick": 7388,
        "end_time": 61.158787499999995,
        "length_ticks": 8,
        "length_time": 0.06622500000000286,
        "note": 62,
        "velocity": 127,
        "slice": 382,
        "channel": 2
      }
    ],
    "7392": [
      {
        "start_tick": 7392,
        "start_time": 61.1919,
        "end_tick": 7402,
        "end_time": 61.27468124999999,
        "length_ticks": 10,
        "length_time": 0.08278124999999648,
        "note": 72,
        "velocity": 127,
        "slice": 382,
        "channel": 1
      },
      {
        "start_tick": 7392,
        "start_time": 61.1919,
        "end_tick": 7400,
        "end_time": 61.258125,
        "length_ticks": 8,
        "length_time": 0.06622500000000286,
        "note": 64,
        "velocity": 127,
        "slice": 382,
        "channel": 2
      }
    ],
    "7404": [
      {
        "start_tick": 7404,
        "start_time": 61.291237499999994,
        "end_tick": 7484,
        "end_time": 61.953487499999994,
        "length_ticks": 80,
        "length_time": 0.6622500000000002,
        "note": 74,
        "velocity": 127,
        "slice": 383,
        "channel": 1
      },
      {
        "start_tick": 7404,
        "start_time": 61.291237499999994,
        "end_tick": 7427,
        "end_time": 61.481634375,
        "length_ticks": 23,
        "length_time": 0.19039687500000468,
        "note": 65,
        "velocity": 127,
        "slice": 383,
        "channel": 2
      },
      {
        "start_tick": 7404,
        "start_time": 61.291237499999994,
        "end_tick": 7415,
        "end_time": 61.382296875,
        "length_ticks": 11,
        "length_time": 0.09105937500000749,
        "note": 41,
        "velocity": 127,
        "slice": 383,
        "channel": 3
      }
    ],
    "7421": [
      {
        "start_tick": 7421,
        "start_time": 61.431965625,
        "end_tick": 7432,
        "end_time": 61.523025,
        "length_ticks": 11,
        "length_time": 0.09105937500000039,
        "note": 41,
        "velocity": 127,
        "slice": 384,
        "channel": 4
      }
    ],
    "7440": [
      {
        "start_tick": 7440,
        "start_time": 61.58924999999999,
        "end_tick": 7448,
        "end_time": 61.655474999999996,
        "length_ticks": 8,
        "length_time": 0.06622500000000286,
        "note": 67,
        "velocity": 127,
        "slice": 385,
        "channel": 2
      }
    ],
    "7452": [
      {
        "start_tick": 7452,
        "start_time": 61.688587500000004,
        "end_tick": 7460,
        "end_time": 61.75481249999999,
        "length_ticks": 8,
        "length_time": 0.06622499999998865,
        "note": 67,
        "velocity": 127,
        "slice": 386,
        "channel": 2
      },
      {
        "start_tick": 7452,
        "start_time": 61.688587500000004,
        "end_tick": 7463,
        "end_time": 61.779646875,
        "length_ticks": 11,
        "length_time": 0.09105937499999328,
        "note": 41,
        "velocity": 127,
        "slice": 386,
        "channel": 3
      }
    ],
    "7464": [
      {
        "start_tick": 7464,
        "start_time": 61.787925,
        "end_tick": 7472,
        "end_time": 61.85415,
        "length_ticks": 8,
        "length_time": 0.06622499999999576,
        "note": 69,
        "velocity": 127,
        "slice": 386,
        "channel": 2
      }
    ],
    "7468": [
      {
        "start_tick": 7468,
        "start_time": 61.821037499999996,
        "end_tick": 7479,
        "end_time": 61.912096874999996,
        "length_ticks": 11,
        "length_time": 0.09105937500000039,
        "note": 41,
        "velocity": 127,
        "slice": 386,
        "channel": 3
      }
    ],
    "7469": [
      {
        "start_tick": 7469,
        "start_time": 61.82931562499999,
        "end_tick": 7480,
        "end_time": 61.920375,
        "length_ticks": 11,
        "length_time": 0.09105937500000749,
        "note": 41,
        "velocity": 127,
        "slice": 386,
        "channel": 4
      }
    ],
    "7476": [
      {
        "start_tick": 7476,
        "start_time": 61.8872625,
        "end_tick": 7484,
        "end_time": 61.953487499999994,
        "length_ticks": 8,
        "length_time": 0.06622499999999576,
        "note": 71,
        "velocity": 127,
        "slice": 387,
        "channel": 2
      }
    ],
    "7484": [
      {
        "start_tick": 7484,
        "start_time": 61.953487499999994,
        "end_tick": 7495,
        "end_time": 62.044546875,
        "length_ticks": 11,
        "length_time": 0.09105937500000749,
        "note": 39,
        "velocity": 127,
        "slice": 387,
        "channel": 3
      }
    ],
    "7485": [
      {
        "start_tick": 7485,
        "start_time": 61.961765625,
        "end_tick": 7496,
        "end_time": 62.05282499999999,
        "length_ticks": 11,
        "length_time": 0.09105937499999328,
        "note": 41,
        "velocity": 127,
        "slice": 387,
        "channel": 4
      }
    ],
    "7488": [
      {
        "start_tick": 7488,
        "start_time": 61.9866,
        "end_tick": 7496,
        "end_time": 62.05282499999999,
        "length_ticks": 8,
        "length_time": 0.06622499999998865,
        "note": 72,
        "velocity": 127,
        "slice": 387,
        "channel": 2
      }
    ],
    "7500": [
      {
        "start_tick": 7500,
        "start_time": 62.0859375,
        "end_tick": 7516,
        "end_time": 62.2183875,
        "length_ticks": 16,
        "length_time": 0.13244999999999862,
        "note": 74,
        "velocity": 127,
        "slice": 388,
        "channel": 2
      },
      {
        "start_tick": 7500,
        "start_time": 62.0859375,
        "end_tick": 7511,
        "end_time": 62.17699687499999,
        "length_ticks": 11,
        "length_time": 0.09105937499999328,
        "note": 41,
        "velocity": 127,
        "slice": 388,
        "channel": 3
      }
    ],
    "7501": [
      {
        "start_tick": 7501,
        "start_time": 62.094215625,
        "end_tick": 7512,
        "end_time": 62.185275,
        "length_ticks": 11,
        "length_time": 0.09105937500000039,
        "note": 39,
        "velocity": 127,
        "slice": 388,
        "channel": 4
      }
    ],
    "7517": [
      {
        "start_tick": 7517,
        "start_time": 62.226665625,
        "end_tick": 7528,
        "end_time": 62.317724999999996,
        "length_ticks": 11,
        "length_time": 0.09105937499999328,
        "note": 41,
        "velocity": 127,
        "slice": 389,
        "channel": 4
      }
    ],
    "7532": [
      {
        "start_tick": 7532,
        "start_time": 62.35083749999999,
        "end_tick": 7545,
        "end_time": 62.458453125,
        "length_ticks": 13,
        "length_time": 0.10761562500000821,
        "note": 74,
        "velocity": 127,
        "slice": 390,
        "channel": 1
      },
      {
        "start_tick": 7532,
        "start_time": 62.35083749999999,
        "end_tick": 7542,
        "end_time": 62.433618749999994,
        "length_ticks": 10,
        "length_time": 0.08278125000000358,
        "note": 65,
        "velocity": 127,
        "slice": 390,
        "channel": 2
      }
    ],
    "7548": [
      {
        "start_tick": 7548,
        "start_time": 62.483287499999996,
        "end_tick": 7561,
        "end_time": 62.590903125000004,
        "length_ticks": 13,
        "length_time": 0.10761562500000821,
        "note": 74,
        "velocity": 127,
        "slice": 391,
        "channel": 1
      },
      {
        "start_tick": 7548,
        "start_time": 62.483287499999996,
        "end_tick": 7558,
        "end_time": 62.56606875,
        "length_ticks": 10,
        "length_time": 0.08278125000000358,
        "note": 65,
        "velocity": 127,
        "slice": 391,
        "channel": 2
      },
      {
        "start_tick": 7548,
        "start_time": 62.483287499999996,
        "end_tick": 7559,
        "end_time": 62.574346874999996,
        "length_ticks": 11,
        "length_time": 0.09105937500000039,
        "note": 41,
        "velocity": 127,
        "slice": 391,
        "channel": 3
      }
    ],
    "7564": [
      {
        "start_tick": 7564,
        "start_time": 62.615737499999994,
        "end_tick": 7577,
        "end_time": 62.723353124999996,
        "length_ticks": 13,
        "length_time": 0.1076156250000011,
        "note": 75,
        "velocity": 127,
        "slice": 391,
        "channel": 1
      },
      {
        "start_tick": 7564,
        "start_time": 62.615737499999994,
        "end_tick": 7574,
        "end_time": 62.69851875,
        "length_ticks": 10,
        "length_time": 0.08278125000000358,
        "note": 67,
        "velocity": 127,
        "slice": 391,
        "channel": 2
      }
    ],
    "7565": [
      {
        "start_tick": 7565,
        "start_time": 62.624015625,
        "end_tick": 7576,
        "end_time": 62.71507499999999,
        "length_ticks": 11,
        "length_time": 0.09105937499999328,
        "note": 41,
        "velocity": 127,
        "slice": 391,
        "channel": 4
      }
    ],
    "7580": [
      {
        "start_tick": 7580,
        "start_time": 62.7481875,
        "end_tick": 7593,
        "end_time": 62.855803124999994,
        "length_ticks": 13,
        "length_time": 0.107615624999994,
        "note": 77,
        "velocity": 127,
        "slice": 392,
        "channel": 1
      },
      {
        "start_tick": 7580,
        "start_time": 62.7481875,
        "end_tick": 7590,
        "end_time": 62.830968750000004,
        "length_ticks": 10,
        "length_time": 0.08278125000000358,
        "note": 69,
        "velocity": 127,
        "slice": 392,
        "channel": 2
      }
    ],
    "7596": [
      {
        "start_tick": 7596,
        "start_time": 62.8806375,
        "end_tick": 7676,
        "end_time": 63.5428875,
        "length_ticks": 80,
        "length_time": 0.6622500000000002,
        "note": 79,
        "velocity": 127,
        "slice": 393,
        "channel": 1
      },
      {
        "start_tick": 7596,
        "start_time": 62.8806375,
        "end_tick": 7617,
        "end_time": 63.054478124999996,
        "length_ticks": 21,
        "length_time": 0.17384062499999686,
        "note": 70,
        "velocity": 127,
        "slice": 393,
        "channel": 2
      },
      {
        "start_tick": 7596,
        "start_time": 62.8806375,
        "end_tick": 7607,
        "end_time": 62.971696875,
        "length_ticks": 11,
        "length_time": 0.09105937500000039,
        "note": 39,
        "velocity": 127,
        "slice": 393,
        "channel": 3
      }
    ],
    "7613": [
      {
        "start_tick": 7613,
        "start_time": 63.021365624999994,
        "end_tick": 7624,
        "end_time": 63.112424999999995,
        "length_ticks": 11,
        "length_time": 0.09105937500000039,
        "note": 39,
        "velocity": 127,
        "slice": 394,
        "channel": 4
      }
    ],
    "7632": [
      {
        "start_tick": 7632,
        "start_time": 63.17865,
        "end_tick": 7640,
        "end_time": 63.244875,
        "length_ticks": 8,
        "length_time": 0.06622500000000286,
        "note": 63,
        "velocity": 127,
        "slice": 395,
        "channel": 2
      }
    ],
    "7644": [
      {
        "start_tick": 7644,
        "start_time": 63.277987499999995,
        "end_tick": 7652,
        "end_time": 63.3442125,
        "length_ticks": 8,
        "length_time": 0.06622500000000286,
        "note": 63,
        "velocity": 127,
        "slice": 395,
        "channel": 2
      },
      {
        "start_tick": 7644,
        "start_time": 63.277987499999995,
        "end_tick": 7655,
        "end_time": 63.369046875,
        "length_ticks": 11,
        "length_time": 0.09105937500000749,
        "note": 39,
        "velocity": 127,
        "slice": 395,
        "channel": 3
      }
    ],
    "7656": [
      {
        "start_tick": 7656,
        "start_time": 63.37732499999999,
        "end_tick": 7664,
        "end_time": 63.443549999999995,
        "length_ticks": 8,
        "length_time": 0.06622500000000286,
        "note": 65,
        "velocity": 127,
        "slice": 396,
        "channel": 2
      }
    ],
    "7660": [
      {
        "start_tick": 7660,
        "start_time": 63.4104375,
        "end_tick": 7671,
        "end_time": 63.501496874999994,
        "length_ticks": 11,
        "length_time": 0.09105937499999328,
        "note": 39,
        "velocity": 127,
        "slice": 396,
        "channel": 3
      }
    ],
    "7661": [
      {
        "start_tick": 7661,
        "start_time": 63.418715625,
        "end_tick": 7672,
        "end_time": 63.509775,
        "length_ticks": 11,
        "length_time": 0.09105937500000039,
        "note": 39,
        "velocity": 127,
        "slice": 396,
        "channel": 4
      }
    ],
    "7668": [
      {
        "start_tick": 7668,
        "start_time": 63.476662499999996,
        "end_tick": 7676,
        "end_time": 63.5428875,
        "length_ticks": 8,
        "length_time": 0.06622500000000286,
        "note": 67,
        "velocity": 127,
        "slice": 397,
        "channel": 2
      }
    ],
    "7676": [
      {
        "start_tick": 7676,
        "start_time": 63.5428875,
        "end_tick": 7687,
        "end_time": 63.63394687499999,
        "length_ticks": 11,
        "length_time": 0.09105937499999328,
        "note": 38,
        "velocity": 127,
        "slice": 397,
        "channel": 3
      }
    ],
    "7677": [
      {
        "start_tick": 7677,
        "start_time": 63.551165625,
        "end_tick": 7688,
        "end_time": 63.642224999999996,
        "length_ticks": 11,
        "length_time": 0.09105937499999328,
        "note": 39,
        "velocity": 127,
        "slice": 397,
        "channel": 4
      }
    ],
    "7680": [
      {
        "start_tick": 7680,
        "start_time": 63.57599999999999,
        "end_tick": 7688,
        "end_time": 63.642224999999996,
        "length_ticks": 8,
        "length_time": 0.06622500000000286,
        "note": 69,
        "velocity": 127,
        "slice": 397,
        "channel": 2
      }
    ],
    "7692": [
      {
        "start_tick": 7692,
        "start_time": 63.67533749999999,
        "end_tick": 7702,
        "end_time": 63.758118749999994,
        "length_ticks": 10,
        "length_time": 0.08278125000000358,
        "note": 70,
        "velocity": 127,
        "slice": 398,
        "channel": 2
      },
      {
        "start_tick": 7692,
        "start_time": 63.67533749999999,
        "end_tick": 7703,
        "end_time": 63.766396875,
        "length_ticks": 11,
        "length_time": 0.09105937500000749,
        "note": 39,
        "velocity": 127,
        "slice": 398,
        "channel": 3
      }
    ],
    "7693": [
      {
        "start_tick": 7693,
        "start_time": 63.683615624999995,
        "end_tick": 7704,
        "end_time": 63.774674999999995,
        "length_ticks": 11,
        "length_time": 0.09105937500000039,
        "note": 38,
        "velocity": 127,
        "slice": 398,
        "channel": 4
      }
    ],
    "7709": [
      {
        "start_tick": 7709,
        "start_time": 63.81606562499999,
        "end_tick": 7720,
        "end_time": 63.907125,
        "length_ticks": 11,
        "length_time": 0.09105937500000749,
        "note": 39,
        "velocity": 127,
        "slice": 399,
        "channel": 4
      }
    ],
    "7724": [
      {
        "start_tick": 7724,
        "start_time": 63.940237499999995,
        "end_tick": 7737,
        "end_time": 64.047853125,
        "length_ticks": 13,
        "length_time": 0.10761562500000821,
        "note": 79,
        "velocity": 127,
        "slice": 400,
        "channel": 1
      },
      {
        "start_tick": 7724,
        "start_time": 63.940237499999995,
        "end_tick": 7734,
        "end_time": 64.02301874999999,
        "length_ticks": 10,
        "length_time": 0.08278124999999648,
        "note": 70,
        "velocity": 127,
        "slice": 400,
        "channel": 2
      }
    ],
    "7740": [
      {
        "start_tick": 7740,
        "start_time": 64.0726875,
        "end_tick": 7753,
        "end_time": 64.180303125,
        "length_ticks": 13,
        "length_time": 0.107615624999994,
        "note": 79,
        "velocity": 127,
        "slice": 400,
        "channel": 1
      },
      {
        "start_tick": 7740,
        "start_time": 64.0726875,
        "end_tick": 7750,
        "end_time": 64.15546875,
        "length_ticks": 10,
        "length_time": 0.08278124999999648,
        "note": 70,
        "velocity": 127,
        "slice": 400,
        "channel": 2
      },
      {
        "start_tick": 7740,
        "start_time": 64.0726875,
        "end_tick": 7751,
        "end_time": 64.163746875,
        "length_ticks": 11,
        "length_time": 0.09105937500000039,
        "note": 39,
        "velocity": 127,
        "slice": 400,
        "channel": 3
      }
    ],
    "7756": [
      {
        "start_tick": 7756,
        "start_time": 64.20513749999999,
        "end_tick": 7769,
        "end_time": 64.312753125,
        "length_ticks": 13,
        "length_time": 0.10761562500000821,
        "note": 77,
        "velocity": 127,
        "slice": 401,
        "channel": 1
      },
      {
        "start_tick": 7756,
        "start_time": 64.20513749999999,
        "end_tick": 7766,
        "end_time": 64.28791875,
        "length_ticks": 10,
        "length_time": 0.08278125000001069,
        "note": 69,
        "velocity": 127,
        "slice": 401,
        "channel": 2
      }
    ],
    "7757": [
      {
        "start_tick": 7757,
        "start_time": 64.213415625,
        "end_tick": 7768,
        "end_time": 64.304475,
        "length_ticks": 11,
        "length_time": 0.09105937500000039,
        "note": 39,
        "velocity": 127,
        "slice": 401,
        "channel": 4
      }
    ],
    "7772": [
      {
        "start_tick": 7772,
        "start_time": 64.3375875,
        "end_tick": 7785,
        "end_time": 64.44520312499999,
        "length_ticks": 13,
        "length_time": 0.107615624999994,
        "note": 75,
        "velocity": 127,
        "slice": 402,
        "channel": 1
      },
      {
        "start_tick": 7772,
        "start_time": 64.3375875,
        "end_tick": 7782,
        "end_time": 64.42036875,
        "length_ticks": 10,
        "length_time": 0.08278124999999648,
        "note": 67,
        "velocity": 127,
        "slice": 402,
        "channel": 2
      }
    ],
    "7788": [
      {
        "start_tick": 7788,
        "start_time": 64.4700375,
        "end_tick": 7801,
        "end_time": 64.577653125,
        "length_ticks": 13,
        "length_time": 0.107615624999994,
        "note": 77,
        "velocity": 127,
        "slice": 403,
        "channel": 1
      },
      {
        "start_tick": 7788,
        "start_time": 64.4700375,
        "end_tick": 7798,
        "end_time": 64.55281875,
        "length_ticks": 10,
        "length_time": 0.08278124999999648,
        "note": 70,
        "velocity": 127,
        "slice": 403,
        "channel": 2
      },
      {
        "start_tick": 7788,
        "start_time": 64.4700375,
        "end_tick": 7799,
        "end_time": 64.56109687499999,
        "length_ticks": 11,
        "length_time": 0.09105937499998618,
        "note": 46,
        "velocity": 127,
        "slice": 403,
        "channel": 3
      }
    ],
    "7805": [
      {
        "start_tick": 7805,
        "start_time": 64.610765625,
        "end_tick": 7816,
        "end_time": 64.701825,
        "length_ticks": 11,
        "length_time": 0.09105937500000039,
        "note": 46,
        "velocity": 127,
        "slice": 404,
        "channel": 4
      }
    ],
    "7820": [
      {
        "start_tick": 7820,
        "start_time": 64.7349375,
        "end_tick": 7833,
        "end_time": 64.842553125,
        "length_ticks": 13,
        "length_time": 0.107615624999994,
        "note": 75,
        "velocity": 127,
        "slice": 405,
        "channel": 1
      },
      {
        "start_tick": 7820,
        "start_time": 64.7349375,
        "end_tick": 7830,
        "end_time": 64.81771875,
        "length_ticks": 10,
        "length_time": 0.08278124999999648,
        "note": 65,
        "velocity": 127,
        "slice": 405,
        "channel": 2
      }
    ],
    "7836": [
      {
        "start_tick": 7836,
        "start_time": 64.86738749999999,
        "end_tick": 7888,
        "end_time": 65.29785,
        "length_ticks": 52,
        "length_time": 0.4304625000000044,
        "note": 74,
        "velocity": 127,
        "slice": 405,
        "channel": 1
      },
      {
        "start_tick": 7836,
        "start_time": 64.86738749999999,
        "end_tick": 7846,
        "end_time": 64.95016875,
        "length_ticks": 10,
        "length_time": 0.08278125000001069,
        "note": 65,
        "velocity": 127,
        "slice": 405,
        "channel": 2
      },
      {
        "start_tick": 7836,
        "start_time": 64.86738749999999,
        "end_tick": 7847,
        "end_time": 64.95844687499999,
        "length_ticks": 11,
        "length_time": 0.09105937500000039,
        "note": 46,
        "velocity": 127,
        "slice": 405,
        "channel": 3
      }
    ],
    "7852": [
      {
        "start_tick": 7852,
        "start_time": 64.9998375,
        "end_tick": 7862,
        "end_time": 65.08261875,
        "length_ticks": 10,
        "length_time": 0.08278124999999648,
        "note": 65,
        "velocity": 127,
        "slice": 406,
        "channel": 2
      },
      {
        "start_tick": 7852,
        "start_time": 64.9998375,
        "end_tick": 7863,
        "end_time": 65.090896875,
        "length_ticks": 11,
        "length_time": 0.09105937500000039,
        "note": 46,
        "velocity": 127,
        "slice": 406,
        "channel": 3
      }
    ],
    "7853": [
      {
        "start_tick": 7853,
        "start_time": 65.008115625,
        "end_tick": 7864,
        "end_time": 65.09917499999999,
        "length_ticks": 11,
        "length_time": 0.09105937499998618,
        "note": 46,
        "velocity": 127,
        "slice": 406,
        "channel": 4
      }
    ],
    "7868": [
      {
        "start_tick": 7868,
        "start_time": 65.1322875,
        "end_tick": 7878,
        "end_time": 65.21506875,
        "length_ticks": 10,
        "length_time": 0.08278124999999648,
        "note": 63,
        "velocity": 127,
        "slice": 407,
        "channel": 2
      },
      {
        "start_tick": 7868,
        "start_time": 65.1322875,
        "end_tick": 7879,
        "end_time": 65.22334687499999,
        "length_ticks": 11,
        "length_time": 0.09105937499998618,
        "note": 44,
        "velocity": 127,
        "slice": 407,
        "channel": 3
      }
    ],
    "7869": [
      {
        "start_tick": 7869,
        "start_time": 65.140565625,
        "end_tick": 7880,
        "end_time": 65.231625,
        "length_ticks": 11,
        "length_time": 0.09105937500000039,
        "note": 46,
        "velocity": 127,
        "slice": 407,
        "channel": 4
      }
    ],
    "7884": [
      {
        "start_tick": 7884,
        "start_time": 65.2647375,
        "end_tick": 7894,
        "end_time": 65.34751874999999,
        "length_ticks": 10,
        "length_time": 0.08278124999999648,
        "note": 65,
        "velocity": 127,
        "slice": 408,
        "channel": 2
      },
      {
        "start_tick": 7884,
        "start_time": 65.2647375,
        "end_tick": 7895,
        "end_time": 65.355796875,
        "length_ticks": 11,
        "length_time": 0.09105937500000039,
        "note": 46,
        "velocity": 127,
        "slice": 408,
        "channel": 3
      }
    ],
    "7885": [
      {
        "start_tick": 7885,
        "start_time": 65.273015625,
        "end_tick": 7896,
        "end_time": 65.364075,
        "length_ticks": 11,
        "length_time": 0.09105937500000039,
        "note": 44,
        "velocity": 127,
        "slice": 408,
        "channel": 4
      }
    ],
    "7901": [
      {
        "start_tick": 7901,
        "start_time": 65.40546562499999,
        "end_tick": 7912,
        "end_time": 65.496525,
        "length_ticks": 11,
        "length_time": 0.0910593750000146,
        "note": 46,
        "velocity": 127,
        "slice": 409,
        "channel": 4
      }
    ],
    "7916": [
      {
        "start_tick": 7916,
        "start_time": 65.52963749999999,
        "end_tick": 7926,
        "end_time": 65.61241875,
        "length_ticks": 10,
        "length_time": 0.08278125000001069,
        "note": 65,
        "velocity": 127,
        "slice": 410,
        "channel": 2
      }
    ],
    "7932": [
      {
        "start_tick": 7932,
        "start_time": 65.6620875,
        "end_tick": 7945,
        "end_time": 65.76970312499999,
        "length_ticks": 13,
        "length_time": 0.107615624999994,
        "note": 74,
        "velocity": 127,
        "slice": 410,
        "channel": 1
      },
      {
        "start_tick": 7932,
        "start_time": 65.6620875,
        "end_tick": 7942,
        "end_time": 65.74486875,
        "length_ticks": 10,
        "length_time": 0.08278124999999648,
        "note": 65,
        "velocity": 127,
        "slice": 410,
        "channel": 2
      },
      {
        "start_tick": 7932,
        "start_time": 65.6620875,
        "end_tick": 7943,
        "end_time": 65.753146875,
        "length_ticks": 11,
        "length_time": 0.09105937500000039,
        "note": 46,
        "velocity": 127,
        "slice": 410,
        "channel": 3
      }
    ],
    "7948": [
      {
        "start_tick": 7948,
        "start_time": 65.7945375,
        "end_tick": 7961,
        "end_time": 65.902153125,
        "length_ticks": 13,
        "length_time": 0.107615624999994,
        "note": 75,
        "velocity": 127,
        "slice": 411,
        "channel": 1
      },
      {
        "start_tick": 7948,
        "start_time": 65.7945375,
        "end_tick": 7958,
        "end_time": 65.87731875,
        "length_ticks": 10,
        "length_time": 0.08278124999999648,
        "note": 63,
        "velocity": 127,
        "slice": 411,
        "channel": 2
      }
    ],
    "7949": [
      {
        "start_tick": 7949,
        "start_time": 65.802815625,
        "end_tick": 7960,
        "end_time": 65.893875,
        "length_ticks": 11,
        "length_time": 0.09105937500000039,
        "note": 46,
        "velocity": 127,
        "slice": 411,
        "channel": 4
      }
    ],
    "7964": [
      {
        "start_tick": 7964,
        "start_time": 65.9269875,
        "end_tick": 7977,
        "end_time": 66.034603125,
        "length_ticks": 13,
        "length_time": 0.10761562500000821,
        "note": 74,
        "velocity": 127,
        "slice": 412,
        "channel": 1
      },
      {
        "start_tick": 7964,
        "start_time": 65.9269875,
        "end_tick": 7974,
        "end_time": 66.00976874999999,
        "length_ticks": 10,
        "length_time": 0.08278124999999648,
        "note": 65,
        "velocity": 127,
        "slice": 412,
        "channel": 2
      }
    ],
    "7980": [
      {
        "start_tick": 7980,
        "start_time": 66.0594375,
        "end_tick": 7999,
        "end_time": 66.216721875,
        "length_ticks": 19,
        "length_time": 0.15728437500000325,
        "note": 72,
        "velocity": 127,
        "slice": 413,
        "channel": 1
      },
      {
        "start_tick": 7980,
        "start_time": 66.0594375,
        "end_tick": 7995,
        "end_time": 66.18360937499999,
        "length_ticks": 15,
        "length_time": 0.12417187499998761,
        "note": 63,
        "velocity": 127,
        "slice": 413,
        "channel": 2
      },
      {
        "start_tick": 7980,
        "start_time": 66.0594375,
        "end_tick": 7991,
        "end_time": 66.150496875,
        "length_ticks": 11,
        "length_time": 0.09105937500000039,
        "note": 44,
        "velocity": 127,
        "slice": 413,
        "channel": 3
      }
    ],
    "7997": [
      {
        "start_tick": 7997,
        "start_time": 66.200165625,
        "end_tick": 8008,
        "end_time": 66.291225,
        "length_ticks": 11,
        "length_time": 0.09105937500000039,
        "note": 44,
        "velocity": 127,
        "slice": 414,
        "channel": 4
      }
    ],
    "8004": [
      {
        "start_tick": 8004,
        "start_time": 66.2581125,
        "end_tick": 8014,
        "end_time": 66.34089374999999,
        "length_ticks": 10,
        "length_time": 0.08278124999999648,
        "note": 72,
        "velocity": 127,
        "slice": 414,
        "channel": 1
      },
      {
        "start_tick": 8004,
        "start_time": 66.2581125,
        "end_tick": 8011,
        "end_time": 66.316059375,
        "length_ticks": 7,
        "length_time": 0.057946874999998954,
        "note": 63,
        "velocity": 127,
        "slice": 414,
        "channel": 2
      }
    ],
    "8016": [
      {
        "start_tick": 8016,
        "start_time": 66.35745,
        "end_tick": 8026,
        "end_time": 66.44023125,
        "length_ticks": 10,
        "length_time": 0.08278124999999648,
        "note": 74,
        "velocity": 127,
        "slice": 415,
        "channel": 1
      },
      {
        "start_tick": 8016,
        "start_time": 66.35745,
        "end_tick": 8023,
        "end_time": 66.415396875,
        "length_ticks": 7,
        "length_time": 0.057946874999998954,
        "note": 62,
        "velocity": 127,
        "slice": 415,
        "channel": 2
      }
    ],
    "8028": [
      {
        "start_tick": 8028,
        "start_time": 66.4567875,
        "end_tick": 8106,
        "end_time": 67.10248125,
        "length_ticks": 78,
        "length_time": 0.6456937499999924,
        "note": 75,
        "velocity": 127,
        "slice": 415,
        "channel": 1
      },
      {
        "start_tick": 8028,
        "start_time": 66.4567875,
        "end_tick": 8038,
        "end_time": 66.53956875,
        "length_ticks": 10,
        "length_time": 0.08278124999999648,
        "note": 63,
        "velocity": 127,
        "slice": 415,
        "channel": 2
      },
      {
        "start_tick": 8028,
        "start_time": 66.4567875,
        "end_tick": 8039,
        "end_time": 66.54784687499999,
        "length_ticks": 11,
        "length_time": 0.09105937499998618,
        "note": 56,
        "velocity": 127,
        "slice": 415,
        "channel": 3
      }
    ],
    "8044": [
      {
        "start_tick": 8044,
        "start_time": 66.5892375,
        "end_tick": 8054,
        "end_time": 66.67201874999999,
        "length_ticks": 10,
        "length_time": 0.08278124999999648,
        "note": 63,
        "velocity": 127,
        "slice": 416,
        "channel": 2
      },
      {
        "start_tick": 8044,
        "start_time": 66.5892375,
        "end_tick": 8055,
        "end_time": 66.680296875,
        "length_ticks": 11,
        "length_time": 0.09105937500000039,
        "note": 56,
        "velocity": 127,
        "slice": 416,
        "channel": 3
      }
    ],
    "8045": [
      {
        "start_tick": 8045,
        "start_time": 66.597515625,
        "end_tick": 8056,
        "end_time": 66.688575,
        "length_ticks": 11,
        "length_time": 0.09105937500000039,
        "note": 56,
        "velocity": 127,
        "slice": 416,
        "channel": 4
      }
    ],
    "8060": [
      {
        "start_tick": 8060,
        "start_time": 66.72168749999999,
        "end_tick": 8070,
        "end_time": 66.80446875,
        "length_ticks": 10,
        "length_time": 0.08278125000001069,
        "note": 65,
        "velocity": 127,
        "slice": 417,
        "channel": 2
      },
      {
        "start_tick": 8060,
        "start_time": 66.72168749999999,
        "end_tick": 8071,
        "end_time": 66.812746875,
        "length_ticks": 11,
        "length_time": 0.0910593750000146,
        "note": 55,
        "velocity": 127,
        "slice": 417,
        "channel": 3
      }
    ],
    "8061": [
      {
        "start_tick": 8061,
        "start_time": 66.72996562499999,
        "end_tick": 8072,
        "end_time": 66.821025,
        "length_ticks": 11,
        "length_time": 0.0910593750000146,
        "note": 56,
        "velocity": 127,
        "slice": 417,
        "channel": 4
      }
    ],
    "8076": [
      {
        "start_tick": 8076,
        "start_time": 66.8541375,
        "end_tick": 8096,
        "end_time": 67.0197,
        "length_ticks": 20,
        "length_time": 0.16556250000000716,
        "note": 67,
        "velocity": 127,
        "slice": 418,
        "channel": 2
      },
      {
        "start_tick": 8076,
        "start_time": 66.8541375,
        "end_tick": 8087,
        "end_time": 66.945196875,
        "length_ticks": 11,
        "length_time": 0.09105937500000039,
        "note": 56,
        "velocity": 127,
        "slice": 418,
        "channel": 3
      }
    ],
    "8077": [
      {
        "start_tick": 8077,
        "start_time": 66.862415625,
        "end_tick": 8088,
        "end_time": 66.953475,
        "length_ticks": 11,
        "length_time": 0.09105937500000039,
        "note": 55,
        "velocity": 127,
        "slice": 418,
        "channel": 4
      }
    ],
    "8093": [
      {
        "start_tick": 8093,
        "start_time": 66.994865625,
        "end_tick": 8104,
        "end_time": 67.08592499999999,
        "length_ticks": 11,
        "length_time": 0.09105937499998618,
        "note": 56,
        "velocity": 127,
        "slice": 419,
        "channel": 4
      }
    ],
    "8124": [
      {
        "start_tick": 8124,
        "start_time": 67.2514875,
        "end_tick": 8143,
        "end_time": 67.408771875,
        "length_ticks": 19,
        "length_time": 0.15728437500000325,
        "note": 74,
        "velocity": 127,
        "slice": 420,
        "channel": 1
      },
      {
        "start_tick": 8124,
        "start_time": 67.2514875,
        "end_tick": 8139,
        "end_time": 67.375659375,
        "length_ticks": 15,
        "length_time": 0.12417187500000182,
        "note": 65,
        "velocity": 127,
        "slice": 420,
        "channel": 2
      },
      {
        "start_tick": 8124,
        "start_time": 67.2514875,
        "end_tick": 8135,
        "end_time": 67.342546875,
        "length_ticks": 11,
        "length_time": 0.09105937500000039,
        "note": 56,
        "velocity": 127,
        "slice": 420,
        "channel": 3
      }
    ],
    "8140": [
      {
        "start_tick": 8140,
        "start_time": 67.38393749999999,
        "end_tick": 8151,
        "end_time": 67.474996875,
        "length_ticks": 11,
        "length_time": 0.0910593750000146,
        "note": 56,
        "velocity": 127,
        "slice": 421,
        "channel": 3
      }
    ],
    "8141": [
      {
        "start_tick": 8141,
        "start_time": 67.39221562499999,
        "end_tick": 8152,
        "end_time": 67.483275,
        "length_ticks": 11,
        "length_time": 0.0910593750000146,
        "note": 56,
        "velocity": 127,
        "slice": 421,
        "channel": 4
      }
    ],
    "8148": [
      {
        "start_tick": 8148,
        "start_time": 67.45016249999999,
        "end_tick": 8167,
        "end_time": 67.607446875,
        "length_ticks": 19,
        "length_time": 0.15728437500000325,
        "note": 72,
        "velocity": 127,
        "slice": 422,
        "channel": 1
      },
      {
        "start_tick": 8148,
        "start_time": 67.45016249999999,
        "end_tick": 8163,
        "end_time": 67.57433437499999,
        "length_ticks": 15,
        "length_time": 0.12417187500000182,
        "note": 63,
        "velocity": 127,
        "slice": 422,
        "channel": 2
      }
    ],
    "8156": [
      {
        "start_tick": 8156,
        "start_time": 67.5163875,
        "end_tick": 8167,
        "end_time": 67.607446875,
        "length_ticks": 11,
        "length_time": 0.09105937500000039,
        "note": 56,
        "velocity": 127,
        "slice": 422,
        "channel": 3
      }
    ],
    "8157": [
      {
        "start_tick": 8157,
        "start_time": 67.524665625,
        "end_tick": 8168,
        "end_time": 67.615725,
        "length_ticks": 11,
        "length_time": 0.09105937500000039,
        "note": 56,
        "velocity": 127,
        "slice": 422,
        "channel": 4
      }
    ],
    "8172": [
      {
        "start_tick": 8172,
        "start_time": 67.6488375,
        "end_tick": 8188,
        "end_time": 67.7812875,
        "length_ticks": 16,
        "length_time": 0.13245000000000573,
        "note": 70,
        "velocity": 127,
        "slice": 423,
        "channel": 1
      },
      {
        "start_tick": 8172,
        "start_time": 67.6488375,
        "end_tick": 8182,
        "end_time": 67.73161875,
        "length_ticks": 10,
        "length_time": 0.08278124999999648,
        "note": 62,
        "velocity": 127,
        "slice": 423,
        "channel": 2
      },
      {
        "start_tick": 8172,
        "start_time": 67.6488375,
        "end_tick": 8220,
        "end_time": 68.04618749999999,
        "length_ticks": 48,
        "length_time": 0.39734999999998877,
        "note": 55,
        "velocity": 127,
        "slice": 423,
        "channel": 3
      }
    ],
    "8173": [
      {
        "start_tick": 8173,
        "start_time": 67.657115625,
        "end_tick": 8184,
        "end_time": 67.74817499999999,
        "length_ticks": 11,
        "length_time": 0.09105937499998618,
        "note": 56,
        "velocity": 127,
        "slice": 423,
        "channel": 4
      }
    ],
    "8188": [
      {
        "start_tick": 8188,
        "start_time": 67.7812875,
        "end_tick": 8204,
        "end_time": 67.9137375,
        "length_ticks": 16,
        "length_time": 0.13244999999999152,
        "note": 69,
        "velocity": 127,
        "slice": 424,
        "channel": 1
      },
      {
        "start_tick": 8188,
        "start_time": 67.7812875,
        "end_tick": 8198,
        "end_time": 67.86406875,
        "length_ticks": 10,
        "length_time": 0.08278124999999648,
        "note": 61,
        "velocity": 127,
        "slice": 424,
        "channel": 2
      }
    ],
    "8189": [
      {
        "start_tick": 8189,
        "start_time": 67.789565625,
        "end_tick": 8237,
        "end_time": 68.186915625,
        "length_ticks": 48,
        "length_time": 0.397350000000003,
        "note": 55,
        "velocity": 127,
        "slice": 424,
        "channel": 4
      }
    ],
    "8204": [
      {
        "start_tick": 8204,
        "start_time": 67.9137375,
        "end_tick": 8220,
        "end_time": 68.04618749999999,
        "length_ticks": 16,
        "length_time": 0.13244999999999152,
        "note": 70,
        "velocity": 127,
        "slice": 424,
        "channel": 1
      },
      {
        "start_tick": 8204,
        "start_time": 67.9137375,
        "end_tick": 8214,
        "end_time": 67.99651874999999,
        "length_ticks": 10,
        "length_time": 0.08278124999999648,
        "note": 62,
        "velocity": 127,
        "slice": 424,
        "channel": 2
      }
    ],
    "8220": [
      {
        "start_tick": 8220,
        "start_time": 68.04618749999999,
        "end_tick": 8236,
        "end_time": 68.1786375,
        "length_ticks": 16,
        "length_time": 0.13245000000000573,
        "note": 72,
        "velocity": 127,
        "slice": 425,
        "channel": 1
      },
      {
        "start_tick": 8220,
        "start_time": 68.04618749999999,
        "end_tick": 8230,
        "end_time": 68.12896875,
        "length_ticks": 10,
        "length_time": 0.08278125000001069,
        "note": 66,
        "velocity": 127,
        "slice": 425,
        "channel": 2
      },
      {
        "start_tick": 8220,
        "start_time": 68.04618749999999,
        "end_tick": 8268,
        "end_time": 68.4435375,
        "length_ticks": 48,
        "length_time": 0.3973500000000172,
        "note": 54,
        "velocity": 127,
        "slice": 425,
        "channel": 3
      }
    ],
    "8236": [
      {
        "start_tick": 8236,
        "start_time": 68.1786375,
        "end_tick": 8252,
        "end_time": 68.3110875,
        "length_ticks": 16,
        "length_time": 0.13245000000000573,
        "note": 70,
        "velocity": 127,
        "slice": 426,
        "channel": 1
      },
      {
        "start_tick": 8236,
        "start_time": 68.1786375,
        "end_tick": 8246,
        "end_time": 68.26141875,
        "length_ticks": 10,
        "length_time": 0.08278125000001069,
        "note": 67,
        "velocity": 127,
        "slice": 426,
        "channel": 2
      }
    ],
    "8237": [
      {
        "start_tick": 8237,
        "start_time": 68.186915625,
        "end_tick": 8285,
        "end_time": 68.584265625,
        "length_ticks": 48,
        "length_time": 0.397350000000003,
        "note": 54,
        "velocity": 127,
        "slice": 426,
        "channel": 4
      }
    ],
    "8252": [
      {
        "start_tick": 8252,
        "start_time": 68.3110875,
        "end_tick": 8268,
        "end_time": 68.4435375,
        "length_ticks": 16,
        "length_time": 0.13245000000000573,
        "note": 72,
        "velocity": 127,
        "slice": 427,
        "channel": 1
      },
      {
        "start_tick": 8252,
        "start_time": 68.3110875,
        "end_tick": 8262,
        "end_time": 68.39386875,
        "length_ticks": 10,
        "length_time": 0.08278124999999648,
        "note": 69,
        "velocity": 127,
        "slice": 427,
        "channel": 2
      }
    ],
    "8268": [
      {
        "start_tick": 8268,
        "start_time": 68.4435375,
        "end_tick": 8281,
        "end_time": 68.551153125,
        "length_ticks": 13,
        "length_time": 0.107615624999994,
        "note": 74,
        "velocity": 127,
        "slice": 428,
        "channel": 1
      },
      {
        "start_tick": 8268,
        "start_time": 68.4435375,
        "end_tick": 8278,
        "end_time": 68.52631874999999,
        "length_ticks": 10,
        "length_time": 0.08278124999998226,
        "note": 70,
        "velocity": 127,
        "slice": 428,
        "channel": 2
      },
      {
        "start_tick": 8268,
        "start_time": 68.4435375,
        "end_tick": 8364,
        "end_time": 69.2382375,
        "length_ticks": 96,
        "length_time": 0.7946999999999917,
        "note": 53,
        "velocity": 127,
        "slice": 428,
        "channel": 3
      }
    ],
    "8285": [
      {
        "start_tick": 8285,
        "start_time": 68.584265625,
        "end_tick": 8381,
        "end_time": 69.37896562499999,
        "length_ticks": 96,
        "length_time": 0.7946999999999917,
        "note": 53,
        "velocity": 127,
        "slice": 429,
        "channel": 4
      }
    ],
    "8300": [
      {
        "start_tick": 8300,
        "start_time": 68.70843749999999,
        "end_tick": 8313,
        "end_time": 68.816053125,
        "length_ticks": 13,
        "length_time": 0.10761562500000821,
        "note": 74,
        "velocity": 127,
        "slice": 429,
        "channel": 1
      },
      {
        "start_tick": 8300,
        "start_time": 68.70843749999999,
        "end_tick": 8310,
        "end_time": 68.79121875,
        "length_ticks": 10,
        "length_time": 0.08278125000001069,
        "note": 70,
        "velocity": 127,
        "slice": 429,
        "channel": 2
      }
    ],
    "8316": [
      {
        "start_tick": 8316,
        "start_time": 68.8408875,
        "end_tick": 8329,
        "end_time": 68.94850312499999,
        "length_ticks": 13,
        "length_time": 0.107615624999994,
        "note": 74,
        "velocity": 127,
        "slice": 430,
        "channel": 1
      },
      {
        "start_tick": 8316,
        "start_time": 68.8408875,
        "end_tick": 8326,
        "end_time": 68.92366875,
        "length_ticks": 10,
        "length_time": 0.08278125000001069,
        "note": 70,
        "velocity": 127,
        "slice": 430,
        "channel": 2
      }
    ],
    "8332": [
      {
        "start_tick": 8332,
        "start_time": 68.9733375,
        "end_tick": 8345,
        "end_time": 69.080953125,
        "length_ticks": 13,
        "length_time": 0.107615624999994,
        "note": 72,
        "velocity": 127,
        "slice": 431,
        "channel": 1
      },
      {
        "start_tick": 8332,
        "start_time": 68.9733375,
        "end_tick": 8342,
        "end_time": 69.05611875,
        "length_ticks": 10,
        "length_time": 0.08278124999999648,
        "note": 69,
        "velocity": 127,
        "slice": 431,
        "channel": 2
      }
    ],
    "8348": [
      {
        "start_tick": 8348,
        "start_time": 69.1057875,
        "end_tick": 8361,
        "end_time": 69.213403125,
        "length_ticks": 13,
        "length_time": 0.107615624999994,
        "note": 70,
        "velocity": 127,
        "slice": 432,
        "channel": 1
      },
      {
        "start_tick": 8348,
        "start_time": 69.1057875,
        "end_tick": 8358,
        "end_time": 69.18856874999999,
        "length_ticks": 10,
        "length_time": 0.08278124999998226,
        "note": 67,
        "velocity": 127,
        "slice": 432,
        "channel": 2
      }
    ],
    "8364": [
      {
        "start_tick": 8364,
        "start_time": 69.2382375,
        "end_tick": 8394,
        "end_time": 69.48658125,
        "length_ticks": 30,
        "length_time": 0.24834375000000364,
        "note": 74,
        "velocity": 127,
        "slice": 433,
        "channel": 1
      },
      {
        "start_tick": 8364,
        "start_time": 69.2382375,
        "end_tick": 8450,
        "end_time": 69.95015624999999,
        "length_ticks": 86,
        "length_time": 0.7119187499999953,
        "note": 74,
        "velocity": 127,
        "slice": 433,
        "channel": 2
      },
      {
        "start_tick": 8364,
        "start_time": 69.2382375,
        "end_tick": 8412,
        "end_time": 69.6355875,
        "length_ticks": 48,
        "length_time": 0.397350000000003,
        "note": 52,
        "velocity": 127,
        "slice": 433,
        "channel": 3
      }
    ],
    "8381": [
      {
        "start_tick": 8381,
        "start_time": 69.37896562499999,
        "end_tick": 8429,
        "end_time": 69.776315625,
        "length_ticks": 48,
        "length_time": 0.397350000000003,
        "note": 52,
        "velocity": 127,
        "slice": 434,
        "channel": 4
      }
    ],
    "8400": [
      {
        "start_tick": 8400,
        "start_time": 69.53625,
        "end_tick": 8436,
        "end_time": 69.8342625,
        "length_ticks": 36,
        "length_time": 0.2980124999999987,
        "note": 70,
        "velocity": 127,
        "slice": 435,
        "channel": 1
      }
    ],
    "8412": [
      {
        "start_tick": 8412,
        "start_time": 69.6355875,
        "end_tick": 8460,
        "end_time": 70.03293749999999,
        "length_ticks": 48,
        "length_time": 0.39734999999998877,
        "note": 48,
        "velocity": 127,
        "slice": 435,
        "channel": 3
      }
    ],
    "8429": [
      {
        "start_tick": 8429,
        "start_time": 69.776315625,
        "end_tick": 8477,
        "end_time": 70.173665625,
        "length_ticks": 48,
        "length_time": 0.397350000000003,
        "note": 48,
        "velocity": 127,
        "slice": 436,
        "channel": 4
      }
    ],
    "8436": [
      {
        "start_tick": 8436,
        "start_time": 69.8342625,
        "end_tick": 8460,
        "end_time": 70.03293749999999,
        "length_ticks": 24,
        "length_time": 0.19867499999999438,
        "note": 67,
        "velocity": 127,
        "slice": 436,
        "channel": 1
      }
    ],
    "8460": [
      {
        "start_tick": 8460,
        "start_time": 70.03293749999999,
        "end_tick": 8546,
        "end_time": 70.74485625,
        "length_ticks": 86,
        "length_time": 0.7119187500000095,
        "note": 86,
        "velocity": 127,
        "slice": 438,
        "channel": 2
      },
      {
        "start_tick": 8460,
        "start_time": 70.03293749999999,
        "end_tick": 8476,
        "end_time": 70.1653875,
        "length_ticks": 16,
        "length_time": 0.13245000000000573,
        "note": 50,
        "velocity": 127,
        "slice": 438,
        "channel": 3
      }
    ],
    "8477": [
      {
        "start_tick": 8477,
        "start_time": 70.173665625,
        "end_tick": 8493,
        "end_time": 70.306115625,
        "length_ticks": 16,
        "length_time": 0.13245000000000573,
        "note": 50,
        "velocity": 127,
        "slice": 439,
        "channel": 4
      }
    ],
    "8508": [
      {
        "start_tick": 8508,
        "start_time": 70.4302875,
        "end_tick": 8519,
        "end_time": 70.52134687499999,
        "length_ticks": 11,
        "length_time": 0.09105937499998618,
        "note": 50,
        "velocity": 127,
        "slice": 440,
        "channel": 3
      }
    ],
    "8524": [
      {
        "start_tick": 8524,
        "start_time": 70.5627375,
        "end_tick": 8540,
        "end_time": 70.69518749999999,
        "length_ticks": 16,
        "length_time": 0.13244999999999152,
        "note": 64,
        "velocity": 127,
        "slice": 441,
        "channel": 1
      },
      {
        "start_tick": 8524,
        "start_time": 70.5627375,
        "end_tick": 8535,
        "end_time": 70.653796875,
        "length_ticks": 11,
        "length_time": 0.09105937500000039,
        "note": 62,
        "velocity": 127,
        "slice": 441,
        "channel": 3
      }
    ],
    "8525": [
      {
        "start_tick": 8525,
        "start_time": 70.571015625,
        "end_tick": 8536,
        "end_time": 70.662075,
        "length_ticks": 11,
        "length_time": 0.09105937500000039,
        "note": 50,
        "velocity": 127,
        "slice": 441,
        "channel": 4
      }
    ],
    "8540": [
      {
        "start_tick": 8540,
        "start_time": 70.69518749999999,
        "end_tick": 8556,
        "end_time": 70.8276375,
        "length_ticks": 16,
        "length_time": 0.13245000000000573,
        "note": 66,
        "velocity": 127,
        "slice": 442,
        "channel": 1
      },
      {
        "start_tick": 8540,
        "start_time": 70.69518749999999,
        "end_tick": 8551,
        "end_time": 70.786246875,
        "length_ticks": 11,
        "length_time": 0.0910593750000146,
        "note": 60,
        "velocity": 127,
        "slice": 442,
        "channel": 3
      }
    ],
    "8541": [
      {
        "start_tick": 8541,
        "start_time": 70.70346562499999,
        "end_tick": 8552,
        "end_time": 70.794525,
        "length_ticks": 11,
        "length_time": 0.09105937500000039,
        "note": 62,
        "velocity": 127,
        "slice": 442,
        "channel": 4
      }
    ],
    "8556": [
      {
        "start_tick": 8556,
        "start_time": 70.8276375,
        "end_tick": 8569,
        "end_time": 70.93525312499999,
        "length_ticks": 13,
        "length_time": 0.107615624999994,
        "note": 67,
        "velocity": 127,
        "slice": 443,
        "channel": 1
      },
      {
        "start_tick": 8556,
        "start_time": 70.8276375,
        "end_tick": 8671,
        "end_time": 71.77962187499999,
        "length_ticks": 115,
        "length_time": 0.951984374999995,
        "note": 79,
        "velocity": 127,
        "slice": 443,
        "channel": 2
      },
      {
        "start_tick": 8556,
        "start_time": 70.8276375,
        "end_tick": 8567,
        "end_time": 70.918696875,
        "length_ticks": 11,
        "length_time": 0.09105937500000039,
        "note": 57,
        "velocity": 127,
        "slice": 443,
        "channel": 3
      }
    ],
    "8557": [
      {
        "start_tick": 8557,
        "start_time": 70.835915625,
        "end_tick": 8568,
        "end_time": 70.926975,
        "length_ticks": 11,
        "length_time": 0.09105937500000039,
        "note": 60,
        "velocity": 127,
        "slice": 443,
        "channel": 4
      }
    ],
    "8572": [
      {
        "start_tick": 8572,
        "start_time": 70.9600875,
        "end_tick": 8585,
        "end_time": 71.067703125,
        "length_ticks": 13,
        "length_time": 0.107615624999994,
        "note": 69,
        "velocity": 127,
        "slice": 444,
        "channel": 1
      },
      {
        "start_tick": 8572,
        "start_time": 70.9600875,
        "end_tick": 8583,
        "end_time": 71.051146875,
        "length_ticks": 11,
        "length_time": 0.09105937500000039,
        "note": 55,
        "velocity": 127,
        "slice": 444,
        "channel": 3
      }
    ],
    "8573": [
      {
        "start_tick": 8573,
        "start_time": 70.968365625,
        "end_tick": 8584,
        "end_time": 71.05942499999999,
        "length_ticks": 11,
        "length_time": 0.09105937499998618,
        "note": 57,
        "velocity": 127,
        "slice": 444,
        "channel": 4
      }
    ],
    "8588": [
      {
        "start_tick": 8588,
        "start_time": 71.0925375,
        "end_tick": 8601,
        "end_time": 71.200153125,
        "length_ticks": 13,
        "length_time": 0.107615624999994,
        "note": 70,
        "velocity": 127,
        "slice": 444,
        "channel": 1
      },
      {
        "start_tick": 8588,
        "start_time": 71.0925375,
        "end_tick": 8599,
        "end_time": 71.18359687499999,
        "length_ticks": 11,
        "length_time": 0.09105937499998618,
        "note": 57,
        "velocity": 127,
        "slice": 444,
        "channel": 3
      }
    ],
    "8589": [
      {
        "start_tick": 8589,
        "start_time": 71.100815625,
        "end_tick": 8600,
        "end_time": 71.191875,
        "length_ticks": 11,
        "length_time": 0.09105937500000039,
        "note": 55,
        "velocity": 127,
        "slice": 444,
        "channel": 4
      }
    ],
    "8604": [
      {
        "start_tick": 8604,
        "start_time": 71.2249875,
        "end_tick": 8617,
        "end_time": 71.332603125,
        "length_ticks": 13,
        "length_time": 0.10761562500000821,
        "note": 72,
        "velocity": 127,
        "slice": 445,
        "channel": 1
      },
      {
        "start_tick": 8604,
        "start_time": 71.2249875,
        "end_tick": 8615,
        "end_time": 71.316046875,
        "length_ticks": 11,
        "length_time": 0.09105937500000039,
        "note": 58,
        "velocity": 127,
        "slice": 445,
        "channel": 3
      }
    ],
    "8605": [
      {
        "start_tick": 8605,
        "start_time": 71.23326562499999,
        "end_tick": 8616,
        "end_time": 71.324325,
        "length_ticks": 11,
        "length_time": 0.0910593750000146,
        "note": 57,
        "velocity": 127,
        "slice": 445,
        "channel": 4
      }
    ],
    "8620": [
      {
        "start_tick": 8620,
        "start_time": 71.35743749999999,
        "end_tick": 8633,
        "end_time": 71.465053125,
        "length_ticks": 13,
        "length_time": 0.10761562500000821,
        "note": 70,
        "velocity": 127,
        "slice": 446,
        "channel": 1
      }
    ],
    "8621": [
      {
        "start_tick": 8621,
        "start_time": 71.36571562499999,
        "end_tick": 8632,
        "end_time": 71.456775,
        "length_ticks": 11,
        "length_time": 0.09105937500000039,
        "note": 58,
        "velocity": 127,
        "slice": 446,
        "channel": 4
      }
    ],
    "8636": [
      {
        "start_tick": 8636,
        "start_time": 71.4898875,
        "end_tick": 8649,
        "end_time": 71.59750312499999,
        "length_ticks": 13,
        "length_time": 0.107615624999994,
        "note": 69,
        "velocity": 127,
        "slice": 447,
        "channel": 1
      }
    ],
    "8652": [
      {
        "start_tick": 8652,
        "start_time": 71.6223375,
        "end_tick": 8679,
        "end_time": 71.84584687499999,
        "length_ticks": 27,
        "length_time": 0.2235093749999919,
        "note": 70,
        "velocity": 127,
        "slice": 448,
        "channel": 1
      },
      {
        "start_tick": 8652,
        "start_time": 71.6223375,
        "end_tick": 8663,
        "end_time": 71.713396875,
        "length_ticks": 11,
        "length_time": 0.09105937500000039,
        "note": 55,
        "velocity": 127,
        "slice": 448,
        "channel": 3
      }
    ],
    "8669": [
      {
        "start_tick": 8669,
        "start_time": 71.763065625,
        "end_tick": 8680,
        "end_time": 71.854125,
        "length_ticks": 11,
        "length_time": 0.09105937500000039,
        "note": 55,
        "velocity": 127,
        "slice": 449,
        "channel": 4
      }
    ],
    "8700": [
      {
        "start_tick": 8700,
        "start_time": 72.01968749999999,
        "end_tick": 8713,
        "end_time": 72.127303125,
        "length_ticks": 13,
        "length_time": 0.10761562500000821,
        "note": 74,
        "velocity": 127,
        "slice": 450,
        "channel": 5
      }
    ],
    "8716": [
      {
        "start_tick": 8716,
        "start_time": 72.1521375,
        "end_tick": 8729,
        "end_time": 72.25975312499999,
        "length_ticks": 13,
        "length_time": 0.107615624999994,
        "note": 75,
        "velocity": 127,
        "slice": 451,
        "channel": 5
      }
    ],
    "8732": [
      {
        "start_tick": 8732,
        "start_time": 72.2845875,
        "end_tick": 8745,
        "end_time": 72.392203125,
        "length_ticks": 13,
        "length_time": 0.107615624999994,
        "note": 77,
        "velocity": 127,
        "slice": 452,
        "channel": 5
      }
    ],
    "8748": [
      {
        "start_tick": 8748,
        "start_time": 72.41703749999999,
        "end_tick": 8769,
        "end_time": 72.590878125,
        "length_ticks": 21,
        "length_time": 0.17384062500001107,
        "note": 70,
        "velocity": 127,
        "slice": 453,
        "channel": 2
      },
      {
        "start_tick": 8748,
        "start_time": 72.41703749999999,
        "end_tick": 8759,
        "end_time": 72.50809687499999,
        "length_ticks": 11,
        "length_time": 0.09105937500000039,
        "note": 39,
        "velocity": 127,
        "slice": 453,
        "channel": 3
      },
      {
        "start_tick": 8748,
        "start_time": 72.41703749999999,
        "end_tick": 8788,
        "end_time": 72.74816249999999,
        "length_ticks": 40,
        "length_time": 0.3311250000000001,
        "note": 79,
        "velocity": 127,
        "slice": 453,
        "channel": 5
      }
    ],
    "8765": [
      {
        "start_tick": 8765,
        "start_time": 72.55776562499999,
        "end_tick": 8776,
        "end_time": 72.648825,
        "length_ticks": 11,
        "length_time": 0.0910593750000146,
        "note": 39,
        "velocity": 127,
        "slice": 453,
        "channel": 4
      }
    ],
    "8796": [
      {
        "start_tick": 8796,
        "start_time": 72.8143875,
        "end_tick": 8847,
        "end_time": 73.236571875,
        "length_ticks": 51,
        "length_time": 0.4221843750000005,
        "note": 67,
        "velocity": 127,
        "slice": 455,
        "channel": 2
      },
      {
        "start_tick": 8796,
        "start_time": 72.8143875,
        "end_tick": 8807,
        "end_time": 72.905446875,
        "length_ticks": 11,
        "length_time": 0.09105937500000039,
        "note": 51,
        "velocity": 127,
        "slice": 455,
        "channel": 3
      },
      {
        "start_tick": 8796,
        "start_time": 72.8143875,
        "end_tick": 8860,
        "end_time": 73.34418749999999,
        "length_ticks": 64,
        "length_time": 0.5297999999999945,
        "note": 74,
        "velocity": 127,
        "slice": 455,
        "channel": 5
      }
    ],
    "8812": [
      {
        "start_tick": 8812,
        "start_time": 72.9468375,
        "end_tick": 8823,
        "end_time": 73.03789687499999,
        "length_ticks": 11,
        "length_time": 0.09105937499998618,
        "note": 55,
        "velocity": 127,
        "slice": 456,
        "channel": 3
      }
    ],
    "8813": [
      {
        "start_tick": 8813,
        "start_time": 72.955115625,
        "end_tick": 8824,
        "end_time": 73.04617499999999,
        "length_ticks": 11,
        "length_time": 0.09105937499998618,
        "note": 51,
        "velocity": 127,
        "slice": 456,
        "channel": 4
      }
    ],
    "8828": [
      {
        "start_tick": 8828,
        "start_time": 73.07928749999999,
        "end_tick": 8839,
        "end_time": 73.17034687499999,
        "length_ticks": 11,
        "length_time": 0.09105937500000039,
        "note": 58,
        "velocity": 127,
        "slice": 457,
        "channel": 3
      }
    ],
    "8829": [
      {
        "start_tick": 8829,
        "start_time": 73.087565625,
        "end_tick": 8840,
        "end_time": 73.178625,
        "length_ticks": 11,
        "length_time": 0.09105937500000039,
        "note": 55,
        "velocity": 127,
        "slice": 457,
        "channel": 4
      }
    ],
    "8844": [
      {
        "start_tick": 8844,
        "start_time": 73.2117375,
        "end_tick": 8855,
        "end_time": 73.302796875,
        "length_ticks": 11,
        "length_time": 0.09105937500000039,
        "note": 63,
        "velocity": 127,
        "slice": 458,
        "channel": 3
      }
    ],
    "8845": [
      {
        "start_tick": 8845,
        "start_time": 73.22001562499999,
        "end_tick": 8856,
        "end_time": 73.311075,
        "length_ticks": 11,
        "length_time": 0.0910593750000146,
        "note": 58,
        "velocity": 127,
        "slice": 458,
        "channel": 4
      }
    ],
    "8861": [
      {
        "start_tick": 8861,
        "start_time": 73.352465625,
        "end_tick": 8872,
        "end_time": 73.443525,
        "length_ticks": 11,
        "length_time": 0.09105937500000039,
        "note": 63,
        "velocity": 127,
        "slice": 458,
        "channel": 4
      }
    ],
    "8880": [
      {
        "start_tick": 8880,
        "start_time": 73.50975,
        "end_tick": 8888,
        "end_time": 73.575975,
        "length_ticks": 8,
        "length_time": 0.06622500000000286,
        "note": 69,
        "velocity": 127,
        "slice": 459,
        "channel": 2
      },
      {
        "start_tick": 8880,
        "start_time": 73.50975,
        "end_tick": 8890,
        "end_time": 73.59253125,
        "length_ticks": 10,
        "length_time": 0.08278124999999648,
        "note": 79,
        "velocity": 127,
        "slice": 459,
        "channel": 5
      }
    ],
    "8892": [
      {
        "start_tick": 8892,
        "start_time": 73.6090875,
        "end_tick": 8900,
        "end_time": 73.6753125,
        "length_ticks": 8,
        "length_time": 0.06622500000000286,
        "note": 69,
        "velocity": 127,
        "slice": 460,
        "channel": 2
      },
      {
        "start_tick": 8892,
        "start_time": 73.6090875,
        "end_tick": 8903,
        "end_time": 73.70014687499999,
        "length_ticks": 11,
        "length_time": 0.09105937499998618,
        "note": 39,
        "velocity": 127,
        "slice": 460,
        "channel": 3
      },
      {
        "start_tick": 8892,
        "start_time": 73.6090875,
        "end_tick": 8902,
        "end_time": 73.69186875,
        "length_ticks": 10,
        "length_time": 0.08278124999999648,
        "note": 79,
        "velocity": 127,
        "slice": 460,
        "channel": 5
      }
    ],
    "8904": [
      {
        "start_tick": 8904,
        "start_time": 73.70842499999999,
        "end_tick": 8912,
        "end_time": 73.77465,
        "length_ticks": 8,
        "length_time": 0.06622500000000286,
        "note": 70,
        "velocity": 127,
        "slice": 461,
        "channel": 2
      },
      {
        "start_tick": 8904,
        "start_time": 73.70842499999999,
        "end_tick": 8914,
        "end_time": 73.79120625,
        "length_ticks": 10,
        "length_time": 0.08278125000001069,
        "note": 81,
        "velocity": 127,
        "slice": 461,
        "channel": 5
      }
    ],
    "8908": [
      {
        "start_tick": 8908,
        "start_time": 73.74153749999999,
        "end_tick": 8919,
        "end_time": 73.832596875,
        "length_ticks": 11,
        "length_time": 0.09105937500000039,
        "note": 39,
        "velocity": 127,
        "slice": 461,
        "channel": 3
      }
    ],
    "8909": [
      {
        "start_tick": 8909,
        "start_time": 73.749815625,
        "end_tick": 8920,
        "end_time": 73.840875,
        "length_ticks": 11,
        "length_time": 0.09105937500000039,
        "note": 39,
        "velocity": 127,
        "slice": 461,
        "channel": 4
      }
    ],
    "8916": [
      {
        "start_tick": 8916,
        "start_time": 73.8077625,
        "end_tick": 8924,
        "end_time": 73.8739875,
        "length_ticks": 8,
        "length_time": 0.06622500000000286,
        "note": 72,
        "velocity": 127,
        "slice": 461,
        "channel": 2
      },
      {
        "start_tick": 8916,
        "start_time": 73.8077625,
        "end_tick": 8926,
        "end_time": 73.89054374999999,
        "length_ticks": 10,
        "length_time": 0.08278124999999648,
        "note": 82,
        "velocity": 127,
        "slice": 461,
        "channel": 5
      }
    ],
    "8924": [
      {
        "start_tick": 8924,
        "start_time": 73.8739875,
        "end_tick": 8935,
        "end_time": 73.965046875,
        "length_ticks": 11,
        "length_time": 0.09105937500000039,
        "note": 39,
        "velocity": 127,
        "slice": 462,
        "channel": 3
      }
    ],
    "8925": [
      {
        "start_tick": 8925,
        "start_time": 73.88226562499999,
        "end_tick": 8936,
        "end_time": 73.973325,
        "length_ticks": 11,
        "length_time": 0.0910593750000146,
        "note": 39,
        "velocity": 127,
        "slice": 462,
        "channel": 4
      }
    ],
    "8928": [
      {
        "start_tick": 8928,
        "start_time": 73.9071,
        "end_tick": 8936,
        "end_time": 73.973325,
        "length_ticks": 8,
        "length_time": 0.06622500000000286,
        "note": 74,
        "velocity": 127,
        "slice": 462,
        "channel": 2
      },
      {
        "start_tick": 8928,
        "start_time": 73.9071,
        "end_tick": 8938,
        "end_time": 73.98988125,
        "length_ticks": 10,
        "length_time": 0.08278124999999648,
        "note": 84,
        "velocity": 127,
        "slice": 462,
        "channel": 5
      }
    ],
    "8940": [
      {
        "start_tick": 8940,
        "start_time": 74.00643749999999,
        "end_tick": 8952,
        "end_time": 74.105775,
        "length_ticks": 12,
        "length_time": 0.0993375000000043,
        "note": 72,
        "velocity": 127,
        "slice": 463,
        "channel": 2
      },
      {
        "start_tick": 8940,
        "start_time": 74.00643749999999,
        "end_tick": 8951,
        "end_time": 74.097496875,
        "length_ticks": 11,
        "length_time": 0.0910593750000146,
        "note": 38,
        "velocity": 127,
        "slice": 463,
        "channel": 3
      },
      {
        "start_tick": 8940,
        "start_time": 74.00643749999999,
        "end_tick": 8953,
        "end_time": 74.114053125,
        "length_ticks": 13,
        "length_time": 0.10761562500000821,
        "note": 81,
        "velocity": 127,
        "slice": 463,
        "channel": 5
      }
    ],
    "8941": [
      {
        "start_tick": 8941,
        "start_time": 74.014715625,
        "end_tick": 8952,
        "end_time": 74.105775,
        "length_ticks": 11,
        "length_time": 0.09105937500000039,
        "note": 39,
        "velocity": 127,
        "slice": 463,
        "channel": 4
      }
    ],
    "8957": [
      {
        "start_tick": 8957,
        "start_time": 74.147165625,
        "end_tick": 8968,
        "end_time": 74.238225,
        "length_ticks": 11,
        "length_time": 0.09105937500000039,
        "note": 38,
        "velocity": 127,
        "slice": 463,
        "channel": 4
      }
    ],
    "8972": [
      {
        "start_tick": 8972,
        "start_time": 74.2713375,
        "end_tick": 8984,
        "end_time": 74.37067499999999,
        "length_ticks": 12,
        "length_time": 0.09933749999999009,
        "note": 70,
        "velocity": 127,
        "slice": 464,
        "channel": 2
      },
      {
        "start_tick": 8972,
        "start_time": 74.2713375,
        "end_tick": 8985,
        "end_time": 74.378953125,
        "length_ticks": 13,
        "length_time": 0.107615624999994,
        "note": 77,
        "velocity": 127,
        "slice": 464,
        "channel": 5
      }
    ],
    "8988": [
      {
        "start_tick": 8988,
        "start_time": 74.40378749999999,
        "end_tick": 9055,
        "end_time": 74.958421875,
        "length_ticks": 67,
        "length_time": 0.5546343750000062,
        "note": 69,
        "velocity": 127,
        "slice": 465,
        "channel": 2
      },
      {
        "start_tick": 8988,
        "start_time": 74.40378749999999,
        "end_tick": 8999,
        "end_time": 74.494846875,
        "length_ticks": 11,
        "length_time": 0.09105937500000039,
        "note": 50,
        "velocity": 127,
        "slice": 465,
        "channel": 3
      },
      {
        "start_tick": 8988,
        "start_time": 74.40378749999999,
        "end_tick": 9047,
        "end_time": 74.892196875,
        "length_ticks": 59,
        "length_time": 0.48840937500000337,
        "note": 72,
        "velocity": 127,
        "slice": 465,
        "channel": 5
      }
    ],
    "9004": [
      {
        "start_tick": 9004,
        "start_time": 74.5362375,
        "end_tick": 9015,
        "end_time": 74.627296875,
        "length_ticks": 11,
        "length_time": 0.09105937500000039,
        "note": 53,
        "velocity": 127,
        "slice": 466,
        "channel": 3
      }
    ],
    "9005": [
      {
        "start_tick": 9005,
        "start_time": 74.54451562499999,
        "end_tick": 9016,
        "end_time": 74.635575,
        "length_ticks": 11,
        "length_time": 0.0910593750000146,
        "note": 50,
        "velocity": 127,
        "slice": 466,
        "channel": 4
      }
    ],
    "9020": [
      {
        "start_tick": 9020,
        "start_time": 74.66868749999999,
        "end_tick": 9031,
        "end_time": 74.759746875,
        "length_ticks": 11,
        "length_time": 0.0910593750000146,
        "note": 57,
        "velocity": 127,
        "slice": 467,
        "channel": 3
      }
    ],
    "9021": [
      {
        "start_tick": 9021,
        "start_time": 74.676965625,
        "end_tick": 9032,
        "end_time": 74.768025,
        "length_ticks": 11,
        "length_time": 0.09105937500000039,
        "note": 53,
        "velocity": 127,
        "slice": 467,
        "channel": 4
      }
    ],
    "9036": [
      {
        "start_tick": 9036,
        "start_time": 74.8011375,
        "end_tick": 9047,
        "end_time": 74.892196875,
        "length_ticks": 11,
        "length_time": 0.09105937500000039,
        "note": 62,
        "velocity": 127,
        "slice": 468,
        "channel": 3
      }
    ],
    "9037": [
      {
        "start_tick": 9037,
        "start_time": 74.809415625,
        "end_tick": 9048,
        "end_time": 74.900475,
        "length_ticks": 11,
        "length_time": 0.09105937500000039,
        "note": 57,
        "velocity": 127,
        "slice": 468,
        "channel": 4
      }
    ],
    "9053": [
      {
        "start_tick": 9053,
        "start_time": 74.941865625,
        "end_tick": 9064,
        "end_time": 75.03292499999999,
        "length_ticks": 11,
        "length_time": 0.09105937499998618,
        "note": 62,
        "velocity": 127,
        "slice": 468,
        "channel": 4
      }
    ],
    "9060": [
      {
        "start_tick": 9060,
        "start_time": 74.9998125,
        "end_tick": 9070,
        "end_time": 75.08259375,
        "length_ticks": 10,
        "length_time": 0.08278124999999648,
        "note": 72,
        "velocity": 127,
        "slice": 469,
        "channel": 5
      }
    ],
    "9072": [
      {
        "start_tick": 9072,
        "start_time": 75.09915,
        "end_tick": 9082,
        "end_time": 75.18193125,
        "length_ticks": 10,
        "length_time": 0.08278125000001069,
        "note": 74,
        "velocity": 127,
        "slice": 469,
        "channel": 5
      }
    ],
    "9084": [
      {
        "start_tick": 9084,
        "start_time": 75.1984875,
        "end_tick": 9122,
        "end_time": 75.51305624999999,
        "length_ticks": 38,
        "length_time": 0.3145687499999923,
        "note": 65,
        "velocity": 127,
        "slice": 470,
        "channel": 2
      },
      {
        "start_tick": 9084,
        "start_time": 75.1984875,
        "end_tick": 9095,
        "end_time": 75.289546875,
        "length_ticks": 11,
        "length_time": 0.09105937500000039,
        "note": 50,
        "velocity": 127,
        "slice": 470,
        "channel": 3
      },
      {
        "start_tick": 9084,
        "start_time": 75.1984875,
        "end_tick": 9094,
        "end_time": 75.28126875,
        "length_ticks": 10,
        "length_time": 0.08278124999999648,
        "note": 77,
        "velocity": 127,
        "slice": 470,
        "channel": 5
      }
    ],
    "9096": [
      {
        "start_tick": 9096,
        "start_time": 75.297825,
        "end_tick": 9106,
        "end_time": 75.38060625,
        "length_ticks": 10,
        "length_time": 0.08278124999999648,
        "note": 75,
        "velocity": 127,
        "slice": 471,
        "channel": 5
      }
    ],
    "9100": [
      {
        "start_tick": 9100,
        "start_time": 75.33093749999999,
        "end_tick": 9111,
        "end_time": 75.421996875,
        "length_ticks": 11,
        "length_time": 0.0910593750000146,
        "note": 50,
        "velocity": 127,
        "slice": 471,
        "channel": 3
      }
    ],
    "9101": [
      {
        "start_tick": 9101,
        "start_time": 75.339215625,
        "end_tick": 9112,
        "end_time": 75.430275,
        "length_ticks": 11,
        "length_time": 0.09105937500000039,
        "note": 50,
        "velocity": 127,
        "slice": 471,
        "channel": 4
      }
    ],
    "9108": [
      {
        "start_tick": 9108,
        "start_time": 75.3971625,
        "end_tick": 9118,
        "end_time": 75.47994375,
        "length_ticks": 10,
        "length_time": 0.08278125000001069,
        "note": 74,
        "velocity": 127,
        "slice": 471,
        "channel": 5
      }
    ],
    "9116": [
      {
        "start_tick": 9116,
        "start_time": 75.4633875,
        "end_tick": 9127,
        "end_time": 75.554446875,
        "length_ticks": 11,
        "length_time": 0.09105937500000039,
        "note": 50,
        "velocity": 127,
        "slice": 472,
        "channel": 3
      }
    ],
    "9117": [
      {
        "start_tick": 9117,
        "start_time": 75.471665625,
        "end_tick": 9128,
        "end_time": 75.562725,
        "length_ticks": 11,
        "length_time": 0.09105937500000039,
        "note": 50,
        "velocity": 127,
        "slice": 472,
        "channel": 4
      }
    ],
    "9120": [
      {
        "start_tick": 9120,
        "start_time": 75.4965,
        "end_tick": 9130,
        "end_time": 75.57928125,
        "length_ticks": 10,
        "length_time": 0.08278124999999648,
        "note": 72,
        "velocity": 127,
        "slice": 472,
        "channel": 5
      }
    ],
    "9132": [
      {
        "start_tick": 9132,
        "start_time": 75.5958375,
        "end_tick": 9144,
        "end_time": 75.69517499999999,
        "length_ticks": 12,
        "length_time": 0.09933749999999009,
        "note": 67,
        "velocity": 127,
        "slice": 472,
        "channel": 2
      },
      {
        "start_tick": 9132,
        "start_time": 75.5958375,
        "end_tick": 9143,
        "end_time": 75.68689687499999,
        "length_ticks": 11,
        "length_time": 0.09105937499998618,
        "note": 43,
        "velocity": 127,
        "slice": 472,
        "channel": 3
      },
      {
        "start_tick": 9132,
        "start_time": 75.5958375,
        "end_tick": 9145,
        "end_time": 75.703453125,
        "length_ticks": 13,
        "length_time": 0.107615624999994,
        "note": 74,
        "velocity": 127,
        "slice": 472,
        "channel": 5
      }
    ],
    "9133": [
      {
        "start_tick": 9133,
        "start_time": 75.604115625,
        "end_tick": 9144,
        "end_time": 75.69517499999999,
        "length_ticks": 11,
        "length_time": 0.09105937499998618,
        "note": 50,
        "velocity": 127,
        "slice": 473,
        "channel": 4
      }
    ],
    "9149": [
      {
        "start_tick": 9149,
        "start_time": 75.736565625,
        "end_tick": 9160,
        "end_time": 75.827625,
        "length_ticks": 11,
        "length_time": 0.09105937500000039,
        "note": 43,
        "velocity": 127,
        "slice": 473,
        "channel": 4
      }
    ],
    "9164": [
      {
        "start_tick": 9164,
        "start_time": 75.8607375,
        "end_tick": 9176,
        "end_time": 75.960075,
        "length_ticks": 12,
        "length_time": 0.0993375000000043,
        "note": 62,
        "velocity": 127,
        "slice": 474,
        "channel": 2
      },
      {
        "start_tick": 9164,
        "start_time": 75.8607375,
        "end_tick": 9177,
        "end_time": 75.968353125,
        "length_ticks": 13,
        "length_time": 0.107615624999994,
        "note": 67,
        "velocity": 127,
        "slice": 474,
        "channel": 5
      }
    ],
    "9180": [
      {
        "start_tick": 9180,
        "start_time": 75.99318749999999,
        "end_tick": 9215,
        "end_time": 76.282921875,
        "length_ticks": 35,
        "length_time": 0.289734375000009,
        "note": 62,
        "velocity": 127,
        "slice": 475,
        "channel": 2
      },
      {
        "start_tick": 9180,
        "start_time": 75.99318749999999,
        "end_tick": 9191,
        "end_time": 76.084246875,
        "length_ticks": 11,
        "length_time": 0.0910593750000146,
        "note": 43,
        "velocity": 127,
        "slice": 475,
        "channel": 3
      },
      {
        "start_tick": 9180,
        "start_time": 75.99318749999999,
        "end_tick": 9240,
        "end_time": 76.489875,
        "length_ticks": 60,
        "length_time": 0.4966875000000073,
        "note": 67,
        "velocity": 127,
        "slice": 475,
        "channel": 5
      }
    ],
    "9196": [
      {
        "start_tick": 9196,
        "start_time": 76.1256375,
        "end_tick": 9207,
        "end_time": 76.216696875,
        "length_ticks": 11,
        "length_time": 0.09105937500000039,
        "note": 43,
        "velocity": 127,
        "slice": 476,
        "channel": 3
      }
    ],
    "9197": [
      {
        "start_tick": 9197,
        "start_time": 76.133915625,
        "end_tick": 9208,
        "end_time": 76.224975,
        "length_ticks": 11,
        "length_time": 0.09105937500000039,
        "note": 43,
        "velocity": 127,
        "slice": 476,
        "channel": 4
      }
    ],
    "9212": [
      {
        "start_tick": 9212,
        "start_time": 76.2580875,
        "end_tick": 9223,
        "end_time": 76.34914687499999,
        "length_ticks": 11,
        "length_time": 0.09105937499998618,
        "note": 43,
        "velocity": 127,
        "slice": 477,
        "channel": 3
      }
    ],
    "9213": [
      {
        "start_tick": 9213,
        "start_time": 76.26636562499999,
        "end_tick": 9224,
        "end_time": 76.35742499999999,
        "length_ticks": 11,
        "length_time": 0.09105937500000039,
        "note": 43,
        "velocity": 127,
        "slice": 477,
        "channel": 4
      }
    ],
    "9228": [
      {
        "start_tick": 9228,
        "start_time": 76.3905375,
        "end_tick": 9263,
        "end_time": 76.680271875,
        "length_ticks": 35,
        "length_time": 0.289734375000009,
        "note": 60,
        "velocity": 127,
        "slice": 477,
        "channel": 2
      },
      {
        "start_tick": 9228,
        "start_time": 76.3905375,
        "end_tick": 9239,
        "end_time": 76.481596875,
        "length_ticks": 11,
        "length_time": 0.09105937500000039,
        "note": 43,
        "velocity": 127,
        "slice": 477,
        "channel": 3
      }
    ],
    "9229": [
      {
        "start_tick": 9229,
        "start_time": 76.398815625,
        "end_tick": 9240,
        "end_time": 76.489875,
        "length_ticks": 11,
        "length_time": 0.09105937500000039,
        "note": 43,
        "velocity": 127,
        "slice": 477,
        "channel": 4
      }
    ],
    "9245": [
      {
        "start_tick": 9245,
        "start_time": 76.53126562499999,
        "end_tick": 9256,
        "end_time": 76.622325,
        "length_ticks": 11,
        "length_time": 0.0910593750000146,
        "note": 43,
        "velocity": 127,
        "slice": 478,
        "channel": 4
      }
    ],
    "9252": [
      {
        "start_tick": 9252,
        "start_time": 76.58921249999999,
        "end_tick": 9262,
        "end_time": 76.67199375,
        "length_ticks": 10,
        "length_time": 0.08278125000001069,
        "note": 67,
        "velocity": 127,
        "slice": 479,
        "channel": 5
      }
    ],
    "9264": [
      {
        "start_tick": 9264,
        "start_time": 76.68854999999999,
        "end_tick": 9274,
        "end_time": 76.77133124999999,
        "length_ticks": 10,
        "length_time": 0.08278124999999648,
        "note": 66,
        "velocity": 127,
        "slice": 479,
        "channel": 5
      }
    ],
    "9276": [
      {
        "start_tick": 9276,
        "start_time": 76.7878875,
        "end_tick": 9311,
        "end_time": 77.07762187499999,
        "length_ticks": 35,
        "length_time": 0.28973437499999477,
        "note": 64,
        "velocity": 127,
        "slice": 480,
        "channel": 2
      },
      {
        "start_tick": 9276,
        "start_time": 76.7878875,
        "end_tick": 9287,
        "end_time": 76.878946875,
        "length_ticks": 11,
        "length_time": 0.09105937500000039,
        "note": 43,
        "velocity": 127,
        "slice": 480,
        "channel": 3
      },
      {
        "start_tick": 9276,
        "start_time": 76.7878875,
        "end_tick": 9286,
        "end_time": 76.87066875,
        "length_ticks": 10,
        "length_time": 0.08278124999999648,
        "note": 67,
        "velocity": 127,
        "slice": 480,
        "channel": 5
      }
    ],
    "9288": [
      {
        "start_tick": 9288,
        "start_time": 76.887225,
        "end_tick": 9298,
        "end_time": 76.97000625,
        "length_ticks": 10,
        "length_time": 0.08278124999999648,
        "note": 69,
        "velocity": 127,
        "slice": 481,
        "channel": 5
      }
    ],
    "9292": [
      {
        "start_tick": 9292,
        "start_time": 76.9203375,
        "end_tick": 9303,
        "end_time": 77.01139687499999,
        "length_ticks": 11,
        "length_time": 0.09105937499998618,
        "note": 43,
        "velocity": 127,
        "slice": 481,
        "channel": 3
      }
    ],
    "9293": [
      {
        "start_tick": 9293,
        "start_time": 76.92861562499999,
        "end_tick": 9304,
        "end_time": 77.01967499999999,
        "length_ticks": 11,
        "length_time": 0.09105937500000039,
        "note": 43,
        "velocity": 127,
        "slice": 481,
        "channel": 4
      }
    ],
    "9300": [
      {
        "start_tick": 9300,
        "start_time": 76.9865625,
        "end_tick": 9310,
        "end_time": 77.06934374999999,
        "length_ticks": 10,
        "length_time": 0.08278124999998226,
        "note": 70,
        "velocity": 127,
        "slice": 481,
        "channel": 5
      }
    ],
    "9308": [
      {
        "start_tick": 9308,
        "start_time": 77.0527875,
        "end_tick": 9319,
        "end_time": 77.143846875,
        "length_ticks": 11,
        "length_time": 0.09105937500000039,
        "note": 43,
        "velocity": 127,
        "slice": 482,
        "channel": 3
      }
    ],
    "9309": [
      {
        "start_tick": 9309,
        "start_time": 77.061065625,
        "end_tick": 9320,
        "end_time": 77.152125,
        "length_ticks": 11,
        "length_time": 0.09105937500000039,
        "note": 43,
        "velocity": 127,
        "slice": 482,
        "channel": 4
      }
    ],
    "9312": [
      {
        "start_tick": 9312,
        "start_time": 77.0859,
        "end_tick": 9322,
        "end_time": 77.16868124999999,
        "length_ticks": 10,
        "length_time": 0.08278124999999648,
        "note": 72,
        "velocity": 127,
        "slice": 482,
        "channel": 5
      }
    ],
    "9324": [
      {
        "start_tick": 9324,
        "start_time": 77.1852375,
        "end_tick": 9336,
        "end_time": 77.284575,
        "length_ticks": 12,
        "length_time": 0.0993375000000043,
        "note": 67,
        "velocity": 127,
        "slice": 482,
        "channel": 2
      },
      {
        "start_tick": 9324,
        "start_time": 77.1852375,
        "end_tick": 9335,
        "end_time": 77.276296875,
        "length_ticks": 11,
        "length_time": 0.09105937500000039,
        "note": 43,
        "velocity": 127,
        "slice": 482,
        "channel": 3
      },
      {
        "start_tick": 9324,
        "start_time": 77.1852375,
        "end_tick": 9404,
        "end_time": 77.8474875,
        "length_ticks": 80,
        "length_time": 0.6622500000000002,
        "note": 74,
        "velocity": 127,
        "slice": 482,
        "channel": 5
      }
    ],
    "9325": [
      {
        "start_tick": 9325,
        "start_time": 77.19351562499999,
        "end_tick": 9336,
        "end_time": 77.284575,
        "length_ticks": 11,
        "length_time": 0.0910593750000146,
        "note": 43,
        "velocity": 127,
        "slice": 482,
        "channel": 4
      }
    ],
    "9341": [
      {
        "start_tick": 9341,
        "start_time": 77.325965625,
        "end_tick": 9352,
        "end_time": 77.417025,
        "length_ticks": 11,
        "length_time": 0.09105937500000039,
        "note": 43,
        "velocity": 127,
        "slice": 483,
        "channel": 4
      }
    ],
    "9348": [
      {
        "start_tick": 9348,
        "start_time": 77.3839125,
        "end_tick": 9356,
        "end_time": 77.4501375,
        "length_ticks": 8,
        "length_time": 0.06622500000000286,
        "note": 67,
        "velocity": 127,
        "slice": 484,
        "channel": 2
      }
    ],
    "9360": [
      {
        "start_tick": 9360,
        "start_time": 77.48325,
        "end_tick": 9368,
        "end_time": 77.54947499999999,
        "length_ticks": 8,
        "length_time": 0.06622499999998865,
        "note": 65,
        "velocity": 127,
        "slice": 484,
        "channel": 2
      }
    ],
    "9372": [
      {
        "start_tick": 9372,
        "start_time": 77.5825875,
        "end_tick": 9380,
        "end_time": 77.6488125,
        "length_ticks": 8,
        "length_time": 0.06622500000000286,
        "note": 67,
        "velocity": 127,
        "slice": 485,
        "channel": 2
      },
      {
        "start_tick": 9372,
        "start_time": 77.5825875,
        "end_tick": 9383,
        "end_time": 77.67364687499999,
        "length_ticks": 11,
        "length_time": 0.09105937499998618,
        "note": 43,
        "velocity": 127,
        "slice": 485,
        "channel": 3
      }
    ],
    "9384": [
      {
        "start_tick": 9384,
        "start_time": 77.68192499999999,
        "end_tick": 9392,
        "end_time": 77.74815,
        "length_ticks": 8,
        "length_time": 0.06622500000000286,
        "note": 69,
        "velocity": 127,
        "slice": 486,
        "channel": 2
      }
    ],
    "9388": [
      {
        "start_tick": 9388,
        "start_time": 77.7150375,
        "end_tick": 9399,
        "end_time": 77.806096875,
        "length_ticks": 11,
        "length_time": 0.09105937500000039,
        "note": 43,
        "velocity": 127,
        "slice": 486,
        "channel": 3
      }
    ],
    "9389": [
      {
        "start_tick": 9389,
        "start_time": 77.723315625,
        "end_tick": 9400,
        "end_time": 77.814375,
        "length_ticks": 11,
        "length_time": 0.09105937500000039,
        "note": 43,
        "velocity": 127,
        "slice": 486,
        "channel": 4
      }
    ],
    "9396": [
      {
        "start_tick": 9396,
        "start_time": 77.7812625,
        "end_tick": 9404,
        "end_time": 77.8474875,
        "length_ticks": 8,
        "length_time": 0.06622500000000286,
        "note": 70,
        "velocity": 127,
        "slice": 486,
        "channel": 2
      }
    ],
    "9404": [
      {
        "start_tick": 9404,
        "start_time": 77.8474875,
        "end_tick": 9415,
        "end_time": 77.938546875,
        "length_ticks": 11,
        "length_time": 0.09105937500000039,
        "note": 43,
        "velocity": 127,
        "slice": 487,
        "channel": 3
      }
    ],
    "9405": [
      {
        "start_tick": 9405,
        "start_time": 77.85576562499999,
        "end_tick": 9416,
        "end_time": 77.946825,
        "length_ticks": 11,
        "length_time": 0.0910593750000146,
        "note": 43,
        "velocity": 127,
        "slice": 487,
        "channel": 4
      }
    ],
    "9408": [
      {
        "start_tick": 9408,
        "start_time": 77.8806,
        "end_tick": 9416,
        "end_time": 77.946825,
        "length_ticks": 8,
        "length_time": 0.06622500000000286,
        "note": 72,
        "velocity": 127,
        "slice": 487,
        "channel": 2
      }
    ],
    "9420": [
      {
        "start_tick": 9420,
        "start_time": 77.97993749999999,
        "end_tick": 9484,
        "end_time": 78.5097375,
        "length_ticks": 64,
        "length_time": 0.5298000000000087,
        "note": 74,
        "velocity": 127,
        "slice": 487,
        "channel": 2
      },
      {
        "start_tick": 9420,
        "start_time": 77.97993749999999,
        "end_tick": 9438,
        "end_time": 78.12894375,
        "length_ticks": 18,
        "length_time": 0.14900625000001355,
        "note": 43,
        "velocity": 127,
        "slice": 487,
        "channel": 3
      }
    ],
    "9421": [
      {
        "start_tick": 9421,
        "start_time": 77.988215625,
        "end_tick": 9432,
        "end_time": 78.079275,
        "length_ticks": 11,
        "length_time": 0.09105937500000039,
        "note": 43,
        "velocity": 127,
        "slice": 487,
        "channel": 4
      }
    ],
    "9437": [
      {
        "start_tick": 9437,
        "start_time": 78.120665625,
        "end_tick": 9455,
        "end_time": 78.269671875,
        "length_ticks": 18,
        "length_time": 0.14900624999999934,
        "note": 43,
        "velocity": 127,
        "slice": 488,
        "channel": 4
      }
    ],
    "9456": [
      {
        "start_tick": 9456,
        "start_time": 78.27794999999999,
        "end_tick": 9476,
        "end_time": 78.4435125,
        "length_ticks": 20,
        "length_time": 0.16556250000000716,
        "note": 43,
        "velocity": 127,
        "slice": 489,
        "channel": 3
      }
    ],
    "9468": [
      {
        "start_tick": 9468,
        "start_time": 78.3772875,
        "end_tick": 9481,
        "end_time": 78.484903125,
        "length_ticks": 13,
        "length_time": 0.10761562500000821,
        "note": 74,
        "velocity": 127,
        "slice": 490,
        "channel": 5
      }
    ],
    "9473": [
      {
        "start_tick": 9473,
        "start_time": 78.418678125,
        "end_tick": 9493,
        "end_time": 78.58424062499999,
        "length_ticks": 20,
        "length_time": 0.16556249999999295,
        "note": 43,
        "velocity": 127,
        "slice": 490,
        "channel": 4
      }
    ],
    "9484": [
      {
        "start_tick": 9484,
        "start_time": 78.5097375,
        "end_tick": 9497,
        "end_time": 78.617353125,
        "length_ticks": 13,
        "length_time": 0.107615624999994,
        "note": 72,
        "velocity": 127,
        "slice": 491,
        "channel": 5
      }
    ],
    "9492": [
      {
        "start_tick": 9492,
        "start_time": 78.57596249999999,
        "end_tick": 9504,
        "end_time": 78.6753,
        "length_ticks": 12,
        "length_time": 0.0993375000000043,
        "note": 41,
        "velocity": 127,
        "slice": 491,
        "channel": 3
      }
    ],
    "9500": [
      {
        "start_tick": 9500,
        "start_time": 78.64218749999999,
        "end_tick": 9513,
        "end_time": 78.749803125,
        "length_ticks": 13,
        "length_time": 0.10761562500000821,
        "note": 74,
        "velocity": 127,
        "slice": 492,
        "channel": 5
      }
    ],
    "9509": [
      {
        "start_tick": 9509,
        "start_time": 78.716690625,
        "end_tick": 9521,
        "end_time": 78.81602812499999,
        "length_ticks": 12,
        "length_time": 0.09933749999999009,
        "note": 41,
        "velocity": 127,
        "slice": 492,
        "channel": 4
      }
    ],
    "9516": [
      {
        "start_tick": 9516,
        "start_time": 78.7746375,
        "end_tick": 9526,
        "end_time": 78.85741875,
        "length_ticks": 10,
        "length_time": 0.08278124999999648,
        "note": 74,
        "velocity": 127,
        "slice": 492,
        "channel": 2
      },
      {
        "start_tick": 9516,
        "start_time": 78.7746375,
        "end_tick": 9527,
        "end_time": 78.865696875,
        "length_ticks": 11,
        "length_time": 0.09105937500000039,
        "note": 39,
        "velocity": 127,
        "slice": 492,
        "channel": 3
      },
      {
        "start_tick": 9516,
        "start_time": 78.7746375,
        "end_tick": 9529,
        "end_time": 78.88225312499999,
        "length_ticks": 13,
        "length_time": 0.107615624999994,
        "note": 82,
        "velocity": 127,
        "slice": 492,
        "channel": 5
      }
    ],
    "9533": [
      {
        "start_tick": 9533,
        "start_time": 78.91536562499999,
        "end_tick": 9544,
        "end_time": 79.006425,
        "length_ticks": 11,
        "length_time": 0.09105937500000039,
        "note": 39,
        "velocity": 127,
        "slice": 493,
        "channel": 4
      }
    ],
    "9548": [
      {
        "start_tick": 9548,
        "start_time": 79.0395375,
        "end_tick": 9558,
        "end_time": 79.12231874999999,
        "length_ticks": 10,
        "length_time": 0.08278124999999648,
        "note": 72,
        "velocity": 127,
        "slice": 494,
        "channel": 2
      },
      {
        "start_tick": 9548,
        "start_time": 79.0395375,
        "end_tick": 9561,
        "end_time": 79.147153125,
        "length_ticks": 13,
        "length_time": 0.10761562500000821,
        "note": 81,
        "velocity": 127,
        "slice": 494,
        "channel": 5
      }
    ],
    "9564": [
      {
        "start_tick": 9564,
        "start_time": 79.1719875,
        "end_tick": 9628,
        "end_time": 79.7017875,
        "length_ticks": 64,
        "length_time": 0.5297999999999945,
        "note": 70,
        "velocity": 127,
        "slice": 495,
        "channel": 2
      },
      {
        "start_tick": 9564,
        "start_time": 79.1719875,
        "end_tick": 9575,
        "end_time": 79.263046875,
        "length_ticks": 11,
        "length_time": 0.09105937500000039,
        "note": 39,
        "velocity": 127,
        "slice": 495,
        "channel": 3
      },
      {
        "start_tick": 9564,
        "start_time": 79.1719875,
        "end_tick": 9619,
        "end_time": 79.627284375,
        "length_ticks": 55,
        "length_time": 0.45529687500000193,
        "note": 79,
        "velocity": 127,
        "slice": 495,
        "channel": 5
      }
    ],
    "9580": [
      {
        "start_tick": 9580,
        "start_time": 79.30443749999999,
        "end_tick": 9591,
        "end_time": 79.39549687499999,
        "length_ticks": 11,
        "length_time": 0.09105937500000039,
        "note": 43,
        "velocity": 127,
        "slice": 496,
        "channel": 3
      }
    ],
    "9581": [
      {
        "start_tick": 9581,
        "start_time": 79.312715625,
        "end_tick": 9592,
        "end_time": 79.403775,
        "length_ticks": 11,
        "length_time": 0.09105937500000039,
        "note": 39,
        "velocity": 127,
        "slice": 496,
        "channel": 4
      }
    ],
    "9596": [
      {
        "start_tick": 9596,
        "start_time": 79.4368875,
        "end_tick": 9607,
        "end_time": 79.527946875,
        "length_ticks": 11,
        "length_time": 0.09105937500000039,
        "note": 46,
        "velocity": 127,
        "slice": 496,
        "channel": 3
      }
    ],
    "9597": [
      {
        "start_tick": 9597,
        "start_time": 79.445165625,
        "end_tick": 9608,
        "end_time": 79.53622499999999,
        "length_ticks": 11,
        "length_time": 0.09105937499998618,
        "note": 43,
        "velocity": 127,
        "slice": 497,
        "channel": 4
      }
    ],
    "9612": [
      {
        "start_tick": 9612,
        "start_time": 79.5693375,
        "end_tick": 9623,
        "end_time": 79.66039687499999,
        "length_ticks": 11,
        "length_time": 0.09105937499998618,
        "note": 51,
        "velocity": 127,
        "slice": 497,
        "channel": 3
      }
    ],
    "9613": [
      {
        "start_tick": 9613,
        "start_time": 79.57761562499999,
        "end_tick": 9624,
        "end_time": 79.668675,
        "length_ticks": 11,
        "length_time": 0.09105937500000039,
        "note": 46,
        "velocity": 127,
        "slice": 497,
        "channel": 4
      }
    ],
    "9628": [
      {
        "start_tick": 9628,
        "start_time": 79.7017875,
        "end_tick": 9641,
        "end_time": 79.809403125,
        "length_ticks": 13,
        "length_time": 0.10761562500000821,
        "note": 74,
        "velocity": 127,
        "slice": 498,
        "channel": 5
      }
    ],
    "9629": [
      {
        "start_tick": 9629,
        "start_time": 79.710065625,
        "end_tick": 9640,
        "end_time": 79.801125,
        "length_ticks": 11,
        "length_time": 0.09105937500000039,
        "note": 51,
        "velocity": 127,
        "slice": 498,
        "channel": 4
      }
    ],
    "9644": [
      {
        "start_tick": 9644,
        "start_time": 79.8342375,
        "end_tick": 9657,
        "end_time": 79.941853125,
        "length_ticks": 13,
        "length_time": 0.107615624999994,
        "note": 74,
        "velocity": 127,
        "slice": 499,
        "channel": 5
      }
    ],
    "9660": [
      {
        "start_tick": 9660,
        "start_time": 79.96668749999999,
        "end_tick": 9671,
        "end_time": 80.05774687499999,
        "length_ticks": 11,
        "length_time": 0.09105937500000039,
        "note": 39,
        "velocity": 127,
        "slice": 500,
        "channel": 3
      },
      {
        "start_tick": 9660,
        "start_time": 79.96668749999999,
        "end_tick": 9673,
        "end_time": 80.074303125,
        "length_ticks": 13,
        "length_time": 0.10761562500000821,
        "note": 74,
        "velocity": 127,
        "slice": 500,
        "channel": 5
      }
    ],
    "9676": [
      {
        "start_tick": 9676,
        "start_time": 80.0991375,
        "end_tick": 9687,
        "end_time": 80.190196875,
        "length_ticks": 11,
        "length_time": 0.09105937500000039,
        "note": 39,
        "velocity": 127,
        "slice": 501,
        "channel": 3
      },
      {
        "start_tick": 9676,
        "start_time": 80.0991375,
        "end_tick": 9689,
        "end_time": 80.20675312499999,
        "length_ticks": 13,
        "length_time": 0.107615624999994,
        "note": 70,
        "velocity": 127,
        "slice": 501,
        "channel": 5
      }
    ],
    "9677": [
      {
        "start_tick": 9677,
        "start_time": 80.107415625,
        "end_tick": 9688,
        "end_time": 80.19847499999999,
        "length_ticks": 11,
        "length_time": 0.09105937499998618,
        "note": 39,
        "velocity": 127,
        "slice": 501,
        "channel": 4
      }
    ],
    "9692": [
      {
        "start_tick": 9692,
        "start_time": 80.2315875,
        "end_tick": 9703,
        "end_time": 80.32264687499999,
        "length_ticks": 11,
        "length_time": 0.09105937499998618,
        "note": 39,
        "velocity": 127,
        "slice": 501,
        "channel": 3
      },
      {
        "start_tick": 9692,
        "start_time": 80.2315875,
        "end_tick": 9705,
        "end_time": 80.339203125,
        "length_ticks": 13,
        "length_time": 0.107615624999994,
        "note": 79,
        "velocity": 127,
        "slice": 501,
        "channel": 5
      }
    ],
    "9693": [
      {
        "start_tick": 9693,
        "start_time": 80.239865625,
        "end_tick": 9704,
        "end_time": 80.330925,
        "length_ticks": 11,
        "length_time": 0.09105937500000039,
        "note": 39,
        "velocity": 127,
        "slice": 501,
        "channel": 4
      }
    ],
    "9708": [
      {
        "start_tick": 9708,
        "start_time": 80.3640375,
        "end_tick": 9718,
        "end_time": 80.44681874999999,
        "length_ticks": 10,
        "length_time": 0.08278124999999648,
        "note": 72,
        "velocity": 127,
        "slice": 502,
        "channel": 2
      },
      {
        "start_tick": 9708,
        "start_time": 80.3640375,
        "end_tick": 9719,
        "end_time": 80.455096875,
        "length_ticks": 11,
        "length_time": 0.09105937500000039,
        "note": 44,
        "velocity": 127,
        "slice": 502,
        "channel": 3
      },
      {
        "start_tick": 9708,
        "start_time": 80.3640375,
        "end_tick": 9721,
        "end_time": 80.471653125,
        "length_ticks": 13,
        "length_time": 0.10761562500000821,
        "note": 80,
        "velocity": 127,
        "slice": 502,
        "channel": 5
      }
    ],
    "9709": [
      {
        "start_tick": 9709,
        "start_time": 80.372315625,
        "end_tick": 9720,
        "end_time": 80.463375,
        "length_ticks": 11,
        "length_time": 0.09105937500000039,
        "note": 39,
        "velocity": 127,
        "slice": 502,
        "channel": 4
      }
    ],
    "9725": [
      {
        "start_tick": 9725,
        "start_time": 80.50476562499999,
        "end_tick": 9736,
        "end_time": 80.595825,
        "length_ticks": 11,
        "length_time": 0.0910593750000146,
        "note": 44,
        "velocity": 127,
        "slice": 503,
        "channel": 4
      }
    ],
    "9740": [
      {
        "start_tick": 9740,
        "start_time": 80.62893749999999,
        "end_tick": 9750,
        "end_time": 80.71171875,
        "length_ticks": 10,
        "length_time": 0.08278125000001069,
        "note": 75,
        "velocity": 127,
        "slice": 504,
        "channel": 2
      },
      {
        "start_tick": 9740,
        "start_time": 80.62893749999999,
        "end_tick": 9753,
        "end_time": 80.736553125,
        "length_ticks": 13,
        "length_time": 0.10761562500000821,
        "note": 82,
        "velocity": 127,
        "slice": 504,
        "channel": 5
      }
    ],
    "9756": [
      {
        "start_tick": 9756,
        "start_time": 80.7613875,
        "end_tick": 9852,
        "end_time": 81.5560875,
        "length_ticks": 96,
        "length_time": 0.794700000000006,
        "note": 80,
        "velocity": 127,
        "slice": 505,
        "channel": 2
      },
      {
        "start_tick": 9756,
        "start_time": 80.7613875,
        "end_tick": 9767,
        "end_time": 80.852446875,
        "length_ticks": 11,
        "length_time": 0.09105937500000039,
        "note": 44,
        "velocity": 127,
        "slice": 505,
        "channel": 3
      },
      {
        "start_tick": 9756,
        "start_time": 80.7613875,
        "end_tick": 9795,
        "end_time": 81.084234375,
        "length_ticks": 39,
        "length_time": 0.3228468749999962,
        "note": 84,
        "velocity": 127,
        "slice": 505,
        "channel": 5
      }
    ],
    "9772": [
      {
        "start_tick": 9772,
        "start_time": 80.8938375,
        "end_tick": 9783,
        "end_time": 80.98489687499999,
        "length_ticks": 11,
        "length_time": 0.09105937499998618,
        "note": 48,
        "velocity": 127,
        "slice": 506,
        "channel": 3
      }
    ],
    "9773": [
      {
        "start_tick": 9773,
        "start_time": 80.902115625,
        "end_tick": 9784,
        "end_time": 80.993175,
        "length_ticks": 11,
        "length_time": 0.09105937500000039,
        "note": 44,
        "velocity": 127,
        "slice": 506,
        "channel": 4
      }
    ],
    "9788": [
      {
        "start_tick": 9788,
        "start_time": 81.0262875,
        "end_tick": 9799,
        "end_time": 81.117346875,
        "length_ticks": 11,
        "length_time": 0.09105937500000039,
        "note": 51,
        "velocity": 127,
        "slice": 506,
        "channel": 3
      }
    ],
    "9789": [
      {
        "start_tick": 9789,
        "start_time": 81.034565625,
        "end_tick": 9800,
        "end_time": 81.125625,
        "length_ticks": 11,
        "length_time": 0.09105937500000039,
        "note": 48,
        "velocity": 127,
        "slice": 506,
        "channel": 4
      }
    ],
    "9804": [
      {
        "start_tick": 9804,
        "start_time": 81.15873749999999,
        "end_tick": 9815,
        "end_time": 81.249796875,
        "length_ticks": 11,
        "length_time": 0.0910593750000146,
        "note": 56,
        "velocity": 127,
        "slice": 507,
        "channel": 3
      }
    ],
    "9805": [
      {
        "start_tick": 9805,
        "start_time": 81.16701562499999,
        "end_tick": 9816,
        "end_time": 81.258075,
        "length_ticks": 11,
        "length_time": 0.0910593750000146,
        "note": 51,
        "velocity": 127,
        "slice": 507,
        "channel": 4
      }
    ],
    "9820": [
      {
        "start_tick": 9820,
        "start_time": 81.29118749999999,
        "end_tick": 9833,
        "end_time": 81.398803125,
        "length_ticks": 13,
        "length_time": 0.10761562500000821,
        "note": 84,
        "velocity": 127,
        "slice": 508,
        "channel": 5
      }
    ],
    "9821": [
      {
        "start_tick": 9821,
        "start_time": 81.299465625,
        "end_tick": 9832,
        "end_time": 81.390525,
        "length_ticks": 11,
        "length_time": 0.09105937500000039,
        "note": 56,
        "velocity": 127,
        "slice": 508,
        "channel": 4
      }
    ],
    "9836": [
      {
        "start_tick": 9836,
        "start_time": 81.4236375,
        "end_tick": 9849,
        "end_time": 81.53125312499999,
        "length_ticks": 13,
        "length_time": 0.107615624999994,
        "note": 86,
        "velocity": 127,
        "slice": 509,
        "channel": 5
      }
    ],
    "9852": [
      {
        "start_tick": 9852,
        "start_time": 81.5560875,
        "end_tick": 9863,
        "end_time": 81.64714687499999,
        "length_ticks": 11,
        "length_time": 0.09105937499998618,
        "note": 44,
        "velocity": 127,
        "slice": 510,
        "channel": 3
      },
      {
        "start_tick": 9852,
        "start_time": 81.5560875,
        "end_tick": 9865,
        "end_time": 81.663703125,
        "length_ticks": 13,
        "length_time": 0.107615624999994,
        "note": 87,
        "velocity": 127,
        "slice": 510,
        "channel": 5
      }
    ],
    "9868": [
      {
        "start_tick": 9868,
        "start_time": 81.6885375,
        "end_tick": 9879,
        "end_time": 81.779596875,
        "length_ticks": 11,
        "length_time": 0.09105937500000039,
        "note": 44,
        "velocity": 127,
        "slice": 511,
        "channel": 3
      },
      {
        "start_tick": 9868,
        "start_time": 81.6885375,
        "end_tick": 9881,
        "end_time": 81.796153125,
        "length_ticks": 13,
        "length_time": 0.10761562500000821,
        "note": 89,
        "velocity": 127,
        "slice": 511,
        "channel": 5
      }
    ],
    "9869": [
      {
        "start_tick": 9869,
        "start_time": 81.696815625,
        "end_tick": 9880,
        "end_time": 81.787875,
        "length_ticks": 11,
        "length_time": 0.09105937500000039,
        "note": 44,
        "velocity": 127,
        "slice": 511,
        "channel": 4
      }
    ],
    "9884": [
      {
        "start_tick": 9884,
        "start_time": 81.82098749999999,
        "end_tick": 9895,
        "end_time": 81.912046875,
        "length_ticks": 11,
        "length_time": 0.0910593750000146,
        "note": 44,
        "velocity": 127,
        "slice": 511,
        "channel": 3
      },
      {
        "start_tick": 9884,
        "start_time": 81.82098749999999,
        "end_tick": 9897,
        "end_time": 81.928603125,
        "length_ticks": 13,
        "length_time": 0.10761562500000821,
        "note": 87,
        "velocity": 127,
        "slice": 511,
        "channel": 5
      }
    ],
    "9885": [
      {
        "start_tick": 9885,
        "start_time": 81.82926562499999,
        "end_tick": 9896,
        "end_time": 81.920325,
        "length_ticks": 11,
        "length_time": 0.0910593750000146,
        "note": 44,
        "velocity": 127,
        "slice": 511,
        "channel": 4
      }
    ],
    "9900": [
      {
        "start_tick": 9900,
        "start_time": 81.95343749999999,
        "end_tick": 9918,
        "end_time": 82.10244374999999,
        "length_ticks": 18,
        "length_time": 0.14900624999999934,
        "note": 38,
        "velocity": 127,
        "slice": 512,
        "channel": 3
      },
      {
        "start_tick": 9900,
        "start_time": 81.95343749999999,
        "end_tick": 10074,
        "end_time": 83.39383124999999,
        "length_ticks": 174,
        "length_time": 1.4403937499999984,
        "note": 86,
        "velocity": 127,
        "slice": 512,
        "channel": 5
      }
    ],
    "9901": [
      {
        "start_tick": 9901,
        "start_time": 81.961715625,
        "end_tick": 9912,
        "end_time": 82.052775,
        "length_ticks": 11,
        "length_time": 0.09105937500000039,
        "note": 44,
        "velocity": 127,
        "slice": 512,
        "channel": 4
      }
    ],
    "9917": [
      {
        "start_tick": 9917,
        "start_time": 82.094165625,
        "end_tick": 9935,
        "end_time": 82.24317187499999,
        "length_ticks": 18,
        "length_time": 0.14900624999998513,
        "note": 38,
        "velocity": 127,
        "slice": 513,
        "channel": 4
      }
    ],
    "9948": [
      {
        "start_tick": 9948,
        "start_time": 82.3507875,
        "end_tick": 9958,
        "end_time": 82.43356874999999,
        "length_ticks": 10,
        "length_time": 0.08278124999999648,
        "note": 67,
        "velocity": 127,
        "slice": 515,
        "channel": 2
      },
      {
        "start_tick": 9948,
        "start_time": 82.3507875,
        "end_tick": 9959,
        "end_time": 82.441846875,
        "length_ticks": 11,
        "length_time": 0.09105937500000039,
        "note": 48,
        "velocity": 127,
        "slice": 515,
        "channel": 3
      }
    ],
    "9964": [
      {
        "start_tick": 9964,
        "start_time": 82.48323749999999,
        "end_tick": 9974,
        "end_time": 82.56601875,
        "length_ticks": 10,
        "length_time": 0.08278125000001069,
        "note": 67,
        "velocity": 127,
        "slice": 516,
        "channel": 2
      },
      {
        "start_tick": 9964,
        "start_time": 82.48323749999999,
        "end_tick": 9975,
        "end_time": 82.574296875,
        "length_ticks": 11,
        "length_time": 0.0910593750000146,
        "note": 48,
        "velocity": 127,
        "slice": 516,
        "channel": 3
      }
    ],
    "9965": [
      {
        "start_tick": 9965,
        "start_time": 82.49151562499999,
        "end_tick": 9976,
        "end_time": 82.58257499999999,
        "length_ticks": 11,
        "length_time": 0.09105937500000039,
        "note": 48,
        "velocity": 127,
        "slice": 516,
        "channel": 4
      }
    ],
    "9980": [
      {
        "start_tick": 9980,
        "start_time": 82.61568749999999,
        "end_tick": 9990,
        "end_time": 82.69846875,
        "length_ticks": 10,
        "length_time": 0.08278125000001069,
        "note": 67,
        "velocity": 127,
        "slice": 516,
        "channel": 2
      },
      {
        "start_tick": 9980,
        "start_time": 82.61568749999999,
        "end_tick": 9991,
        "end_time": 82.706746875,
        "length_ticks": 11,
        "length_time": 0.09105937500000039,
        "note": 48,
        "velocity": 127,
        "slice": 516,
        "channel": 3
      }
    ],
    "9981": [
      {
        "start_tick": 9981,
        "start_time": 82.623965625,
        "end_tick": 9992,
        "end_time": 82.715025,
        "length_ticks": 11,
        "length_time": 0.09105937500000039,
        "note": 48,
        "velocity": 127,
        "slice": 516,
        "channel": 4
      }
    ],
    "9996": [
      {
        "start_tick": 9996,
        "start_time": 82.7481375,
        "end_tick": 10038,
        "end_time": 83.09581874999999,
        "length_ticks": 42,
        "length_time": 0.3476812499999937,
        "note": 67,
        "velocity": 127,
        "slice": 517,
        "channel": 2
      },
      {
        "start_tick": 9996,
        "start_time": 82.7481375,
        "end_tick": 10007,
        "end_time": 82.839196875,
        "length_ticks": 11,
        "length_time": 0.09105937500000039,
        "note": 48,
        "velocity": 127,
        "slice": 517,
        "channel": 3
      }
    ],
    "9997": [
      {
        "start_tick": 9997,
        "start_time": 82.756415625,
        "end_tick": 10008,
        "end_time": 82.84747499999999,
        "length_ticks": 11,
        "length_time": 0.09105937499998618,
        "note": 48,
        "velocity": 127,
        "slice": 517,
        "channel": 4
      }
    ],
    "10013": [
      {
        "start_tick": 10013,
        "start_time": 82.888865625,
        "end_tick": 10024,
        "end_time": 82.979925,
        "length_ticks": 11,
        "length_time": 0.09105937500000039,
        "note": 48,
        "velocity": 127,
        "slice": 518,
        "channel": 4
      }
    ],
    "10044": [
      {
        "start_tick": 10044,
        "start_time": 83.14548749999999,
        "end_tick": 10055,
        "end_time": 83.236546875,
        "length_ticks": 11,
        "length_time": 0.0910593750000146,
        "note": 38,
        "velocity": 127,
        "slice": 520,
        "channel": 3
      }
    ],
    "10060": [
      {
        "start_tick": 10060,
        "start_time": 83.2779375,
        "end_tick": 10071,
        "end_time": 83.368996875,
        "length_ticks": 11,
        "length_time": 0.09105937500000039,
        "note": 38,
        "velocity": 127,
        "slice": 520,
        "channel": 3
      }
    ],
    "10061": [
      {
        "start_tick": 10061,
        "start_time": 83.286215625,
        "end_tick": 10072,
        "end_time": 83.377275,
        "length_ticks": 11,
        "length_time": 0.09105937500000039,
        "note": 38,
        "velocity": 127,
        "slice": 521,
        "channel": 4
      }
    ],
    "10076": [
      {
        "start_tick": 10076,
        "start_time": 83.4103875,
        "end_tick": 10087,
        "end_time": 83.501446875,
        "length_ticks": 11,
        "length_time": 0.09105937500000039,
        "note": 38,
        "velocity": 127,
        "slice": 521,
        "channel": 3
      }
    ],
    "10077": [
      {
        "start_tick": 10077,
        "start_time": 83.418665625,
        "end_tick": 10088,
        "end_time": 83.50972499999999,
        "length_ticks": 11,
        "length_time": 0.09105937499998618,
        "note": 38,
        "velocity": 127,
        "slice": 521,
        "channel": 4
      }
    ],
    "10092": [
      {
        "start_tick": 10092,
        "start_time": 83.5428375,
        "end_tick": 10103,
        "end_time": 83.63389687499999,
        "length_ticks": 11,
        "length_time": 0.09105937499998618,
        "note": 38,
        "velocity": 127,
        "slice": 522,
        "channel": 3
      }
    ],
    "10093": [
      {
        "start_tick": 10093,
        "start_time": 83.551115625,
        "end_tick": 10104,
        "end_time": 83.642175,
        "length_ticks": 11,
        "length_time": 0.09105937500000039,
        "note": 38,
        "velocity": 127,
        "slice": 522,
        "channel": 4
      }
    ],
    "10109": [
      {
        "start_tick": 10109,
        "start_time": 83.683565625,
        "end_tick": 10120,
        "end_time": 83.774625,
        "length_ticks": 11,
        "length_time": 0.09105937500000039,
        "note": 38,
        "velocity": 127,
        "slice": 523,
        "channel": 4
      }
    ],
    "10116": [
      {
        "start_tick": 10116,
        "start_time": 83.7415125,
        "end_tick": 10121,
        "end_time": 83.782903125,
        "length_ticks": 5,
        "length_time": 0.04139062500000534,
        "note": 74,
        "velocity": 127,
        "slice": 523,
        "channel": 5
      }
    ],
    "10124": [
      {
        "start_tick": 10124,
        "start_time": 83.80773749999999,
        "end_tick": 10129,
        "end_time": 83.849128125,
        "length_ticks": 5,
        "length_time": 0.04139062500000534,
        "note": 74,
        "velocity": 127,
        "slice": 524,
        "channel": 5
      }
    ],
    "10132": [
      {
        "start_tick": 10132,
        "start_time": 83.87396249999999,
        "end_tick": 10137,
        "end_time": 83.915353125,
        "length_ticks": 5,
        "length_time": 0.04139062500000534,
        "note": 74,
        "velocity": 127,
        "slice": 524,
        "channel": 5
      }
    ],
    "10140": [
      {
        "start_tick": 10140,
        "start_time": 83.9401875,
        "end_tick": 10150,
        "end_time": 84.02296875,
        "length_ticks": 10,
        "length_time": 0.08278125000001069,
        "note": 67,
        "velocity": 127,
        "slice": 525,
        "channel": 2
      },
      {
        "start_tick": 10140,
        "start_time": 83.9401875,
        "end_tick": 10153,
        "end_time": 84.04780312499999,
        "length_ticks": 13,
        "length_time": 0.107615624999994,
        "note": 76,
        "velocity": 127,
        "slice": 525,
        "channel": 5
      }
    ],
    "10156": [
      {
        "start_tick": 10156,
        "start_time": 84.0726375,
        "end_tick": 10166,
        "end_time": 84.15541875,
        "length_ticks": 10,
        "length_time": 0.08278124999999648,
        "note": 67,
        "velocity": 127,
        "slice": 525,
        "channel": 2
      },
      {
        "start_tick": 10156,
        "start_time": 84.0726375,
        "end_tick": 10169,
        "end_time": 84.180253125,
        "length_ticks": 13,
        "length_time": 0.107615624999994,
        "note": 76,
        "velocity": 127,
        "slice": 525,
        "channel": 5
      }
    ],
    "10172": [
      {
        "start_tick": 10172,
        "start_time": 84.2050875,
        "end_tick": 10182,
        "end_time": 84.28786874999999,
        "length_ticks": 10,
        "length_time": 0.08278124999998226,
        "note": 67,
        "velocity": 127,
        "slice": 526,
        "channel": 2
      },
      {
        "start_tick": 10172,
        "start_time": 84.2050875,
        "end_tick": 10185,
        "end_time": 84.312703125,
        "length_ticks": 13,
        "length_time": 0.107615624999994,
        "note": 76,
        "velocity": 127,
        "slice": 526,
        "channel": 5
      }
    ],
    "10188": [
      {
        "start_tick": 10188,
        "start_time": 84.3375375,
        "end_tick": 10218,
        "end_time": 84.58588125,
        "length_ticks": 30,
        "length_time": 0.24834375000000364,
        "note": 69,
        "velocity": 127,
        "slice": 527,
        "channel": 2
      },
      {
        "start_tick": 10188,
        "start_time": 84.3375375,
        "end_tick": 10227,
        "end_time": 84.66038437499999,
        "length_ticks": 39,
        "length_time": 0.3228468749999962,
        "note": 78,
        "velocity": 127,
        "slice": 527,
        "channel": 5
      }
    ],
    "10204": [
      {
        "start_tick": 10204,
        "start_time": 84.46998749999999,
        "end_tick": 10215,
        "end_time": 84.561046875,
        "length_ticks": 11,
        "length_time": 0.0910593750000146,
        "note": 51,
        "velocity": 127,
        "slice": 528,
        "channel": 3
      }
    ],
    "10220": [
      {
        "start_tick": 10220,
        "start_time": 84.6024375,
        "end_tick": 10231,
        "end_time": 84.693496875,
        "length_ticks": 11,
        "length_time": 0.09105937500000039,
        "note": 50,
        "velocity": 127,
        "slice": 529,
        "channel": 3
      }
    ],
    "10221": [
      {
        "start_tick": 10221,
        "start_time": 84.610715625,
        "end_tick": 10232,
        "end_time": 84.701775,
        "length_ticks": 11,
        "length_time": 0.09105937500000039,
        "note": 51,
        "velocity": 127,
        "slice": 529,
        "channel": 4
      }
    ],
    "10236": [
      {
        "start_tick": 10236,
        "start_time": 84.7348875,
        "end_tick": 10247,
        "end_time": 84.825946875,
        "length_ticks": 11,
        "length_time": 0.09105937500000039,
        "note": 48,
        "velocity": 127,
        "slice": 530,
        "channel": 3
      }
    ],
    "10237": [
      {
        "start_tick": 10237,
        "start_time": 84.743165625,
        "end_tick": 10248,
        "end_time": 84.83422499999999,
        "length_ticks": 11,
        "length_time": 0.09105937499998618,
        "note": 50,
        "velocity": 127,
        "slice": 530,
        "channel": 4
      }
    ],
    "10252": [
      {
        "start_tick": 10252,
        "start_time": 84.8673375,
        "end_tick": 10263,
        "end_time": 84.95839687499999,
        "length_ticks": 11,
        "length_time": 0.09105937499998618,
        "note": 46,
        "velocity": 127,
        "slice": 530,
        "channel": 3
      }
    ],
    "10253": [
      {
        "start_tick": 10253,
        "start_time": 84.875615625,
        "end_tick": 10264,
        "end_time": 84.966675,
        "length_ticks": 11,
        "length_time": 0.09105937500000039,
        "note": 48,
        "velocity": 127,
        "slice": 530,
        "channel": 4
      }
    ],
    "10268": [
      {
        "start_tick": 10268,
        "start_time": 84.9997875,
        "end_tick": 10279,
        "end_time": 85.090846875,
        "length_ticks": 11,
        "length_time": 0.09105937500000039,
        "note": 45,
        "velocity": 127,
        "slice": 531,
        "channel": 3
      }
    ],
    "10269": [
      {
        "start_tick": 10269,
        "start_time": 85.008065625,
        "end_tick": 10280,
        "end_time": 85.099125,
        "length_ticks": 11,
        "length_time": 0.09105937500000039,
        "note": 46,
        "velocity": 127,
        "slice": 531,
        "channel": 4
      }
    ],
    "10284": [
      {
        "start_tick": 10284,
        "start_time": 85.13223749999999,
        "end_tick": 10310,
        "end_time": 85.34746875,
        "length_ticks": 26,
        "length_time": 0.21523125000001642,
        "note": 67,
        "velocity": 127,
        "slice": 532,
        "channel": 1
      },
      {
        "start_tick": 10284,
        "start_time": 85.13223749999999,
        "end_tick": 10297,
        "end_time": 85.239853125,
        "length_ticks": 13,
        "length_time": 0.10761562500000821,
        "note": 43,
        "velocity": 127,
        "slice": 532,
        "channel": 3
      }
    ],
    "10285": [
      {
        "start_tick": 10285,
        "start_time": 85.14051562499999,
        "end_tick": 10296,
        "end_time": 85.23157499999999,
        "length_ticks": 11,
        "length_time": 0.09105937500000039,
        "note": 45,
        "velocity": 127,
        "slice": 532,
        "channel": 4
      }
    ],
    "10301": [
      {
        "start_tick": 10301,
        "start_time": 85.272965625,
        "end_tick": 10314,
        "end_time": 85.38058124999999,
        "length_ticks": 13,
        "length_time": 0.107615624999994,
        "note": 43,
        "velocity": 127,
        "slice": 533,
        "channel": 4
      }
    ]
  },
  "channel_metadata": {
    "1": {
      "program": 80,
      "mute_track": 1,
      "play_track": 1
    },
    "2": {
      "program": 80,
      "mute_track": 1,
      "play_track": 1
    },
    "3": {
      "program": 80,
      "mute_track": 0,
      "play_track": 1
    },
    "4": {
      "program": 80,
      "mute_track": 0,
      "play_track": 1
    },
    "5": {
      "program": 81,
      "mute_track": 0,
      "play_track": 1
    },
    "6": {
      "program": 81,
      "mute_track": 0,
      "play_track": 1
    },
    "7": {
      "program": 0,
      "mute_track": 0,
      "play_track": 0
    },
    "0": {
      "program": 0,
      "mute_track": 0,
      "play_track": 0
    },
    "8": {
      "program": 0,
      "mute_track": 0,
      "play_track": 0
    },
    "9": {
      "program": 0,
      "mute_track": 0,
      "play_track": 0
    },
    "10": {
      "program": 0,
      "mute_track": 0,
      "play_track": 0
    },
    "11": {
      "program": 0,
      "mute_track": 0,
      "play_track": 0
    },
    "12": {
      "program": 0,
      "mute_track": 0,
      "play_track": 0
    },
    "13": {
      "program": 0,
      "mute_track": 0,
      "play_track": 0
    },
    "14": {
      "program": 0,
      "mute_track": 0,
      "play_track": 0
    },
    "15": {
      "program": 0,
      "mute_track": 0,
      "play_track": 0
    }
  },
  "tempo_changes": [
    {
      "tick": 0,
      "tempo": 397350,
      "time": 0.0
    }
  ],
  "metadata": {
    "ticks_per_beat": 48,
    "type": 1,
    "length_seconds": 131.0261624999995,
    "track_count": 9,
    "bpm": 151.00037750094376
  }
}